<?xml version="1.0" encoding="utf-8" standalone="no"?>
<!DOCTYPE svg PUBLIC "-//W3C//DTD SVG 1.1//EN"
  "http://www.w3.org/Graphics/SVG/1.1/DTD/svg11.dtd">
<svg xmlns:xlink="http://www.w3.org/1999/xlink" width="412.36pt" height="304.7305pt" viewBox="0 0 412.36 304.7305" xmlns="http://www.w3.org/2000/svg" version="1.1">
 <metadata>
  <rdf:RDF xmlns:dc="http://purl.org/dc/elements/1.1/" xmlns:cc="http://creativecommons.org/ns#" xmlns:rdf="http://www.w3.org/1999/02/22-rdf-syntax-ns#">
   <cc:Work>
    <dc:type rdf:resource="http://purl.org/dc/dcmitype/StillImage"/>
    <dc:date>2026-06-27T14:53:39.675220</dc:date>
    <dc:format>image/svg+xml</dc:format>
    <dc:creator>
     <cc:Agent>
      <dc:title>Matplotlib v3.10.1, https://matplotlib.org/</dc:title>
     </cc:Agent>
    </dc:creator>
   </cc:Work>
  </rdf:RDF>
 </metadata>
 <defs>
  <style type="text/css">*{stroke-linejoin: round; stroke-linecap: butt}</style>
 </defs>
 <g id="figure_1">
  <g id="patch_1">
   <path d="M 0 304.7305 
L 412.36 304.7305 
L 412.36 0 
L 0 0 
L 0 304.7305 
z
" style="fill: none"/>
  </g>
  <g id="axes_1">
   <g id="patch_2">
    <path d="M 59.9075 256.883 
L 405.16 256.883 
L 405.16 26.943 
L 59.9075 26.943 
L 59.9075 256.883 
z
" style="fill: none"/>
   </g>
   <g id="matplotlib.axis_1">
    <g id="xtick_1">
     <g id="line2d_1">
      <defs>
       <path id="mb8f2bf29c7" d="M 0 0 
L 0 3.5 
" style="stroke: #000000; stroke-width: 0.8"/>
      </defs>
      <g>
       <use xlink:href="#mb8f2bf29c7" x="59.9075" y="256.883" style="stroke: #000000; stroke-width: 0.8"/>
      </g>
     </g>
     <g id="text_1">
      <!-- 10 -->
      <g transform="translate(51.01 275.3355) scale(0.16 -0.16)">
       <defs>
        <path id="ArialMT-31" d="M 2384 0 
L 1822 0 
L 1822 3584 
Q 1619 3391 1289 3197 
Q 959 3003 697 2906 
L 697 3450 
Q 1169 3672 1522 3987 
Q 1875 4303 2022 4600 
L 2384 4600 
L 2384 0 
z
" transform="scale(0.015625)"/>
        <path id="ArialMT-30" d="M 266 2259 
Q 266 3072 433 3567 
Q 600 4063 929 4331 
Q 1259 4600 1759 4600 
Q 2128 4600 2406 4451 
Q 2684 4303 2865 4023 
Q 3047 3744 3150 3342 
Q 3253 2941 3253 2259 
Q 3253 1453 3087 958 
Q 2922 463 2592 192 
Q 2263 -78 1759 -78 
Q 1097 -78 719 397 
Q 266 969 266 2259 
z
M 844 2259 
Q 844 1131 1108 757 
Q 1372 384 1759 384 
Q 2147 384 2411 759 
Q 2675 1134 2675 2259 
Q 2675 3391 2411 3762 
Q 2147 4134 1753 4134 
Q 1366 4134 1134 3806 
Q 844 3388 844 2259 
z
" transform="scale(0.015625)"/>
       </defs>
       <use xlink:href="#ArialMT-31"/>
       <use xlink:href="#ArialMT-30" transform="translate(55.615234 0)"/>
      </g>
     </g>
    </g>
    <g id="xtick_2">
     <g id="line2d_2">
      <g>
       <use xlink:href="#mb8f2bf29c7" x="107.528534" y="256.883" style="stroke: #000000; stroke-width: 0.8"/>
      </g>
     </g>
     <g id="text_2">
      <!-- 20 -->
      <g transform="translate(98.631034 275.3355) scale(0.16 -0.16)">
       <defs>
        <path id="ArialMT-32" d="M 3222 541 
L 3222 0 
L 194 0 
Q 188 203 259 391 
Q 375 700 629 1000 
Q 884 1300 1366 1694 
Q 2113 2306 2375 2664 
Q 2638 3022 2638 3341 
Q 2638 3675 2398 3904 
Q 2159 4134 1775 4134 
Q 1369 4134 1125 3890 
Q 881 3647 878 3216 
L 300 3275 
Q 359 3922 746 4261 
Q 1134 4600 1788 4600 
Q 2447 4600 2831 4234 
Q 3216 3869 3216 3328 
Q 3216 3053 3103 2787 
Q 2991 2522 2730 2228 
Q 2469 1934 1863 1422 
Q 1356 997 1212 845 
Q 1069 694 975 541 
L 3222 541 
z
" transform="scale(0.015625)"/>
       </defs>
       <use xlink:href="#ArialMT-32"/>
       <use xlink:href="#ArialMT-30" transform="translate(55.615234 0)"/>
      </g>
     </g>
    </g>
    <g id="xtick_3">
     <g id="line2d_3">
      <g>
       <use xlink:href="#mb8f2bf29c7" x="155.149569" y="256.883" style="stroke: #000000; stroke-width: 0.8"/>
      </g>
     </g>
     <g id="text_3">
      <!-- 30 -->
      <g transform="translate(146.252069 275.3355) scale(0.16 -0.16)">
       <defs>
        <path id="ArialMT-33" d="M 269 1209 
L 831 1284 
Q 928 806 1161 595 
Q 1394 384 1728 384 
Q 2125 384 2398 659 
Q 2672 934 2672 1341 
Q 2672 1728 2419 1979 
Q 2166 2231 1775 2231 
Q 1616 2231 1378 2169 
L 1441 2663 
Q 1497 2656 1531 2656 
Q 1891 2656 2178 2843 
Q 2466 3031 2466 3422 
Q 2466 3731 2256 3934 
Q 2047 4138 1716 4138 
Q 1388 4138 1169 3931 
Q 950 3725 888 3313 
L 325 3413 
Q 428 3978 793 4289 
Q 1159 4600 1703 4600 
Q 2078 4600 2393 4439 
Q 2709 4278 2876 4000 
Q 3044 3722 3044 3409 
Q 3044 3113 2884 2869 
Q 2725 2625 2413 2481 
Q 2819 2388 3044 2092 
Q 3269 1797 3269 1353 
Q 3269 753 2831 336 
Q 2394 -81 1725 -81 
Q 1122 -81 723 278 
Q 325 638 269 1209 
z
" transform="scale(0.015625)"/>
       </defs>
       <use xlink:href="#ArialMT-33"/>
       <use xlink:href="#ArialMT-30" transform="translate(55.615234 0)"/>
      </g>
     </g>
    </g>
    <g id="xtick_4">
     <g id="line2d_4">
      <g>
       <use xlink:href="#mb8f2bf29c7" x="202.770603" y="256.883" style="stroke: #000000; stroke-width: 0.8"/>
      </g>
     </g>
     <g id="text_4">
      <!-- 40 -->
      <g transform="translate(193.873103 275.3355) scale(0.16 -0.16)">
       <defs>
        <path id="ArialMT-34" d="M 2069 0 
L 2069 1097 
L 81 1097 
L 81 1613 
L 2172 4581 
L 2631 4581 
L 2631 1613 
L 3250 1613 
L 3250 1097 
L 2631 1097 
L 2631 0 
L 2069 0 
z
M 2069 1613 
L 2069 3678 
L 634 1613 
L 2069 1613 
z
" transform="scale(0.015625)"/>
       </defs>
       <use xlink:href="#ArialMT-34"/>
       <use xlink:href="#ArialMT-30" transform="translate(55.615234 0)"/>
      </g>
     </g>
    </g>
    <g id="xtick_5">
     <g id="line2d_5">
      <g>
       <use xlink:href="#mb8f2bf29c7" x="250.391638" y="256.883" style="stroke: #000000; stroke-width: 0.8"/>
      </g>
     </g>
     <g id="text_5">
      <!-- 50 -->
      <g transform="translate(241.494138 275.3355) scale(0.16 -0.16)">
       <defs>
        <path id="ArialMT-35" d="M 266 1200 
L 856 1250 
Q 922 819 1161 601 
Q 1400 384 1738 384 
Q 2144 384 2425 690 
Q 2706 997 2706 1503 
Q 2706 1984 2436 2262 
Q 2166 2541 1728 2541 
Q 1456 2541 1237 2417 
Q 1019 2294 894 2097 
L 366 2166 
L 809 4519 
L 3088 4519 
L 3088 3981 
L 1259 3981 
L 1013 2750 
Q 1425 3038 1878 3038 
Q 2478 3038 2890 2622 
Q 3303 2206 3303 1553 
Q 3303 931 2941 478 
Q 2500 -78 1738 -78 
Q 1113 -78 717 272 
Q 322 622 266 1200 
z
" transform="scale(0.015625)"/>
       </defs>
       <use xlink:href="#ArialMT-35"/>
       <use xlink:href="#ArialMT-30" transform="translate(55.615234 0)"/>
      </g>
     </g>
    </g>
    <g id="xtick_6">
     <g id="line2d_6">
      <g>
       <use xlink:href="#mb8f2bf29c7" x="298.012672" y="256.883" style="stroke: #000000; stroke-width: 0.8"/>
      </g>
     </g>
     <g id="text_6">
      <!-- 60 -->
      <g transform="translate(289.115172 275.3355) scale(0.16 -0.16)">
       <defs>
        <path id="ArialMT-36" d="M 3184 3459 
L 2625 3416 
Q 2550 3747 2413 3897 
Q 2184 4138 1850 4138 
Q 1581 4138 1378 3988 
Q 1113 3794 959 3422 
Q 806 3050 800 2363 
Q 1003 2672 1297 2822 
Q 1591 2972 1913 2972 
Q 2475 2972 2870 2558 
Q 3266 2144 3266 1488 
Q 3266 1056 3080 686 
Q 2894 316 2569 119 
Q 2244 -78 1831 -78 
Q 1128 -78 684 439 
Q 241 956 241 2144 
Q 241 3472 731 4075 
Q 1159 4600 1884 4600 
Q 2425 4600 2770 4297 
Q 3116 3994 3184 3459 
z
M 888 1484 
Q 888 1194 1011 928 
Q 1134 663 1356 523 
Q 1578 384 1822 384 
Q 2178 384 2434 671 
Q 2691 959 2691 1453 
Q 2691 1928 2437 2201 
Q 2184 2475 1800 2475 
Q 1419 2475 1153 2201 
Q 888 1928 888 1484 
z
" transform="scale(0.015625)"/>
       </defs>
       <use xlink:href="#ArialMT-36"/>
       <use xlink:href="#ArialMT-30" transform="translate(55.615234 0)"/>
      </g>
     </g>
    </g>
    <g id="xtick_7">
     <g id="line2d_7">
      <g>
       <use xlink:href="#mb8f2bf29c7" x="345.633707" y="256.883" style="stroke: #000000; stroke-width: 0.8"/>
      </g>
     </g>
     <g id="text_7">
      <!-- 70 -->
      <g transform="translate(336.736207 275.3355) scale(0.16 -0.16)">
       <defs>
        <path id="ArialMT-37" d="M 303 3981 
L 303 4522 
L 3269 4522 
L 3269 4084 
Q 2831 3619 2401 2847 
Q 1972 2075 1738 1259 
Q 1569 684 1522 0 
L 944 0 
Q 953 541 1156 1306 
Q 1359 2072 1739 2783 
Q 2119 3494 2547 3981 
L 303 3981 
z
" transform="scale(0.015625)"/>
       </defs>
       <use xlink:href="#ArialMT-37"/>
       <use xlink:href="#ArialMT-30" transform="translate(55.615234 0)"/>
      </g>
     </g>
    </g>
    <g id="xtick_8">
     <g id="line2d_8">
      <g>
       <use xlink:href="#mb8f2bf29c7" x="393.254741" y="256.883" style="stroke: #000000; stroke-width: 0.8"/>
      </g>
     </g>
     <g id="text_8">
      <!-- 80 -->
      <g transform="translate(384.357241 275.3355) scale(0.16 -0.16)">
       <defs>
        <path id="ArialMT-38" d="M 1131 2484 
Q 781 2613 612 2850 
Q 444 3088 444 3419 
Q 444 3919 803 4259 
Q 1163 4600 1759 4600 
Q 2359 4600 2725 4251 
Q 3091 3903 3091 3403 
Q 3091 3084 2923 2848 
Q 2756 2613 2416 2484 
Q 2838 2347 3058 2040 
Q 3278 1734 3278 1309 
Q 3278 722 2862 322 
Q 2447 -78 1769 -78 
Q 1091 -78 675 323 
Q 259 725 259 1325 
Q 259 1772 486 2073 
Q 713 2375 1131 2484 
z
M 1019 3438 
Q 1019 3113 1228 2906 
Q 1438 2700 1772 2700 
Q 2097 2700 2305 2904 
Q 2513 3109 2513 3406 
Q 2513 3716 2298 3927 
Q 2084 4138 1766 4138 
Q 1444 4138 1231 3931 
Q 1019 3725 1019 3438 
z
M 838 1322 
Q 838 1081 952 856 
Q 1066 631 1291 507 
Q 1516 384 1775 384 
Q 2178 384 2440 643 
Q 2703 903 2703 1303 
Q 2703 1709 2433 1975 
Q 2163 2241 1756 2241 
Q 1359 2241 1098 1978 
Q 838 1716 838 1322 
z
" transform="scale(0.015625)"/>
       </defs>
       <use xlink:href="#ArialMT-38"/>
       <use xlink:href="#ArialMT-30" transform="translate(55.615234 0)"/>
      </g>
     </g>
    </g>
    <g id="text_9">
     <!-- Sound Level (dB) -->
     <g transform="translate(170.72125 294.163) scale(0.16 -0.16)">
      <defs>
       <path id="ArialMT-53" d="M 288 1472 
L 859 1522 
Q 900 1178 1048 958 
Q 1197 738 1509 602 
Q 1822 466 2213 466 
Q 2559 466 2825 569 
Q 3091 672 3220 851 
Q 3350 1031 3350 1244 
Q 3350 1459 3225 1620 
Q 3100 1781 2813 1891 
Q 2628 1963 1997 2114 
Q 1366 2266 1113 2400 
Q 784 2572 623 2826 
Q 463 3081 463 3397 
Q 463 3744 659 4045 
Q 856 4347 1234 4503 
Q 1613 4659 2075 4659 
Q 2584 4659 2973 4495 
Q 3363 4331 3572 4012 
Q 3781 3694 3797 3291 
L 3216 3247 
Q 3169 3681 2898 3903 
Q 2628 4125 2100 4125 
Q 1550 4125 1298 3923 
Q 1047 3722 1047 3438 
Q 1047 3191 1225 3031 
Q 1400 2872 2139 2705 
Q 2878 2538 3153 2413 
Q 3553 2228 3743 1945 
Q 3934 1663 3934 1294 
Q 3934 928 3725 604 
Q 3516 281 3123 101 
Q 2731 -78 2241 -78 
Q 1619 -78 1198 103 
Q 778 284 539 648 
Q 300 1013 288 1472 
z
" transform="scale(0.015625)"/>
       <path id="ArialMT-6f" d="M 213 1659 
Q 213 2581 725 3025 
Q 1153 3394 1769 3394 
Q 2453 3394 2887 2945 
Q 3322 2497 3322 1706 
Q 3322 1066 3130 698 
Q 2938 331 2570 128 
Q 2203 -75 1769 -75 
Q 1072 -75 642 372 
Q 213 819 213 1659 
z
M 791 1659 
Q 791 1022 1069 705 
Q 1347 388 1769 388 
Q 2188 388 2466 706 
Q 2744 1025 2744 1678 
Q 2744 2294 2464 2611 
Q 2184 2928 1769 2928 
Q 1347 2928 1069 2612 
Q 791 2297 791 1659 
z
" transform="scale(0.015625)"/>
       <path id="ArialMT-75" d="M 2597 0 
L 2597 488 
Q 2209 -75 1544 -75 
Q 1250 -75 995 37 
Q 741 150 617 320 
Q 494 491 444 738 
Q 409 903 409 1263 
L 409 3319 
L 972 3319 
L 972 1478 
Q 972 1038 1006 884 
Q 1059 663 1231 536 
Q 1403 409 1656 409 
Q 1909 409 2131 539 
Q 2353 669 2445 892 
Q 2538 1116 2538 1541 
L 2538 3319 
L 3100 3319 
L 3100 0 
L 2597 0 
z
" transform="scale(0.015625)"/>
       <path id="ArialMT-6e" d="M 422 0 
L 422 3319 
L 928 3319 
L 928 2847 
Q 1294 3394 1984 3394 
Q 2284 3394 2536 3286 
Q 2788 3178 2913 3003 
Q 3038 2828 3088 2588 
Q 3119 2431 3119 2041 
L 3119 0 
L 2556 0 
L 2556 2019 
Q 2556 2363 2490 2533 
Q 2425 2703 2258 2804 
Q 2091 2906 1866 2906 
Q 1506 2906 1245 2678 
Q 984 2450 984 1813 
L 984 0 
L 422 0 
z
" transform="scale(0.015625)"/>
       <path id="ArialMT-64" d="M 2575 0 
L 2575 419 
Q 2259 -75 1647 -75 
Q 1250 -75 917 144 
Q 584 363 401 755 
Q 219 1147 219 1656 
Q 219 2153 384 2558 
Q 550 2963 881 3178 
Q 1213 3394 1622 3394 
Q 1922 3394 2156 3267 
Q 2391 3141 2538 2938 
L 2538 4581 
L 3097 4581 
L 3097 0 
L 2575 0 
z
M 797 1656 
Q 797 1019 1065 703 
Q 1334 388 1700 388 
Q 2069 388 2326 689 
Q 2584 991 2584 1609 
Q 2584 2291 2321 2609 
Q 2059 2928 1675 2928 
Q 1300 2928 1048 2622 
Q 797 2316 797 1656 
z
" transform="scale(0.015625)"/>
       <path id="ArialMT-20" transform="scale(0.015625)"/>
       <path id="ArialMT-4c" d="M 469 0 
L 469 4581 
L 1075 4581 
L 1075 541 
L 3331 541 
L 3331 0 
L 469 0 
z
" transform="scale(0.015625)"/>
       <path id="ArialMT-65" d="M 2694 1069 
L 3275 997 
Q 3138 488 2766 206 
Q 2394 -75 1816 -75 
Q 1088 -75 661 373 
Q 234 822 234 1631 
Q 234 2469 665 2931 
Q 1097 3394 1784 3394 
Q 2450 3394 2872 2941 
Q 3294 2488 3294 1666 
Q 3294 1616 3291 1516 
L 816 1516 
Q 847 969 1125 678 
Q 1403 388 1819 388 
Q 2128 388 2347 550 
Q 2566 713 2694 1069 
z
M 847 1978 
L 2700 1978 
Q 2663 2397 2488 2606 
Q 2219 2931 1791 2931 
Q 1403 2931 1139 2672 
Q 875 2413 847 1978 
z
" transform="scale(0.015625)"/>
       <path id="ArialMT-76" d="M 1344 0 
L 81 3319 
L 675 3319 
L 1388 1331 
Q 1503 1009 1600 663 
Q 1675 925 1809 1294 
L 2547 3319 
L 3125 3319 
L 1869 0 
L 1344 0 
z
" transform="scale(0.015625)"/>
       <path id="ArialMT-6c" d="M 409 0 
L 409 4581 
L 972 4581 
L 972 0 
L 409 0 
z
" transform="scale(0.015625)"/>
       <path id="ArialMT-28" d="M 1497 -1347 
Q 1031 -759 709 28 
Q 388 816 388 1659 
Q 388 2403 628 3084 
Q 909 3875 1497 4659 
L 1900 4659 
Q 1522 4009 1400 3731 
Q 1209 3300 1100 2831 
Q 966 2247 966 1656 
Q 966 153 1900 -1347 
L 1497 -1347 
z
" transform="scale(0.015625)"/>
       <path id="ArialMT-42" d="M 469 0 
L 469 4581 
L 2188 4581 
Q 2713 4581 3030 4442 
Q 3347 4303 3526 4014 
Q 3706 3725 3706 3409 
Q 3706 3116 3547 2856 
Q 3388 2597 3066 2438 
Q 3481 2316 3704 2022 
Q 3928 1728 3928 1328 
Q 3928 1006 3792 729 
Q 3656 453 3456 303 
Q 3256 153 2954 76 
Q 2653 0 2216 0 
L 469 0 
z
M 1075 2656 
L 2066 2656 
Q 2469 2656 2644 2709 
Q 2875 2778 2992 2937 
Q 3109 3097 3109 3338 
Q 3109 3566 3000 3739 
Q 2891 3913 2687 3977 
Q 2484 4041 1991 4041 
L 1075 4041 
L 1075 2656 
z
M 1075 541 
L 2216 541 
Q 2509 541 2628 563 
Q 2838 600 2978 687 
Q 3119 775 3209 942 
Q 3300 1109 3300 1328 
Q 3300 1584 3169 1773 
Q 3038 1963 2805 2039 
Q 2572 2116 2134 2116 
L 1075 2116 
L 1075 541 
z
" transform="scale(0.015625)"/>
       <path id="ArialMT-29" d="M 791 -1347 
L 388 -1347 
Q 1322 153 1322 1656 
Q 1322 2244 1188 2822 
Q 1081 3291 891 3722 
Q 769 4003 388 4659 
L 791 4659 
Q 1378 3875 1659 3084 
Q 1900 2403 1900 1659 
Q 1900 816 1576 28 
Q 1253 -759 791 -1347 
z
" transform="scale(0.015625)"/>
      </defs>
      <use xlink:href="#ArialMT-53"/>
      <use xlink:href="#ArialMT-6f" transform="translate(66.699219 0)"/>
      <use xlink:href="#ArialMT-75" transform="translate(122.314453 0)"/>
      <use xlink:href="#ArialMT-6e" transform="translate(177.929688 0)"/>
      <use xlink:href="#ArialMT-64" transform="translate(233.544922 0)"/>
      <use xlink:href="#ArialMT-20" transform="translate(289.160156 0)"/>
      <use xlink:href="#ArialMT-4c" transform="translate(316.943359 0)"/>
      <use xlink:href="#ArialMT-65" transform="translate(372.558594 0)"/>
      <use xlink:href="#ArialMT-76" transform="translate(428.173828 0)"/>
      <use xlink:href="#ArialMT-65" transform="translate(478.173828 0)"/>
      <use xlink:href="#ArialMT-6c" transform="translate(533.789062 0)"/>
      <use xlink:href="#ArialMT-20" transform="translate(556.005859 0)"/>
      <use xlink:href="#ArialMT-28" transform="translate(583.789062 0)"/>
      <use xlink:href="#ArialMT-64" transform="translate(617.089844 0)"/>
      <use xlink:href="#ArialMT-42" transform="translate(672.705078 0)"/>
      <use xlink:href="#ArialMT-29" transform="translate(739.404297 0)"/>
     </g>
    </g>
   </g>
   <g id="matplotlib.axis_2">
    <g id="ytick_1">
     <g id="line2d_9">
      <defs>
       <path id="mac74b4469e" d="M 0 0 
L -3.5 0 
" style="stroke: #000000; stroke-width: 0.8"/>
      </defs>
      <g>
       <use xlink:href="#mac74b4469e" x="59.9075" y="222.14196" style="stroke: #000000; stroke-width: 0.8"/>
      </g>
     </g>
     <g id="text_10">
      <!-- 95 -->
      <g transform="translate(35.1125 227.86821) scale(0.16 -0.16)">
       <defs>
        <path id="ArialMT-39" d="M 350 1059 
L 891 1109 
Q 959 728 1153 556 
Q 1347 384 1650 384 
Q 1909 384 2104 503 
Q 2300 622 2425 820 
Q 2550 1019 2634 1356 
Q 2719 1694 2719 2044 
Q 2719 2081 2716 2156 
Q 2547 1888 2255 1720 
Q 1963 1553 1622 1553 
Q 1053 1553 659 1965 
Q 266 2378 266 3053 
Q 266 3750 677 4175 
Q 1088 4600 1706 4600 
Q 2153 4600 2523 4359 
Q 2894 4119 3086 3673 
Q 3278 3228 3278 2384 
Q 3278 1506 3087 986 
Q 2897 466 2520 194 
Q 2144 -78 1638 -78 
Q 1100 -78 759 220 
Q 419 519 350 1059 
z
M 2653 3081 
Q 2653 3566 2395 3850 
Q 2138 4134 1775 4134 
Q 1400 4134 1122 3828 
Q 844 3522 844 3034 
Q 844 2597 1108 2323 
Q 1372 2050 1759 2050 
Q 2150 2050 2401 2323 
Q 2653 2597 2653 3081 
z
" transform="scale(0.015625)"/>
       </defs>
       <use xlink:href="#ArialMT-39"/>
       <use xlink:href="#ArialMT-35" transform="translate(55.615234 0)"/>
      </g>
     </g>
    </g>
    <g id="ytick_2">
     <g id="line2d_10">
      <g>
       <use xlink:href="#mac74b4469e" x="59.9075" y="185.361139" style="stroke: #000000; stroke-width: 0.8"/>
      </g>
     </g>
     <g id="text_11">
      <!-- 96 -->
      <g transform="translate(35.1125 191.087389) scale(0.16 -0.16)">
       <use xlink:href="#ArialMT-39"/>
       <use xlink:href="#ArialMT-36" transform="translate(55.615234 0)"/>
      </g>
     </g>
    </g>
    <g id="ytick_3">
     <g id="line2d_11">
      <g>
       <use xlink:href="#mac74b4469e" x="59.9075" y="148.580319" style="stroke: #000000; stroke-width: 0.8"/>
      </g>
     </g>
     <g id="text_12">
      <!-- 97 -->
      <g transform="translate(35.1125 154.306569) scale(0.16 -0.16)">
       <use xlink:href="#ArialMT-39"/>
       <use xlink:href="#ArialMT-37" transform="translate(55.615234 0)"/>
      </g>
     </g>
    </g>
    <g id="ytick_4">
     <g id="line2d_12">
      <g>
       <use xlink:href="#mac74b4469e" x="59.9075" y="111.799498" style="stroke: #000000; stroke-width: 0.8"/>
      </g>
     </g>
     <g id="text_13">
      <!-- 98 -->
      <g transform="translate(35.1125 117.525748) scale(0.16 -0.16)">
       <use xlink:href="#ArialMT-39"/>
       <use xlink:href="#ArialMT-38" transform="translate(55.615234 0)"/>
      </g>
     </g>
    </g>
    <g id="ytick_5">
     <g id="line2d_13">
      <g>
       <use xlink:href="#mac74b4469e" x="59.9075" y="75.018677" style="stroke: #000000; stroke-width: 0.8"/>
      </g>
     </g>
     <g id="text_14">
      <!-- 99 -->
      <g transform="translate(35.1125 80.744927) scale(0.16 -0.16)">
       <use xlink:href="#ArialMT-39"/>
       <use xlink:href="#ArialMT-39" transform="translate(55.615234 0)"/>
      </g>
     </g>
    </g>
    <g id="ytick_6">
     <g id="line2d_14">
      <g>
       <use xlink:href="#mac74b4469e" x="59.9075" y="38.237856" style="stroke: #000000; stroke-width: 0.8"/>
      </g>
     </g>
     <g id="text_15">
      <!-- 100 -->
      <g transform="translate(26.215 43.964106) scale(0.16 -0.16)">
       <use xlink:href="#ArialMT-31"/>
       <use xlink:href="#ArialMT-30" transform="translate(55.615234 0)"/>
       <use xlink:href="#ArialMT-30" transform="translate(111.230469 0)"/>
      </g>
     </g>
    </g>
    <g id="text_16">
     <!-- Accuracy (%) -->
     <g transform="translate(18.8475 189.47425) rotate(-90) scale(0.16 -0.16)">
      <defs>
       <path id="ArialMT-41" d="M -9 0 
L 1750 4581 
L 2403 4581 
L 4278 0 
L 3588 0 
L 3053 1388 
L 1138 1388 
L 634 0 
L -9 0 
z
M 1313 1881 
L 2866 1881 
L 2388 3150 
Q 2169 3728 2063 4100 
Q 1975 3659 1816 3225 
L 1313 1881 
z
" transform="scale(0.015625)"/>
       <path id="ArialMT-63" d="M 2588 1216 
L 3141 1144 
Q 3050 572 2676 248 
Q 2303 -75 1759 -75 
Q 1078 -75 664 370 
Q 250 816 250 1647 
Q 250 2184 428 2587 
Q 606 2991 970 3192 
Q 1334 3394 1763 3394 
Q 2303 3394 2647 3120 
Q 2991 2847 3088 2344 
L 2541 2259 
Q 2463 2594 2264 2762 
Q 2066 2931 1784 2931 
Q 1359 2931 1093 2626 
Q 828 2322 828 1663 
Q 828 994 1084 691 
Q 1341 388 1753 388 
Q 2084 388 2306 591 
Q 2528 794 2588 1216 
z
" transform="scale(0.015625)"/>
       <path id="ArialMT-72" d="M 416 0 
L 416 3319 
L 922 3319 
L 922 2816 
Q 1116 3169 1280 3281 
Q 1444 3394 1641 3394 
Q 1925 3394 2219 3213 
L 2025 2691 
Q 1819 2813 1613 2813 
Q 1428 2813 1281 2702 
Q 1134 2591 1072 2394 
Q 978 2094 978 1738 
L 978 0 
L 416 0 
z
" transform="scale(0.015625)"/>
       <path id="ArialMT-61" d="M 2588 409 
Q 2275 144 1986 34 
Q 1697 -75 1366 -75 
Q 819 -75 525 192 
Q 231 459 231 875 
Q 231 1119 342 1320 
Q 453 1522 633 1644 
Q 813 1766 1038 1828 
Q 1203 1872 1538 1913 
Q 2219 1994 2541 2106 
Q 2544 2222 2544 2253 
Q 2544 2597 2384 2738 
Q 2169 2928 1744 2928 
Q 1347 2928 1158 2789 
Q 969 2650 878 2297 
L 328 2372 
Q 403 2725 575 2942 
Q 747 3159 1072 3276 
Q 1397 3394 1825 3394 
Q 2250 3394 2515 3294 
Q 2781 3194 2906 3042 
Q 3031 2891 3081 2659 
Q 3109 2516 3109 2141 
L 3109 1391 
Q 3109 606 3145 398 
Q 3181 191 3288 0 
L 2700 0 
Q 2613 175 2588 409 
z
M 2541 1666 
Q 2234 1541 1622 1453 
Q 1275 1403 1131 1340 
Q 988 1278 909 1158 
Q 831 1038 831 891 
Q 831 666 1001 516 
Q 1172 366 1500 366 
Q 1825 366 2078 508 
Q 2331 650 2450 897 
Q 2541 1088 2541 1459 
L 2541 1666 
z
" transform="scale(0.015625)"/>
       <path id="ArialMT-79" d="M 397 -1278 
L 334 -750 
Q 519 -800 656 -800 
Q 844 -800 956 -737 
Q 1069 -675 1141 -563 
Q 1194 -478 1313 -144 
Q 1328 -97 1363 -6 
L 103 3319 
L 709 3319 
L 1400 1397 
Q 1534 1031 1641 628 
Q 1738 1016 1872 1384 
L 2581 3319 
L 3144 3319 
L 1881 -56 
Q 1678 -603 1566 -809 
Q 1416 -1088 1222 -1217 
Q 1028 -1347 759 -1347 
Q 597 -1347 397 -1278 
z
" transform="scale(0.015625)"/>
       <path id="ArialMT-25" d="M 372 3481 
Q 372 3972 619 4315 
Q 866 4659 1334 4659 
Q 1766 4659 2048 4351 
Q 2331 4044 2331 3447 
Q 2331 2866 2045 2552 
Q 1759 2238 1341 2238 
Q 925 2238 648 2547 
Q 372 2856 372 3481 
z
M 1350 4272 
Q 1141 4272 1002 4090 
Q 863 3909 863 3425 
Q 863 2984 1003 2804 
Q 1144 2625 1350 2625 
Q 1563 2625 1702 2806 
Q 1841 2988 1841 3469 
Q 1841 3913 1700 4092 
Q 1559 4272 1350 4272 
z
M 1353 -169 
L 3859 4659 
L 4316 4659 
L 1819 -169 
L 1353 -169 
z
M 3334 1075 
Q 3334 1569 3581 1911 
Q 3828 2253 4300 2253 
Q 4731 2253 5014 1945 
Q 5297 1638 5297 1041 
Q 5297 459 5011 145 
Q 4725 -169 4303 -169 
Q 3888 -169 3611 142 
Q 3334 453 3334 1075 
z
M 4316 1866 
Q 4103 1866 3964 1684 
Q 3825 1503 3825 1019 
Q 3825 581 3965 400 
Q 4106 219 4313 219 
Q 4528 219 4667 400 
Q 4806 581 4806 1063 
Q 4806 1506 4665 1686 
Q 4525 1866 4316 1866 
z
" transform="scale(0.015625)"/>
      </defs>
      <use xlink:href="#ArialMT-41"/>
      <use xlink:href="#ArialMT-63" transform="translate(66.699219 0)"/>
      <use xlink:href="#ArialMT-63" transform="translate(116.699219 0)"/>
      <use xlink:href="#ArialMT-75" transform="translate(166.699219 0)"/>
      <use xlink:href="#ArialMT-72" transform="translate(222.314453 0)"/>
      <use xlink:href="#ArialMT-61" transform="translate(255.615234 0)"/>
      <use xlink:href="#ArialMT-63" transform="translate(311.230469 0)"/>
      <use xlink:href="#ArialMT-79" transform="translate(361.230469 0)"/>
      <use xlink:href="#ArialMT-20" transform="translate(411.230469 0)"/>
      <use xlink:href="#ArialMT-28" transform="translate(439.013672 0)"/>
      <use xlink:href="#ArialMT-25" transform="translate(472.314453 0)"/>
      <use xlink:href="#ArialMT-29" transform="translate(561.230469 0)"/>
     </g>
    </g>
   </g>
   <g id="LineCollection_1">
    <path d="M 155.149569 122.641357 
L 155.149569 78.75035 
" clip-path="url(#p8e9d091838)" style="fill: none; stroke: #0072bd; stroke-width: 2.5"/>
    <path d="M 202.770603 73.036184 
L 202.770603 40.843753 
" clip-path="url(#p8e9d091838)" style="fill: none; stroke: #0072bd; stroke-width: 2.5"/>
    <path d="M 250.391638 38.237856 
L 250.391638 38.237856 
" clip-path="url(#p8e9d091838)" style="fill: none; stroke: #0072bd; stroke-width: 2.5"/>
    <path d="M 298.012672 140.406803 
L 298.012672 103.254458 
" clip-path="url(#p8e9d091838)" style="fill: none; stroke: #0072bd; stroke-width: 2.5"/>
    <path d="M 345.633707 65.68623 
L 345.633707 65.68623 
" clip-path="url(#p8e9d091838)" style="fill: none; stroke: #0072bd; stroke-width: 2.5"/>
    <path d="M 393.254741 86.005156 
L 393.254741 86.005156 
" clip-path="url(#p8e9d091838)" style="fill: none; stroke: #0072bd; stroke-width: 2.5"/>
   </g>
   <g id="line2d_15">
    <defs>
     <path id="m2d735ee5ed" d="M 4 0 
L -4 -0 
" style="stroke: #0072bd; stroke-width: 2.5"/>
    </defs>
    <g clip-path="url(#p8e9d091838)">
     <use xlink:href="#m2d735ee5ed" x="155.149569" y="122.641357" style="fill: #0072bd; stroke: #0072bd; stroke-width: 2.5"/>
     <use xlink:href="#m2d735ee5ed" x="202.770603" y="73.036184" style="fill: #0072bd; stroke: #0072bd; stroke-width: 2.5"/>
     <use xlink:href="#m2d735ee5ed" x="250.391638" y="38.237856" style="fill: #0072bd; stroke: #0072bd; stroke-width: 2.5"/>
     <use xlink:href="#m2d735ee5ed" x="298.012672" y="140.406803" style="fill: #0072bd; stroke: #0072bd; stroke-width: 2.5"/>
     <use xlink:href="#m2d735ee5ed" x="345.633707" y="65.68623" style="fill: #0072bd; stroke: #0072bd; stroke-width: 2.5"/>
     <use xlink:href="#m2d735ee5ed" x="393.254741" y="86.005156" style="fill: #0072bd; stroke: #0072bd; stroke-width: 2.5"/>
    </g>
   </g>
   <g id="line2d_16">
    <g clip-path="url(#p8e9d091838)">
     <use xlink:href="#m2d735ee5ed" x="155.149569" y="78.75035" style="fill: #0072bd; stroke: #0072bd; stroke-width: 2.5"/>
     <use xlink:href="#m2d735ee5ed" x="202.770603" y="40.843753" style="fill: #0072bd; stroke: #0072bd; stroke-width: 2.5"/>
     <use xlink:href="#m2d735ee5ed" x="250.391638" y="38.237856" style="fill: #0072bd; stroke: #0072bd; stroke-width: 2.5"/>
     <use xlink:href="#m2d735ee5ed" x="298.012672" y="103.254458" style="fill: #0072bd; stroke: #0072bd; stroke-width: 2.5"/>
     <use xlink:href="#m2d735ee5ed" x="345.633707" y="65.68623" style="fill: #0072bd; stroke: #0072bd; stroke-width: 2.5"/>
     <use xlink:href="#m2d735ee5ed" x="393.254741" y="86.005156" style="fill: #0072bd; stroke: #0072bd; stroke-width: 2.5"/>
    </g>
   </g>
   <g id="LineCollection_2">
    <path d="M 155.149569 122.641357 
L 155.149569 78.75035 
" clip-path="url(#p8e9d091838)" style="fill: none; stroke: #d95319; stroke-width: 2.5"/>
    <path d="M 202.770603 70.25108 
L 202.770603 37.394818 
" clip-path="url(#p8e9d091838)" style="fill: none; stroke: #d95319; stroke-width: 2.5"/>
    <path d="M 250.391638 38.237856 
L 250.391638 38.237856 
" clip-path="url(#p8e9d091838)" style="fill: none; stroke: #d95319; stroke-width: 2.5"/>
    <path d="M 298.012672 130.167781 
L 298.012672 91.202073 
" clip-path="url(#p8e9d091838)" style="fill: none; stroke: #d95319; stroke-width: 2.5"/>
    <path d="M 345.633707 65.68623 
L 345.633707 65.68623 
" clip-path="url(#p8e9d091838)" style="fill: none; stroke: #d95319; stroke-width: 2.5"/>
    <path d="M 393.254741 86.005156 
L 393.254741 86.005156 
" clip-path="url(#p8e9d091838)" style="fill: none; stroke: #d95319; stroke-width: 2.5"/>
   </g>
   <g id="line2d_17">
    <defs>
     <path id="mef3e7679bd" d="M 4 0 
L -4 -0 
" style="stroke: #d95319; stroke-width: 2.5"/>
    </defs>
    <g clip-path="url(#p8e9d091838)">
     <use xlink:href="#mef3e7679bd" x="155.149569" y="122.641357" style="fill: #d95319; stroke: #d95319; stroke-width: 2.5"/>
     <use xlink:href="#mef3e7679bd" x="202.770603" y="70.25108" style="fill: #d95319; stroke: #d95319; stroke-width: 2.5"/>
     <use xlink:href="#mef3e7679bd" x="250.391638" y="38.237856" style="fill: #d95319; stroke: #d95319; stroke-width: 2.5"/>
     <use xlink:href="#mef3e7679bd" x="298.012672" y="130.167781" style="fill: #d95319; stroke: #d95319; stroke-width: 2.5"/>
     <use xlink:href="#mef3e7679bd" x="345.633707" y="65.68623" style="fill: #d95319; stroke: #d95319; stroke-width: 2.5"/>
     <use xlink:href="#mef3e7679bd" x="393.254741" y="86.005156" style="fill: #d95319; stroke: #d95319; stroke-width: 2.5"/>
    </g>
   </g>
   <g id="line2d_18">
    <g clip-path="url(#p8e9d091838)">
     <use xlink:href="#mef3e7679bd" x="155.149569" y="78.75035" style="fill: #d95319; stroke: #d95319; stroke-width: 2.5"/>
     <use xlink:href="#mef3e7679bd" x="202.770603" y="37.394818" style="fill: #d95319; stroke: #d95319; stroke-width: 2.5"/>
     <use xlink:href="#mef3e7679bd" x="250.391638" y="38.237856" style="fill: #d95319; stroke: #d95319; stroke-width: 2.5"/>
     <use xlink:href="#mef3e7679bd" x="298.012672" y="91.202073" style="fill: #d95319; stroke: #d95319; stroke-width: 2.5"/>
     <use xlink:href="#mef3e7679bd" x="345.633707" y="65.68623" style="fill: #d95319; stroke: #d95319; stroke-width: 2.5"/>
     <use xlink:href="#mef3e7679bd" x="393.254741" y="86.005156" style="fill: #d95319; stroke: #d95319; stroke-width: 2.5"/>
    </g>
   </g>
   <g id="LineCollection_3">
    <path d="M 155.149569 38.237856 
L 155.149569 38.237856 
" clip-path="url(#p8e9d091838)" style="fill: none; stroke: #edb120; stroke-width: 2.5"/>
    <path d="M 202.770603 70.25108 
L 202.770603 37.394818 
" clip-path="url(#p8e9d091838)" style="fill: none; stroke: #edb120; stroke-width: 2.5"/>
    <path d="M 250.391638 38.237856 
L 250.391638 38.237856 
" clip-path="url(#p8e9d091838)" style="fill: none; stroke: #edb120; stroke-width: 2.5"/>
    <path d="M 298.012672 87.921107 
L 298.012672 61.001676 
" clip-path="url(#p8e9d091838)" style="fill: none; stroke: #edb120; stroke-width: 2.5"/>
    <path d="M 345.633707 38.237856 
L 345.633707 38.237856 
" clip-path="url(#p8e9d091838)" style="fill: none; stroke: #edb120; stroke-width: 2.5"/>
    <path d="M 393.254741 86.005156 
L 393.254741 86.005156 
" clip-path="url(#p8e9d091838)" style="fill: none; stroke: #edb120; stroke-width: 2.5"/>
   </g>
   <g id="line2d_19">
    <defs>
     <path id="ma84c1780f9" d="M 4 0 
L -4 -0 
" style="stroke: #edb120; stroke-width: 2.5"/>
    </defs>
    <g clip-path="url(#p8e9d091838)">
     <use xlink:href="#ma84c1780f9" x="155.149569" y="38.237856" style="fill: #edb120; stroke: #edb120; stroke-width: 2.5"/>
     <use xlink:href="#ma84c1780f9" x="202.770603" y="70.25108" style="fill: #edb120; stroke: #edb120; stroke-width: 2.5"/>
     <use xlink:href="#ma84c1780f9" x="250.391638" y="38.237856" style="fill: #edb120; stroke: #edb120; stroke-width: 2.5"/>
     <use xlink:href="#ma84c1780f9" x="298.012672" y="87.921107" style="fill: #edb120; stroke: #edb120; stroke-width: 2.5"/>
     <use xlink:href="#ma84c1780f9" x="345.633707" y="38.237856" style="fill: #edb120; stroke: #edb120; stroke-width: 2.5"/>
     <use xlink:href="#ma84c1780f9" x="393.254741" y="86.005156" style="fill: #edb120; stroke: #edb120; stroke-width: 2.5"/>
    </g>
   </g>
   <g id="line2d_20">
    <g clip-path="url(#p8e9d091838)">
     <use xlink:href="#ma84c1780f9" x="155.149569" y="38.237856" style="fill: #edb120; stroke: #edb120; stroke-width: 2.5"/>
     <use xlink:href="#ma84c1780f9" x="202.770603" y="37.394818" style="fill: #edb120; stroke: #edb120; stroke-width: 2.5"/>
     <use xlink:href="#ma84c1780f9" x="250.391638" y="38.237856" style="fill: #edb120; stroke: #edb120; stroke-width: 2.5"/>
     <use xlink:href="#ma84c1780f9" x="298.012672" y="61.001676" style="fill: #edb120; stroke: #edb120; stroke-width: 2.5"/>
     <use xlink:href="#ma84c1780f9" x="345.633707" y="38.237856" style="fill: #edb120; stroke: #edb120; stroke-width: 2.5"/>
     <use xlink:href="#ma84c1780f9" x="393.254741" y="86.005156" style="fill: #edb120; stroke: #edb120; stroke-width: 2.5"/>
    </g>
   </g>
   <g id="LineCollection_4">
    <path d="M 155.149569 246.431182 
L 155.149569 246.431182 
" clip-path="url(#p8e9d091838)" style="fill: none; stroke: #7e2f8e; stroke-width: 2.5"/>
    <path d="M 202.770603 197.181058 
L 202.770603 153.592301 
" clip-path="url(#p8e9d091838)" style="fill: none; stroke: #7e2f8e; stroke-width: 2.5"/>
    <path d="M 250.391638 86.72984 
L 250.391638 61.513327 
" clip-path="url(#p8e9d091838)" style="fill: none; stroke: #7e2f8e; stroke-width: 2.5"/>
    <path d="M 298.012672 87.921107 
L 298.012672 61.001676 
" clip-path="url(#p8e9d091838)" style="fill: none; stroke: #7e2f8e; stroke-width: 2.5"/>
    <path d="M 345.633707 111.460406 
L 345.633707 80.298475 
" clip-path="url(#p8e9d091838)" style="fill: none; stroke: #7e2f8e; stroke-width: 2.5"/>
    <path d="M 393.254741 62.121506 
L 393.254741 62.121506 
" clip-path="url(#p8e9d091838)" style="fill: none; stroke: #7e2f8e; stroke-width: 2.5"/>
   </g>
   <g id="line2d_21">
    <defs>
     <path id="m849eab4e2d" d="M 4 0 
L -4 -0 
" style="stroke: #7e2f8e; stroke-width: 2.5"/>
    </defs>
    <g clip-path="url(#p8e9d091838)">
     <use xlink:href="#m849eab4e2d" x="155.149569" y="246.431182" style="fill: #7e2f8e; stroke: #7e2f8e; stroke-width: 2.5"/>
     <use xlink:href="#m849eab4e2d" x="202.770603" y="197.181058" style="fill: #7e2f8e; stroke: #7e2f8e; stroke-width: 2.5"/>
     <use xlink:href="#m849eab4e2d" x="250.391638" y="86.72984" style="fill: #7e2f8e; stroke: #7e2f8e; stroke-width: 2.5"/>
     <use xlink:href="#m849eab4e2d" x="298.012672" y="87.921107" style="fill: #7e2f8e; stroke: #7e2f8e; stroke-width: 2.5"/>
     <use xlink:href="#m849eab4e2d" x="345.633707" y="111.460406" style="fill: #7e2f8e; stroke: #7e2f8e; stroke-width: 2.5"/>
     <use xlink:href="#m849eab4e2d" x="393.254741" y="62.121506" style="fill: #7e2f8e; stroke: #7e2f8e; stroke-width: 2.5"/>
    </g>
   </g>
   <g id="line2d_22">
    <g clip-path="url(#p8e9d091838)">
     <use xlink:href="#m849eab4e2d" x="155.149569" y="246.431182" style="fill: #7e2f8e; stroke: #7e2f8e; stroke-width: 2.5"/>
     <use xlink:href="#m849eab4e2d" x="202.770603" y="153.592301" style="fill: #7e2f8e; stroke: #7e2f8e; stroke-width: 2.5"/>
     <use xlink:href="#m849eab4e2d" x="250.391638" y="61.513327" style="fill: #7e2f8e; stroke: #7e2f8e; stroke-width: 2.5"/>
     <use xlink:href="#m849eab4e2d" x="298.012672" y="61.001676" style="fill: #7e2f8e; stroke: #7e2f8e; stroke-width: 2.5"/>
     <use xlink:href="#m849eab4e2d" x="345.633707" y="80.298475" style="fill: #7e2f8e; stroke: #7e2f8e; stroke-width: 2.5"/>
     <use xlink:href="#m849eab4e2d" x="393.254741" y="62.121506" style="fill: #7e2f8e; stroke: #7e2f8e; stroke-width: 2.5"/>
    </g>
   </g>
   <g id="line2d_23">
    <path d="M 155.149569 100.695854 
L 202.770603 56.939968 
L 250.391638 38.237856 
L 298.012672 121.830631 
L 345.633707 65.68623 
L 393.254741 86.005156 
" clip-path="url(#p8e9d091838)" style="fill: none; stroke: #0072bd; stroke-width: 2.5; stroke-linecap: square"/>
    <defs>
     <path id="m6b4605a689" d="M 0 5.5 
C 1.458617 5.5 2.857689 4.920485 3.889087 3.889087 
C 4.920485 2.857689 5.5 1.458617 5.5 0 
C 5.5 -1.458617 4.920485 -2.857689 3.889087 -3.889087 
C 2.857689 -4.920485 1.458617 -5.5 0 -5.5 
C -1.458617 -5.5 -2.857689 -4.920485 -3.889087 -3.889087 
C -4.920485 -2.857689 -5.5 -1.458617 -5.5 0 
C -5.5 1.458617 -4.920485 2.857689 -3.889087 3.889087 
C -2.857689 4.920485 -1.458617 5.5 0 5.5 
z
" style="stroke: #0072bd"/>
    </defs>
    <g clip-path="url(#p8e9d091838)">
     <use xlink:href="#m6b4605a689" x="155.149569" y="100.695854" style="fill: #0072bd; stroke: #0072bd"/>
     <use xlink:href="#m6b4605a689" x="202.770603" y="56.939968" style="fill: #0072bd; stroke: #0072bd"/>
     <use xlink:href="#m6b4605a689" x="250.391638" y="38.237856" style="fill: #0072bd; stroke: #0072bd"/>
     <use xlink:href="#m6b4605a689" x="298.012672" y="121.830631" style="fill: #0072bd; stroke: #0072bd"/>
     <use xlink:href="#m6b4605a689" x="345.633707" y="65.68623" style="fill: #0072bd; stroke: #0072bd"/>
     <use xlink:href="#m6b4605a689" x="393.254741" y="86.005156" style="fill: #0072bd; stroke: #0072bd"/>
    </g>
   </g>
   <g id="line2d_24">
    <path d="M 155.149569 100.695854 
L 202.770603 53.822949 
L 250.391638 38.237856 
L 298.012672 110.684927 
L 345.633707 65.68623 
L 393.254741 86.005156 
" clip-path="url(#p8e9d091838)" style="fill: none; stroke: #d95319; stroke-width: 2.5; stroke-linecap: square"/>
    <defs>
     <path id="m144ddeaefc" d="M 0 5.5 
C 1.458617 5.5 2.857689 4.920485 3.889087 3.889087 
C 4.920485 2.857689 5.5 1.458617 5.5 0 
C 5.5 -1.458617 4.920485 -2.857689 3.889087 -3.889087 
C 2.857689 -4.920485 1.458617 -5.5 0 -5.5 
C -1.458617 -5.5 -2.857689 -4.920485 -3.889087 -3.889087 
C -4.920485 -2.857689 -5.5 -1.458617 -5.5 0 
C -5.5 1.458617 -4.920485 2.857689 -3.889087 3.889087 
C -2.857689 4.920485 -1.458617 5.5 0 5.5 
z
" style="stroke: #d95319"/>
    </defs>
    <g clip-path="url(#p8e9d091838)">
     <use xlink:href="#m144ddeaefc" x="155.149569" y="100.695854" style="fill: #d95319; stroke: #d95319"/>
     <use xlink:href="#m144ddeaefc" x="202.770603" y="53.822949" style="fill: #d95319; stroke: #d95319"/>
     <use xlink:href="#m144ddeaefc" x="250.391638" y="38.237856" style="fill: #d95319; stroke: #d95319"/>
     <use xlink:href="#m144ddeaefc" x="298.012672" y="110.684927" style="fill: #d95319; stroke: #d95319"/>
     <use xlink:href="#m144ddeaefc" x="345.633707" y="65.68623" style="fill: #d95319; stroke: #d95319"/>
     <use xlink:href="#m144ddeaefc" x="393.254741" y="86.005156" style="fill: #d95319; stroke: #d95319"/>
    </g>
   </g>
   <g id="line2d_25">
    <path d="M 155.149569 38.237856 
L 202.770603 53.822949 
L 250.391638 38.237856 
L 298.012672 74.461391 
L 345.633707 38.237856 
L 393.254741 86.005156 
" clip-path="url(#p8e9d091838)" style="fill: none; stroke: #edb120; stroke-width: 2.5; stroke-linecap: square"/>
    <defs>
     <path id="m0606149452" d="M 0 5.5 
C 1.458617 5.5 2.857689 4.920485 3.889087 3.889087 
C 4.920485 2.857689 5.5 1.458617 5.5 0 
C 5.5 -1.458617 4.920485 -2.857689 3.889087 -3.889087 
C 2.857689 -4.920485 1.458617 -5.5 0 -5.5 
C -1.458617 -5.5 -2.857689 -4.920485 -3.889087 -3.889087 
C -4.920485 -2.857689 -5.5 -1.458617 -5.5 0 
C -5.5 1.458617 -4.920485 2.857689 -3.889087 3.889087 
C -2.857689 4.920485 -1.458617 5.5 0 5.5 
z
" style="stroke: #edb120"/>
    </defs>
    <g clip-path="url(#p8e9d091838)">
     <use xlink:href="#m0606149452" x="155.149569" y="38.237856" style="fill: #edb120; stroke: #edb120"/>
     <use xlink:href="#m0606149452" x="202.770603" y="53.822949" style="fill: #edb120; stroke: #edb120"/>
     <use xlink:href="#m0606149452" x="250.391638" y="38.237856" style="fill: #edb120; stroke: #edb120"/>
     <use xlink:href="#m0606149452" x="298.012672" y="74.461391" style="fill: #edb120; stroke: #edb120"/>
     <use xlink:href="#m0606149452" x="345.633707" y="38.237856" style="fill: #edb120; stroke: #edb120"/>
     <use xlink:href="#m0606149452" x="393.254741" y="86.005156" style="fill: #edb120; stroke: #edb120"/>
    </g>
   </g>
   <g id="line2d_26">
    <path d="M 155.149569 246.431182 
L 202.770603 175.38668 
L 250.391638 74.121583 
L 298.012672 74.461391 
L 345.633707 95.879441 
L 393.254741 62.121506 
" clip-path="url(#p8e9d091838)" style="fill: none; stroke: #7e2f8e; stroke-width: 2.5; stroke-linecap: square"/>
    <defs>
     <path id="m2a83bcce4b" d="M 0 5.5 
C 1.458617 5.5 2.857689 4.920485 3.889087 3.889087 
C 4.920485 2.857689 5.5 1.458617 5.5 0 
C 5.5 -1.458617 4.920485 -2.857689 3.889087 -3.889087 
C 2.857689 -4.920485 1.458617 -5.5 0 -5.5 
C -1.458617 -5.5 -2.857689 -4.920485 -3.889087 -3.889087 
C -4.920485 -2.857689 -5.5 -1.458617 -5.5 0 
C -5.5 1.458617 -4.920485 2.857689 -3.889087 3.889087 
C -2.857689 4.920485 -1.458617 5.5 0 5.5 
z
" style="stroke: #7e2f8e"/>
    </defs>
    <g clip-path="url(#p8e9d091838)">
     <use xlink:href="#m2a83bcce4b" x="155.149569" y="246.431182" style="fill: #7e2f8e; stroke: #7e2f8e"/>
     <use xlink:href="#m2a83bcce4b" x="202.770603" y="175.38668" style="fill: #7e2f8e; stroke: #7e2f8e"/>
     <use xlink:href="#m2a83bcce4b" x="250.391638" y="74.121583" style="fill: #7e2f8e; stroke: #7e2f8e"/>
     <use xlink:href="#m2a83bcce4b" x="298.012672" y="74.461391" style="fill: #7e2f8e; stroke: #7e2f8e"/>
     <use xlink:href="#m2a83bcce4b" x="345.633707" y="95.879441" style="fill: #7e2f8e; stroke: #7e2f8e"/>
     <use xlink:href="#m2a83bcce4b" x="393.254741" y="62.121506" style="fill: #7e2f8e; stroke: #7e2f8e"/>
    </g>
   </g>
   <g id="patch_3">
    <path d="M 59.9075 256.883 
L 59.9075 26.943 
" style="fill: none; stroke: #000000; stroke-width: 0.8; stroke-linejoin: miter; stroke-linecap: square"/>
   </g>
   <g id="patch_4">
    <path d="M 59.9075 256.883 
L 405.16 256.883 
" style="fill: none; stroke: #000000; stroke-width: 0.8; stroke-linejoin: miter; stroke-linecap: square"/>
   </g>
   <g id="text_17">
    <!-- Channel 1 - Click -->
    <g transform="translate(155.18625 20.943) scale(0.192 -0.192)">
     <defs>
      <path id="Arial-BoldMT-43" d="M 3397 1684 
L 4294 1400 
Q 4088 650 3608 286 
Q 3128 -78 2391 -78 
Q 1478 -78 890 545 
Q 303 1169 303 2250 
Q 303 3394 893 4026 
Q 1484 4659 2447 4659 
Q 3288 4659 3813 4163 
Q 4125 3869 4281 3319 
L 3366 3100 
Q 3284 3456 3026 3662 
Q 2769 3869 2400 3869 
Q 1891 3869 1573 3503 
Q 1256 3138 1256 2319 
Q 1256 1450 1568 1081 
Q 1881 713 2381 713 
Q 2750 713 3015 947 
Q 3281 1181 3397 1684 
z
" transform="scale(0.015625)"/>
      <path id="Arial-BoldMT-68" d="M 1334 4581 
L 1334 2897 
Q 1759 3394 2350 3394 
Q 2653 3394 2897 3281 
Q 3141 3169 3264 2994 
Q 3388 2819 3433 2606 
Q 3478 2394 3478 1947 
L 3478 0 
L 2600 0 
L 2600 1753 
Q 2600 2275 2550 2415 
Q 2500 2556 2373 2639 
Q 2247 2722 2056 2722 
Q 1838 2722 1666 2615 
Q 1494 2509 1414 2295 
Q 1334 2081 1334 1663 
L 1334 0 
L 456 0 
L 456 4581 
L 1334 4581 
z
" transform="scale(0.015625)"/>
      <path id="Arial-BoldMT-61" d="M 1116 2306 
L 319 2450 
Q 453 2931 781 3162 
Q 1109 3394 1756 3394 
Q 2344 3394 2631 3255 
Q 2919 3116 3036 2902 
Q 3153 2688 3153 2116 
L 3144 1091 
Q 3144 653 3186 445 
Q 3228 238 3344 0 
L 2475 0 
Q 2441 88 2391 259 
Q 2369 338 2359 363 
Q 2134 144 1878 34 
Q 1622 -75 1331 -75 
Q 819 -75 523 203 
Q 228 481 228 906 
Q 228 1188 362 1408 
Q 497 1628 739 1745 
Q 981 1863 1438 1950 
Q 2053 2066 2291 2166 
L 2291 2253 
Q 2291 2506 2166 2614 
Q 2041 2722 1694 2722 
Q 1459 2722 1328 2630 
Q 1197 2538 1116 2306 
z
M 2291 1594 
Q 2122 1538 1756 1459 
Q 1391 1381 1278 1306 
Q 1106 1184 1106 997 
Q 1106 813 1243 678 
Q 1381 544 1594 544 
Q 1831 544 2047 700 
Q 2206 819 2256 991 
Q 2291 1103 2291 1419 
L 2291 1594 
z
" transform="scale(0.015625)"/>
      <path id="Arial-BoldMT-6e" d="M 3478 0 
L 2600 0 
L 2600 1694 
Q 2600 2231 2544 2389 
Q 2488 2547 2361 2634 
Q 2234 2722 2056 2722 
Q 1828 2722 1647 2597 
Q 1466 2472 1398 2265 
Q 1331 2059 1331 1503 
L 1331 0 
L 453 0 
L 453 3319 
L 1269 3319 
L 1269 2831 
Q 1703 3394 2363 3394 
Q 2653 3394 2893 3289 
Q 3134 3184 3257 3021 
Q 3381 2859 3429 2653 
Q 3478 2447 3478 2063 
L 3478 0 
z
" transform="scale(0.015625)"/>
      <path id="Arial-BoldMT-65" d="M 2381 1056 
L 3256 909 
Q 3088 428 2723 176 
Q 2359 -75 1813 -75 
Q 947 -75 531 491 
Q 203 944 203 1634 
Q 203 2459 634 2926 
Q 1066 3394 1725 3394 
Q 2466 3394 2894 2905 
Q 3322 2416 3303 1406 
L 1103 1406 
Q 1113 1016 1316 798 
Q 1519 581 1822 581 
Q 2028 581 2168 693 
Q 2309 806 2381 1056 
z
M 2431 1944 
Q 2422 2325 2234 2523 
Q 2047 2722 1778 2722 
Q 1491 2722 1303 2513 
Q 1116 2303 1119 1944 
L 2431 1944 
z
" transform="scale(0.015625)"/>
      <path id="Arial-BoldMT-6c" d="M 459 0 
L 459 4581 
L 1338 4581 
L 1338 0 
L 459 0 
z
" transform="scale(0.015625)"/>
      <path id="Arial-BoldMT-20" transform="scale(0.015625)"/>
      <path id="Arial-BoldMT-31" d="M 2519 0 
L 1641 0 
L 1641 3309 
Q 1159 2859 506 2644 
L 506 3441 
Q 850 3553 1253 3867 
Q 1656 4181 1806 4600 
L 2519 4600 
L 2519 0 
z
" transform="scale(0.015625)"/>
      <path id="Arial-BoldMT-2d" d="M 359 1222 
L 359 2100 
L 2084 2100 
L 2084 1222 
L 359 1222 
z
" transform="scale(0.015625)"/>
      <path id="Arial-BoldMT-69" d="M 459 3769 
L 459 4581 
L 1338 4581 
L 1338 3769 
L 459 3769 
z
M 459 0 
L 459 3319 
L 1338 3319 
L 1338 0 
L 459 0 
z
" transform="scale(0.015625)"/>
      <path id="Arial-BoldMT-63" d="M 3353 2338 
L 2488 2181 
Q 2444 2441 2289 2572 
Q 2134 2703 1888 2703 
Q 1559 2703 1364 2476 
Q 1169 2250 1169 1719 
Q 1169 1128 1367 884 
Q 1566 641 1900 641 
Q 2150 641 2309 783 
Q 2469 925 2534 1272 
L 3397 1125 
Q 3263 531 2881 228 
Q 2500 -75 1859 -75 
Q 1131 -75 698 384 
Q 266 844 266 1656 
Q 266 2478 700 2936 
Q 1134 3394 1875 3394 
Q 2481 3394 2839 3133 
Q 3197 2872 3353 2338 
z
" transform="scale(0.015625)"/>
      <path id="Arial-BoldMT-6b" d="M 428 0 
L 428 4581 
L 1306 4581 
L 1306 2150 
L 2334 3319 
L 3416 3319 
L 2281 2106 
L 3497 0 
L 2550 0 
L 1716 1491 
L 1306 1063 
L 1306 0 
L 428 0 
z
" transform="scale(0.015625)"/>
     </defs>
     <use xlink:href="#Arial-BoldMT-43"/>
     <use xlink:href="#Arial-BoldMT-68" transform="translate(72.216797 0)"/>
     <use xlink:href="#Arial-BoldMT-61" transform="translate(133.300781 0)"/>
     <use xlink:href="#Arial-BoldMT-6e" transform="translate(188.916016 0)"/>
     <use xlink:href="#Arial-BoldMT-6e" transform="translate(250 0)"/>
     <use xlink:href="#Arial-BoldMT-65" transform="translate(311.083984 0)"/>
     <use xlink:href="#Arial-BoldMT-6c" transform="translate(366.699219 0)"/>
     <use xlink:href="#Arial-BoldMT-20" transform="translate(394.482422 0)"/>
     <use xlink:href="#Arial-BoldMT-31" transform="translate(422.265625 0)"/>
     <use xlink:href="#Arial-BoldMT-20" transform="translate(477.880859 0)"/>
     <use xlink:href="#Arial-BoldMT-2d" transform="translate(505.664062 0)"/>
     <use xlink:href="#Arial-BoldMT-20" transform="translate(538.964844 0)"/>
     <use xlink:href="#Arial-BoldMT-43" transform="translate(566.748047 0)"/>
     <use xlink:href="#Arial-BoldMT-6c" transform="translate(638.964844 0)"/>
     <use xlink:href="#Arial-BoldMT-69" transform="translate(666.748047 0)"/>
     <use xlink:href="#Arial-BoldMT-63" transform="translate(694.53125 0)"/>
     <use xlink:href="#Arial-BoldMT-6b" transform="translate(750.146484 0)"/>
    </g>
   </g>
   <g id="legend_1">
    <g id="patch_5">
     <path d="M 299.66875 250.883 
L 396.76 250.883 
Q 399.16 250.883 399.16 248.483 
L 399.16 181.433 
Q 399.16 179.033 396.76 179.033 
L 299.66875 179.033 
Q 297.26875 179.033 297.26875 181.433 
L 297.26875 248.483 
Q 297.26875 250.883 299.66875 250.883 
z
" style="fill: #ffffff; opacity: 0.8; stroke: #cccccc; stroke-linejoin: miter"/>
    </g>
    <g id="LineCollection_5">
     <path d="M 314.06875 194.222375 
L 314.06875 182.222375 
" style="fill: none; stroke: #0072bd; stroke-width: 2.5"/>
    </g>
    <g id="line2d_27">
     <g>
      <use xlink:href="#m2d735ee5ed" x="314.06875" y="194.222375" style="fill: #0072bd; stroke: #0072bd; stroke-width: 2.5"/>
     </g>
    </g>
    <g id="line2d_28">
     <g>
      <use xlink:href="#m2d735ee5ed" x="314.06875" y="182.222375" style="fill: #0072bd; stroke: #0072bd; stroke-width: 2.5"/>
     </g>
    </g>
    <g id="line2d_29">
     <path d="M 302.06875 188.222375 
L 326.06875 188.222375 
" style="fill: none; stroke: #0072bd; stroke-width: 2.5; stroke-linecap: square"/>
    </g>
    <g id="line2d_30">
     <g>
      <use xlink:href="#m6b4605a689" x="314.06875" y="188.222375" style="fill: #0072bd; stroke: #0072bd"/>
     </g>
    </g>
    <g id="text_18">
     <!-- W1 Peak -->
     <g transform="translate(335.66875 192.422375) scale(0.12 -0.12)">
      <defs>
       <path id="ArialMT-57" d="M 1294 0 
L 78 4581 
L 700 4581 
L 1397 1578 
Q 1509 1106 1591 641 
Q 1766 1375 1797 1488 
L 2669 4581 
L 3400 4581 
L 4056 2263 
Q 4303 1400 4413 641 
Q 4500 1075 4641 1638 
L 5359 4581 
L 5969 4581 
L 4713 0 
L 4128 0 
L 3163 3491 
Q 3041 3928 3019 4028 
Q 2947 3713 2884 3491 
L 1913 0 
L 1294 0 
z
" transform="scale(0.015625)"/>
       <path id="ArialMT-50" d="M 494 0 
L 494 4581 
L 2222 4581 
Q 2678 4581 2919 4538 
Q 3256 4481 3484 4323 
Q 3713 4166 3852 3881 
Q 3991 3597 3991 3256 
Q 3991 2672 3619 2267 
Q 3247 1863 2275 1863 
L 1100 1863 
L 1100 0 
L 494 0 
z
M 1100 2403 
L 2284 2403 
Q 2872 2403 3119 2622 
Q 3366 2841 3366 3238 
Q 3366 3525 3220 3729 
Q 3075 3934 2838 4000 
Q 2684 4041 2272 4041 
L 1100 4041 
L 1100 2403 
z
" transform="scale(0.015625)"/>
       <path id="ArialMT-6b" d="M 425 0 
L 425 4581 
L 988 4581 
L 988 1969 
L 2319 3319 
L 3047 3319 
L 1778 2088 
L 3175 0 
L 2481 0 
L 1384 1697 
L 988 1316 
L 988 0 
L 425 0 
z
" transform="scale(0.015625)"/>
      </defs>
      <use xlink:href="#ArialMT-57"/>
      <use xlink:href="#ArialMT-31" transform="translate(94.384766 0)"/>
      <use xlink:href="#ArialMT-20" transform="translate(150 0)"/>
      <use xlink:href="#ArialMT-50" transform="translate(177.783203 0)"/>
      <use xlink:href="#ArialMT-65" transform="translate(244.482422 0)"/>
      <use xlink:href="#ArialMT-61" transform="translate(300.097656 0)"/>
      <use xlink:href="#ArialMT-6b" transform="translate(355.712891 0)"/>
     </g>
    </g>
    <g id="LineCollection_6">
     <path d="M 314.06875 211.232375 
L 314.06875 199.232375 
" style="fill: none; stroke: #d95319; stroke-width: 2.5"/>
    </g>
    <g id="line2d_31">
     <g>
      <use xlink:href="#mef3e7679bd" x="314.06875" y="211.232375" style="fill: #d95319; stroke: #d95319; stroke-width: 2.5"/>
     </g>
    </g>
    <g id="line2d_32">
     <g>
      <use xlink:href="#mef3e7679bd" x="314.06875" y="199.232375" style="fill: #d95319; stroke: #d95319; stroke-width: 2.5"/>
     </g>
    </g>
    <g id="line2d_33">
     <path d="M 302.06875 205.232375 
L 326.06875 205.232375 
" style="fill: none; stroke: #d95319; stroke-width: 2.5; stroke-linecap: square"/>
    </g>
    <g id="line2d_34">
     <g>
      <use xlink:href="#m144ddeaefc" x="314.06875" y="205.232375" style="fill: #d95319; stroke: #d95319"/>
     </g>
    </g>
    <g id="text_19">
     <!-- W1 Trough -->
     <g transform="translate(335.66875 209.432375) scale(0.12 -0.12)">
      <defs>
       <path id="ArialMT-54" d="M 1659 0 
L 1659 4041 
L 150 4041 
L 150 4581 
L 3781 4581 
L 3781 4041 
L 2266 4041 
L 2266 0 
L 1659 0 
z
" transform="scale(0.015625)"/>
       <path id="ArialMT-67" d="M 319 -275 
L 866 -356 
Q 900 -609 1056 -725 
Q 1266 -881 1628 -881 
Q 2019 -881 2231 -725 
Q 2444 -569 2519 -288 
Q 2563 -116 2559 434 
Q 2191 0 1641 0 
Q 956 0 581 494 
Q 206 988 206 1678 
Q 206 2153 378 2554 
Q 550 2956 876 3175 
Q 1203 3394 1644 3394 
Q 2231 3394 2613 2919 
L 2613 3319 
L 3131 3319 
L 3131 450 
Q 3131 -325 2973 -648 
Q 2816 -972 2473 -1159 
Q 2131 -1347 1631 -1347 
Q 1038 -1347 672 -1080 
Q 306 -813 319 -275 
z
M 784 1719 
Q 784 1066 1043 766 
Q 1303 466 1694 466 
Q 2081 466 2343 764 
Q 2606 1063 2606 1700 
Q 2606 2309 2336 2618 
Q 2066 2928 1684 2928 
Q 1309 2928 1046 2623 
Q 784 2319 784 1719 
z
" transform="scale(0.015625)"/>
       <path id="ArialMT-68" d="M 422 0 
L 422 4581 
L 984 4581 
L 984 2938 
Q 1378 3394 1978 3394 
Q 2347 3394 2619 3248 
Q 2891 3103 3008 2847 
Q 3125 2591 3125 2103 
L 3125 0 
L 2563 0 
L 2563 2103 
Q 2563 2525 2380 2717 
Q 2197 2909 1863 2909 
Q 1613 2909 1392 2779 
Q 1172 2650 1078 2428 
Q 984 2206 984 1816 
L 984 0 
L 422 0 
z
" transform="scale(0.015625)"/>
      </defs>
      <use xlink:href="#ArialMT-57"/>
      <use xlink:href="#ArialMT-31" transform="translate(94.384766 0)"/>
      <use xlink:href="#ArialMT-20" transform="translate(150 0)"/>
      <use xlink:href="#ArialMT-54" transform="translate(176.033203 0)"/>
      <use xlink:href="#ArialMT-72" transform="translate(233.367188 0)"/>
      <use xlink:href="#ArialMT-6f" transform="translate(266.667969 0)"/>
      <use xlink:href="#ArialMT-75" transform="translate(322.283203 0)"/>
      <use xlink:href="#ArialMT-67" transform="translate(377.898438 0)"/>
      <use xlink:href="#ArialMT-68" transform="translate(433.513672 0)"/>
     </g>
    </g>
    <g id="LineCollection_7">
     <path d="M 314.06875 228.347375 
L 314.06875 216.347375 
" style="fill: none; stroke: #edb120; stroke-width: 2.5"/>
    </g>
    <g id="line2d_35">
     <g>
      <use xlink:href="#ma84c1780f9" x="314.06875" y="228.347375" style="fill: #edb120; stroke: #edb120; stroke-width: 2.5"/>
     </g>
    </g>
    <g id="line2d_36">
     <g>
      <use xlink:href="#ma84c1780f9" x="314.06875" y="216.347375" style="fill: #edb120; stroke: #edb120; stroke-width: 2.5"/>
     </g>
    </g>
    <g id="line2d_37">
     <path d="M 302.06875 222.347375 
L 326.06875 222.347375 
" style="fill: none; stroke: #edb120; stroke-width: 2.5; stroke-linecap: square"/>
    </g>
    <g id="line2d_38">
     <g>
      <use xlink:href="#m0606149452" x="314.06875" y="222.347375" style="fill: #edb120; stroke: #edb120"/>
     </g>
    </g>
    <g id="text_20">
     <!-- W3 Peak -->
     <g transform="translate(335.66875 226.547375) scale(0.12 -0.12)">
      <use xlink:href="#ArialMT-57"/>
      <use xlink:href="#ArialMT-33" transform="translate(94.384766 0)"/>
      <use xlink:href="#ArialMT-20" transform="translate(150 0)"/>
      <use xlink:href="#ArialMT-50" transform="translate(177.783203 0)"/>
      <use xlink:href="#ArialMT-65" transform="translate(244.482422 0)"/>
      <use xlink:href="#ArialMT-61" transform="translate(300.097656 0)"/>
      <use xlink:href="#ArialMT-6b" transform="translate(355.712891 0)"/>
     </g>
    </g>
    <g id="LineCollection_8">
     <path d="M 314.06875 245.357375 
L 314.06875 233.357375 
" style="fill: none; stroke: #7e2f8e; stroke-width: 2.5"/>
    </g>
    <g id="line2d_39">
     <g>
      <use xlink:href="#m849eab4e2d" x="314.06875" y="245.357375" style="fill: #7e2f8e; stroke: #7e2f8e; stroke-width: 2.5"/>
     </g>
    </g>
    <g id="line2d_40">
     <g>
      <use xlink:href="#m849eab4e2d" x="314.06875" y="233.357375" style="fill: #7e2f8e; stroke: #7e2f8e; stroke-width: 2.5"/>
     </g>
    </g>
    <g id="line2d_41">
     <path d="M 302.06875 239.357375 
L 326.06875 239.357375 
" style="fill: none; stroke: #7e2f8e; stroke-width: 2.5; stroke-linecap: square"/>
    </g>
    <g id="line2d_42">
     <g>
      <use xlink:href="#m2a83bcce4b" x="314.06875" y="239.357375" style="fill: #7e2f8e; stroke: #7e2f8e"/>
     </g>
    </g>
    <g id="text_21">
     <!-- W3 Trough -->
     <g transform="translate(335.66875 243.557375) scale(0.12 -0.12)">
      <use xlink:href="#ArialMT-57"/>
      <use xlink:href="#ArialMT-33" transform="translate(94.384766 0)"/>
      <use xlink:href="#ArialMT-20" transform="translate(150 0)"/>
      <use xlink:href="#ArialMT-54" transform="translate(176.033203 0)"/>
      <use xlink:href="#ArialMT-72" transform="translate(233.367188 0)"/>
      <use xlink:href="#ArialMT-6f" transform="translate(266.667969 0)"/>
      <use xlink:href="#ArialMT-75" transform="translate(322.283203 0)"/>
      <use xlink:href="#ArialMT-67" transform="translate(377.898438 0)"/>
      <use xlink:href="#ArialMT-68" transform="translate(433.513672 0)"/>
     </g>
    </g>
   </g>
  </g>
 </g>
 <defs>
  <clipPath id="p8e9d091838">
   <rect x="59.9075" y="26.943" width="345.2525" height="229.94"/>
  </clipPath>
 </defs>
</svg>
