<?xml version="1.0" encoding="utf-8" standalone="no"?>
<!DOCTYPE svg PUBLIC "-//W3C//DTD SVG 1.1//EN"
  "http://www.w3.org/Graphics/SVG/1.1/DTD/svg11.dtd">
<svg xmlns:xlink="http://www.w3.org/1999/xlink" width="412.3675pt" height="304.7305pt" viewBox="0 0 412.3675 304.7305" xmlns="http://www.w3.org/2000/svg" version="1.1">
 <metadata>
  <rdf:RDF xmlns:dc="http://purl.org/dc/elements/1.1/" xmlns:cc="http://creativecommons.org/ns#" xmlns:rdf="http://www.w3.org/1999/02/22-rdf-syntax-ns#">
   <cc:Work>
    <dc:type rdf:resource="http://purl.org/dc/dcmitype/StillImage"/>
    <dc:date>2026-06-26T13:29:22.705981</dc:date>
    <dc:format>image/svg+xml</dc:format>
    <dc:creator>
     <cc:Agent>
      <dc:title>Matplotlib v3.10.1, https://matplotlib.org/</dc:title>
     </cc:Agent>
    </dc:creator>
   </cc:Work>
  </rdf:RDF>
 </metadata>
 <defs>
  <style type="text/css">*{stroke-linejoin: round; stroke-linecap: butt}</style>
 </defs>
 <g id="figure_1">
  <g id="patch_1">
   <path d="M 0 304.7305 
L 412.3675 304.7305 
L 412.3675 0 
L 0 0 
L 0 304.7305 
z
" style="fill: none"/>
  </g>
  <g id="axes_1">
   <g id="patch_2">
    <path d="M 64.3525 256.883 
L 405.1675 256.883 
L 405.1675 26.943 
L 64.3525 26.943 
L 64.3525 256.883 
z
" style="fill: none"/>
   </g>
   <g id="matplotlib.axis_1">
    <g id="xtick_1">
     <g id="line2d_1">
      <defs>
       <path id="m3eaa7caab2" d="M 0 0 
L 0 3.5 
" style="stroke: #000000; stroke-width: 0.8"/>
      </defs>
      <g>
       <use xlink:href="#m3eaa7caab2" x="79.844091" y="256.883" style="stroke: #000000; stroke-width: 0.8"/>
      </g>
     </g>
     <g id="text_1">
      <!-- 10 -->
      <g transform="translate(70.946591 275.3355) scale(0.16 -0.16)">
       <defs>
        <path id="ArialMT-31" d="M 2384 0 
L 1822 0 
L 1822 3584 
Q 1619 3391 1289 3197 
Q 959 3003 697 2906 
L 697 3450 
Q 1169 3672 1522 3987 
Q 1875 4303 2022 4600 
L 2384 4600 
L 2384 0 
z
" transform="scale(0.015625)"/>
        <path id="ArialMT-30" d="M 266 2259 
Q 266 3072 433 3567 
Q 600 4063 929 4331 
Q 1259 4600 1759 4600 
Q 2128 4600 2406 4451 
Q 2684 4303 2865 4023 
Q 3047 3744 3150 3342 
Q 3253 2941 3253 2259 
Q 3253 1453 3087 958 
Q 2922 463 2592 192 
Q 2263 -78 1759 -78 
Q 1097 -78 719 397 
Q 266 969 266 2259 
z
M 844 2259 
Q 844 1131 1108 757 
Q 1372 384 1759 384 
Q 2147 384 2411 759 
Q 2675 1134 2675 2259 
Q 2675 3391 2411 3762 
Q 2147 4134 1753 4134 
Q 1366 4134 1134 3806 
Q 844 3388 844 2259 
z
" transform="scale(0.015625)"/>
       </defs>
       <use xlink:href="#ArialMT-31"/>
       <use xlink:href="#ArialMT-30" transform="translate(55.615234 0)"/>
      </g>
     </g>
    </g>
    <g id="xtick_2">
     <g id="line2d_2">
      <g>
       <use xlink:href="#m3eaa7caab2" x="124.105779" y="256.883" style="stroke: #000000; stroke-width: 0.8"/>
      </g>
     </g>
     <g id="text_2">
      <!-- 20 -->
      <g transform="translate(115.208279 275.3355) scale(0.16 -0.16)">
       <defs>
        <path id="ArialMT-32" d="M 3222 541 
L 3222 0 
L 194 0 
Q 188 203 259 391 
Q 375 700 629 1000 
Q 884 1300 1366 1694 
Q 2113 2306 2375 2664 
Q 2638 3022 2638 3341 
Q 2638 3675 2398 3904 
Q 2159 4134 1775 4134 
Q 1369 4134 1125 3890 
Q 881 3647 878 3216 
L 300 3275 
Q 359 3922 746 4261 
Q 1134 4600 1788 4600 
Q 2447 4600 2831 4234 
Q 3216 3869 3216 3328 
Q 3216 3053 3103 2787 
Q 2991 2522 2730 2228 
Q 2469 1934 1863 1422 
Q 1356 997 1212 845 
Q 1069 694 975 541 
L 3222 541 
z
" transform="scale(0.015625)"/>
       </defs>
       <use xlink:href="#ArialMT-32"/>
       <use xlink:href="#ArialMT-30" transform="translate(55.615234 0)"/>
      </g>
     </g>
    </g>
    <g id="xtick_3">
     <g id="line2d_3">
      <g>
       <use xlink:href="#m3eaa7caab2" x="168.367468" y="256.883" style="stroke: #000000; stroke-width: 0.8"/>
      </g>
     </g>
     <g id="text_3">
      <!-- 30 -->
      <g transform="translate(159.469968 275.3355) scale(0.16 -0.16)">
       <defs>
        <path id="ArialMT-33" d="M 269 1209 
L 831 1284 
Q 928 806 1161 595 
Q 1394 384 1728 384 
Q 2125 384 2398 659 
Q 2672 934 2672 1341 
Q 2672 1728 2419 1979 
Q 2166 2231 1775 2231 
Q 1616 2231 1378 2169 
L 1441 2663 
Q 1497 2656 1531 2656 
Q 1891 2656 2178 2843 
Q 2466 3031 2466 3422 
Q 2466 3731 2256 3934 
Q 2047 4138 1716 4138 
Q 1388 4138 1169 3931 
Q 950 3725 888 3313 
L 325 3413 
Q 428 3978 793 4289 
Q 1159 4600 1703 4600 
Q 2078 4600 2393 4439 
Q 2709 4278 2876 4000 
Q 3044 3722 3044 3409 
Q 3044 3113 2884 2869 
Q 2725 2625 2413 2481 
Q 2819 2388 3044 2092 
Q 3269 1797 3269 1353 
Q 3269 753 2831 336 
Q 2394 -81 1725 -81 
Q 1122 -81 723 278 
Q 325 638 269 1209 
z
" transform="scale(0.015625)"/>
       </defs>
       <use xlink:href="#ArialMT-33"/>
       <use xlink:href="#ArialMT-30" transform="translate(55.615234 0)"/>
      </g>
     </g>
    </g>
    <g id="xtick_4">
     <g id="line2d_4">
      <g>
       <use xlink:href="#m3eaa7caab2" x="212.629156" y="256.883" style="stroke: #000000; stroke-width: 0.8"/>
      </g>
     </g>
     <g id="text_4">
      <!-- 40 -->
      <g transform="translate(203.731656 275.3355) scale(0.16 -0.16)">
       <defs>
        <path id="ArialMT-34" d="M 2069 0 
L 2069 1097 
L 81 1097 
L 81 1613 
L 2172 4581 
L 2631 4581 
L 2631 1613 
L 3250 1613 
L 3250 1097 
L 2631 1097 
L 2631 0 
L 2069 0 
z
M 2069 1613 
L 2069 3678 
L 634 1613 
L 2069 1613 
z
" transform="scale(0.015625)"/>
       </defs>
       <use xlink:href="#ArialMT-34"/>
       <use xlink:href="#ArialMT-30" transform="translate(55.615234 0)"/>
      </g>
     </g>
    </g>
    <g id="xtick_5">
     <g id="line2d_5">
      <g>
       <use xlink:href="#m3eaa7caab2" x="256.890844" y="256.883" style="stroke: #000000; stroke-width: 0.8"/>
      </g>
     </g>
     <g id="text_5">
      <!-- 50 -->
      <g transform="translate(247.993344 275.3355) scale(0.16 -0.16)">
       <defs>
        <path id="ArialMT-35" d="M 266 1200 
L 856 1250 
Q 922 819 1161 601 
Q 1400 384 1738 384 
Q 2144 384 2425 690 
Q 2706 997 2706 1503 
Q 2706 1984 2436 2262 
Q 2166 2541 1728 2541 
Q 1456 2541 1237 2417 
Q 1019 2294 894 2097 
L 366 2166 
L 809 4519 
L 3088 4519 
L 3088 3981 
L 1259 3981 
L 1013 2750 
Q 1425 3038 1878 3038 
Q 2478 3038 2890 2622 
Q 3303 2206 3303 1553 
Q 3303 931 2941 478 
Q 2500 -78 1738 -78 
Q 1113 -78 717 272 
Q 322 622 266 1200 
z
" transform="scale(0.015625)"/>
       </defs>
       <use xlink:href="#ArialMT-35"/>
       <use xlink:href="#ArialMT-30" transform="translate(55.615234 0)"/>
      </g>
     </g>
    </g>
    <g id="xtick_6">
     <g id="line2d_6">
      <g>
       <use xlink:href="#m3eaa7caab2" x="301.152532" y="256.883" style="stroke: #000000; stroke-width: 0.8"/>
      </g>
     </g>
     <g id="text_6">
      <!-- 60 -->
      <g transform="translate(292.255032 275.3355) scale(0.16 -0.16)">
       <defs>
        <path id="ArialMT-36" d="M 3184 3459 
L 2625 3416 
Q 2550 3747 2413 3897 
Q 2184 4138 1850 4138 
Q 1581 4138 1378 3988 
Q 1113 3794 959 3422 
Q 806 3050 800 2363 
Q 1003 2672 1297 2822 
Q 1591 2972 1913 2972 
Q 2475 2972 2870 2558 
Q 3266 2144 3266 1488 
Q 3266 1056 3080 686 
Q 2894 316 2569 119 
Q 2244 -78 1831 -78 
Q 1128 -78 684 439 
Q 241 956 241 2144 
Q 241 3472 731 4075 
Q 1159 4600 1884 4600 
Q 2425 4600 2770 4297 
Q 3116 3994 3184 3459 
z
M 888 1484 
Q 888 1194 1011 928 
Q 1134 663 1356 523 
Q 1578 384 1822 384 
Q 2178 384 2434 671 
Q 2691 959 2691 1453 
Q 2691 1928 2437 2201 
Q 2184 2475 1800 2475 
Q 1419 2475 1153 2201 
Q 888 1928 888 1484 
z
" transform="scale(0.015625)"/>
       </defs>
       <use xlink:href="#ArialMT-36"/>
       <use xlink:href="#ArialMT-30" transform="translate(55.615234 0)"/>
      </g>
     </g>
    </g>
    <g id="xtick_7">
     <g id="line2d_7">
      <g>
       <use xlink:href="#m3eaa7caab2" x="345.414221" y="256.883" style="stroke: #000000; stroke-width: 0.8"/>
      </g>
     </g>
     <g id="text_7">
      <!-- 70 -->
      <g transform="translate(336.516721 275.3355) scale(0.16 -0.16)">
       <defs>
        <path id="ArialMT-37" d="M 303 3981 
L 303 4522 
L 3269 4522 
L 3269 4084 
Q 2831 3619 2401 2847 
Q 1972 2075 1738 1259 
Q 1569 684 1522 0 
L 944 0 
Q 953 541 1156 1306 
Q 1359 2072 1739 2783 
Q 2119 3494 2547 3981 
L 303 3981 
z
" transform="scale(0.015625)"/>
       </defs>
       <use xlink:href="#ArialMT-37"/>
       <use xlink:href="#ArialMT-30" transform="translate(55.615234 0)"/>
      </g>
     </g>
    </g>
    <g id="xtick_8">
     <g id="line2d_8">
      <g>
       <use xlink:href="#m3eaa7caab2" x="389.675909" y="256.883" style="stroke: #000000; stroke-width: 0.8"/>
      </g>
     </g>
     <g id="text_8">
      <!-- 80 -->
      <g transform="translate(380.778409 275.3355) scale(0.16 -0.16)">
       <defs>
        <path id="ArialMT-38" d="M 1131 2484 
Q 781 2613 612 2850 
Q 444 3088 444 3419 
Q 444 3919 803 4259 
Q 1163 4600 1759 4600 
Q 2359 4600 2725 4251 
Q 3091 3903 3091 3403 
Q 3091 3084 2923 2848 
Q 2756 2613 2416 2484 
Q 2838 2347 3058 2040 
Q 3278 1734 3278 1309 
Q 3278 722 2862 322 
Q 2447 -78 1769 -78 
Q 1091 -78 675 323 
Q 259 725 259 1325 
Q 259 1772 486 2073 
Q 713 2375 1131 2484 
z
M 1019 3438 
Q 1019 3113 1228 2906 
Q 1438 2700 1772 2700 
Q 2097 2700 2305 2904 
Q 2513 3109 2513 3406 
Q 2513 3716 2298 3927 
Q 2084 4138 1766 4138 
Q 1444 4138 1231 3931 
Q 1019 3725 1019 3438 
z
M 838 1322 
Q 838 1081 952 856 
Q 1066 631 1291 507 
Q 1516 384 1775 384 
Q 2178 384 2440 643 
Q 2703 903 2703 1303 
Q 2703 1709 2433 1975 
Q 2163 2241 1756 2241 
Q 1359 2241 1098 1978 
Q 838 1716 838 1322 
z
" transform="scale(0.015625)"/>
       </defs>
       <use xlink:href="#ArialMT-38"/>
       <use xlink:href="#ArialMT-30" transform="translate(55.615234 0)"/>
      </g>
     </g>
    </g>
    <g id="text_9">
     <!-- Sound Level (dB) -->
     <g transform="translate(172.9475 294.163) scale(0.16 -0.16)">
      <defs>
       <path id="ArialMT-53" d="M 288 1472 
L 859 1522 
Q 900 1178 1048 958 
Q 1197 738 1509 602 
Q 1822 466 2213 466 
Q 2559 466 2825 569 
Q 3091 672 3220 851 
Q 3350 1031 3350 1244 
Q 3350 1459 3225 1620 
Q 3100 1781 2813 1891 
Q 2628 1963 1997 2114 
Q 1366 2266 1113 2400 
Q 784 2572 623 2826 
Q 463 3081 463 3397 
Q 463 3744 659 4045 
Q 856 4347 1234 4503 
Q 1613 4659 2075 4659 
Q 2584 4659 2973 4495 
Q 3363 4331 3572 4012 
Q 3781 3694 3797 3291 
L 3216 3247 
Q 3169 3681 2898 3903 
Q 2628 4125 2100 4125 
Q 1550 4125 1298 3923 
Q 1047 3722 1047 3438 
Q 1047 3191 1225 3031 
Q 1400 2872 2139 2705 
Q 2878 2538 3153 2413 
Q 3553 2228 3743 1945 
Q 3934 1663 3934 1294 
Q 3934 928 3725 604 
Q 3516 281 3123 101 
Q 2731 -78 2241 -78 
Q 1619 -78 1198 103 
Q 778 284 539 648 
Q 300 1013 288 1472 
z
" transform="scale(0.015625)"/>
       <path id="ArialMT-6f" d="M 213 1659 
Q 213 2581 725 3025 
Q 1153 3394 1769 3394 
Q 2453 3394 2887 2945 
Q 3322 2497 3322 1706 
Q 3322 1066 3130 698 
Q 2938 331 2570 128 
Q 2203 -75 1769 -75 
Q 1072 -75 642 372 
Q 213 819 213 1659 
z
M 791 1659 
Q 791 1022 1069 705 
Q 1347 388 1769 388 
Q 2188 388 2466 706 
Q 2744 1025 2744 1678 
Q 2744 2294 2464 2611 
Q 2184 2928 1769 2928 
Q 1347 2928 1069 2612 
Q 791 2297 791 1659 
z
" transform="scale(0.015625)"/>
       <path id="ArialMT-75" d="M 2597 0 
L 2597 488 
Q 2209 -75 1544 -75 
Q 1250 -75 995 37 
Q 741 150 617 320 
Q 494 491 444 738 
Q 409 903 409 1263 
L 409 3319 
L 972 3319 
L 972 1478 
Q 972 1038 1006 884 
Q 1059 663 1231 536 
Q 1403 409 1656 409 
Q 1909 409 2131 539 
Q 2353 669 2445 892 
Q 2538 1116 2538 1541 
L 2538 3319 
L 3100 3319 
L 3100 0 
L 2597 0 
z
" transform="scale(0.015625)"/>
       <path id="ArialMT-6e" d="M 422 0 
L 422 3319 
L 928 3319 
L 928 2847 
Q 1294 3394 1984 3394 
Q 2284 3394 2536 3286 
Q 2788 3178 2913 3003 
Q 3038 2828 3088 2588 
Q 3119 2431 3119 2041 
L 3119 0 
L 2556 0 
L 2556 2019 
Q 2556 2363 2490 2533 
Q 2425 2703 2258 2804 
Q 2091 2906 1866 2906 
Q 1506 2906 1245 2678 
Q 984 2450 984 1813 
L 984 0 
L 422 0 
z
" transform="scale(0.015625)"/>
       <path id="ArialMT-64" d="M 2575 0 
L 2575 419 
Q 2259 -75 1647 -75 
Q 1250 -75 917 144 
Q 584 363 401 755 
Q 219 1147 219 1656 
Q 219 2153 384 2558 
Q 550 2963 881 3178 
Q 1213 3394 1622 3394 
Q 1922 3394 2156 3267 
Q 2391 3141 2538 2938 
L 2538 4581 
L 3097 4581 
L 3097 0 
L 2575 0 
z
M 797 1656 
Q 797 1019 1065 703 
Q 1334 388 1700 388 
Q 2069 388 2326 689 
Q 2584 991 2584 1609 
Q 2584 2291 2321 2609 
Q 2059 2928 1675 2928 
Q 1300 2928 1048 2622 
Q 797 2316 797 1656 
z
" transform="scale(0.015625)"/>
       <path id="ArialMT-20" transform="scale(0.015625)"/>
       <path id="ArialMT-4c" d="M 469 0 
L 469 4581 
L 1075 4581 
L 1075 541 
L 3331 541 
L 3331 0 
L 469 0 
z
" transform="scale(0.015625)"/>
       <path id="ArialMT-65" d="M 2694 1069 
L 3275 997 
Q 3138 488 2766 206 
Q 2394 -75 1816 -75 
Q 1088 -75 661 373 
Q 234 822 234 1631 
Q 234 2469 665 2931 
Q 1097 3394 1784 3394 
Q 2450 3394 2872 2941 
Q 3294 2488 3294 1666 
Q 3294 1616 3291 1516 
L 816 1516 
Q 847 969 1125 678 
Q 1403 388 1819 388 
Q 2128 388 2347 550 
Q 2566 713 2694 1069 
z
M 847 1978 
L 2700 1978 
Q 2663 2397 2488 2606 
Q 2219 2931 1791 2931 
Q 1403 2931 1139 2672 
Q 875 2413 847 1978 
z
" transform="scale(0.015625)"/>
       <path id="ArialMT-76" d="M 1344 0 
L 81 3319 
L 675 3319 
L 1388 1331 
Q 1503 1009 1600 663 
Q 1675 925 1809 1294 
L 2547 3319 
L 3125 3319 
L 1869 0 
L 1344 0 
z
" transform="scale(0.015625)"/>
       <path id="ArialMT-6c" d="M 409 0 
L 409 4581 
L 972 4581 
L 972 0 
L 409 0 
z
" transform="scale(0.015625)"/>
       <path id="ArialMT-28" d="M 1497 -1347 
Q 1031 -759 709 28 
Q 388 816 388 1659 
Q 388 2403 628 3084 
Q 909 3875 1497 4659 
L 1900 4659 
Q 1522 4009 1400 3731 
Q 1209 3300 1100 2831 
Q 966 2247 966 1656 
Q 966 153 1900 -1347 
L 1497 -1347 
z
" transform="scale(0.015625)"/>
       <path id="ArialMT-42" d="M 469 0 
L 469 4581 
L 2188 4581 
Q 2713 4581 3030 4442 
Q 3347 4303 3526 4014 
Q 3706 3725 3706 3409 
Q 3706 3116 3547 2856 
Q 3388 2597 3066 2438 
Q 3481 2316 3704 2022 
Q 3928 1728 3928 1328 
Q 3928 1006 3792 729 
Q 3656 453 3456 303 
Q 3256 153 2954 76 
Q 2653 0 2216 0 
L 469 0 
z
M 1075 2656 
L 2066 2656 
Q 2469 2656 2644 2709 
Q 2875 2778 2992 2937 
Q 3109 3097 3109 3338 
Q 3109 3566 3000 3739 
Q 2891 3913 2687 3977 
Q 2484 4041 1991 4041 
L 1075 4041 
L 1075 2656 
z
M 1075 541 
L 2216 541 
Q 2509 541 2628 563 
Q 2838 600 2978 687 
Q 3119 775 3209 942 
Q 3300 1109 3300 1328 
Q 3300 1584 3169 1773 
Q 3038 1963 2805 2039 
Q 2572 2116 2134 2116 
L 1075 2116 
L 1075 541 
z
" transform="scale(0.015625)"/>
       <path id="ArialMT-29" d="M 791 -1347 
L 388 -1347 
Q 1322 153 1322 1656 
Q 1322 2244 1188 2822 
Q 1081 3291 891 3722 
Q 769 4003 388 4659 
L 791 4659 
Q 1378 3875 1659 3084 
Q 1900 2403 1900 1659 
Q 1900 816 1576 28 
Q 1253 -759 791 -1347 
z
" transform="scale(0.015625)"/>
      </defs>
      <use xlink:href="#ArialMT-53"/>
      <use xlink:href="#ArialMT-6f" transform="translate(66.699219 0)"/>
      <use xlink:href="#ArialMT-75" transform="translate(122.314453 0)"/>
      <use xlink:href="#ArialMT-6e" transform="translate(177.929688 0)"/>
      <use xlink:href="#ArialMT-64" transform="translate(233.544922 0)"/>
      <use xlink:href="#ArialMT-20" transform="translate(289.160156 0)"/>
      <use xlink:href="#ArialMT-4c" transform="translate(316.943359 0)"/>
      <use xlink:href="#ArialMT-65" transform="translate(372.558594 0)"/>
      <use xlink:href="#ArialMT-76" transform="translate(428.173828 0)"/>
      <use xlink:href="#ArialMT-65" transform="translate(478.173828 0)"/>
      <use xlink:href="#ArialMT-6c" transform="translate(533.789062 0)"/>
      <use xlink:href="#ArialMT-20" transform="translate(556.005859 0)"/>
      <use xlink:href="#ArialMT-28" transform="translate(583.789062 0)"/>
      <use xlink:href="#ArialMT-64" transform="translate(617.089844 0)"/>
      <use xlink:href="#ArialMT-42" transform="translate(672.705078 0)"/>
      <use xlink:href="#ArialMT-29" transform="translate(739.404297 0)"/>
     </g>
    </g>
   </g>
   <g id="matplotlib.axis_2">
    <g id="ytick_1">
     <g id="line2d_9">
      <defs>
       <path id="m8ce0104651" d="M 0 0 
L -3.5 0 
" style="stroke: #000000; stroke-width: 0.8"/>
      </defs>
      <g>
       <use xlink:href="#m8ce0104651" x="64.3525" y="256.883" style="stroke: #000000; stroke-width: 0.8"/>
      </g>
     </g>
     <g id="text_10">
      <!-- 0.00 -->
      <g transform="translate(26.215 262.60925) scale(0.16 -0.16)">
       <defs>
        <path id="ArialMT-2e" d="M 581 0 
L 581 641 
L 1222 641 
L 1222 0 
L 581 0 
z
" transform="scale(0.015625)"/>
       </defs>
       <use xlink:href="#ArialMT-30"/>
       <use xlink:href="#ArialMT-2e" transform="translate(55.615234 0)"/>
       <use xlink:href="#ArialMT-30" transform="translate(83.398438 0)"/>
       <use xlink:href="#ArialMT-30" transform="translate(139.013672 0)"/>
      </g>
     </g>
    </g>
    <g id="ytick_2">
     <g id="line2d_10">
      <g>
       <use xlink:href="#m8ce0104651" x="64.3525" y="180.236333" style="stroke: #000000; stroke-width: 0.8"/>
      </g>
     </g>
     <g id="text_11">
      <!-- 0.05 -->
      <g transform="translate(26.215 185.962583) scale(0.16 -0.16)">
       <use xlink:href="#ArialMT-30"/>
       <use xlink:href="#ArialMT-2e" transform="translate(55.615234 0)"/>
       <use xlink:href="#ArialMT-30" transform="translate(83.398438 0)"/>
       <use xlink:href="#ArialMT-35" transform="translate(139.013672 0)"/>
      </g>
     </g>
    </g>
    <g id="ytick_3">
     <g id="line2d_11">
      <g>
       <use xlink:href="#m8ce0104651" x="64.3525" y="103.589667" style="stroke: #000000; stroke-width: 0.8"/>
      </g>
     </g>
     <g id="text_12">
      <!-- 0.10 -->
      <g transform="translate(26.215 109.315917) scale(0.16 -0.16)">
       <use xlink:href="#ArialMT-30"/>
       <use xlink:href="#ArialMT-2e" transform="translate(55.615234 0)"/>
       <use xlink:href="#ArialMT-31" transform="translate(83.398438 0)"/>
       <use xlink:href="#ArialMT-30" transform="translate(139.013672 0)"/>
      </g>
     </g>
    </g>
    <g id="ytick_4">
     <g id="line2d_12">
      <g>
       <use xlink:href="#m8ce0104651" x="64.3525" y="26.943" style="stroke: #000000; stroke-width: 0.8"/>
      </g>
     </g>
     <g id="text_13">
      <!-- 0.15 -->
      <g transform="translate(26.215 32.66925) scale(0.16 -0.16)">
       <use xlink:href="#ArialMT-30"/>
       <use xlink:href="#ArialMT-2e" transform="translate(55.615234 0)"/>
       <use xlink:href="#ArialMT-31" transform="translate(83.398438 0)"/>
       <use xlink:href="#ArialMT-35" transform="translate(139.013672 0)"/>
      </g>
     </g>
    </g>
    <g id="text_14">
     <!-- Prediction Adjustment (ms) -->
     <g transform="translate(18.8475 237.49925) rotate(-90) scale(0.16 -0.16)">
      <defs>
       <path id="ArialMT-50" d="M 494 0 
L 494 4581 
L 2222 4581 
Q 2678 4581 2919 4538 
Q 3256 4481 3484 4323 
Q 3713 4166 3852 3881 
Q 3991 3597 3991 3256 
Q 3991 2672 3619 2267 
Q 3247 1863 2275 1863 
L 1100 1863 
L 1100 0 
L 494 0 
z
M 1100 2403 
L 2284 2403 
Q 2872 2403 3119 2622 
Q 3366 2841 3366 3238 
Q 3366 3525 3220 3729 
Q 3075 3934 2838 4000 
Q 2684 4041 2272 4041 
L 1100 4041 
L 1100 2403 
z
" transform="scale(0.015625)"/>
       <path id="ArialMT-72" d="M 416 0 
L 416 3319 
L 922 3319 
L 922 2816 
Q 1116 3169 1280 3281 
Q 1444 3394 1641 3394 
Q 1925 3394 2219 3213 
L 2025 2691 
Q 1819 2813 1613 2813 
Q 1428 2813 1281 2702 
Q 1134 2591 1072 2394 
Q 978 2094 978 1738 
L 978 0 
L 416 0 
z
" transform="scale(0.015625)"/>
       <path id="ArialMT-69" d="M 425 3934 
L 425 4581 
L 988 4581 
L 988 3934 
L 425 3934 
z
M 425 0 
L 425 3319 
L 988 3319 
L 988 0 
L 425 0 
z
" transform="scale(0.015625)"/>
       <path id="ArialMT-63" d="M 2588 1216 
L 3141 1144 
Q 3050 572 2676 248 
Q 2303 -75 1759 -75 
Q 1078 -75 664 370 
Q 250 816 250 1647 
Q 250 2184 428 2587 
Q 606 2991 970 3192 
Q 1334 3394 1763 3394 
Q 2303 3394 2647 3120 
Q 2991 2847 3088 2344 
L 2541 2259 
Q 2463 2594 2264 2762 
Q 2066 2931 1784 2931 
Q 1359 2931 1093 2626 
Q 828 2322 828 1663 
Q 828 994 1084 691 
Q 1341 388 1753 388 
Q 2084 388 2306 591 
Q 2528 794 2588 1216 
z
" transform="scale(0.015625)"/>
       <path id="ArialMT-74" d="M 1650 503 
L 1731 6 
Q 1494 -44 1306 -44 
Q 1000 -44 831 53 
Q 663 150 594 308 
Q 525 466 525 972 
L 525 2881 
L 113 2881 
L 113 3319 
L 525 3319 
L 525 4141 
L 1084 4478 
L 1084 3319 
L 1650 3319 
L 1650 2881 
L 1084 2881 
L 1084 941 
Q 1084 700 1114 631 
Q 1144 563 1211 522 
Q 1278 481 1403 481 
Q 1497 481 1650 503 
z
" transform="scale(0.015625)"/>
       <path id="ArialMT-41" d="M -9 0 
L 1750 4581 
L 2403 4581 
L 4278 0 
L 3588 0 
L 3053 1388 
L 1138 1388 
L 634 0 
L -9 0 
z
M 1313 1881 
L 2866 1881 
L 2388 3150 
Q 2169 3728 2063 4100 
Q 1975 3659 1816 3225 
L 1313 1881 
z
" transform="scale(0.015625)"/>
       <path id="ArialMT-6a" d="M 419 3928 
L 419 4581 
L 981 4581 
L 981 3928 
L 419 3928 
z
M -294 -1288 
L -188 -809 
Q -19 -853 78 -853 
Q 250 -853 334 -739 
Q 419 -625 419 -169 
L 419 3319 
L 981 3319 
L 981 -181 
Q 981 -794 822 -1034 
Q 619 -1347 147 -1347 
Q -81 -1347 -294 -1288 
z
" transform="scale(0.015625)"/>
       <path id="ArialMT-73" d="M 197 991 
L 753 1078 
Q 800 744 1014 566 
Q 1228 388 1613 388 
Q 2000 388 2187 545 
Q 2375 703 2375 916 
Q 2375 1106 2209 1216 
Q 2094 1291 1634 1406 
Q 1016 1563 777 1677 
Q 538 1791 414 1992 
Q 291 2194 291 2438 
Q 291 2659 392 2848 
Q 494 3038 669 3163 
Q 800 3259 1026 3326 
Q 1253 3394 1513 3394 
Q 1903 3394 2198 3281 
Q 2494 3169 2634 2976 
Q 2775 2784 2828 2463 
L 2278 2388 
Q 2241 2644 2061 2787 
Q 1881 2931 1553 2931 
Q 1166 2931 1000 2803 
Q 834 2675 834 2503 
Q 834 2394 903 2306 
Q 972 2216 1119 2156 
Q 1203 2125 1616 2013 
Q 2213 1853 2448 1751 
Q 2684 1650 2818 1456 
Q 2953 1263 2953 975 
Q 2953 694 2789 445 
Q 2625 197 2315 61 
Q 2006 -75 1616 -75 
Q 969 -75 630 194 
Q 291 463 197 991 
z
" transform="scale(0.015625)"/>
       <path id="ArialMT-6d" d="M 422 0 
L 422 3319 
L 925 3319 
L 925 2853 
Q 1081 3097 1340 3245 
Q 1600 3394 1931 3394 
Q 2300 3394 2536 3241 
Q 2772 3088 2869 2813 
Q 3263 3394 3894 3394 
Q 4388 3394 4653 3120 
Q 4919 2847 4919 2278 
L 4919 0 
L 4359 0 
L 4359 2091 
Q 4359 2428 4304 2576 
Q 4250 2725 4106 2815 
Q 3963 2906 3769 2906 
Q 3419 2906 3187 2673 
Q 2956 2441 2956 1928 
L 2956 0 
L 2394 0 
L 2394 2156 
Q 2394 2531 2256 2718 
Q 2119 2906 1806 2906 
Q 1569 2906 1367 2781 
Q 1166 2656 1075 2415 
Q 984 2175 984 1722 
L 984 0 
L 422 0 
z
" transform="scale(0.015625)"/>
      </defs>
      <use xlink:href="#ArialMT-50"/>
      <use xlink:href="#ArialMT-72" transform="translate(66.699219 0)"/>
      <use xlink:href="#ArialMT-65" transform="translate(100 0)"/>
      <use xlink:href="#ArialMT-64" transform="translate(155.615234 0)"/>
      <use xlink:href="#ArialMT-69" transform="translate(211.230469 0)"/>
      <use xlink:href="#ArialMT-63" transform="translate(233.447266 0)"/>
      <use xlink:href="#ArialMT-74" transform="translate(283.447266 0)"/>
      <use xlink:href="#ArialMT-69" transform="translate(311.230469 0)"/>
      <use xlink:href="#ArialMT-6f" transform="translate(333.447266 0)"/>
      <use xlink:href="#ArialMT-6e" transform="translate(389.0625 0)"/>
      <use xlink:href="#ArialMT-20" transform="translate(444.677734 0)"/>
      <use xlink:href="#ArialMT-41" transform="translate(466.960938 0)"/>
      <use xlink:href="#ArialMT-64" transform="translate(533.660156 0)"/>
      <use xlink:href="#ArialMT-6a" transform="translate(589.275391 0)"/>
      <use xlink:href="#ArialMT-75" transform="translate(611.492188 0)"/>
      <use xlink:href="#ArialMT-73" transform="translate(667.107422 0)"/>
      <use xlink:href="#ArialMT-74" transform="translate(717.107422 0)"/>
      <use xlink:href="#ArialMT-6d" transform="translate(744.890625 0)"/>
      <use xlink:href="#ArialMT-65" transform="translate(828.191406 0)"/>
      <use xlink:href="#ArialMT-6e" transform="translate(883.806641 0)"/>
      <use xlink:href="#ArialMT-74" transform="translate(939.421875 0)"/>
      <use xlink:href="#ArialMT-20" transform="translate(967.205078 0)"/>
      <use xlink:href="#ArialMT-28" transform="translate(994.988281 0)"/>
      <use xlink:href="#ArialMT-6d" transform="translate(1028.289062 0)"/>
      <use xlink:href="#ArialMT-73" transform="translate(1111.589844 0)"/>
      <use xlink:href="#ArialMT-29" transform="translate(1161.589844 0)"/>
     </g>
    </g>
   </g>
   <g id="LineCollection_1">
    <path d="M 79.844091 217.765026 
L 79.844091 150.718523 
" clip-path="url(#p972a17d463)" style="fill: none; stroke: #0072bd; stroke-width: 2.5"/>
    <path d="M 124.105779 216.235927 
L 124.105779 196.45016 
" clip-path="url(#p972a17d463)" style="fill: none; stroke: #0072bd; stroke-width: 2.5"/>
    <path d="M 168.367468 236.672451 
L 168.367468 223.119921 
" clip-path="url(#p972a17d463)" style="fill: none; stroke: #0072bd; stroke-width: 2.5"/>
    <path d="M 212.629156 239.37895 
L 212.629156 231.111289 
" clip-path="url(#p972a17d463)" style="fill: none; stroke: #0072bd; stroke-width: 2.5"/>
    <path d="M 256.890844 244.119836 
L 256.890844 236.836749 
" clip-path="url(#p972a17d463)" style="fill: none; stroke: #0072bd; stroke-width: 2.5"/>
    <path d="M 301.152532 243.21307 
L 301.152532 239.617907 
" clip-path="url(#p972a17d463)" style="fill: none; stroke: #0072bd; stroke-width: 2.5"/>
    <path d="M 345.414221 243.121916 
L 345.414221 239.335642 
" clip-path="url(#p972a17d463)" style="fill: none; stroke: #0072bd; stroke-width: 2.5"/>
    <path d="M 389.675909 233.025787 
L 389.675909 223.336444 
" clip-path="url(#p972a17d463)" style="fill: none; stroke: #0072bd; stroke-width: 2.5"/>
   </g>
   <g id="line2d_13">
    <defs>
     <path id="m53cc4a3475" d="M 4 0 
L -4 -0 
" style="stroke: #0072bd; stroke-width: 2.5"/>
    </defs>
    <g clip-path="url(#p972a17d463)">
     <use xlink:href="#m53cc4a3475" x="79.844091" y="217.765026" style="fill: #0072bd; stroke: #0072bd; stroke-width: 2.5"/>
     <use xlink:href="#m53cc4a3475" x="124.105779" y="216.235927" style="fill: #0072bd; stroke: #0072bd; stroke-width: 2.5"/>
     <use xlink:href="#m53cc4a3475" x="168.367468" y="236.672451" style="fill: #0072bd; stroke: #0072bd; stroke-width: 2.5"/>
     <use xlink:href="#m53cc4a3475" x="212.629156" y="239.37895" style="fill: #0072bd; stroke: #0072bd; stroke-width: 2.5"/>
     <use xlink:href="#m53cc4a3475" x="256.890844" y="244.119836" style="fill: #0072bd; stroke: #0072bd; stroke-width: 2.5"/>
     <use xlink:href="#m53cc4a3475" x="301.152532" y="243.21307" style="fill: #0072bd; stroke: #0072bd; stroke-width: 2.5"/>
     <use xlink:href="#m53cc4a3475" x="345.414221" y="243.121916" style="fill: #0072bd; stroke: #0072bd; stroke-width: 2.5"/>
     <use xlink:href="#m53cc4a3475" x="389.675909" y="233.025787" style="fill: #0072bd; stroke: #0072bd; stroke-width: 2.5"/>
    </g>
   </g>
   <g id="line2d_14">
    <g clip-path="url(#p972a17d463)">
     <use xlink:href="#m53cc4a3475" x="79.844091" y="150.718523" style="fill: #0072bd; stroke: #0072bd; stroke-width: 2.5"/>
     <use xlink:href="#m53cc4a3475" x="124.105779" y="196.45016" style="fill: #0072bd; stroke: #0072bd; stroke-width: 2.5"/>
     <use xlink:href="#m53cc4a3475" x="168.367468" y="223.119921" style="fill: #0072bd; stroke: #0072bd; stroke-width: 2.5"/>
     <use xlink:href="#m53cc4a3475" x="212.629156" y="231.111289" style="fill: #0072bd; stroke: #0072bd; stroke-width: 2.5"/>
     <use xlink:href="#m53cc4a3475" x="256.890844" y="236.836749" style="fill: #0072bd; stroke: #0072bd; stroke-width: 2.5"/>
     <use xlink:href="#m53cc4a3475" x="301.152532" y="239.617907" style="fill: #0072bd; stroke: #0072bd; stroke-width: 2.5"/>
     <use xlink:href="#m53cc4a3475" x="345.414221" y="239.335642" style="fill: #0072bd; stroke: #0072bd; stroke-width: 2.5"/>
     <use xlink:href="#m53cc4a3475" x="389.675909" y="223.336444" style="fill: #0072bd; stroke: #0072bd; stroke-width: 2.5"/>
    </g>
   </g>
   <g id="LineCollection_2">
    <path d="M 79.844091 181.865988 
L 79.844091 157.660794 
" clip-path="url(#p972a17d463)" style="fill: none; stroke: #d95319; stroke-width: 2.5"/>
    <path d="M 124.105779 198.037756 
L 124.105779 176.931712 
" clip-path="url(#p972a17d463)" style="fill: none; stroke: #d95319; stroke-width: 2.5"/>
    <path d="M 168.367468 231.350676 
L 168.367468 215.505444 
" clip-path="url(#p972a17d463)" style="fill: none; stroke: #d95319; stroke-width: 2.5"/>
    <path d="M 212.629156 232.006657 
L 212.629156 219.689962 
" clip-path="url(#p972a17d463)" style="fill: none; stroke: #d95319; stroke-width: 2.5"/>
    <path d="M 256.890844 233.398404 
L 256.890844 227.237765 
" clip-path="url(#p972a17d463)" style="fill: none; stroke: #d95319; stroke-width: 2.5"/>
    <path d="M 301.152532 229.223096 
L 301.152532 218.912331 
" clip-path="url(#p972a17d463)" style="fill: none; stroke: #d95319; stroke-width: 2.5"/>
    <path d="M 345.414221 223.285619 
L 345.414221 208.484471 
" clip-path="url(#p972a17d463)" style="fill: none; stroke: #d95319; stroke-width: 2.5"/>
    <path d="M 389.675909 237.957055 
L 389.675909 222.818492 
" clip-path="url(#p972a17d463)" style="fill: none; stroke: #d95319; stroke-width: 2.5"/>
   </g>
   <g id="line2d_15">
    <defs>
     <path id="m1b89215e18" d="M 4 0 
L -4 -0 
" style="stroke: #d95319; stroke-width: 2.5"/>
    </defs>
    <g clip-path="url(#p972a17d463)">
     <use xlink:href="#m1b89215e18" x="79.844091" y="181.865988" style="fill: #d95319; stroke: #d95319; stroke-width: 2.5"/>
     <use xlink:href="#m1b89215e18" x="124.105779" y="198.037756" style="fill: #d95319; stroke: #d95319; stroke-width: 2.5"/>
     <use xlink:href="#m1b89215e18" x="168.367468" y="231.350676" style="fill: #d95319; stroke: #d95319; stroke-width: 2.5"/>
     <use xlink:href="#m1b89215e18" x="212.629156" y="232.006657" style="fill: #d95319; stroke: #d95319; stroke-width: 2.5"/>
     <use xlink:href="#m1b89215e18" x="256.890844" y="233.398404" style="fill: #d95319; stroke: #d95319; stroke-width: 2.5"/>
     <use xlink:href="#m1b89215e18" x="301.152532" y="229.223096" style="fill: #d95319; stroke: #d95319; stroke-width: 2.5"/>
     <use xlink:href="#m1b89215e18" x="345.414221" y="223.285619" style="fill: #d95319; stroke: #d95319; stroke-width: 2.5"/>
     <use xlink:href="#m1b89215e18" x="389.675909" y="237.957055" style="fill: #d95319; stroke: #d95319; stroke-width: 2.5"/>
    </g>
   </g>
   <g id="line2d_16">
    <g clip-path="url(#p972a17d463)">
     <use xlink:href="#m1b89215e18" x="79.844091" y="157.660794" style="fill: #d95319; stroke: #d95319; stroke-width: 2.5"/>
     <use xlink:href="#m1b89215e18" x="124.105779" y="176.931712" style="fill: #d95319; stroke: #d95319; stroke-width: 2.5"/>
     <use xlink:href="#m1b89215e18" x="168.367468" y="215.505444" style="fill: #d95319; stroke: #d95319; stroke-width: 2.5"/>
     <use xlink:href="#m1b89215e18" x="212.629156" y="219.689962" style="fill: #d95319; stroke: #d95319; stroke-width: 2.5"/>
     <use xlink:href="#m1b89215e18" x="256.890844" y="227.237765" style="fill: #d95319; stroke: #d95319; stroke-width: 2.5"/>
     <use xlink:href="#m1b89215e18" x="301.152532" y="218.912331" style="fill: #d95319; stroke: #d95319; stroke-width: 2.5"/>
     <use xlink:href="#m1b89215e18" x="345.414221" y="208.484471" style="fill: #d95319; stroke: #d95319; stroke-width: 2.5"/>
     <use xlink:href="#m1b89215e18" x="389.675909" y="222.818492" style="fill: #d95319; stroke: #d95319; stroke-width: 2.5"/>
    </g>
   </g>
   <g id="LineCollection_3">
    <path d="M 79.844091 233.996381 
L 79.844091 214.395286 
" clip-path="url(#p972a17d463)" style="fill: none; stroke: #edb120; stroke-width: 2.5"/>
    <path d="M 124.105779 235.189231 
L 124.105779 217.200219 
" clip-path="url(#p972a17d463)" style="fill: none; stroke: #edb120; stroke-width: 2.5"/>
    <path d="M 168.367468 205.5416 
L 168.367468 179.907995 
" clip-path="url(#p972a17d463)" style="fill: none; stroke: #edb120; stroke-width: 2.5"/>
    <path d="M 212.629156 217.457048 
L 212.629156 193.228799 
" clip-path="url(#p972a17d463)" style="fill: none; stroke: #edb120; stroke-width: 2.5"/>
    <path d="M 256.890844 224.611438 
L 256.890844 191.365015 
" clip-path="url(#p972a17d463)" style="fill: none; stroke: #edb120; stroke-width: 2.5"/>
    <path d="M 301.152532 193.646088 
L 301.152532 166.210517 
" clip-path="url(#p972a17d463)" style="fill: none; stroke: #edb120; stroke-width: 2.5"/>
    <path d="M 345.414221 159.009918 
L 345.414221 121.097141 
" clip-path="url(#p972a17d463)" style="fill: none; stroke: #edb120; stroke-width: 2.5"/>
    <path d="M 389.675909 218.525109 
L 389.675909 188.957539 
" clip-path="url(#p972a17d463)" style="fill: none; stroke: #edb120; stroke-width: 2.5"/>
   </g>
   <g id="line2d_17">
    <defs>
     <path id="m2cf9a61fb1" d="M 4 0 
L -4 -0 
" style="stroke: #edb120; stroke-width: 2.5"/>
    </defs>
    <g clip-path="url(#p972a17d463)">
     <use xlink:href="#m2cf9a61fb1" x="79.844091" y="233.996381" style="fill: #edb120; stroke: #edb120; stroke-width: 2.5"/>
     <use xlink:href="#m2cf9a61fb1" x="124.105779" y="235.189231" style="fill: #edb120; stroke: #edb120; stroke-width: 2.5"/>
     <use xlink:href="#m2cf9a61fb1" x="168.367468" y="205.5416" style="fill: #edb120; stroke: #edb120; stroke-width: 2.5"/>
     <use xlink:href="#m2cf9a61fb1" x="212.629156" y="217.457048" style="fill: #edb120; stroke: #edb120; stroke-width: 2.5"/>
     <use xlink:href="#m2cf9a61fb1" x="256.890844" y="224.611438" style="fill: #edb120; stroke: #edb120; stroke-width: 2.5"/>
     <use xlink:href="#m2cf9a61fb1" x="301.152532" y="193.646088" style="fill: #edb120; stroke: #edb120; stroke-width: 2.5"/>
     <use xlink:href="#m2cf9a61fb1" x="345.414221" y="159.009918" style="fill: #edb120; stroke: #edb120; stroke-width: 2.5"/>
     <use xlink:href="#m2cf9a61fb1" x="389.675909" y="218.525109" style="fill: #edb120; stroke: #edb120; stroke-width: 2.5"/>
    </g>
   </g>
   <g id="line2d_18">
    <g clip-path="url(#p972a17d463)">
     <use xlink:href="#m2cf9a61fb1" x="79.844091" y="214.395286" style="fill: #edb120; stroke: #edb120; stroke-width: 2.5"/>
     <use xlink:href="#m2cf9a61fb1" x="124.105779" y="217.200219" style="fill: #edb120; stroke: #edb120; stroke-width: 2.5"/>
     <use xlink:href="#m2cf9a61fb1" x="168.367468" y="179.907995" style="fill: #edb120; stroke: #edb120; stroke-width: 2.5"/>
     <use xlink:href="#m2cf9a61fb1" x="212.629156" y="193.228799" style="fill: #edb120; stroke: #edb120; stroke-width: 2.5"/>
     <use xlink:href="#m2cf9a61fb1" x="256.890844" y="191.365015" style="fill: #edb120; stroke: #edb120; stroke-width: 2.5"/>
     <use xlink:href="#m2cf9a61fb1" x="301.152532" y="166.210517" style="fill: #edb120; stroke: #edb120; stroke-width: 2.5"/>
     <use xlink:href="#m2cf9a61fb1" x="345.414221" y="121.097141" style="fill: #edb120; stroke: #edb120; stroke-width: 2.5"/>
     <use xlink:href="#m2cf9a61fb1" x="389.675909" y="188.957539" style="fill: #edb120; stroke: #edb120; stroke-width: 2.5"/>
    </g>
   </g>
   <g id="LineCollection_4">
    <path d="M 79.844091 183.514643 
L 79.844091 136.41215 
" clip-path="url(#p972a17d463)" style="fill: none; stroke: #7e2f8e; stroke-width: 2.5"/>
    <path d="M 124.105779 218.500521 
L 124.105779 200.06153 
" clip-path="url(#p972a17d463)" style="fill: none; stroke: #7e2f8e; stroke-width: 2.5"/>
    <path d="M 168.367468 220.213772 
L 168.367468 211.486282 
" clip-path="url(#p972a17d463)" style="fill: none; stroke: #7e2f8e; stroke-width: 2.5"/>
    <path d="M 212.629156 217.417415 
L 212.629156 209.35823 
" clip-path="url(#p972a17d463)" style="fill: none; stroke: #7e2f8e; stroke-width: 2.5"/>
    <path d="M 256.890844 231.713292 
L 256.890844 219.478571 
" clip-path="url(#p972a17d463)" style="fill: none; stroke: #7e2f8e; stroke-width: 2.5"/>
    <path d="M 301.152532 212.145597 
L 301.152532 197.241589 
" clip-path="url(#p972a17d463)" style="fill: none; stroke: #7e2f8e; stroke-width: 2.5"/>
    <path d="M 345.414221 222.733021 
L 345.414221 199.150845 
" clip-path="url(#p972a17d463)" style="fill: none; stroke: #7e2f8e; stroke-width: 2.5"/>
    <path d="M 389.675909 197.380108 
L 389.675909 168.412012 
" clip-path="url(#p972a17d463)" style="fill: none; stroke: #7e2f8e; stroke-width: 2.5"/>
   </g>
   <g id="line2d_19">
    <defs>
     <path id="m89cde16d89" d="M 4 0 
L -4 -0 
" style="stroke: #7e2f8e; stroke-width: 2.5"/>
    </defs>
    <g clip-path="url(#p972a17d463)">
     <use xlink:href="#m89cde16d89" x="79.844091" y="183.514643" style="fill: #7e2f8e; stroke: #7e2f8e; stroke-width: 2.5"/>
     <use xlink:href="#m89cde16d89" x="124.105779" y="218.500521" style="fill: #7e2f8e; stroke: #7e2f8e; stroke-width: 2.5"/>
     <use xlink:href="#m89cde16d89" x="168.367468" y="220.213772" style="fill: #7e2f8e; stroke: #7e2f8e; stroke-width: 2.5"/>
     <use xlink:href="#m89cde16d89" x="212.629156" y="217.417415" style="fill: #7e2f8e; stroke: #7e2f8e; stroke-width: 2.5"/>
     <use xlink:href="#m89cde16d89" x="256.890844" y="231.713292" style="fill: #7e2f8e; stroke: #7e2f8e; stroke-width: 2.5"/>
     <use xlink:href="#m89cde16d89" x="301.152532" y="212.145597" style="fill: #7e2f8e; stroke: #7e2f8e; stroke-width: 2.5"/>
     <use xlink:href="#m89cde16d89" x="345.414221" y="222.733021" style="fill: #7e2f8e; stroke: #7e2f8e; stroke-width: 2.5"/>
     <use xlink:href="#m89cde16d89" x="389.675909" y="197.380108" style="fill: #7e2f8e; stroke: #7e2f8e; stroke-width: 2.5"/>
    </g>
   </g>
   <g id="line2d_20">
    <g clip-path="url(#p972a17d463)">
     <use xlink:href="#m89cde16d89" x="79.844091" y="136.41215" style="fill: #7e2f8e; stroke: #7e2f8e; stroke-width: 2.5"/>
     <use xlink:href="#m89cde16d89" x="124.105779" y="200.06153" style="fill: #7e2f8e; stroke: #7e2f8e; stroke-width: 2.5"/>
     <use xlink:href="#m89cde16d89" x="168.367468" y="211.486282" style="fill: #7e2f8e; stroke: #7e2f8e; stroke-width: 2.5"/>
     <use xlink:href="#m89cde16d89" x="212.629156" y="209.35823" style="fill: #7e2f8e; stroke: #7e2f8e; stroke-width: 2.5"/>
     <use xlink:href="#m89cde16d89" x="256.890844" y="219.478571" style="fill: #7e2f8e; stroke: #7e2f8e; stroke-width: 2.5"/>
     <use xlink:href="#m89cde16d89" x="301.152532" y="197.241589" style="fill: #7e2f8e; stroke: #7e2f8e; stroke-width: 2.5"/>
     <use xlink:href="#m89cde16d89" x="345.414221" y="199.150845" style="fill: #7e2f8e; stroke: #7e2f8e; stroke-width: 2.5"/>
     <use xlink:href="#m89cde16d89" x="389.675909" y="168.412012" style="fill: #7e2f8e; stroke: #7e2f8e; stroke-width: 2.5"/>
    </g>
   </g>
   <g id="LineCollection_5">
    <path d="M 79.844091 230.144949 
L 79.844091 199.133036 
" clip-path="url(#p972a17d463)" style="fill: none; stroke: #77ac30; stroke-width: 2.5"/>
    <path d="M 124.105779 215.921689 
L 124.105779 184.375785 
" clip-path="url(#p972a17d463)" style="fill: none; stroke: #77ac30; stroke-width: 2.5"/>
    <path d="M 168.367468 214.965115 
L 168.367468 188.68877 
" clip-path="url(#p972a17d463)" style="fill: none; stroke: #77ac30; stroke-width: 2.5"/>
    <path d="M 212.629156 223.626735 
L 212.629156 206.808854 
" clip-path="url(#p972a17d463)" style="fill: none; stroke: #77ac30; stroke-width: 2.5"/>
    <path d="M 256.890844 224.801024 
L 256.890844 198.326646 
" clip-path="url(#p972a17d463)" style="fill: none; stroke: #77ac30; stroke-width: 2.5"/>
    <path d="M 301.152532 203.603316 
L 301.152532 180.077027 
" clip-path="url(#p972a17d463)" style="fill: none; stroke: #77ac30; stroke-width: 2.5"/>
    <path d="M 345.414221 194.706348 
L 345.414221 129.620973 
" clip-path="url(#p972a17d463)" style="fill: none; stroke: #77ac30; stroke-width: 2.5"/>
    <path d="M 389.675909 161.889197 
L 389.675909 130.756048 
" clip-path="url(#p972a17d463)" style="fill: none; stroke: #77ac30; stroke-width: 2.5"/>
   </g>
   <g id="line2d_21">
    <defs>
     <path id="mefad113065" d="M 4 0 
L -4 -0 
" style="stroke: #77ac30; stroke-width: 2.5"/>
    </defs>
    <g clip-path="url(#p972a17d463)">
     <use xlink:href="#mefad113065" x="79.844091" y="230.144949" style="fill: #77ac30; stroke: #77ac30; stroke-width: 2.5"/>
     <use xlink:href="#mefad113065" x="124.105779" y="215.921689" style="fill: #77ac30; stroke: #77ac30; stroke-width: 2.5"/>
     <use xlink:href="#mefad113065" x="168.367468" y="214.965115" style="fill: #77ac30; stroke: #77ac30; stroke-width: 2.5"/>
     <use xlink:href="#mefad113065" x="212.629156" y="223.626735" style="fill: #77ac30; stroke: #77ac30; stroke-width: 2.5"/>
     <use xlink:href="#mefad113065" x="256.890844" y="224.801024" style="fill: #77ac30; stroke: #77ac30; stroke-width: 2.5"/>
     <use xlink:href="#mefad113065" x="301.152532" y="203.603316" style="fill: #77ac30; stroke: #77ac30; stroke-width: 2.5"/>
     <use xlink:href="#mefad113065" x="345.414221" y="194.706348" style="fill: #77ac30; stroke: #77ac30; stroke-width: 2.5"/>
     <use xlink:href="#mefad113065" x="389.675909" y="161.889197" style="fill: #77ac30; stroke: #77ac30; stroke-width: 2.5"/>
    </g>
   </g>
   <g id="line2d_22">
    <g clip-path="url(#p972a17d463)">
     <use xlink:href="#mefad113065" x="79.844091" y="199.133036" style="fill: #77ac30; stroke: #77ac30; stroke-width: 2.5"/>
     <use xlink:href="#mefad113065" x="124.105779" y="184.375785" style="fill: #77ac30; stroke: #77ac30; stroke-width: 2.5"/>
     <use xlink:href="#mefad113065" x="168.367468" y="188.68877" style="fill: #77ac30; stroke: #77ac30; stroke-width: 2.5"/>
     <use xlink:href="#mefad113065" x="212.629156" y="206.808854" style="fill: #77ac30; stroke: #77ac30; stroke-width: 2.5"/>
     <use xlink:href="#mefad113065" x="256.890844" y="198.326646" style="fill: #77ac30; stroke: #77ac30; stroke-width: 2.5"/>
     <use xlink:href="#mefad113065" x="301.152532" y="180.077027" style="fill: #77ac30; stroke: #77ac30; stroke-width: 2.5"/>
     <use xlink:href="#mefad113065" x="345.414221" y="129.620973" style="fill: #77ac30; stroke: #77ac30; stroke-width: 2.5"/>
     <use xlink:href="#mefad113065" x="389.675909" y="130.756048" style="fill: #77ac30; stroke: #77ac30; stroke-width: 2.5"/>
    </g>
   </g>
   <g id="LineCollection_6">
    <path d="M 79.844091 139.522579 
L 79.844091 75.602817 
" clip-path="url(#p972a17d463)" style="fill: none; stroke: #4dbeee; stroke-width: 2.5"/>
    <path d="M 124.105779 162.10572 
L 124.105779 120.564963 
" clip-path="url(#p972a17d463)" style="fill: none; stroke: #4dbeee; stroke-width: 2.5"/>
    <path d="M 168.367468 116.457909 
L 168.367468 51.513091 
" clip-path="url(#p972a17d463)" style="fill: none; stroke: #4dbeee; stroke-width: 2.5"/>
    <path d="M 212.629156 145.013697 
L 212.629156 98.345488 
" clip-path="url(#p972a17d463)" style="fill: none; stroke: #4dbeee; stroke-width: 2.5"/>
    <path d="M 256.890844 109.975817 
L 256.890844 70.103305 
" clip-path="url(#p972a17d463)" style="fill: none; stroke: #4dbeee; stroke-width: 2.5"/>
    <path d="M 301.152532 115.064296 
L 301.152532 71.131687 
" clip-path="url(#p972a17d463)" style="fill: none; stroke: #4dbeee; stroke-width: 2.5"/>
    <path d="M 345.414221 114.684955 
L 345.414221 53.200411 
" clip-path="url(#p972a17d463)" style="fill: none; stroke: #4dbeee; stroke-width: 2.5"/>
    <path d="M 389.675909 134.201987 
L 389.675909 81.98397 
" clip-path="url(#p972a17d463)" style="fill: none; stroke: #4dbeee; stroke-width: 2.5"/>
   </g>
   <g id="line2d_23">
    <defs>
     <path id="m64a396a856" d="M 4 0 
L -4 -0 
" style="stroke: #4dbeee; stroke-width: 2.5"/>
    </defs>
    <g clip-path="url(#p972a17d463)">
     <use xlink:href="#m64a396a856" x="79.844091" y="139.522579" style="fill: #4dbeee; stroke: #4dbeee; stroke-width: 2.5"/>
     <use xlink:href="#m64a396a856" x="124.105779" y="162.10572" style="fill: #4dbeee; stroke: #4dbeee; stroke-width: 2.5"/>
     <use xlink:href="#m64a396a856" x="168.367468" y="116.457909" style="fill: #4dbeee; stroke: #4dbeee; stroke-width: 2.5"/>
     <use xlink:href="#m64a396a856" x="212.629156" y="145.013697" style="fill: #4dbeee; stroke: #4dbeee; stroke-width: 2.5"/>
     <use xlink:href="#m64a396a856" x="256.890844" y="109.975817" style="fill: #4dbeee; stroke: #4dbeee; stroke-width: 2.5"/>
     <use xlink:href="#m64a396a856" x="301.152532" y="115.064296" style="fill: #4dbeee; stroke: #4dbeee; stroke-width: 2.5"/>
     <use xlink:href="#m64a396a856" x="345.414221" y="114.684955" style="fill: #4dbeee; stroke: #4dbeee; stroke-width: 2.5"/>
     <use xlink:href="#m64a396a856" x="389.675909" y="134.201987" style="fill: #4dbeee; stroke: #4dbeee; stroke-width: 2.5"/>
    </g>
   </g>
   <g id="line2d_24">
    <g clip-path="url(#p972a17d463)">
     <use xlink:href="#m64a396a856" x="79.844091" y="75.602817" style="fill: #4dbeee; stroke: #4dbeee; stroke-width: 2.5"/>
     <use xlink:href="#m64a396a856" x="124.105779" y="120.564963" style="fill: #4dbeee; stroke: #4dbeee; stroke-width: 2.5"/>
     <use xlink:href="#m64a396a856" x="168.367468" y="51.513091" style="fill: #4dbeee; stroke: #4dbeee; stroke-width: 2.5"/>
     <use xlink:href="#m64a396a856" x="212.629156" y="98.345488" style="fill: #4dbeee; stroke: #4dbeee; stroke-width: 2.5"/>
     <use xlink:href="#m64a396a856" x="256.890844" y="70.103305" style="fill: #4dbeee; stroke: #4dbeee; stroke-width: 2.5"/>
     <use xlink:href="#m64a396a856" x="301.152532" y="71.131687" style="fill: #4dbeee; stroke: #4dbeee; stroke-width: 2.5"/>
     <use xlink:href="#m64a396a856" x="345.414221" y="53.200411" style="fill: #4dbeee; stroke: #4dbeee; stroke-width: 2.5"/>
     <use xlink:href="#m64a396a856" x="389.675909" y="81.98397" style="fill: #4dbeee; stroke: #4dbeee; stroke-width: 2.5"/>
    </g>
   </g>
   <g id="line2d_25">
    <path d="M 79.844091 184.241774 
L 124.105779 206.343044 
L 168.367468 229.896186 
L 212.629156 235.24512 
L 256.890844 240.478292 
L 301.152532 241.415489 
L 345.414221 241.228779 
L 389.675909 228.181116 
" clip-path="url(#p972a17d463)" style="fill: none; stroke: #0072bd; stroke-width: 2.5; stroke-linecap: square"/>
    <defs>
     <path id="mc5147adead" d="M 0 5.5 
C 1.458617 5.5 2.857689 4.920485 3.889087 3.889087 
C 4.920485 2.857689 5.5 1.458617 5.5 0 
C 5.5 -1.458617 4.920485 -2.857689 3.889087 -3.889087 
C 2.857689 -4.920485 1.458617 -5.5 0 -5.5 
C -1.458617 -5.5 -2.857689 -4.920485 -3.889087 -3.889087 
C -4.920485 -2.857689 -5.5 -1.458617 -5.5 0 
C -5.5 1.458617 -4.920485 2.857689 -3.889087 3.889087 
C -2.857689 4.920485 -1.458617 5.5 0 5.5 
z
" style="stroke: #0072bd"/>
    </defs>
    <g clip-path="url(#p972a17d463)">
     <use xlink:href="#mc5147adead" x="79.844091" y="184.241774" style="fill: #0072bd; stroke: #0072bd"/>
     <use xlink:href="#mc5147adead" x="124.105779" y="206.343044" style="fill: #0072bd; stroke: #0072bd"/>
     <use xlink:href="#mc5147adead" x="168.367468" y="229.896186" style="fill: #0072bd; stroke: #0072bd"/>
     <use xlink:href="#mc5147adead" x="212.629156" y="235.24512" style="fill: #0072bd; stroke: #0072bd"/>
     <use xlink:href="#mc5147adead" x="256.890844" y="240.478292" style="fill: #0072bd; stroke: #0072bd"/>
     <use xlink:href="#mc5147adead" x="301.152532" y="241.415489" style="fill: #0072bd; stroke: #0072bd"/>
     <use xlink:href="#mc5147adead" x="345.414221" y="241.228779" style="fill: #0072bd; stroke: #0072bd"/>
     <use xlink:href="#mc5147adead" x="389.675909" y="228.181116" style="fill: #0072bd; stroke: #0072bd"/>
    </g>
   </g>
   <g id="line2d_26">
    <path d="M 79.844091 169.763391 
L 124.105779 187.484734 
L 168.367468 223.42806 
L 212.629156 225.84831 
L 256.890844 230.318084 
L 301.152532 224.067713 
L 345.414221 215.885045 
L 389.675909 230.387773 
" clip-path="url(#p972a17d463)" style="fill: none; stroke: #d95319; stroke-width: 2.5; stroke-linecap: square"/>
    <defs>
     <path id="m6b14ff232f" d="M 0 5.5 
C 1.458617 5.5 2.857689 4.920485 3.889087 3.889087 
C 4.920485 2.857689 5.5 1.458617 5.5 0 
C 5.5 -1.458617 4.920485 -2.857689 3.889087 -3.889087 
C 2.857689 -4.920485 1.458617 -5.5 0 -5.5 
C -1.458617 -5.5 -2.857689 -4.920485 -3.889087 -3.889087 
C -4.920485 -2.857689 -5.5 -1.458617 -5.5 0 
C -5.5 1.458617 -4.920485 2.857689 -3.889087 3.889087 
C -2.857689 4.920485 -1.458617 5.5 0 5.5 
z
" style="stroke: #d95319"/>
    </defs>
    <g clip-path="url(#p972a17d463)">
     <use xlink:href="#m6b14ff232f" x="79.844091" y="169.763391" style="fill: #d95319; stroke: #d95319"/>
     <use xlink:href="#m6b14ff232f" x="124.105779" y="187.484734" style="fill: #d95319; stroke: #d95319"/>
     <use xlink:href="#m6b14ff232f" x="168.367468" y="223.42806" style="fill: #d95319; stroke: #d95319"/>
     <use xlink:href="#m6b14ff232f" x="212.629156" y="225.84831" style="fill: #d95319; stroke: #d95319"/>
     <use xlink:href="#m6b14ff232f" x="256.890844" y="230.318084" style="fill: #d95319; stroke: #d95319"/>
     <use xlink:href="#m6b14ff232f" x="301.152532" y="224.067713" style="fill: #d95319; stroke: #d95319"/>
     <use xlink:href="#m6b14ff232f" x="345.414221" y="215.885045" style="fill: #d95319; stroke: #d95319"/>
     <use xlink:href="#m6b14ff232f" x="389.675909" y="230.387773" style="fill: #d95319; stroke: #d95319"/>
    </g>
   </g>
   <g id="line2d_27">
    <path d="M 79.844091 224.195833 
L 124.105779 226.194725 
L 168.367468 192.724798 
L 212.629156 205.342923 
L 256.890844 207.988226 
L 301.152532 179.928302 
L 345.414221 140.053529 
L 389.675909 203.741324 
" clip-path="url(#p972a17d463)" style="fill: none; stroke: #edb120; stroke-width: 2.5; stroke-linecap: square"/>
    <defs>
     <path id="mef5473d3f7" d="M 0 5.5 
C 1.458617 5.5 2.857689 4.920485 3.889087 3.889087 
C 4.920485 2.857689 5.5 1.458617 5.5 0 
C 5.5 -1.458617 4.920485 -2.857689 3.889087 -3.889087 
C 2.857689 -4.920485 1.458617 -5.5 0 -5.5 
C -1.458617 -5.5 -2.857689 -4.920485 -3.889087 -3.889087 
C -4.920485 -2.857689 -5.5 -1.458617 -5.5 0 
C -5.5 1.458617 -4.920485 2.857689 -3.889087 3.889087 
C -2.857689 4.920485 -1.458617 5.5 0 5.5 
z
" style="stroke: #edb120"/>
    </defs>
    <g clip-path="url(#p972a17d463)">
     <use xlink:href="#mef5473d3f7" x="79.844091" y="224.195833" style="fill: #edb120; stroke: #edb120"/>
     <use xlink:href="#mef5473d3f7" x="124.105779" y="226.194725" style="fill: #edb120; stroke: #edb120"/>
     <use xlink:href="#mef5473d3f7" x="168.367468" y="192.724798" style="fill: #edb120; stroke: #edb120"/>
     <use xlink:href="#mef5473d3f7" x="212.629156" y="205.342923" style="fill: #edb120; stroke: #edb120"/>
     <use xlink:href="#mef5473d3f7" x="256.890844" y="207.988226" style="fill: #edb120; stroke: #edb120"/>
     <use xlink:href="#mef5473d3f7" x="301.152532" y="179.928302" style="fill: #edb120; stroke: #edb120"/>
     <use xlink:href="#mef5473d3f7" x="345.414221" y="140.053529" style="fill: #edb120; stroke: #edb120"/>
     <use xlink:href="#mef5473d3f7" x="389.675909" y="203.741324" style="fill: #edb120; stroke: #edb120"/>
    </g>
   </g>
   <g id="line2d_28">
    <path d="M 79.844091 159.963397 
L 124.105779 209.281025 
L 168.367468 215.850027 
L 212.629156 213.387823 
L 256.890844 225.595932 
L 301.152532 204.693593 
L 345.414221 210.941933 
L 389.675909 182.89606 
" clip-path="url(#p972a17d463)" style="fill: none; stroke: #7e2f8e; stroke-width: 2.5; stroke-linecap: square"/>
    <defs>
     <path id="m9599fe3b3f" d="M 0 5.5 
C 1.458617 5.5 2.857689 4.920485 3.889087 3.889087 
C 4.920485 2.857689 5.5 1.458617 5.5 0 
C 5.5 -1.458617 4.920485 -2.857689 3.889087 -3.889087 
C 2.857689 -4.920485 1.458617 -5.5 0 -5.5 
C -1.458617 -5.5 -2.857689 -4.920485 -3.889087 -3.889087 
C -4.920485 -2.857689 -5.5 -1.458617 -5.5 0 
C -5.5 1.458617 -4.920485 2.857689 -3.889087 3.889087 
C -2.857689 4.920485 -1.458617 5.5 0 5.5 
z
" style="stroke: #7e2f8e"/>
    </defs>
    <g clip-path="url(#p972a17d463)">
     <use xlink:href="#m9599fe3b3f" x="79.844091" y="159.963397" style="fill: #7e2f8e; stroke: #7e2f8e"/>
     <use xlink:href="#m9599fe3b3f" x="124.105779" y="209.281025" style="fill: #7e2f8e; stroke: #7e2f8e"/>
     <use xlink:href="#m9599fe3b3f" x="168.367468" y="215.850027" style="fill: #7e2f8e; stroke: #7e2f8e"/>
     <use xlink:href="#m9599fe3b3f" x="212.629156" y="213.387823" style="fill: #7e2f8e; stroke: #7e2f8e"/>
     <use xlink:href="#m9599fe3b3f" x="256.890844" y="225.595932" style="fill: #7e2f8e; stroke: #7e2f8e"/>
     <use xlink:href="#m9599fe3b3f" x="301.152532" y="204.693593" style="fill: #7e2f8e; stroke: #7e2f8e"/>
     <use xlink:href="#m9599fe3b3f" x="345.414221" y="210.941933" style="fill: #7e2f8e; stroke: #7e2f8e"/>
     <use xlink:href="#m9599fe3b3f" x="389.675909" y="182.89606" style="fill: #7e2f8e; stroke: #7e2f8e"/>
    </g>
   </g>
   <g id="line2d_29">
    <path d="M 79.844091 214.638992 
L 124.105779 200.148737 
L 168.367468 201.826943 
L 212.629156 215.217794 
L 256.890844 211.563835 
L 301.152532 191.840172 
L 345.414221 162.163661 
L 389.675909 146.322622 
" clip-path="url(#p972a17d463)" style="fill: none; stroke: #77ac30; stroke-width: 2.5; stroke-linecap: square"/>
    <defs>
     <path id="md397486143" d="M 0 5.5 
C 1.458617 5.5 2.857689 4.920485 3.889087 3.889087 
C 4.920485 2.857689 5.5 1.458617 5.5 0 
C 5.5 -1.458617 4.920485 -2.857689 3.889087 -3.889087 
C 2.857689 -4.920485 1.458617 -5.5 0 -5.5 
C -1.458617 -5.5 -2.857689 -4.920485 -3.889087 -3.889087 
C -4.920485 -2.857689 -5.5 -1.458617 -5.5 0 
C -5.5 1.458617 -4.920485 2.857689 -3.889087 3.889087 
C -2.857689 4.920485 -1.458617 5.5 0 5.5 
z
" style="stroke: #77ac30"/>
    </defs>
    <g clip-path="url(#p972a17d463)">
     <use xlink:href="#md397486143" x="79.844091" y="214.638992" style="fill: #77ac30; stroke: #77ac30"/>
     <use xlink:href="#md397486143" x="124.105779" y="200.148737" style="fill: #77ac30; stroke: #77ac30"/>
     <use xlink:href="#md397486143" x="168.367468" y="201.826943" style="fill: #77ac30; stroke: #77ac30"/>
     <use xlink:href="#md397486143" x="212.629156" y="215.217794" style="fill: #77ac30; stroke: #77ac30"/>
     <use xlink:href="#md397486143" x="256.890844" y="211.563835" style="fill: #77ac30; stroke: #77ac30"/>
     <use xlink:href="#md397486143" x="301.152532" y="191.840172" style="fill: #77ac30; stroke: #77ac30"/>
     <use xlink:href="#md397486143" x="345.414221" y="162.163661" style="fill: #77ac30; stroke: #77ac30"/>
     <use xlink:href="#md397486143" x="389.675909" y="146.322622" style="fill: #77ac30; stroke: #77ac30"/>
    </g>
   </g>
   <g id="line2d_30">
    <path d="M 79.844091 107.562698 
L 124.105779 141.335341 
L 168.367468 83.9855 
L 212.629156 121.679593 
L 256.890844 90.039561 
L 301.152532 93.097992 
L 345.414221 83.942683 
L 389.675909 108.092978 
" clip-path="url(#p972a17d463)" style="fill: none; stroke: #4dbeee; stroke-width: 2.5; stroke-linecap: square"/>
    <defs>
     <path id="mc22b9e24e1" d="M 0 5.5 
C 1.458617 5.5 2.857689 4.920485 3.889087 3.889087 
C 4.920485 2.857689 5.5 1.458617 5.5 0 
C 5.5 -1.458617 4.920485 -2.857689 3.889087 -3.889087 
C 2.857689 -4.920485 1.458617 -5.5 0 -5.5 
C -1.458617 -5.5 -2.857689 -4.920485 -3.889087 -3.889087 
C -4.920485 -2.857689 -5.5 -1.458617 -5.5 0 
C -5.5 1.458617 -4.920485 2.857689 -3.889087 3.889087 
C -2.857689 4.920485 -1.458617 5.5 0 5.5 
z
" style="stroke: #4dbeee"/>
    </defs>
    <g clip-path="url(#p972a17d463)">
     <use xlink:href="#mc22b9e24e1" x="79.844091" y="107.562698" style="fill: #4dbeee; stroke: #4dbeee"/>
     <use xlink:href="#mc22b9e24e1" x="124.105779" y="141.335341" style="fill: #4dbeee; stroke: #4dbeee"/>
     <use xlink:href="#mc22b9e24e1" x="168.367468" y="83.9855" style="fill: #4dbeee; stroke: #4dbeee"/>
     <use xlink:href="#mc22b9e24e1" x="212.629156" y="121.679593" style="fill: #4dbeee; stroke: #4dbeee"/>
     <use xlink:href="#mc22b9e24e1" x="256.890844" y="90.039561" style="fill: #4dbeee; stroke: #4dbeee"/>
     <use xlink:href="#mc22b9e24e1" x="301.152532" y="93.097992" style="fill: #4dbeee; stroke: #4dbeee"/>
     <use xlink:href="#mc22b9e24e1" x="345.414221" y="83.942683" style="fill: #4dbeee; stroke: #4dbeee"/>
     <use xlink:href="#mc22b9e24e1" x="389.675909" y="108.092978" style="fill: #4dbeee; stroke: #4dbeee"/>
    </g>
   </g>
   <g id="patch_3">
    <path d="M 64.3525 256.883 
L 64.3525 26.943 
" style="fill: none; stroke: #000000; stroke-width: 0.8; stroke-linejoin: miter; stroke-linecap: square"/>
   </g>
   <g id="patch_4">
    <path d="M 64.3525 256.883 
L 405.1675 256.883 
" style="fill: none; stroke: #000000; stroke-width: 0.8; stroke-linejoin: miter; stroke-linecap: square"/>
   </g>
   <g id="text_15">
    <!-- Channel 2 - 8 kHz -->
    <g transform="translate(155.2795 20.943) scale(0.192 -0.192)">
     <defs>
      <path id="Arial-BoldMT-43" d="M 3397 1684 
L 4294 1400 
Q 4088 650 3608 286 
Q 3128 -78 2391 -78 
Q 1478 -78 890 545 
Q 303 1169 303 2250 
Q 303 3394 893 4026 
Q 1484 4659 2447 4659 
Q 3288 4659 3813 4163 
Q 4125 3869 4281 3319 
L 3366 3100 
Q 3284 3456 3026 3662 
Q 2769 3869 2400 3869 
Q 1891 3869 1573 3503 
Q 1256 3138 1256 2319 
Q 1256 1450 1568 1081 
Q 1881 713 2381 713 
Q 2750 713 3015 947 
Q 3281 1181 3397 1684 
z
" transform="scale(0.015625)"/>
      <path id="Arial-BoldMT-68" d="M 1334 4581 
L 1334 2897 
Q 1759 3394 2350 3394 
Q 2653 3394 2897 3281 
Q 3141 3169 3264 2994 
Q 3388 2819 3433 2606 
Q 3478 2394 3478 1947 
L 3478 0 
L 2600 0 
L 2600 1753 
Q 2600 2275 2550 2415 
Q 2500 2556 2373 2639 
Q 2247 2722 2056 2722 
Q 1838 2722 1666 2615 
Q 1494 2509 1414 2295 
Q 1334 2081 1334 1663 
L 1334 0 
L 456 0 
L 456 4581 
L 1334 4581 
z
" transform="scale(0.015625)"/>
      <path id="Arial-BoldMT-61" d="M 1116 2306 
L 319 2450 
Q 453 2931 781 3162 
Q 1109 3394 1756 3394 
Q 2344 3394 2631 3255 
Q 2919 3116 3036 2902 
Q 3153 2688 3153 2116 
L 3144 1091 
Q 3144 653 3186 445 
Q 3228 238 3344 0 
L 2475 0 
Q 2441 88 2391 259 
Q 2369 338 2359 363 
Q 2134 144 1878 34 
Q 1622 -75 1331 -75 
Q 819 -75 523 203 
Q 228 481 228 906 
Q 228 1188 362 1408 
Q 497 1628 739 1745 
Q 981 1863 1438 1950 
Q 2053 2066 2291 2166 
L 2291 2253 
Q 2291 2506 2166 2614 
Q 2041 2722 1694 2722 
Q 1459 2722 1328 2630 
Q 1197 2538 1116 2306 
z
M 2291 1594 
Q 2122 1538 1756 1459 
Q 1391 1381 1278 1306 
Q 1106 1184 1106 997 
Q 1106 813 1243 678 
Q 1381 544 1594 544 
Q 1831 544 2047 700 
Q 2206 819 2256 991 
Q 2291 1103 2291 1419 
L 2291 1594 
z
" transform="scale(0.015625)"/>
      <path id="Arial-BoldMT-6e" d="M 3478 0 
L 2600 0 
L 2600 1694 
Q 2600 2231 2544 2389 
Q 2488 2547 2361 2634 
Q 2234 2722 2056 2722 
Q 1828 2722 1647 2597 
Q 1466 2472 1398 2265 
Q 1331 2059 1331 1503 
L 1331 0 
L 453 0 
L 453 3319 
L 1269 3319 
L 1269 2831 
Q 1703 3394 2363 3394 
Q 2653 3394 2893 3289 
Q 3134 3184 3257 3021 
Q 3381 2859 3429 2653 
Q 3478 2447 3478 2063 
L 3478 0 
z
" transform="scale(0.015625)"/>
      <path id="Arial-BoldMT-65" d="M 2381 1056 
L 3256 909 
Q 3088 428 2723 176 
Q 2359 -75 1813 -75 
Q 947 -75 531 491 
Q 203 944 203 1634 
Q 203 2459 634 2926 
Q 1066 3394 1725 3394 
Q 2466 3394 2894 2905 
Q 3322 2416 3303 1406 
L 1103 1406 
Q 1113 1016 1316 798 
Q 1519 581 1822 581 
Q 2028 581 2168 693 
Q 2309 806 2381 1056 
z
M 2431 1944 
Q 2422 2325 2234 2523 
Q 2047 2722 1778 2722 
Q 1491 2722 1303 2513 
Q 1116 2303 1119 1944 
L 2431 1944 
z
" transform="scale(0.015625)"/>
      <path id="Arial-BoldMT-6c" d="M 459 0 
L 459 4581 
L 1338 4581 
L 1338 0 
L 459 0 
z
" transform="scale(0.015625)"/>
      <path id="Arial-BoldMT-20" transform="scale(0.015625)"/>
      <path id="Arial-BoldMT-32" d="M 3238 816 
L 3238 0 
L 159 0 
Q 209 463 459 877 
Q 709 1291 1447 1975 
Q 2041 2528 2175 2725 
Q 2356 2997 2356 3263 
Q 2356 3556 2198 3714 
Q 2041 3872 1763 3872 
Q 1488 3872 1325 3706 
Q 1163 3541 1138 3156 
L 263 3244 
Q 341 3969 753 4284 
Q 1166 4600 1784 4600 
Q 2463 4600 2850 4234 
Q 3238 3869 3238 3325 
Q 3238 3016 3127 2736 
Q 3016 2456 2775 2150 
Q 2616 1947 2200 1565 
Q 1784 1184 1673 1059 
Q 1563 934 1494 816 
L 3238 816 
z
" transform="scale(0.015625)"/>
      <path id="Arial-BoldMT-2d" d="M 359 1222 
L 359 2100 
L 2084 2100 
L 2084 1222 
L 359 1222 
z
" transform="scale(0.015625)"/>
      <path id="Arial-BoldMT-38" d="M 1025 2472 
Q 684 2616 529 2867 
Q 375 3119 375 3419 
Q 375 3931 733 4265 
Q 1091 4600 1750 4600 
Q 2403 4600 2764 4265 
Q 3125 3931 3125 3419 
Q 3125 3100 2959 2851 
Q 2794 2603 2494 2472 
Q 2875 2319 3073 2025 
Q 3272 1731 3272 1347 
Q 3272 713 2867 316 
Q 2463 -81 1791 -81 
Q 1166 -81 750 247 
Q 259 634 259 1309 
Q 259 1681 443 1992 
Q 628 2303 1025 2472 
z
M 1206 3356 
Q 1206 3094 1354 2947 
Q 1503 2800 1750 2800 
Q 2000 2800 2150 2948 
Q 2300 3097 2300 3359 
Q 2300 3606 2151 3754 
Q 2003 3903 1759 3903 
Q 1506 3903 1356 3753 
Q 1206 3603 1206 3356 
z
M 1125 1394 
Q 1125 1031 1311 828 
Q 1497 625 1775 625 
Q 2047 625 2225 820 
Q 2403 1016 2403 1384 
Q 2403 1706 2222 1901 
Q 2041 2097 1763 2097 
Q 1441 2097 1283 1875 
Q 1125 1653 1125 1394 
z
" transform="scale(0.015625)"/>
      <path id="Arial-BoldMT-6b" d="M 428 0 
L 428 4581 
L 1306 4581 
L 1306 2150 
L 2334 3319 
L 3416 3319 
L 2281 2106 
L 3497 0 
L 2550 0 
L 1716 1491 
L 1306 1063 
L 1306 0 
L 428 0 
z
" transform="scale(0.015625)"/>
      <path id="Arial-BoldMT-48" d="M 469 0 
L 469 4581 
L 1394 4581 
L 1394 2778 
L 3206 2778 
L 3206 4581 
L 4131 4581 
L 4131 0 
L 3206 0 
L 3206 2003 
L 1394 2003 
L 1394 0 
L 469 0 
z
" transform="scale(0.015625)"/>
      <path id="Arial-BoldMT-7a" d="M 106 0 
L 106 684 
L 1350 2113 
Q 1656 2463 1803 2609 
Q 1650 2600 1400 2597 
L 228 2591 
L 228 3319 
L 2972 3319 
L 2972 2697 
L 1703 1234 
L 1256 750 
Q 1622 772 1709 772 
L 3069 772 
L 3069 0 
L 106 0 
z
" transform="scale(0.015625)"/>
     </defs>
     <use xlink:href="#Arial-BoldMT-43"/>
     <use xlink:href="#Arial-BoldMT-68" transform="translate(72.216797 0)"/>
     <use xlink:href="#Arial-BoldMT-61" transform="translate(133.300781 0)"/>
     <use xlink:href="#Arial-BoldMT-6e" transform="translate(188.916016 0)"/>
     <use xlink:href="#Arial-BoldMT-6e" transform="translate(250 0)"/>
     <use xlink:href="#Arial-BoldMT-65" transform="translate(311.083984 0)"/>
     <use xlink:href="#Arial-BoldMT-6c" transform="translate(366.699219 0)"/>
     <use xlink:href="#Arial-BoldMT-20" transform="translate(394.482422 0)"/>
     <use xlink:href="#Arial-BoldMT-32" transform="translate(422.265625 0)"/>
     <use xlink:href="#Arial-BoldMT-20" transform="translate(477.880859 0)"/>
     <use xlink:href="#Arial-BoldMT-2d" transform="translate(505.664062 0)"/>
     <use xlink:href="#Arial-BoldMT-20" transform="translate(538.964844 0)"/>
     <use xlink:href="#Arial-BoldMT-38" transform="translate(566.748047 0)"/>
     <use xlink:href="#Arial-BoldMT-20" transform="translate(622.363281 0)"/>
     <use xlink:href="#Arial-BoldMT-6b" transform="translate(650.146484 0)"/>
     <use xlink:href="#Arial-BoldMT-48" transform="translate(705.761719 0)"/>
     <use xlink:href="#Arial-BoldMT-7a" transform="translate(777.978516 0)"/>
    </g>
   </g>
   <g id="legend_1">
    <g id="patch_5">
     <path d="M 299.67625 138.84675 
L 396.7675 138.84675 
Q 399.1675 138.84675 399.1675 136.44675 
L 399.1675 35.343 
Q 399.1675 32.943 396.7675 32.943 
L 299.67625 32.943 
Q 297.27625 32.943 297.27625 35.343 
L 297.27625 136.44675 
Q 297.27625 138.84675 299.67625 138.84675 
z
" style="fill: #ffffff; opacity: 0.8; stroke: #cccccc; stroke-linejoin: miter"/>
    </g>
    <g id="LineCollection_7">
     <path d="M 314.07625 48.132375 
L 314.07625 36.132375 
" style="fill: none; stroke: #0072bd; stroke-width: 2.5"/>
    </g>
    <g id="line2d_31">
     <g>
      <use xlink:href="#m53cc4a3475" x="314.07625" y="48.132375" style="fill: #0072bd; stroke: #0072bd; stroke-width: 2.5"/>
     </g>
    </g>
    <g id="line2d_32">
     <g>
      <use xlink:href="#m53cc4a3475" x="314.07625" y="36.132375" style="fill: #0072bd; stroke: #0072bd; stroke-width: 2.5"/>
     </g>
    </g>
    <g id="line2d_33">
     <path d="M 302.07625 42.132375 
L 326.07625 42.132375 
" style="fill: none; stroke: #0072bd; stroke-width: 2.5; stroke-linecap: square"/>
    </g>
    <g id="line2d_34">
     <g>
      <use xlink:href="#mc5147adead" x="314.07625" y="42.132375" style="fill: #0072bd; stroke: #0072bd"/>
     </g>
    </g>
    <g id="text_16">
     <!-- W1 Peak -->
     <g transform="translate(335.67625 46.332375) scale(0.12 -0.12)">
      <defs>
       <path id="ArialMT-57" d="M 1294 0 
L 78 4581 
L 700 4581 
L 1397 1578 
Q 1509 1106 1591 641 
Q 1766 1375 1797 1488 
L 2669 4581 
L 3400 4581 
L 4056 2263 
Q 4303 1400 4413 641 
Q 4500 1075 4641 1638 
L 5359 4581 
L 5969 4581 
L 4713 0 
L 4128 0 
L 3163 3491 
Q 3041 3928 3019 4028 
Q 2947 3713 2884 3491 
L 1913 0 
L 1294 0 
z
" transform="scale(0.015625)"/>
       <path id="ArialMT-61" d="M 2588 409 
Q 2275 144 1986 34 
Q 1697 -75 1366 -75 
Q 819 -75 525 192 
Q 231 459 231 875 
Q 231 1119 342 1320 
Q 453 1522 633 1644 
Q 813 1766 1038 1828 
Q 1203 1872 1538 1913 
Q 2219 1994 2541 2106 
Q 2544 2222 2544 2253 
Q 2544 2597 2384 2738 
Q 2169 2928 1744 2928 
Q 1347 2928 1158 2789 
Q 969 2650 878 2297 
L 328 2372 
Q 403 2725 575 2942 
Q 747 3159 1072 3276 
Q 1397 3394 1825 3394 
Q 2250 3394 2515 3294 
Q 2781 3194 2906 3042 
Q 3031 2891 3081 2659 
Q 3109 2516 3109 2141 
L 3109 1391 
Q 3109 606 3145 398 
Q 3181 191 3288 0 
L 2700 0 
Q 2613 175 2588 409 
z
M 2541 1666 
Q 2234 1541 1622 1453 
Q 1275 1403 1131 1340 
Q 988 1278 909 1158 
Q 831 1038 831 891 
Q 831 666 1001 516 
Q 1172 366 1500 366 
Q 1825 366 2078 508 
Q 2331 650 2450 897 
Q 2541 1088 2541 1459 
L 2541 1666 
z
" transform="scale(0.015625)"/>
       <path id="ArialMT-6b" d="M 425 0 
L 425 4581 
L 988 4581 
L 988 1969 
L 2319 3319 
L 3047 3319 
L 1778 2088 
L 3175 0 
L 2481 0 
L 1384 1697 
L 988 1316 
L 988 0 
L 425 0 
z
" transform="scale(0.015625)"/>
      </defs>
      <use xlink:href="#ArialMT-57"/>
      <use xlink:href="#ArialMT-31" transform="translate(94.384766 0)"/>
      <use xlink:href="#ArialMT-20" transform="translate(150 0)"/>
      <use xlink:href="#ArialMT-50" transform="translate(177.783203 0)"/>
      <use xlink:href="#ArialMT-65" transform="translate(244.482422 0)"/>
      <use xlink:href="#ArialMT-61" transform="translate(300.097656 0)"/>
      <use xlink:href="#ArialMT-6b" transform="translate(355.712891 0)"/>
     </g>
    </g>
    <g id="LineCollection_8">
     <path d="M 314.07625 65.142375 
L 314.07625 53.142375 
" style="fill: none; stroke: #d95319; stroke-width: 2.5"/>
    </g>
    <g id="line2d_35">
     <g>
      <use xlink:href="#m1b89215e18" x="314.07625" y="65.142375" style="fill: #d95319; stroke: #d95319; stroke-width: 2.5"/>
     </g>
    </g>
    <g id="line2d_36">
     <g>
      <use xlink:href="#m1b89215e18" x="314.07625" y="53.142375" style="fill: #d95319; stroke: #d95319; stroke-width: 2.5"/>
     </g>
    </g>
    <g id="line2d_37">
     <path d="M 302.07625 59.142375 
L 326.07625 59.142375 
" style="fill: none; stroke: #d95319; stroke-width: 2.5; stroke-linecap: square"/>
    </g>
    <g id="line2d_38">
     <g>
      <use xlink:href="#m6b14ff232f" x="314.07625" y="59.142375" style="fill: #d95319; stroke: #d95319"/>
     </g>
    </g>
    <g id="text_17">
     <!-- W1 Trough -->
     <g transform="translate(335.67625 63.342375) scale(0.12 -0.12)">
      <defs>
       <path id="ArialMT-54" d="M 1659 0 
L 1659 4041 
L 150 4041 
L 150 4581 
L 3781 4581 
L 3781 4041 
L 2266 4041 
L 2266 0 
L 1659 0 
z
" transform="scale(0.015625)"/>
       <path id="ArialMT-67" d="M 319 -275 
L 866 -356 
Q 900 -609 1056 -725 
Q 1266 -881 1628 -881 
Q 2019 -881 2231 -725 
Q 2444 -569 2519 -288 
Q 2563 -116 2559 434 
Q 2191 0 1641 0 
Q 956 0 581 494 
Q 206 988 206 1678 
Q 206 2153 378 2554 
Q 550 2956 876 3175 
Q 1203 3394 1644 3394 
Q 2231 3394 2613 2919 
L 2613 3319 
L 3131 3319 
L 3131 450 
Q 3131 -325 2973 -648 
Q 2816 -972 2473 -1159 
Q 2131 -1347 1631 -1347 
Q 1038 -1347 672 -1080 
Q 306 -813 319 -275 
z
M 784 1719 
Q 784 1066 1043 766 
Q 1303 466 1694 466 
Q 2081 466 2343 764 
Q 2606 1063 2606 1700 
Q 2606 2309 2336 2618 
Q 2066 2928 1684 2928 
Q 1309 2928 1046 2623 
Q 784 2319 784 1719 
z
" transform="scale(0.015625)"/>
       <path id="ArialMT-68" d="M 422 0 
L 422 4581 
L 984 4581 
L 984 2938 
Q 1378 3394 1978 3394 
Q 2347 3394 2619 3248 
Q 2891 3103 3008 2847 
Q 3125 2591 3125 2103 
L 3125 0 
L 2563 0 
L 2563 2103 
Q 2563 2525 2380 2717 
Q 2197 2909 1863 2909 
Q 1613 2909 1392 2779 
Q 1172 2650 1078 2428 
Q 984 2206 984 1816 
L 984 0 
L 422 0 
z
" transform="scale(0.015625)"/>
      </defs>
      <use xlink:href="#ArialMT-57"/>
      <use xlink:href="#ArialMT-31" transform="translate(94.384766 0)"/>
      <use xlink:href="#ArialMT-20" transform="translate(150 0)"/>
      <use xlink:href="#ArialMT-54" transform="translate(176.033203 0)"/>
      <use xlink:href="#ArialMT-72" transform="translate(233.367188 0)"/>
      <use xlink:href="#ArialMT-6f" transform="translate(266.667969 0)"/>
      <use xlink:href="#ArialMT-75" transform="translate(322.283203 0)"/>
      <use xlink:href="#ArialMT-67" transform="translate(377.898438 0)"/>
      <use xlink:href="#ArialMT-68" transform="translate(433.513672 0)"/>
     </g>
    </g>
    <g id="LineCollection_9">
     <path d="M 314.07625 82.257375 
L 314.07625 70.257375 
" style="fill: none; stroke: #edb120; stroke-width: 2.5"/>
    </g>
    <g id="line2d_39">
     <g>
      <use xlink:href="#m2cf9a61fb1" x="314.07625" y="82.257375" style="fill: #edb120; stroke: #edb120; stroke-width: 2.5"/>
     </g>
    </g>
    <g id="line2d_40">
     <g>
      <use xlink:href="#m2cf9a61fb1" x="314.07625" y="70.257375" style="fill: #edb120; stroke: #edb120; stroke-width: 2.5"/>
     </g>
    </g>
    <g id="line2d_41">
     <path d="M 302.07625 76.257375 
L 326.07625 76.257375 
" style="fill: none; stroke: #edb120; stroke-width: 2.5; stroke-linecap: square"/>
    </g>
    <g id="line2d_42">
     <g>
      <use xlink:href="#mef5473d3f7" x="314.07625" y="76.257375" style="fill: #edb120; stroke: #edb120"/>
     </g>
    </g>
    <g id="text_18">
     <!-- W4 Peak -->
     <g transform="translate(335.67625 80.457375) scale(0.12 -0.12)">
      <use xlink:href="#ArialMT-57"/>
      <use xlink:href="#ArialMT-34" transform="translate(94.384766 0)"/>
      <use xlink:href="#ArialMT-20" transform="translate(150 0)"/>
      <use xlink:href="#ArialMT-50" transform="translate(177.783203 0)"/>
      <use xlink:href="#ArialMT-65" transform="translate(244.482422 0)"/>
      <use xlink:href="#ArialMT-61" transform="translate(300.097656 0)"/>
      <use xlink:href="#ArialMT-6b" transform="translate(355.712891 0)"/>
     </g>
    </g>
    <g id="LineCollection_10">
     <path d="M 314.07625 99.23175 
L 314.07625 87.23175 
" style="fill: none; stroke: #7e2f8e; stroke-width: 2.5"/>
    </g>
    <g id="line2d_43">
     <g>
      <use xlink:href="#m89cde16d89" x="314.07625" y="99.23175" style="fill: #7e2f8e; stroke: #7e2f8e; stroke-width: 2.5"/>
     </g>
    </g>
    <g id="line2d_44">
     <g>
      <use xlink:href="#m89cde16d89" x="314.07625" y="87.23175" style="fill: #7e2f8e; stroke: #7e2f8e; stroke-width: 2.5"/>
     </g>
    </g>
    <g id="line2d_45">
     <path d="M 302.07625 93.23175 
L 326.07625 93.23175 
" style="fill: none; stroke: #7e2f8e; stroke-width: 2.5; stroke-linecap: square"/>
    </g>
    <g id="line2d_46">
     <g>
      <use xlink:href="#m9599fe3b3f" x="314.07625" y="93.23175" style="fill: #7e2f8e; stroke: #7e2f8e"/>
     </g>
    </g>
    <g id="text_19">
     <!-- W4 Trough -->
     <g transform="translate(335.67625 97.43175) scale(0.12 -0.12)">
      <use xlink:href="#ArialMT-57"/>
      <use xlink:href="#ArialMT-34" transform="translate(94.384766 0)"/>
      <use xlink:href="#ArialMT-20" transform="translate(150 0)"/>
      <use xlink:href="#ArialMT-54" transform="translate(176.033203 0)"/>
      <use xlink:href="#ArialMT-72" transform="translate(233.367188 0)"/>
      <use xlink:href="#ArialMT-6f" transform="translate(266.667969 0)"/>
      <use xlink:href="#ArialMT-75" transform="translate(322.283203 0)"/>
      <use xlink:href="#ArialMT-67" transform="translate(377.898438 0)"/>
      <use xlink:href="#ArialMT-68" transform="translate(433.513672 0)"/>
     </g>
    </g>
    <g id="LineCollection_11">
     <path d="M 314.07625 116.34675 
L 314.07625 104.34675 
" style="fill: none; stroke: #77ac30; stroke-width: 2.5"/>
    </g>
    <g id="line2d_47">
     <g>
      <use xlink:href="#mefad113065" x="314.07625" y="116.34675" style="fill: #77ac30; stroke: #77ac30; stroke-width: 2.5"/>
     </g>
    </g>
    <g id="line2d_48">
     <g>
      <use xlink:href="#mefad113065" x="314.07625" y="104.34675" style="fill: #77ac30; stroke: #77ac30; stroke-width: 2.5"/>
     </g>
    </g>
    <g id="line2d_49">
     <path d="M 302.07625 110.34675 
L 326.07625 110.34675 
" style="fill: none; stroke: #77ac30; stroke-width: 2.5; stroke-linecap: square"/>
    </g>
    <g id="line2d_50">
     <g>
      <use xlink:href="#md397486143" x="314.07625" y="110.34675" style="fill: #77ac30; stroke: #77ac30"/>
     </g>
    </g>
    <g id="text_20">
     <!-- W5 Peak -->
     <g transform="translate(335.67625 114.54675) scale(0.12 -0.12)">
      <use xlink:href="#ArialMT-57"/>
      <use xlink:href="#ArialMT-35" transform="translate(94.384766 0)"/>
      <use xlink:href="#ArialMT-20" transform="translate(150 0)"/>
      <use xlink:href="#ArialMT-50" transform="translate(177.783203 0)"/>
      <use xlink:href="#ArialMT-65" transform="translate(244.482422 0)"/>
      <use xlink:href="#ArialMT-61" transform="translate(300.097656 0)"/>
      <use xlink:href="#ArialMT-6b" transform="translate(355.712891 0)"/>
     </g>
    </g>
    <g id="LineCollection_12">
     <path d="M 314.07625 133.321125 
L 314.07625 121.321125 
" style="fill: none; stroke: #4dbeee; stroke-width: 2.5"/>
    </g>
    <g id="line2d_51">
     <g>
      <use xlink:href="#m64a396a856" x="314.07625" y="133.321125" style="fill: #4dbeee; stroke: #4dbeee; stroke-width: 2.5"/>
     </g>
    </g>
    <g id="line2d_52">
     <g>
      <use xlink:href="#m64a396a856" x="314.07625" y="121.321125" style="fill: #4dbeee; stroke: #4dbeee; stroke-width: 2.5"/>
     </g>
    </g>
    <g id="line2d_53">
     <path d="M 302.07625 127.321125 
L 326.07625 127.321125 
" style="fill: none; stroke: #4dbeee; stroke-width: 2.5; stroke-linecap: square"/>
    </g>
    <g id="line2d_54">
     <g>
      <use xlink:href="#mc22b9e24e1" x="314.07625" y="127.321125" style="fill: #4dbeee; stroke: #4dbeee"/>
     </g>
    </g>
    <g id="text_21">
     <!-- W5 Trough -->
     <g transform="translate(335.67625 131.521125) scale(0.12 -0.12)">
      <use xlink:href="#ArialMT-57"/>
      <use xlink:href="#ArialMT-35" transform="translate(94.384766 0)"/>
      <use xlink:href="#ArialMT-20" transform="translate(150 0)"/>
      <use xlink:href="#ArialMT-54" transform="translate(176.033203 0)"/>
      <use xlink:href="#ArialMT-72" transform="translate(233.367188 0)"/>
      <use xlink:href="#ArialMT-6f" transform="translate(266.667969 0)"/>
      <use xlink:href="#ArialMT-75" transform="translate(322.283203 0)"/>
      <use xlink:href="#ArialMT-67" transform="translate(377.898438 0)"/>
      <use xlink:href="#ArialMT-68" transform="translate(433.513672 0)"/>
     </g>
    </g>
   </g>
  </g>
 </g>
 <defs>
  <clipPath id="p972a17d463">
   <rect x="64.3525" y="26.943" width="340.815" height="229.94"/>
  </clipPath>
 </defs>
</svg>
