<?xml version="1.0" encoding="utf-8" standalone="no"?>
<!DOCTYPE svg PUBLIC "-//W3C//DTD SVG 1.1//EN"
  "http://www.w3.org/Graphics/SVG/1.1/DTD/svg11.dtd">
<svg xmlns:xlink="http://www.w3.org/1999/xlink" width="412.275pt" height="304.7305pt" viewBox="0 0 412.275 304.7305" xmlns="http://www.w3.org/2000/svg" version="1.1">
 <metadata>
  <rdf:RDF xmlns:dc="http://purl.org/dc/elements/1.1/" xmlns:cc="http://creativecommons.org/ns#" xmlns:rdf="http://www.w3.org/1999/02/22-rdf-syntax-ns#">
   <cc:Work>
    <dc:type rdf:resource="http://purl.org/dc/dcmitype/StillImage"/>
    <dc:date>2026-06-29T17:40:41.304047</dc:date>
    <dc:format>image/svg+xml</dc:format>
    <dc:creator>
     <cc:Agent>
      <dc:title>Matplotlib v3.10.1, https://matplotlib.org/</dc:title>
     </cc:Agent>
    </dc:creator>
   </cc:Work>
  </rdf:RDF>
 </metadata>
 <defs>
  <style type="text/css">*{stroke-linejoin: round; stroke-linecap: butt}</style>
 </defs>
 <g id="figure_1">
  <g id="patch_1">
   <path d="M 0 304.7305 
L 412.275 304.7305 
L 412.275 0 
L 0 0 
L 0 304.7305 
z
" style="fill: none"/>
  </g>
  <g id="axes_1">
   <g id="patch_2">
    <path d="M 51.01 256.883 
L 405.075 256.883 
L 405.075 26.943 
L 51.01 26.943 
L 51.01 256.883 
z
" style="fill: none"/>
   </g>
   <g id="matplotlib.axis_1">
    <g id="xtick_1">
     <g id="line2d_1">
      <defs>
       <path id="m6aa11cbae8" d="M 0 0 
L 0 3.5 
" style="stroke: #000000; stroke-width: 0.8"/>
      </defs>
      <g>
       <use xlink:href="#m6aa11cbae8" x="67.103864" y="256.883" style="stroke: #000000; stroke-width: 0.8"/>
      </g>
     </g>
     <g id="text_1">
      <!-- 10 -->
      <g transform="translate(58.206364 275.3355) scale(0.16 -0.16)">
       <defs>
        <path id="ArialMT-31" d="M 2384 0 
L 1822 0 
L 1822 3584 
Q 1619 3391 1289 3197 
Q 959 3003 697 2906 
L 697 3450 
Q 1169 3672 1522 3987 
Q 1875 4303 2022 4600 
L 2384 4600 
L 2384 0 
z
" transform="scale(0.015625)"/>
        <path id="ArialMT-30" d="M 266 2259 
Q 266 3072 433 3567 
Q 600 4063 929 4331 
Q 1259 4600 1759 4600 
Q 2128 4600 2406 4451 
Q 2684 4303 2865 4023 
Q 3047 3744 3150 3342 
Q 3253 2941 3253 2259 
Q 3253 1453 3087 958 
Q 2922 463 2592 192 
Q 2263 -78 1759 -78 
Q 1097 -78 719 397 
Q 266 969 266 2259 
z
M 844 2259 
Q 844 1131 1108 757 
Q 1372 384 1759 384 
Q 2147 384 2411 759 
Q 2675 1134 2675 2259 
Q 2675 3391 2411 3762 
Q 2147 4134 1753 4134 
Q 1366 4134 1134 3806 
Q 844 3388 844 2259 
z
" transform="scale(0.015625)"/>
       </defs>
       <use xlink:href="#ArialMT-31"/>
       <use xlink:href="#ArialMT-30" transform="translate(55.615234 0)"/>
      </g>
     </g>
    </g>
    <g id="xtick_2">
     <g id="line2d_2">
      <g>
       <use xlink:href="#m6aa11cbae8" x="113.086331" y="256.883" style="stroke: #000000; stroke-width: 0.8"/>
      </g>
     </g>
     <g id="text_2">
      <!-- 20 -->
      <g transform="translate(104.188831 275.3355) scale(0.16 -0.16)">
       <defs>
        <path id="ArialMT-32" d="M 3222 541 
L 3222 0 
L 194 0 
Q 188 203 259 391 
Q 375 700 629 1000 
Q 884 1300 1366 1694 
Q 2113 2306 2375 2664 
Q 2638 3022 2638 3341 
Q 2638 3675 2398 3904 
Q 2159 4134 1775 4134 
Q 1369 4134 1125 3890 
Q 881 3647 878 3216 
L 300 3275 
Q 359 3922 746 4261 
Q 1134 4600 1788 4600 
Q 2447 4600 2831 4234 
Q 3216 3869 3216 3328 
Q 3216 3053 3103 2787 
Q 2991 2522 2730 2228 
Q 2469 1934 1863 1422 
Q 1356 997 1212 845 
Q 1069 694 975 541 
L 3222 541 
z
" transform="scale(0.015625)"/>
       </defs>
       <use xlink:href="#ArialMT-32"/>
       <use xlink:href="#ArialMT-30" transform="translate(55.615234 0)"/>
      </g>
     </g>
    </g>
    <g id="xtick_3">
     <g id="line2d_3">
      <g>
       <use xlink:href="#m6aa11cbae8" x="159.068799" y="256.883" style="stroke: #000000; stroke-width: 0.8"/>
      </g>
     </g>
     <g id="text_3">
      <!-- 30 -->
      <g transform="translate(150.171299 275.3355) scale(0.16 -0.16)">
       <defs>
        <path id="ArialMT-33" d="M 269 1209 
L 831 1284 
Q 928 806 1161 595 
Q 1394 384 1728 384 
Q 2125 384 2398 659 
Q 2672 934 2672 1341 
Q 2672 1728 2419 1979 
Q 2166 2231 1775 2231 
Q 1616 2231 1378 2169 
L 1441 2663 
Q 1497 2656 1531 2656 
Q 1891 2656 2178 2843 
Q 2466 3031 2466 3422 
Q 2466 3731 2256 3934 
Q 2047 4138 1716 4138 
Q 1388 4138 1169 3931 
Q 950 3725 888 3313 
L 325 3413 
Q 428 3978 793 4289 
Q 1159 4600 1703 4600 
Q 2078 4600 2393 4439 
Q 2709 4278 2876 4000 
Q 3044 3722 3044 3409 
Q 3044 3113 2884 2869 
Q 2725 2625 2413 2481 
Q 2819 2388 3044 2092 
Q 3269 1797 3269 1353 
Q 3269 753 2831 336 
Q 2394 -81 1725 -81 
Q 1122 -81 723 278 
Q 325 638 269 1209 
z
" transform="scale(0.015625)"/>
       </defs>
       <use xlink:href="#ArialMT-33"/>
       <use xlink:href="#ArialMT-30" transform="translate(55.615234 0)"/>
      </g>
     </g>
    </g>
    <g id="xtick_4">
     <g id="line2d_4">
      <g>
       <use xlink:href="#m6aa11cbae8" x="205.051266" y="256.883" style="stroke: #000000; stroke-width: 0.8"/>
      </g>
     </g>
     <g id="text_4">
      <!-- 40 -->
      <g transform="translate(196.153766 275.3355) scale(0.16 -0.16)">
       <defs>
        <path id="ArialMT-34" d="M 2069 0 
L 2069 1097 
L 81 1097 
L 81 1613 
L 2172 4581 
L 2631 4581 
L 2631 1613 
L 3250 1613 
L 3250 1097 
L 2631 1097 
L 2631 0 
L 2069 0 
z
M 2069 1613 
L 2069 3678 
L 634 1613 
L 2069 1613 
z
" transform="scale(0.015625)"/>
       </defs>
       <use xlink:href="#ArialMT-34"/>
       <use xlink:href="#ArialMT-30" transform="translate(55.615234 0)"/>
      </g>
     </g>
    </g>
    <g id="xtick_5">
     <g id="line2d_5">
      <g>
       <use xlink:href="#m6aa11cbae8" x="251.033734" y="256.883" style="stroke: #000000; stroke-width: 0.8"/>
      </g>
     </g>
     <g id="text_5">
      <!-- 50 -->
      <g transform="translate(242.136234 275.3355) scale(0.16 -0.16)">
       <defs>
        <path id="ArialMT-35" d="M 266 1200 
L 856 1250 
Q 922 819 1161 601 
Q 1400 384 1738 384 
Q 2144 384 2425 690 
Q 2706 997 2706 1503 
Q 2706 1984 2436 2262 
Q 2166 2541 1728 2541 
Q 1456 2541 1237 2417 
Q 1019 2294 894 2097 
L 366 2166 
L 809 4519 
L 3088 4519 
L 3088 3981 
L 1259 3981 
L 1013 2750 
Q 1425 3038 1878 3038 
Q 2478 3038 2890 2622 
Q 3303 2206 3303 1553 
Q 3303 931 2941 478 
Q 2500 -78 1738 -78 
Q 1113 -78 717 272 
Q 322 622 266 1200 
z
" transform="scale(0.015625)"/>
       </defs>
       <use xlink:href="#ArialMT-35"/>
       <use xlink:href="#ArialMT-30" transform="translate(55.615234 0)"/>
      </g>
     </g>
    </g>
    <g id="xtick_6">
     <g id="line2d_6">
      <g>
       <use xlink:href="#m6aa11cbae8" x="297.016201" y="256.883" style="stroke: #000000; stroke-width: 0.8"/>
      </g>
     </g>
     <g id="text_6">
      <!-- 60 -->
      <g transform="translate(288.118701 275.3355) scale(0.16 -0.16)">
       <defs>
        <path id="ArialMT-36" d="M 3184 3459 
L 2625 3416 
Q 2550 3747 2413 3897 
Q 2184 4138 1850 4138 
Q 1581 4138 1378 3988 
Q 1113 3794 959 3422 
Q 806 3050 800 2363 
Q 1003 2672 1297 2822 
Q 1591 2972 1913 2972 
Q 2475 2972 2870 2558 
Q 3266 2144 3266 1488 
Q 3266 1056 3080 686 
Q 2894 316 2569 119 
Q 2244 -78 1831 -78 
Q 1128 -78 684 439 
Q 241 956 241 2144 
Q 241 3472 731 4075 
Q 1159 4600 1884 4600 
Q 2425 4600 2770 4297 
Q 3116 3994 3184 3459 
z
M 888 1484 
Q 888 1194 1011 928 
Q 1134 663 1356 523 
Q 1578 384 1822 384 
Q 2178 384 2434 671 
Q 2691 959 2691 1453 
Q 2691 1928 2437 2201 
Q 2184 2475 1800 2475 
Q 1419 2475 1153 2201 
Q 888 1928 888 1484 
z
" transform="scale(0.015625)"/>
       </defs>
       <use xlink:href="#ArialMT-36"/>
       <use xlink:href="#ArialMT-30" transform="translate(55.615234 0)"/>
      </g>
     </g>
    </g>
    <g id="xtick_7">
     <g id="line2d_7">
      <g>
       <use xlink:href="#m6aa11cbae8" x="342.998669" y="256.883" style="stroke: #000000; stroke-width: 0.8"/>
      </g>
     </g>
     <g id="text_7">
      <!-- 70 -->
      <g transform="translate(334.101169 275.3355) scale(0.16 -0.16)">
       <defs>
        <path id="ArialMT-37" d="M 303 3981 
L 303 4522 
L 3269 4522 
L 3269 4084 
Q 2831 3619 2401 2847 
Q 1972 2075 1738 1259 
Q 1569 684 1522 0 
L 944 0 
Q 953 541 1156 1306 
Q 1359 2072 1739 2783 
Q 2119 3494 2547 3981 
L 303 3981 
z
" transform="scale(0.015625)"/>
       </defs>
       <use xlink:href="#ArialMT-37"/>
       <use xlink:href="#ArialMT-30" transform="translate(55.615234 0)"/>
      </g>
     </g>
    </g>
    <g id="xtick_8">
     <g id="line2d_8">
      <g>
       <use xlink:href="#m6aa11cbae8" x="388.981136" y="256.883" style="stroke: #000000; stroke-width: 0.8"/>
      </g>
     </g>
     <g id="text_8">
      <!-- 80 -->
      <g transform="translate(380.083636 275.3355) scale(0.16 -0.16)">
       <defs>
        <path id="ArialMT-38" d="M 1131 2484 
Q 781 2613 612 2850 
Q 444 3088 444 3419 
Q 444 3919 803 4259 
Q 1163 4600 1759 4600 
Q 2359 4600 2725 4251 
Q 3091 3903 3091 3403 
Q 3091 3084 2923 2848 
Q 2756 2613 2416 2484 
Q 2838 2347 3058 2040 
Q 3278 1734 3278 1309 
Q 3278 722 2862 322 
Q 2447 -78 1769 -78 
Q 1091 -78 675 323 
Q 259 725 259 1325 
Q 259 1772 486 2073 
Q 713 2375 1131 2484 
z
M 1019 3438 
Q 1019 3113 1228 2906 
Q 1438 2700 1772 2700 
Q 2097 2700 2305 2904 
Q 2513 3109 2513 3406 
Q 2513 3716 2298 3927 
Q 2084 4138 1766 4138 
Q 1444 4138 1231 3931 
Q 1019 3725 1019 3438 
z
M 838 1322 
Q 838 1081 952 856 
Q 1066 631 1291 507 
Q 1516 384 1775 384 
Q 2178 384 2440 643 
Q 2703 903 2703 1303 
Q 2703 1709 2433 1975 
Q 2163 2241 1756 2241 
Q 1359 2241 1098 1978 
Q 838 1716 838 1322 
z
" transform="scale(0.015625)"/>
       </defs>
       <use xlink:href="#ArialMT-38"/>
       <use xlink:href="#ArialMT-30" transform="translate(55.615234 0)"/>
      </g>
     </g>
    </g>
    <g id="text_9">
     <!-- Sound Level (dB) -->
     <g transform="translate(166.23 294.163) scale(0.16 -0.16)">
      <defs>
       <path id="ArialMT-53" d="M 288 1472 
L 859 1522 
Q 900 1178 1048 958 
Q 1197 738 1509 602 
Q 1822 466 2213 466 
Q 2559 466 2825 569 
Q 3091 672 3220 851 
Q 3350 1031 3350 1244 
Q 3350 1459 3225 1620 
Q 3100 1781 2813 1891 
Q 2628 1963 1997 2114 
Q 1366 2266 1113 2400 
Q 784 2572 623 2826 
Q 463 3081 463 3397 
Q 463 3744 659 4045 
Q 856 4347 1234 4503 
Q 1613 4659 2075 4659 
Q 2584 4659 2973 4495 
Q 3363 4331 3572 4012 
Q 3781 3694 3797 3291 
L 3216 3247 
Q 3169 3681 2898 3903 
Q 2628 4125 2100 4125 
Q 1550 4125 1298 3923 
Q 1047 3722 1047 3438 
Q 1047 3191 1225 3031 
Q 1400 2872 2139 2705 
Q 2878 2538 3153 2413 
Q 3553 2228 3743 1945 
Q 3934 1663 3934 1294 
Q 3934 928 3725 604 
Q 3516 281 3123 101 
Q 2731 -78 2241 -78 
Q 1619 -78 1198 103 
Q 778 284 539 648 
Q 300 1013 288 1472 
z
" transform="scale(0.015625)"/>
       <path id="ArialMT-6f" d="M 213 1659 
Q 213 2581 725 3025 
Q 1153 3394 1769 3394 
Q 2453 3394 2887 2945 
Q 3322 2497 3322 1706 
Q 3322 1066 3130 698 
Q 2938 331 2570 128 
Q 2203 -75 1769 -75 
Q 1072 -75 642 372 
Q 213 819 213 1659 
z
M 791 1659 
Q 791 1022 1069 705 
Q 1347 388 1769 388 
Q 2188 388 2466 706 
Q 2744 1025 2744 1678 
Q 2744 2294 2464 2611 
Q 2184 2928 1769 2928 
Q 1347 2928 1069 2612 
Q 791 2297 791 1659 
z
" transform="scale(0.015625)"/>
       <path id="ArialMT-75" d="M 2597 0 
L 2597 488 
Q 2209 -75 1544 -75 
Q 1250 -75 995 37 
Q 741 150 617 320 
Q 494 491 444 738 
Q 409 903 409 1263 
L 409 3319 
L 972 3319 
L 972 1478 
Q 972 1038 1006 884 
Q 1059 663 1231 536 
Q 1403 409 1656 409 
Q 1909 409 2131 539 
Q 2353 669 2445 892 
Q 2538 1116 2538 1541 
L 2538 3319 
L 3100 3319 
L 3100 0 
L 2597 0 
z
" transform="scale(0.015625)"/>
       <path id="ArialMT-6e" d="M 422 0 
L 422 3319 
L 928 3319 
L 928 2847 
Q 1294 3394 1984 3394 
Q 2284 3394 2536 3286 
Q 2788 3178 2913 3003 
Q 3038 2828 3088 2588 
Q 3119 2431 3119 2041 
L 3119 0 
L 2556 0 
L 2556 2019 
Q 2556 2363 2490 2533 
Q 2425 2703 2258 2804 
Q 2091 2906 1866 2906 
Q 1506 2906 1245 2678 
Q 984 2450 984 1813 
L 984 0 
L 422 0 
z
" transform="scale(0.015625)"/>
       <path id="ArialMT-64" d="M 2575 0 
L 2575 419 
Q 2259 -75 1647 -75 
Q 1250 -75 917 144 
Q 584 363 401 755 
Q 219 1147 219 1656 
Q 219 2153 384 2558 
Q 550 2963 881 3178 
Q 1213 3394 1622 3394 
Q 1922 3394 2156 3267 
Q 2391 3141 2538 2938 
L 2538 4581 
L 3097 4581 
L 3097 0 
L 2575 0 
z
M 797 1656 
Q 797 1019 1065 703 
Q 1334 388 1700 388 
Q 2069 388 2326 689 
Q 2584 991 2584 1609 
Q 2584 2291 2321 2609 
Q 2059 2928 1675 2928 
Q 1300 2928 1048 2622 
Q 797 2316 797 1656 
z
" transform="scale(0.015625)"/>
       <path id="ArialMT-20" transform="scale(0.015625)"/>
       <path id="ArialMT-4c" d="M 469 0 
L 469 4581 
L 1075 4581 
L 1075 541 
L 3331 541 
L 3331 0 
L 469 0 
z
" transform="scale(0.015625)"/>
       <path id="ArialMT-65" d="M 2694 1069 
L 3275 997 
Q 3138 488 2766 206 
Q 2394 -75 1816 -75 
Q 1088 -75 661 373 
Q 234 822 234 1631 
Q 234 2469 665 2931 
Q 1097 3394 1784 3394 
Q 2450 3394 2872 2941 
Q 3294 2488 3294 1666 
Q 3294 1616 3291 1516 
L 816 1516 
Q 847 969 1125 678 
Q 1403 388 1819 388 
Q 2128 388 2347 550 
Q 2566 713 2694 1069 
z
M 847 1978 
L 2700 1978 
Q 2663 2397 2488 2606 
Q 2219 2931 1791 2931 
Q 1403 2931 1139 2672 
Q 875 2413 847 1978 
z
" transform="scale(0.015625)"/>
       <path id="ArialMT-76" d="M 1344 0 
L 81 3319 
L 675 3319 
L 1388 1331 
Q 1503 1009 1600 663 
Q 1675 925 1809 1294 
L 2547 3319 
L 3125 3319 
L 1869 0 
L 1344 0 
z
" transform="scale(0.015625)"/>
       <path id="ArialMT-6c" d="M 409 0 
L 409 4581 
L 972 4581 
L 972 0 
L 409 0 
z
" transform="scale(0.015625)"/>
       <path id="ArialMT-28" d="M 1497 -1347 
Q 1031 -759 709 28 
Q 388 816 388 1659 
Q 388 2403 628 3084 
Q 909 3875 1497 4659 
L 1900 4659 
Q 1522 4009 1400 3731 
Q 1209 3300 1100 2831 
Q 966 2247 966 1656 
Q 966 153 1900 -1347 
L 1497 -1347 
z
" transform="scale(0.015625)"/>
       <path id="ArialMT-42" d="M 469 0 
L 469 4581 
L 2188 4581 
Q 2713 4581 3030 4442 
Q 3347 4303 3526 4014 
Q 3706 3725 3706 3409 
Q 3706 3116 3547 2856 
Q 3388 2597 3066 2438 
Q 3481 2316 3704 2022 
Q 3928 1728 3928 1328 
Q 3928 1006 3792 729 
Q 3656 453 3456 303 
Q 3256 153 2954 76 
Q 2653 0 2216 0 
L 469 0 
z
M 1075 2656 
L 2066 2656 
Q 2469 2656 2644 2709 
Q 2875 2778 2992 2937 
Q 3109 3097 3109 3338 
Q 3109 3566 3000 3739 
Q 2891 3913 2687 3977 
Q 2484 4041 1991 4041 
L 1075 4041 
L 1075 2656 
z
M 1075 541 
L 2216 541 
Q 2509 541 2628 563 
Q 2838 600 2978 687 
Q 3119 775 3209 942 
Q 3300 1109 3300 1328 
Q 3300 1584 3169 1773 
Q 3038 1963 2805 2039 
Q 2572 2116 2134 2116 
L 1075 2116 
L 1075 541 
z
" transform="scale(0.015625)"/>
       <path id="ArialMT-29" d="M 791 -1347 
L 388 -1347 
Q 1322 153 1322 1656 
Q 1322 2244 1188 2822 
Q 1081 3291 891 3722 
Q 769 4003 388 4659 
L 791 4659 
Q 1378 3875 1659 3084 
Q 1900 2403 1900 1659 
Q 1900 816 1576 28 
Q 1253 -759 791 -1347 
z
" transform="scale(0.015625)"/>
      </defs>
      <use xlink:href="#ArialMT-53"/>
      <use xlink:href="#ArialMT-6f" transform="translate(66.699219 0)"/>
      <use xlink:href="#ArialMT-75" transform="translate(122.314453 0)"/>
      <use xlink:href="#ArialMT-6e" transform="translate(177.929688 0)"/>
      <use xlink:href="#ArialMT-64" transform="translate(233.544922 0)"/>
      <use xlink:href="#ArialMT-20" transform="translate(289.160156 0)"/>
      <use xlink:href="#ArialMT-4c" transform="translate(316.943359 0)"/>
      <use xlink:href="#ArialMT-65" transform="translate(372.558594 0)"/>
      <use xlink:href="#ArialMT-76" transform="translate(428.173828 0)"/>
      <use xlink:href="#ArialMT-65" transform="translate(478.173828 0)"/>
      <use xlink:href="#ArialMT-6c" transform="translate(533.789062 0)"/>
      <use xlink:href="#ArialMT-20" transform="translate(556.005859 0)"/>
      <use xlink:href="#ArialMT-28" transform="translate(583.789062 0)"/>
      <use xlink:href="#ArialMT-64" transform="translate(617.089844 0)"/>
      <use xlink:href="#ArialMT-42" transform="translate(672.705078 0)"/>
      <use xlink:href="#ArialMT-29" transform="translate(739.404297 0)"/>
     </g>
    </g>
   </g>
   <g id="matplotlib.axis_2">
    <g id="ytick_1">
     <g id="line2d_9">
      <defs>
       <path id="m9309be69fa" d="M 0 0 
L -3.5 0 
" style="stroke: #000000; stroke-width: 0.8"/>
      </defs>
      <g>
       <use xlink:href="#m9309be69fa" x="51.01" y="253.48203" style="stroke: #000000; stroke-width: 0.8"/>
      </g>
     </g>
     <g id="text_10">
      <!-- 86 -->
      <g transform="translate(26.215 259.20828) scale(0.16 -0.16)">
       <use xlink:href="#ArialMT-38"/>
       <use xlink:href="#ArialMT-36" transform="translate(55.615234 0)"/>
      </g>
     </g>
    </g>
    <g id="ytick_2">
     <g id="line2d_10">
      <g>
       <use xlink:href="#m9309be69fa" x="51.01" y="215.798557" style="stroke: #000000; stroke-width: 0.8"/>
      </g>
     </g>
     <g id="text_11">
      <!-- 88 -->
      <g transform="translate(26.215 221.524807) scale(0.16 -0.16)">
       <use xlink:href="#ArialMT-38"/>
       <use xlink:href="#ArialMT-38" transform="translate(55.615234 0)"/>
      </g>
     </g>
    </g>
    <g id="ytick_3">
     <g id="line2d_11">
      <g>
       <use xlink:href="#m9309be69fa" x="51.01" y="178.115083" style="stroke: #000000; stroke-width: 0.8"/>
      </g>
     </g>
     <g id="text_12">
      <!-- 90 -->
      <g transform="translate(26.215 183.841333) scale(0.16 -0.16)">
       <defs>
        <path id="ArialMT-39" d="M 350 1059 
L 891 1109 
Q 959 728 1153 556 
Q 1347 384 1650 384 
Q 1909 384 2104 503 
Q 2300 622 2425 820 
Q 2550 1019 2634 1356 
Q 2719 1694 2719 2044 
Q 2719 2081 2716 2156 
Q 2547 1888 2255 1720 
Q 1963 1553 1622 1553 
Q 1053 1553 659 1965 
Q 266 2378 266 3053 
Q 266 3750 677 4175 
Q 1088 4600 1706 4600 
Q 2153 4600 2523 4359 
Q 2894 4119 3086 3673 
Q 3278 3228 3278 2384 
Q 3278 1506 3087 986 
Q 2897 466 2520 194 
Q 2144 -78 1638 -78 
Q 1100 -78 759 220 
Q 419 519 350 1059 
z
M 2653 3081 
Q 2653 3566 2395 3850 
Q 2138 4134 1775 4134 
Q 1400 4134 1122 3828 
Q 844 3522 844 3034 
Q 844 2597 1108 2323 
Q 1372 2050 1759 2050 
Q 2150 2050 2401 2323 
Q 2653 2597 2653 3081 
z
" transform="scale(0.015625)"/>
       </defs>
       <use xlink:href="#ArialMT-39"/>
       <use xlink:href="#ArialMT-30" transform="translate(55.615234 0)"/>
      </g>
     </g>
    </g>
    <g id="ytick_4">
     <g id="line2d_12">
      <g>
       <use xlink:href="#m9309be69fa" x="51.01" y="140.431609" style="stroke: #000000; stroke-width: 0.8"/>
      </g>
     </g>
     <g id="text_13">
      <!-- 92 -->
      <g transform="translate(26.215 146.157859) scale(0.16 -0.16)">
       <use xlink:href="#ArialMT-39"/>
       <use xlink:href="#ArialMT-32" transform="translate(55.615234 0)"/>
      </g>
     </g>
    </g>
    <g id="ytick_5">
     <g id="line2d_13">
      <g>
       <use xlink:href="#m9309be69fa" x="51.01" y="102.748135" style="stroke: #000000; stroke-width: 0.8"/>
      </g>
     </g>
     <g id="text_14">
      <!-- 94 -->
      <g transform="translate(26.215 108.474385) scale(0.16 -0.16)">
       <use xlink:href="#ArialMT-39"/>
       <use xlink:href="#ArialMT-34" transform="translate(55.615234 0)"/>
      </g>
     </g>
    </g>
    <g id="ytick_6">
     <g id="line2d_14">
      <g>
       <use xlink:href="#m9309be69fa" x="51.01" y="65.064662" style="stroke: #000000; stroke-width: 0.8"/>
      </g>
     </g>
     <g id="text_15">
      <!-- 96 -->
      <g transform="translate(26.215 70.790912) scale(0.16 -0.16)">
       <use xlink:href="#ArialMT-39"/>
       <use xlink:href="#ArialMT-36" transform="translate(55.615234 0)"/>
      </g>
     </g>
    </g>
    <g id="ytick_7">
     <g id="line2d_15">
      <g>
       <use xlink:href="#m9309be69fa" x="51.01" y="27.381188" style="stroke: #000000; stroke-width: 0.8"/>
      </g>
     </g>
     <g id="text_16">
      <!-- 98 -->
      <g transform="translate(26.215 33.107438) scale(0.16 -0.16)">
       <use xlink:href="#ArialMT-39"/>
       <use xlink:href="#ArialMT-38" transform="translate(55.615234 0)"/>
      </g>
     </g>
    </g>
    <g id="text_17">
     <!-- Accuracy (%) -->
     <g transform="translate(18.8475 189.47425) rotate(-90) scale(0.16 -0.16)">
      <defs>
       <path id="ArialMT-41" d="M -9 0 
L 1750 4581 
L 2403 4581 
L 4278 0 
L 3588 0 
L 3053 1388 
L 1138 1388 
L 634 0 
L -9 0 
z
M 1313 1881 
L 2866 1881 
L 2388 3150 
Q 2169 3728 2063 4100 
Q 1975 3659 1816 3225 
L 1313 1881 
z
" transform="scale(0.015625)"/>
       <path id="ArialMT-63" d="M 2588 1216 
L 3141 1144 
Q 3050 572 2676 248 
Q 2303 -75 1759 -75 
Q 1078 -75 664 370 
Q 250 816 250 1647 
Q 250 2184 428 2587 
Q 606 2991 970 3192 
Q 1334 3394 1763 3394 
Q 2303 3394 2647 3120 
Q 2991 2847 3088 2344 
L 2541 2259 
Q 2463 2594 2264 2762 
Q 2066 2931 1784 2931 
Q 1359 2931 1093 2626 
Q 828 2322 828 1663 
Q 828 994 1084 691 
Q 1341 388 1753 388 
Q 2084 388 2306 591 
Q 2528 794 2588 1216 
z
" transform="scale(0.015625)"/>
       <path id="ArialMT-72" d="M 416 0 
L 416 3319 
L 922 3319 
L 922 2816 
Q 1116 3169 1280 3281 
Q 1444 3394 1641 3394 
Q 1925 3394 2219 3213 
L 2025 2691 
Q 1819 2813 1613 2813 
Q 1428 2813 1281 2702 
Q 1134 2591 1072 2394 
Q 978 2094 978 1738 
L 978 0 
L 416 0 
z
" transform="scale(0.015625)"/>
       <path id="ArialMT-61" d="M 2588 409 
Q 2275 144 1986 34 
Q 1697 -75 1366 -75 
Q 819 -75 525 192 
Q 231 459 231 875 
Q 231 1119 342 1320 
Q 453 1522 633 1644 
Q 813 1766 1038 1828 
Q 1203 1872 1538 1913 
Q 2219 1994 2541 2106 
Q 2544 2222 2544 2253 
Q 2544 2597 2384 2738 
Q 2169 2928 1744 2928 
Q 1347 2928 1158 2789 
Q 969 2650 878 2297 
L 328 2372 
Q 403 2725 575 2942 
Q 747 3159 1072 3276 
Q 1397 3394 1825 3394 
Q 2250 3394 2515 3294 
Q 2781 3194 2906 3042 
Q 3031 2891 3081 2659 
Q 3109 2516 3109 2141 
L 3109 1391 
Q 3109 606 3145 398 
Q 3181 191 3288 0 
L 2700 0 
Q 2613 175 2588 409 
z
M 2541 1666 
Q 2234 1541 1622 1453 
Q 1275 1403 1131 1340 
Q 988 1278 909 1158 
Q 831 1038 831 891 
Q 831 666 1001 516 
Q 1172 366 1500 366 
Q 1825 366 2078 508 
Q 2331 650 2450 897 
Q 2541 1088 2541 1459 
L 2541 1666 
z
" transform="scale(0.015625)"/>
       <path id="ArialMT-79" d="M 397 -1278 
L 334 -750 
Q 519 -800 656 -800 
Q 844 -800 956 -737 
Q 1069 -675 1141 -563 
Q 1194 -478 1313 -144 
Q 1328 -97 1363 -6 
L 103 3319 
L 709 3319 
L 1400 1397 
Q 1534 1031 1641 628 
Q 1738 1016 1872 1384 
L 2581 3319 
L 3144 3319 
L 1881 -56 
Q 1678 -603 1566 -809 
Q 1416 -1088 1222 -1217 
Q 1028 -1347 759 -1347 
Q 597 -1347 397 -1278 
z
" transform="scale(0.015625)"/>
       <path id="ArialMT-25" d="M 372 3481 
Q 372 3972 619 4315 
Q 866 4659 1334 4659 
Q 1766 4659 2048 4351 
Q 2331 4044 2331 3447 
Q 2331 2866 2045 2552 
Q 1759 2238 1341 2238 
Q 925 2238 648 2547 
Q 372 2856 372 3481 
z
M 1350 4272 
Q 1141 4272 1002 4090 
Q 863 3909 863 3425 
Q 863 2984 1003 2804 
Q 1144 2625 1350 2625 
Q 1563 2625 1702 2806 
Q 1841 2988 1841 3469 
Q 1841 3913 1700 4092 
Q 1559 4272 1350 4272 
z
M 1353 -169 
L 3859 4659 
L 4316 4659 
L 1819 -169 
L 1353 -169 
z
M 3334 1075 
Q 3334 1569 3581 1911 
Q 3828 2253 4300 2253 
Q 4731 2253 5014 1945 
Q 5297 1638 5297 1041 
Q 5297 459 5011 145 
Q 4725 -169 4303 -169 
Q 3888 -169 3611 142 
Q 3334 453 3334 1075 
z
M 4316 1866 
Q 4103 1866 3964 1684 
Q 3825 1503 3825 1019 
Q 3825 581 3965 400 
Q 4106 219 4313 219 
Q 4528 219 4667 400 
Q 4806 581 4806 1063 
Q 4806 1506 4665 1686 
Q 4525 1866 4316 1866 
z
" transform="scale(0.015625)"/>
      </defs>
      <use xlink:href="#ArialMT-41"/>
      <use xlink:href="#ArialMT-63" transform="translate(66.699219 0)"/>
      <use xlink:href="#ArialMT-63" transform="translate(116.699219 0)"/>
      <use xlink:href="#ArialMT-75" transform="translate(166.699219 0)"/>
      <use xlink:href="#ArialMT-72" transform="translate(222.314453 0)"/>
      <use xlink:href="#ArialMT-61" transform="translate(255.615234 0)"/>
      <use xlink:href="#ArialMT-63" transform="translate(311.230469 0)"/>
      <use xlink:href="#ArialMT-79" transform="translate(361.230469 0)"/>
      <use xlink:href="#ArialMT-20" transform="translate(411.230469 0)"/>
      <use xlink:href="#ArialMT-28" transform="translate(439.013672 0)"/>
      <use xlink:href="#ArialMT-25" transform="translate(472.314453 0)"/>
      <use xlink:href="#ArialMT-29" transform="translate(561.230469 0)"/>
     </g>
    </g>
   </g>
   <g id="LineCollection_1">
    <path d="M 159.068799 81.323268 
L 159.068799 43.828993 
" clip-path="url(#pa45eb64aa1)" style="fill: none; stroke: #0072bd; stroke-width: 2.5"/>
    <path d="M 205.051266 58.513486 
L 205.051266 44.364511 
" clip-path="url(#pa45eb64aa1)" style="fill: none; stroke: #0072bd; stroke-width: 2.5"/>
    <path d="M 251.033734 56.378634 
L 251.033734 37.394818 
" clip-path="url(#pa45eb64aa1)" style="fill: none; stroke: #0072bd; stroke-width: 2.5"/>
    <path d="M 297.016201 73.721291 
L 297.016201 51.269377 
" clip-path="url(#pa45eb64aa1)" style="fill: none; stroke: #0072bd; stroke-width: 2.5"/>
    <path d="M 342.998669 64.079538 
L 342.998669 40.92747 
" clip-path="url(#pa45eb64aa1)" style="fill: none; stroke: #0072bd; stroke-width: 2.5"/>
    <path d="M 388.981136 71.469589 
L 388.981136 57.599377 
" clip-path="url(#pa45eb64aa1)" style="fill: none; stroke: #0072bd; stroke-width: 2.5"/>
   </g>
   <g id="line2d_16">
    <defs>
     <path id="mc6920a69ee" d="M 4 0 
L -4 -0 
" style="stroke: #0072bd; stroke-width: 2.5"/>
    </defs>
    <g clip-path="url(#pa45eb64aa1)">
     <use xlink:href="#mc6920a69ee" x="159.068799" y="81.323268" style="fill: #0072bd; stroke: #0072bd; stroke-width: 2.5"/>
     <use xlink:href="#mc6920a69ee" x="205.051266" y="58.513486" style="fill: #0072bd; stroke: #0072bd; stroke-width: 2.5"/>
     <use xlink:href="#mc6920a69ee" x="251.033734" y="56.378634" style="fill: #0072bd; stroke: #0072bd; stroke-width: 2.5"/>
     <use xlink:href="#mc6920a69ee" x="297.016201" y="73.721291" style="fill: #0072bd; stroke: #0072bd; stroke-width: 2.5"/>
     <use xlink:href="#mc6920a69ee" x="342.998669" y="64.079538" style="fill: #0072bd; stroke: #0072bd; stroke-width: 2.5"/>
     <use xlink:href="#mc6920a69ee" x="388.981136" y="71.469589" style="fill: #0072bd; stroke: #0072bd; stroke-width: 2.5"/>
    </g>
   </g>
   <g id="line2d_17">
    <g clip-path="url(#pa45eb64aa1)">
     <use xlink:href="#mc6920a69ee" x="159.068799" y="43.828993" style="fill: #0072bd; stroke: #0072bd; stroke-width: 2.5"/>
     <use xlink:href="#mc6920a69ee" x="205.051266" y="44.364511" style="fill: #0072bd; stroke: #0072bd; stroke-width: 2.5"/>
     <use xlink:href="#mc6920a69ee" x="251.033734" y="37.394818" style="fill: #0072bd; stroke: #0072bd; stroke-width: 2.5"/>
     <use xlink:href="#mc6920a69ee" x="297.016201" y="51.269377" style="fill: #0072bd; stroke: #0072bd; stroke-width: 2.5"/>
     <use xlink:href="#mc6920a69ee" x="342.998669" y="40.92747" style="fill: #0072bd; stroke: #0072bd; stroke-width: 2.5"/>
     <use xlink:href="#mc6920a69ee" x="388.981136" y="57.599377" style="fill: #0072bd; stroke: #0072bd; stroke-width: 2.5"/>
    </g>
   </g>
   <g id="LineCollection_2">
    <path d="M 205.051266 202.786808 
L 205.051266 150.879856 
" clip-path="url(#pa45eb64aa1)" style="fill: none; stroke: #d95319; stroke-width: 2.5"/>
    <path d="M 251.033734 132.01565 
L 251.033734 95.014034 
" clip-path="url(#pa45eb64aa1)" style="fill: none; stroke: #d95319; stroke-width: 2.5"/>
    <path d="M 297.016201 134.718285 
L 297.016201 101.388186 
" clip-path="url(#pa45eb64aa1)" style="fill: none; stroke: #d95319; stroke-width: 2.5"/>
    <path d="M 342.998669 116.378529 
L 342.998669 92.794178 
" clip-path="url(#pa45eb64aa1)" style="fill: none; stroke: #d95319; stroke-width: 2.5"/>
    <path d="M 388.981136 128.63825 
L 388.981136 102.531265 
" clip-path="url(#pa45eb64aa1)" style="fill: none; stroke: #d95319; stroke-width: 2.5"/>
   </g>
   <g id="line2d_18">
    <defs>
     <path id="m3895a320d5" d="M 4 0 
L -4 -0 
" style="stroke: #d95319; stroke-width: 2.5"/>
    </defs>
    <g clip-path="url(#pa45eb64aa1)">
     <use xlink:href="#m3895a320d5" x="205.051266" y="202.786808" style="fill: #d95319; stroke: #d95319; stroke-width: 2.5"/>
     <use xlink:href="#m3895a320d5" x="251.033734" y="132.01565" style="fill: #d95319; stroke: #d95319; stroke-width: 2.5"/>
     <use xlink:href="#m3895a320d5" x="297.016201" y="134.718285" style="fill: #d95319; stroke: #d95319; stroke-width: 2.5"/>
     <use xlink:href="#m3895a320d5" x="342.998669" y="116.378529" style="fill: #d95319; stroke: #d95319; stroke-width: 2.5"/>
     <use xlink:href="#m3895a320d5" x="388.981136" y="128.63825" style="fill: #d95319; stroke: #d95319; stroke-width: 2.5"/>
    </g>
   </g>
   <g id="line2d_19">
    <g clip-path="url(#pa45eb64aa1)">
     <use xlink:href="#m3895a320d5" x="205.051266" y="150.879856" style="fill: #d95319; stroke: #d95319; stroke-width: 2.5"/>
     <use xlink:href="#m3895a320d5" x="251.033734" y="95.014034" style="fill: #d95319; stroke: #d95319; stroke-width: 2.5"/>
     <use xlink:href="#m3895a320d5" x="297.016201" y="101.388186" style="fill: #d95319; stroke: #d95319; stroke-width: 2.5"/>
     <use xlink:href="#m3895a320d5" x="342.998669" y="92.794178" style="fill: #d95319; stroke: #d95319; stroke-width: 2.5"/>
     <use xlink:href="#m3895a320d5" x="388.981136" y="102.531265" style="fill: #d95319; stroke: #d95319; stroke-width: 2.5"/>
    </g>
   </g>
   <g id="LineCollection_3">
    <path d="M 67.103864 145.221986 
L 67.103864 85.396601 
" clip-path="url(#pa45eb64aa1)" style="fill: none; stroke: #edb120; stroke-width: 2.5"/>
    <path d="M 113.086331 101.415668 
L 113.086331 75.211977 
" clip-path="url(#pa45eb64aa1)" style="fill: none; stroke: #edb120; stroke-width: 2.5"/>
    <path d="M 159.068799 114.773443 
L 159.068799 92.816354 
" clip-path="url(#pa45eb64aa1)" style="fill: none; stroke: #edb120; stroke-width: 2.5"/>
    <path d="M 205.051266 80.697002 
L 205.051266 51.944553 
" clip-path="url(#pa45eb64aa1)" style="fill: none; stroke: #edb120; stroke-width: 2.5"/>
    <path d="M 251.033734 132.757896 
L 251.033734 99.605296 
" clip-path="url(#pa45eb64aa1)" style="fill: none; stroke: #edb120; stroke-width: 2.5"/>
    <path d="M 297.016201 137.113911 
L 297.016201 92.738751 
" clip-path="url(#pa45eb64aa1)" style="fill: none; stroke: #edb120; stroke-width: 2.5"/>
    <path d="M 342.998669 158.303031 
L 342.998669 137.702405 
" clip-path="url(#pa45eb64aa1)" style="fill: none; stroke: #edb120; stroke-width: 2.5"/>
    <path d="M 388.981136 165.802546 
L 388.981136 146.044862 
" clip-path="url(#pa45eb64aa1)" style="fill: none; stroke: #edb120; stroke-width: 2.5"/>
   </g>
   <g id="line2d_20">
    <defs>
     <path id="me2cfdef636" d="M 4 0 
L -4 -0 
" style="stroke: #edb120; stroke-width: 2.5"/>
    </defs>
    <g clip-path="url(#pa45eb64aa1)">
     <use xlink:href="#me2cfdef636" x="67.103864" y="145.221986" style="fill: #edb120; stroke: #edb120; stroke-width: 2.5"/>
     <use xlink:href="#me2cfdef636" x="113.086331" y="101.415668" style="fill: #edb120; stroke: #edb120; stroke-width: 2.5"/>
     <use xlink:href="#me2cfdef636" x="159.068799" y="114.773443" style="fill: #edb120; stroke: #edb120; stroke-width: 2.5"/>
     <use xlink:href="#me2cfdef636" x="205.051266" y="80.697002" style="fill: #edb120; stroke: #edb120; stroke-width: 2.5"/>
     <use xlink:href="#me2cfdef636" x="251.033734" y="132.757896" style="fill: #edb120; stroke: #edb120; stroke-width: 2.5"/>
     <use xlink:href="#me2cfdef636" x="297.016201" y="137.113911" style="fill: #edb120; stroke: #edb120; stroke-width: 2.5"/>
     <use xlink:href="#me2cfdef636" x="342.998669" y="158.303031" style="fill: #edb120; stroke: #edb120; stroke-width: 2.5"/>
     <use xlink:href="#me2cfdef636" x="388.981136" y="165.802546" style="fill: #edb120; stroke: #edb120; stroke-width: 2.5"/>
    </g>
   </g>
   <g id="line2d_21">
    <g clip-path="url(#pa45eb64aa1)">
     <use xlink:href="#me2cfdef636" x="67.103864" y="85.396601" style="fill: #edb120; stroke: #edb120; stroke-width: 2.5"/>
     <use xlink:href="#me2cfdef636" x="113.086331" y="75.211977" style="fill: #edb120; stroke: #edb120; stroke-width: 2.5"/>
     <use xlink:href="#me2cfdef636" x="159.068799" y="92.816354" style="fill: #edb120; stroke: #edb120; stroke-width: 2.5"/>
     <use xlink:href="#me2cfdef636" x="205.051266" y="51.944553" style="fill: #edb120; stroke: #edb120; stroke-width: 2.5"/>
     <use xlink:href="#me2cfdef636" x="251.033734" y="99.605296" style="fill: #edb120; stroke: #edb120; stroke-width: 2.5"/>
     <use xlink:href="#me2cfdef636" x="297.016201" y="92.738751" style="fill: #edb120; stroke: #edb120; stroke-width: 2.5"/>
     <use xlink:href="#me2cfdef636" x="342.998669" y="137.702405" style="fill: #edb120; stroke: #edb120; stroke-width: 2.5"/>
     <use xlink:href="#me2cfdef636" x="388.981136" y="146.044862" style="fill: #edb120; stroke: #edb120; stroke-width: 2.5"/>
    </g>
   </g>
   <g id="LineCollection_4">
    <path d="M 67.103864 134.224469 
L 67.103864 96.394118 
" clip-path="url(#pa45eb64aa1)" style="fill: none; stroke: #7e2f8e; stroke-width: 2.5"/>
    <path d="M 113.086331 119.839407 
L 113.086331 87.227009 
" clip-path="url(#pa45eb64aa1)" style="fill: none; stroke: #7e2f8e; stroke-width: 2.5"/>
    <path d="M 159.068799 113.981169 
L 159.068799 77.92152 
" clip-path="url(#pa45eb64aa1)" style="fill: none; stroke: #7e2f8e; stroke-width: 2.5"/>
    <path d="M 205.051266 99.916645 
L 205.051266 74.361454 
" clip-path="url(#pa45eb64aa1)" style="fill: none; stroke: #7e2f8e; stroke-width: 2.5"/>
    <path d="M 251.033734 88.047039 
L 251.033734 58.300489 
" clip-path="url(#pa45eb64aa1)" style="fill: none; stroke: #7e2f8e; stroke-width: 2.5"/>
    <path d="M 297.016201 87.468656 
L 297.016201 59.101006 
" clip-path="url(#pa45eb64aa1)" style="fill: none; stroke: #7e2f8e; stroke-width: 2.5"/>
    <path d="M 342.998669 89.495663 
L 342.998669 57.074 
" clip-path="url(#pa45eb64aa1)" style="fill: none; stroke: #7e2f8e; stroke-width: 2.5"/>
    <path d="M 388.981136 100.33619 
L 388.981136 70.739246 
" clip-path="url(#pa45eb64aa1)" style="fill: none; stroke: #7e2f8e; stroke-width: 2.5"/>
   </g>
   <g id="line2d_22">
    <defs>
     <path id="m0b423f0e8e" d="M 4 0 
L -4 -0 
" style="stroke: #7e2f8e; stroke-width: 2.5"/>
    </defs>
    <g clip-path="url(#pa45eb64aa1)">
     <use xlink:href="#m0b423f0e8e" x="67.103864" y="134.224469" style="fill: #7e2f8e; stroke: #7e2f8e; stroke-width: 2.5"/>
     <use xlink:href="#m0b423f0e8e" x="113.086331" y="119.839407" style="fill: #7e2f8e; stroke: #7e2f8e; stroke-width: 2.5"/>
     <use xlink:href="#m0b423f0e8e" x="159.068799" y="113.981169" style="fill: #7e2f8e; stroke: #7e2f8e; stroke-width: 2.5"/>
     <use xlink:href="#m0b423f0e8e" x="205.051266" y="99.916645" style="fill: #7e2f8e; stroke: #7e2f8e; stroke-width: 2.5"/>
     <use xlink:href="#m0b423f0e8e" x="251.033734" y="88.047039" style="fill: #7e2f8e; stroke: #7e2f8e; stroke-width: 2.5"/>
     <use xlink:href="#m0b423f0e8e" x="297.016201" y="87.468656" style="fill: #7e2f8e; stroke: #7e2f8e; stroke-width: 2.5"/>
     <use xlink:href="#m0b423f0e8e" x="342.998669" y="89.495663" style="fill: #7e2f8e; stroke: #7e2f8e; stroke-width: 2.5"/>
     <use xlink:href="#m0b423f0e8e" x="388.981136" y="100.33619" style="fill: #7e2f8e; stroke: #7e2f8e; stroke-width: 2.5"/>
    </g>
   </g>
   <g id="line2d_23">
    <g clip-path="url(#pa45eb64aa1)">
     <use xlink:href="#m0b423f0e8e" x="67.103864" y="96.394118" style="fill: #7e2f8e; stroke: #7e2f8e; stroke-width: 2.5"/>
     <use xlink:href="#m0b423f0e8e" x="113.086331" y="87.227009" style="fill: #7e2f8e; stroke: #7e2f8e; stroke-width: 2.5"/>
     <use xlink:href="#m0b423f0e8e" x="159.068799" y="77.92152" style="fill: #7e2f8e; stroke: #7e2f8e; stroke-width: 2.5"/>
     <use xlink:href="#m0b423f0e8e" x="205.051266" y="74.361454" style="fill: #7e2f8e; stroke: #7e2f8e; stroke-width: 2.5"/>
     <use xlink:href="#m0b423f0e8e" x="251.033734" y="58.300489" style="fill: #7e2f8e; stroke: #7e2f8e; stroke-width: 2.5"/>
     <use xlink:href="#m0b423f0e8e" x="297.016201" y="59.101006" style="fill: #7e2f8e; stroke: #7e2f8e; stroke-width: 2.5"/>
     <use xlink:href="#m0b423f0e8e" x="342.998669" y="57.074" style="fill: #7e2f8e; stroke: #7e2f8e; stroke-width: 2.5"/>
     <use xlink:href="#m0b423f0e8e" x="388.981136" y="70.739246" style="fill: #7e2f8e; stroke: #7e2f8e; stroke-width: 2.5"/>
    </g>
   </g>
   <g id="LineCollection_5">
    <path d="M 67.103864 145.941135 
L 67.103864 115.06735 
" clip-path="url(#pa45eb64aa1)" style="fill: none; stroke: #77ac30; stroke-width: 2.5"/>
    <path d="M 113.086331 246.431182 
L 113.086331 205.020665 
" clip-path="url(#pa45eb64aa1)" style="fill: none; stroke: #77ac30; stroke-width: 2.5"/>
    <path d="M 159.068799 179.496598 
L 159.068799 138.889054 
" clip-path="url(#pa45eb64aa1)" style="fill: none; stroke: #77ac30; stroke-width: 2.5"/>
    <path d="M 205.051266 135.941831 
L 205.051266 105.000995 
" clip-path="url(#pa45eb64aa1)" style="fill: none; stroke: #77ac30; stroke-width: 2.5"/>
    <path d="M 251.033734 123.505949 
L 251.033734 103.471722 
" clip-path="url(#pa45eb64aa1)" style="fill: none; stroke: #77ac30; stroke-width: 2.5"/>
    <path d="M 297.016201 118.321906 
L 297.016201 92.23372 
" clip-path="url(#pa45eb64aa1)" style="fill: none; stroke: #77ac30; stroke-width: 2.5"/>
    <path d="M 342.998669 112.339069 
L 342.998669 87.254971 
" clip-path="url(#pa45eb64aa1)" style="fill: none; stroke: #77ac30; stroke-width: 2.5"/>
    <path d="M 388.981136 82.283138 
L 388.981136 64.256731 
" clip-path="url(#pa45eb64aa1)" style="fill: none; stroke: #77ac30; stroke-width: 2.5"/>
   </g>
   <g id="line2d_24">
    <defs>
     <path id="ma042ca4493" d="M 4 0 
L -4 -0 
" style="stroke: #77ac30; stroke-width: 2.5"/>
    </defs>
    <g clip-path="url(#pa45eb64aa1)">
     <use xlink:href="#ma042ca4493" x="67.103864" y="145.941135" style="fill: #77ac30; stroke: #77ac30; stroke-width: 2.5"/>
     <use xlink:href="#ma042ca4493" x="113.086331" y="246.431182" style="fill: #77ac30; stroke: #77ac30; stroke-width: 2.5"/>
     <use xlink:href="#ma042ca4493" x="159.068799" y="179.496598" style="fill: #77ac30; stroke: #77ac30; stroke-width: 2.5"/>
     <use xlink:href="#ma042ca4493" x="205.051266" y="135.941831" style="fill: #77ac30; stroke: #77ac30; stroke-width: 2.5"/>
     <use xlink:href="#ma042ca4493" x="251.033734" y="123.505949" style="fill: #77ac30; stroke: #77ac30; stroke-width: 2.5"/>
     <use xlink:href="#ma042ca4493" x="297.016201" y="118.321906" style="fill: #77ac30; stroke: #77ac30; stroke-width: 2.5"/>
     <use xlink:href="#ma042ca4493" x="342.998669" y="112.339069" style="fill: #77ac30; stroke: #77ac30; stroke-width: 2.5"/>
     <use xlink:href="#ma042ca4493" x="388.981136" y="82.283138" style="fill: #77ac30; stroke: #77ac30; stroke-width: 2.5"/>
    </g>
   </g>
   <g id="line2d_25">
    <g clip-path="url(#pa45eb64aa1)">
     <use xlink:href="#ma042ca4493" x="67.103864" y="115.06735" style="fill: #77ac30; stroke: #77ac30; stroke-width: 2.5"/>
     <use xlink:href="#ma042ca4493" x="113.086331" y="205.020665" style="fill: #77ac30; stroke: #77ac30; stroke-width: 2.5"/>
     <use xlink:href="#ma042ca4493" x="159.068799" y="138.889054" style="fill: #77ac30; stroke: #77ac30; stroke-width: 2.5"/>
     <use xlink:href="#ma042ca4493" x="205.051266" y="105.000995" style="fill: #77ac30; stroke: #77ac30; stroke-width: 2.5"/>
     <use xlink:href="#ma042ca4493" x="251.033734" y="103.471722" style="fill: #77ac30; stroke: #77ac30; stroke-width: 2.5"/>
     <use xlink:href="#ma042ca4493" x="297.016201" y="92.23372" style="fill: #77ac30; stroke: #77ac30; stroke-width: 2.5"/>
     <use xlink:href="#ma042ca4493" x="342.998669" y="87.254971" style="fill: #77ac30; stroke: #77ac30; stroke-width: 2.5"/>
     <use xlink:href="#ma042ca4493" x="388.981136" y="64.256731" style="fill: #77ac30; stroke: #77ac30; stroke-width: 2.5"/>
    </g>
   </g>
   <g id="line2d_26">
    <path d="M 159.068799 62.57613 
L 205.051266 51.438999 
L 251.033734 46.886726 
L 297.016201 62.495334 
L 342.998669 52.503504 
L 388.981136 64.534483 
" clip-path="url(#pa45eb64aa1)" style="fill: none; stroke: #0072bd; stroke-width: 2.5; stroke-linecap: square"/>
    <defs>
     <path id="m0a2b86922c" d="M 0 5.5 
C 1.458617 5.5 2.857689 4.920485 3.889087 3.889087 
C 4.920485 2.857689 5.5 1.458617 5.5 0 
C 5.5 -1.458617 4.920485 -2.857689 3.889087 -3.889087 
C 2.857689 -4.920485 1.458617 -5.5 0 -5.5 
C -1.458617 -5.5 -2.857689 -4.920485 -3.889087 -3.889087 
C -4.920485 -2.857689 -5.5 -1.458617 -5.5 0 
C -5.5 1.458617 -4.920485 2.857689 -3.889087 3.889087 
C -2.857689 4.920485 -1.458617 5.5 0 5.5 
z
" style="stroke: #0072bd"/>
    </defs>
    <g clip-path="url(#pa45eb64aa1)">
     <use xlink:href="#m0a2b86922c" x="159.068799" y="62.57613" style="fill: #0072bd; stroke: #0072bd"/>
     <use xlink:href="#m0a2b86922c" x="205.051266" y="51.438999" style="fill: #0072bd; stroke: #0072bd"/>
     <use xlink:href="#m0a2b86922c" x="251.033734" y="46.886726" style="fill: #0072bd; stroke: #0072bd"/>
     <use xlink:href="#m0a2b86922c" x="297.016201" y="62.495334" style="fill: #0072bd; stroke: #0072bd"/>
     <use xlink:href="#m0a2b86922c" x="342.998669" y="52.503504" style="fill: #0072bd; stroke: #0072bd"/>
     <use xlink:href="#m0a2b86922c" x="388.981136" y="64.534483" style="fill: #0072bd; stroke: #0072bd"/>
    </g>
   </g>
   <g id="line2d_27">
    <path d="M 205.051266 176.833332 
L 251.033734 113.514842 
L 297.016201 118.053236 
L 342.998669 104.586354 
L 388.981136 115.584757 
" clip-path="url(#pa45eb64aa1)" style="fill: none; stroke: #d95319; stroke-width: 2.5; stroke-linecap: square"/>
    <defs>
     <path id="mfcd171324d" d="M 0 5.5 
C 1.458617 5.5 2.857689 4.920485 3.889087 3.889087 
C 4.920485 2.857689 5.5 1.458617 5.5 0 
C 5.5 -1.458617 4.920485 -2.857689 3.889087 -3.889087 
C 2.857689 -4.920485 1.458617 -5.5 0 -5.5 
C -1.458617 -5.5 -2.857689 -4.920485 -3.889087 -3.889087 
C -4.920485 -2.857689 -5.5 -1.458617 -5.5 0 
C -5.5 1.458617 -4.920485 2.857689 -3.889087 3.889087 
C -2.857689 4.920485 -1.458617 5.5 0 5.5 
z
" style="stroke: #d95319"/>
    </defs>
    <g clip-path="url(#pa45eb64aa1)">
     <use xlink:href="#mfcd171324d" x="205.051266" y="176.833332" style="fill: #d95319; stroke: #d95319"/>
     <use xlink:href="#mfcd171324d" x="251.033734" y="113.514842" style="fill: #d95319; stroke: #d95319"/>
     <use xlink:href="#mfcd171324d" x="297.016201" y="118.053236" style="fill: #d95319; stroke: #d95319"/>
     <use xlink:href="#mfcd171324d" x="342.998669" y="104.586354" style="fill: #d95319; stroke: #d95319"/>
     <use xlink:href="#mfcd171324d" x="388.981136" y="115.584757" style="fill: #d95319; stroke: #d95319"/>
    </g>
   </g>
   <g id="line2d_28">
    <path d="M 67.103864 115.309293 
L 113.086331 88.313822 
L 159.068799 103.794899 
L 205.051266 66.320778 
L 251.033734 116.181596 
L 297.016201 114.926331 
L 342.998669 148.002718 
L 388.981136 155.923704 
" clip-path="url(#pa45eb64aa1)" style="fill: none; stroke: #edb120; stroke-width: 2.5; stroke-linecap: square"/>
    <defs>
     <path id="m8069d97262" d="M 0 5.5 
C 1.458617 5.5 2.857689 4.920485 3.889087 3.889087 
C 4.920485 2.857689 5.5 1.458617 5.5 0 
C 5.5 -1.458617 4.920485 -2.857689 3.889087 -3.889087 
C 2.857689 -4.920485 1.458617 -5.5 0 -5.5 
C -1.458617 -5.5 -2.857689 -4.920485 -3.889087 -3.889087 
C -4.920485 -2.857689 -5.5 -1.458617 -5.5 0 
C -5.5 1.458617 -4.920485 2.857689 -3.889087 3.889087 
C -2.857689 4.920485 -1.458617 5.5 0 5.5 
z
" style="stroke: #edb120"/>
    </defs>
    <g clip-path="url(#pa45eb64aa1)">
     <use xlink:href="#m8069d97262" x="67.103864" y="115.309293" style="fill: #edb120; stroke: #edb120"/>
     <use xlink:href="#m8069d97262" x="113.086331" y="88.313822" style="fill: #edb120; stroke: #edb120"/>
     <use xlink:href="#m8069d97262" x="159.068799" y="103.794899" style="fill: #edb120; stroke: #edb120"/>
     <use xlink:href="#m8069d97262" x="205.051266" y="66.320778" style="fill: #edb120; stroke: #edb120"/>
     <use xlink:href="#m8069d97262" x="251.033734" y="116.181596" style="fill: #edb120; stroke: #edb120"/>
     <use xlink:href="#m8069d97262" x="297.016201" y="114.926331" style="fill: #edb120; stroke: #edb120"/>
     <use xlink:href="#m8069d97262" x="342.998669" y="148.002718" style="fill: #edb120; stroke: #edb120"/>
     <use xlink:href="#m8069d97262" x="388.981136" y="155.923704" style="fill: #edb120; stroke: #edb120"/>
    </g>
   </g>
   <g id="line2d_29">
    <path d="M 67.103864 115.309293 
L 113.086331 103.533208 
L 159.068799 95.951345 
L 205.051266 87.13905 
L 251.033734 73.173764 
L 297.016201 73.284831 
L 342.998669 73.284831 
L 388.981136 85.537718 
" clip-path="url(#pa45eb64aa1)" style="fill: none; stroke: #7e2f8e; stroke-width: 2.5; stroke-linecap: square"/>
    <defs>
     <path id="m22c9b67e36" d="M 0 5.5 
C 1.458617 5.5 2.857689 4.920485 3.889087 3.889087 
C 4.920485 2.857689 5.5 1.458617 5.5 0 
C 5.5 -1.458617 4.920485 -2.857689 3.889087 -3.889087 
C 2.857689 -4.920485 1.458617 -5.5 0 -5.5 
C -1.458617 -5.5 -2.857689 -4.920485 -3.889087 -3.889087 
C -4.920485 -2.857689 -5.5 -1.458617 -5.5 0 
C -5.5 1.458617 -4.920485 2.857689 -3.889087 3.889087 
C -2.857689 4.920485 -1.458617 5.5 0 5.5 
z
" style="stroke: #7e2f8e"/>
    </defs>
    <g clip-path="url(#pa45eb64aa1)">
     <use xlink:href="#m22c9b67e36" x="67.103864" y="115.309293" style="fill: #7e2f8e; stroke: #7e2f8e"/>
     <use xlink:href="#m22c9b67e36" x="113.086331" y="103.533208" style="fill: #7e2f8e; stroke: #7e2f8e"/>
     <use xlink:href="#m22c9b67e36" x="159.068799" y="95.951345" style="fill: #7e2f8e; stroke: #7e2f8e"/>
     <use xlink:href="#m22c9b67e36" x="205.051266" y="87.13905" style="fill: #7e2f8e; stroke: #7e2f8e"/>
     <use xlink:href="#m22c9b67e36" x="251.033734" y="73.173764" style="fill: #7e2f8e; stroke: #7e2f8e"/>
     <use xlink:href="#m22c9b67e36" x="297.016201" y="73.284831" style="fill: #7e2f8e; stroke: #7e2f8e"/>
     <use xlink:href="#m22c9b67e36" x="342.998669" y="73.284831" style="fill: #7e2f8e; stroke: #7e2f8e"/>
     <use xlink:href="#m22c9b67e36" x="388.981136" y="85.537718" style="fill: #7e2f8e; stroke: #7e2f8e"/>
    </g>
   </g>
   <g id="line2d_30">
    <path d="M 67.103864 130.504242 
L 113.086331 225.725923 
L 159.068799 159.192826 
L 205.051266 120.471413 
L 251.033734 113.488836 
L 297.016201 105.277813 
L 342.998669 99.79702 
L 388.981136 73.269934 
" clip-path="url(#pa45eb64aa1)" style="fill: none; stroke: #77ac30; stroke-width: 2.5; stroke-linecap: square"/>
    <defs>
     <path id="m4d88060e26" d="M 0 5.5 
C 1.458617 5.5 2.857689 4.920485 3.889087 3.889087 
C 4.920485 2.857689 5.5 1.458617 5.5 0 
C 5.5 -1.458617 4.920485 -2.857689 3.889087 -3.889087 
C 2.857689 -4.920485 1.458617 -5.5 0 -5.5 
C -1.458617 -5.5 -2.857689 -4.920485 -3.889087 -3.889087 
C -4.920485 -2.857689 -5.5 -1.458617 -5.5 0 
C -5.5 1.458617 -4.920485 2.857689 -3.889087 3.889087 
C -2.857689 4.920485 -1.458617 5.5 0 5.5 
z
" style="stroke: #77ac30"/>
    </defs>
    <g clip-path="url(#pa45eb64aa1)">
     <use xlink:href="#m4d88060e26" x="67.103864" y="130.504242" style="fill: #77ac30; stroke: #77ac30"/>
     <use xlink:href="#m4d88060e26" x="113.086331" y="225.725923" style="fill: #77ac30; stroke: #77ac30"/>
     <use xlink:href="#m4d88060e26" x="159.068799" y="159.192826" style="fill: #77ac30; stroke: #77ac30"/>
     <use xlink:href="#m4d88060e26" x="205.051266" y="120.471413" style="fill: #77ac30; stroke: #77ac30"/>
     <use xlink:href="#m4d88060e26" x="251.033734" y="113.488836" style="fill: #77ac30; stroke: #77ac30"/>
     <use xlink:href="#m4d88060e26" x="297.016201" y="105.277813" style="fill: #77ac30; stroke: #77ac30"/>
     <use xlink:href="#m4d88060e26" x="342.998669" y="99.79702" style="fill: #77ac30; stroke: #77ac30"/>
     <use xlink:href="#m4d88060e26" x="388.981136" y="73.269934" style="fill: #77ac30; stroke: #77ac30"/>
    </g>
   </g>
   <g id="patch_3">
    <path d="M 51.01 256.883 
L 51.01 26.943 
" style="fill: none; stroke: #000000; stroke-width: 0.8; stroke-linejoin: miter; stroke-linecap: square"/>
   </g>
   <g id="patch_4">
    <path d="M 51.01 256.883 
L 405.075 256.883 
" style="fill: none; stroke: #000000; stroke-width: 0.8; stroke-linejoin: miter; stroke-linecap: square"/>
   </g>
   <g id="text_18">
    <!-- Channel 2 - Ind Stimuli -->
    <g transform="translate(124.577 20.943) scale(0.192 -0.192)">
     <defs>
      <path id="Arial-BoldMT-43" d="M 3397 1684 
L 4294 1400 
Q 4088 650 3608 286 
Q 3128 -78 2391 -78 
Q 1478 -78 890 545 
Q 303 1169 303 2250 
Q 303 3394 893 4026 
Q 1484 4659 2447 4659 
Q 3288 4659 3813 4163 
Q 4125 3869 4281 3319 
L 3366 3100 
Q 3284 3456 3026 3662 
Q 2769 3869 2400 3869 
Q 1891 3869 1573 3503 
Q 1256 3138 1256 2319 
Q 1256 1450 1568 1081 
Q 1881 713 2381 713 
Q 2750 713 3015 947 
Q 3281 1181 3397 1684 
z
" transform="scale(0.015625)"/>
      <path id="Arial-BoldMT-68" d="M 1334 4581 
L 1334 2897 
Q 1759 3394 2350 3394 
Q 2653 3394 2897 3281 
Q 3141 3169 3264 2994 
Q 3388 2819 3433 2606 
Q 3478 2394 3478 1947 
L 3478 0 
L 2600 0 
L 2600 1753 
Q 2600 2275 2550 2415 
Q 2500 2556 2373 2639 
Q 2247 2722 2056 2722 
Q 1838 2722 1666 2615 
Q 1494 2509 1414 2295 
Q 1334 2081 1334 1663 
L 1334 0 
L 456 0 
L 456 4581 
L 1334 4581 
z
" transform="scale(0.015625)"/>
      <path id="Arial-BoldMT-61" d="M 1116 2306 
L 319 2450 
Q 453 2931 781 3162 
Q 1109 3394 1756 3394 
Q 2344 3394 2631 3255 
Q 2919 3116 3036 2902 
Q 3153 2688 3153 2116 
L 3144 1091 
Q 3144 653 3186 445 
Q 3228 238 3344 0 
L 2475 0 
Q 2441 88 2391 259 
Q 2369 338 2359 363 
Q 2134 144 1878 34 
Q 1622 -75 1331 -75 
Q 819 -75 523 203 
Q 228 481 228 906 
Q 228 1188 362 1408 
Q 497 1628 739 1745 
Q 981 1863 1438 1950 
Q 2053 2066 2291 2166 
L 2291 2253 
Q 2291 2506 2166 2614 
Q 2041 2722 1694 2722 
Q 1459 2722 1328 2630 
Q 1197 2538 1116 2306 
z
M 2291 1594 
Q 2122 1538 1756 1459 
Q 1391 1381 1278 1306 
Q 1106 1184 1106 997 
Q 1106 813 1243 678 
Q 1381 544 1594 544 
Q 1831 544 2047 700 
Q 2206 819 2256 991 
Q 2291 1103 2291 1419 
L 2291 1594 
z
" transform="scale(0.015625)"/>
      <path id="Arial-BoldMT-6e" d="M 3478 0 
L 2600 0 
L 2600 1694 
Q 2600 2231 2544 2389 
Q 2488 2547 2361 2634 
Q 2234 2722 2056 2722 
Q 1828 2722 1647 2597 
Q 1466 2472 1398 2265 
Q 1331 2059 1331 1503 
L 1331 0 
L 453 0 
L 453 3319 
L 1269 3319 
L 1269 2831 
Q 1703 3394 2363 3394 
Q 2653 3394 2893 3289 
Q 3134 3184 3257 3021 
Q 3381 2859 3429 2653 
Q 3478 2447 3478 2063 
L 3478 0 
z
" transform="scale(0.015625)"/>
      <path id="Arial-BoldMT-65" d="M 2381 1056 
L 3256 909 
Q 3088 428 2723 176 
Q 2359 -75 1813 -75 
Q 947 -75 531 491 
Q 203 944 203 1634 
Q 203 2459 634 2926 
Q 1066 3394 1725 3394 
Q 2466 3394 2894 2905 
Q 3322 2416 3303 1406 
L 1103 1406 
Q 1113 1016 1316 798 
Q 1519 581 1822 581 
Q 2028 581 2168 693 
Q 2309 806 2381 1056 
z
M 2431 1944 
Q 2422 2325 2234 2523 
Q 2047 2722 1778 2722 
Q 1491 2722 1303 2513 
Q 1116 2303 1119 1944 
L 2431 1944 
z
" transform="scale(0.015625)"/>
      <path id="Arial-BoldMT-6c" d="M 459 0 
L 459 4581 
L 1338 4581 
L 1338 0 
L 459 0 
z
" transform="scale(0.015625)"/>
      <path id="Arial-BoldMT-20" transform="scale(0.015625)"/>
      <path id="Arial-BoldMT-32" d="M 3238 816 
L 3238 0 
L 159 0 
Q 209 463 459 877 
Q 709 1291 1447 1975 
Q 2041 2528 2175 2725 
Q 2356 2997 2356 3263 
Q 2356 3556 2198 3714 
Q 2041 3872 1763 3872 
Q 1488 3872 1325 3706 
Q 1163 3541 1138 3156 
L 263 3244 
Q 341 3969 753 4284 
Q 1166 4600 1784 4600 
Q 2463 4600 2850 4234 
Q 3238 3869 3238 3325 
Q 3238 3016 3127 2736 
Q 3016 2456 2775 2150 
Q 2616 1947 2200 1565 
Q 1784 1184 1673 1059 
Q 1563 934 1494 816 
L 3238 816 
z
" transform="scale(0.015625)"/>
      <path id="Arial-BoldMT-2d" d="M 359 1222 
L 359 2100 
L 2084 2100 
L 2084 1222 
L 359 1222 
z
" transform="scale(0.015625)"/>
      <path id="Arial-BoldMT-49" d="M 438 0 
L 438 4581 
L 1363 4581 
L 1363 0 
L 438 0 
z
" transform="scale(0.015625)"/>
      <path id="Arial-BoldMT-64" d="M 3503 0 
L 2688 0 
L 2688 488 
Q 2484 203 2207 64 
Q 1931 -75 1650 -75 
Q 1078 -75 670 386 
Q 263 847 263 1672 
Q 263 2516 659 2955 
Q 1056 3394 1663 3394 
Q 2219 3394 2625 2931 
L 2625 4581 
L 3503 4581 
L 3503 0 
z
M 1159 1731 
Q 1159 1200 1306 963 
Q 1519 619 1900 619 
Q 2203 619 2415 876 
Q 2628 1134 2628 1647 
Q 2628 2219 2422 2470 
Q 2216 2722 1894 2722 
Q 1581 2722 1370 2473 
Q 1159 2225 1159 1731 
z
" transform="scale(0.015625)"/>
      <path id="Arial-BoldMT-53" d="M 231 1491 
L 1131 1578 
Q 1213 1125 1461 912 
Q 1709 700 2131 700 
Q 2578 700 2804 889 
Q 3031 1078 3031 1331 
Q 3031 1494 2936 1608 
Q 2841 1722 2603 1806 
Q 2441 1863 1863 2006 
Q 1119 2191 819 2459 
Q 397 2838 397 3381 
Q 397 3731 595 4036 
Q 794 4341 1167 4500 
Q 1541 4659 2069 4659 
Q 2931 4659 3367 4281 
Q 3803 3903 3825 3272 
L 2900 3231 
Q 2841 3584 2645 3739 
Q 2450 3894 2059 3894 
Q 1656 3894 1428 3728 
Q 1281 3622 1281 3444 
Q 1281 3281 1419 3166 
Q 1594 3019 2269 2859 
Q 2944 2700 3267 2529 
Q 3591 2359 3773 2064 
Q 3956 1769 3956 1334 
Q 3956 941 3737 597 
Q 3519 253 3119 86 
Q 2719 -81 2122 -81 
Q 1253 -81 787 320 
Q 322 722 231 1491 
z
" transform="scale(0.015625)"/>
      <path id="Arial-BoldMT-74" d="M 1981 3319 
L 1981 2619 
L 1381 2619 
L 1381 1281 
Q 1381 875 1398 808 
Q 1416 741 1477 697 
Q 1538 653 1625 653 
Q 1747 653 1978 738 
L 2053 56 
Q 1747 -75 1359 -75 
Q 1122 -75 931 4 
Q 741 84 652 211 
Q 563 338 528 553 
Q 500 706 500 1172 
L 500 2619 
L 97 2619 
L 97 3319 
L 500 3319 
L 500 3978 
L 1381 4491 
L 1381 3319 
L 1981 3319 
z
" transform="scale(0.015625)"/>
      <path id="Arial-BoldMT-69" d="M 459 3769 
L 459 4581 
L 1338 4581 
L 1338 3769 
L 459 3769 
z
M 459 0 
L 459 3319 
L 1338 3319 
L 1338 0 
L 459 0 
z
" transform="scale(0.015625)"/>
      <path id="Arial-BoldMT-6d" d="M 394 3319 
L 1203 3319 
L 1203 2866 
Q 1638 3394 2238 3394 
Q 2556 3394 2790 3262 
Q 3025 3131 3175 2866 
Q 3394 3131 3647 3262 
Q 3900 3394 4188 3394 
Q 4553 3394 4806 3245 
Q 5059 3097 5184 2809 
Q 5275 2597 5275 2122 
L 5275 0 
L 4397 0 
L 4397 1897 
Q 4397 2391 4306 2534 
Q 4184 2722 3931 2722 
Q 3747 2722 3584 2609 
Q 3422 2497 3350 2280 
Q 3278 2063 3278 1594 
L 3278 0 
L 2400 0 
L 2400 1819 
Q 2400 2303 2353 2443 
Q 2306 2584 2207 2653 
Q 2109 2722 1941 2722 
Q 1738 2722 1575 2612 
Q 1413 2503 1342 2297 
Q 1272 2091 1272 1613 
L 1272 0 
L 394 0 
L 394 3319 
z
" transform="scale(0.015625)"/>
      <path id="Arial-BoldMT-75" d="M 2644 0 
L 2644 497 
Q 2463 231 2167 78 
Q 1872 -75 1544 -75 
Q 1209 -75 943 72 
Q 678 219 559 484 
Q 441 750 441 1219 
L 441 3319 
L 1319 3319 
L 1319 1794 
Q 1319 1094 1367 936 
Q 1416 778 1544 686 
Q 1672 594 1869 594 
Q 2094 594 2272 717 
Q 2450 841 2515 1023 
Q 2581 1206 2581 1919 
L 2581 3319 
L 3459 3319 
L 3459 0 
L 2644 0 
z
" transform="scale(0.015625)"/>
     </defs>
     <use xlink:href="#Arial-BoldMT-43"/>
     <use xlink:href="#Arial-BoldMT-68" transform="translate(72.216797 0)"/>
     <use xlink:href="#Arial-BoldMT-61" transform="translate(133.300781 0)"/>
     <use xlink:href="#Arial-BoldMT-6e" transform="translate(188.916016 0)"/>
     <use xlink:href="#Arial-BoldMT-6e" transform="translate(250 0)"/>
     <use xlink:href="#Arial-BoldMT-65" transform="translate(311.083984 0)"/>
     <use xlink:href="#Arial-BoldMT-6c" transform="translate(366.699219 0)"/>
     <use xlink:href="#Arial-BoldMT-20" transform="translate(394.482422 0)"/>
     <use xlink:href="#Arial-BoldMT-32" transform="translate(422.265625 0)"/>
     <use xlink:href="#Arial-BoldMT-20" transform="translate(477.880859 0)"/>
     <use xlink:href="#Arial-BoldMT-2d" transform="translate(505.664062 0)"/>
     <use xlink:href="#Arial-BoldMT-20" transform="translate(538.964844 0)"/>
     <use xlink:href="#Arial-BoldMT-49" transform="translate(566.748047 0)"/>
     <use xlink:href="#Arial-BoldMT-6e" transform="translate(594.53125 0)"/>
     <use xlink:href="#Arial-BoldMT-64" transform="translate(655.615234 0)"/>
     <use xlink:href="#Arial-BoldMT-20" transform="translate(716.699219 0)"/>
     <use xlink:href="#Arial-BoldMT-53" transform="translate(744.482422 0)"/>
     <use xlink:href="#Arial-BoldMT-74" transform="translate(811.181641 0)"/>
     <use xlink:href="#Arial-BoldMT-69" transform="translate(844.482422 0)"/>
     <use xlink:href="#Arial-BoldMT-6d" transform="translate(872.265625 0)"/>
     <use xlink:href="#Arial-BoldMT-75" transform="translate(961.181641 0)"/>
     <use xlink:href="#Arial-BoldMT-6c" transform="translate(1022.265625 0)"/>
     <use xlink:href="#Arial-BoldMT-69" transform="translate(1050.048828 0)"/>
    </g>
   </g>
   <g id="legend_1">
    <g id="patch_5">
     <path d="M 320.92875 250.883 
L 396.675 250.883 
Q 399.075 250.883 399.075 248.483 
L 399.075 164.811125 
Q 399.075 162.411125 396.675 162.411125 
L 320.92875 162.411125 
Q 318.52875 162.411125 318.52875 164.811125 
L 318.52875 248.483 
Q 318.52875 250.883 320.92875 250.883 
z
" style="fill: #ffffff; opacity: 0.8; stroke: #cccccc; stroke-linejoin: miter"/>
    </g>
    <g id="LineCollection_6">
     <path d="M 335.32875 177.6005 
L 335.32875 165.6005 
" style="fill: none; stroke: #0072bd; stroke-width: 2.5"/>
    </g>
    <g id="line2d_31">
     <g>
      <use xlink:href="#mc6920a69ee" x="335.32875" y="177.6005" style="fill: #0072bd; stroke: #0072bd; stroke-width: 2.5"/>
     </g>
    </g>
    <g id="line2d_32">
     <g>
      <use xlink:href="#mc6920a69ee" x="335.32875" y="165.6005" style="fill: #0072bd; stroke: #0072bd; stroke-width: 2.5"/>
     </g>
    </g>
    <g id="line2d_33">
     <path d="M 323.32875 171.6005 
L 347.32875 171.6005 
" style="fill: none; stroke: #0072bd; stroke-width: 2.5; stroke-linecap: square"/>
    </g>
    <g id="line2d_34">
     <g>
      <use xlink:href="#m0a2b86922c" x="335.32875" y="171.6005" style="fill: #0072bd; stroke: #0072bd"/>
     </g>
    </g>
    <g id="text_19">
     <!-- Click -->
     <g transform="translate(356.92875 175.8005) scale(0.12 -0.12)">
      <defs>
       <path id="ArialMT-43" d="M 3763 1606 
L 4369 1453 
Q 4178 706 3683 314 
Q 3188 -78 2472 -78 
Q 1731 -78 1267 223 
Q 803 525 561 1097 
Q 319 1669 319 2325 
Q 319 3041 592 3573 
Q 866 4106 1370 4382 
Q 1875 4659 2481 4659 
Q 3169 4659 3637 4309 
Q 4106 3959 4291 3325 
L 3694 3184 
Q 3534 3684 3231 3912 
Q 2928 4141 2469 4141 
Q 1941 4141 1586 3887 
Q 1231 3634 1087 3207 
Q 944 2781 944 2328 
Q 944 1744 1114 1308 
Q 1284 872 1643 656 
Q 2003 441 2422 441 
Q 2931 441 3284 734 
Q 3638 1028 3763 1606 
z
" transform="scale(0.015625)"/>
       <path id="ArialMT-69" d="M 425 3934 
L 425 4581 
L 988 4581 
L 988 3934 
L 425 3934 
z
M 425 0 
L 425 3319 
L 988 3319 
L 988 0 
L 425 0 
z
" transform="scale(0.015625)"/>
       <path id="ArialMT-6b" d="M 425 0 
L 425 4581 
L 988 4581 
L 988 1969 
L 2319 3319 
L 3047 3319 
L 1778 2088 
L 3175 0 
L 2481 0 
L 1384 1697 
L 988 1316 
L 988 0 
L 425 0 
z
" transform="scale(0.015625)"/>
      </defs>
      <use xlink:href="#ArialMT-43"/>
      <use xlink:href="#ArialMT-6c" transform="translate(72.216797 0)"/>
      <use xlink:href="#ArialMT-69" transform="translate(94.433594 0)"/>
      <use xlink:href="#ArialMT-63" transform="translate(116.650391 0)"/>
      <use xlink:href="#ArialMT-6b" transform="translate(166.650391 0)"/>
     </g>
    </g>
    <g id="LineCollection_7">
     <path d="M 335.32875 194.574875 
L 335.32875 182.574875 
" style="fill: none; stroke: #d95319; stroke-width: 2.5"/>
    </g>
    <g id="line2d_35">
     <g>
      <use xlink:href="#m3895a320d5" x="335.32875" y="194.574875" style="fill: #d95319; stroke: #d95319; stroke-width: 2.5"/>
     </g>
    </g>
    <g id="line2d_36">
     <g>
      <use xlink:href="#m3895a320d5" x="335.32875" y="182.574875" style="fill: #d95319; stroke: #d95319; stroke-width: 2.5"/>
     </g>
    </g>
    <g id="line2d_37">
     <path d="M 323.32875 188.574875 
L 347.32875 188.574875 
" style="fill: none; stroke: #d95319; stroke-width: 2.5; stroke-linecap: square"/>
    </g>
    <g id="line2d_38">
     <g>
      <use xlink:href="#mfcd171324d" x="335.32875" y="188.574875" style="fill: #d95319; stroke: #d95319"/>
     </g>
    </g>
    <g id="text_20">
     <!-- 4 kHz -->
     <g transform="translate(356.92875 192.774875) scale(0.12 -0.12)">
      <defs>
       <path id="ArialMT-48" d="M 513 0 
L 513 4581 
L 1119 4581 
L 1119 2700 
L 3500 2700 
L 3500 4581 
L 4106 4581 
L 4106 0 
L 3500 0 
L 3500 2159 
L 1119 2159 
L 1119 0 
L 513 0 
z
" transform="scale(0.015625)"/>
       <path id="ArialMT-7a" d="M 125 0 
L 125 456 
L 2238 2881 
Q 1878 2863 1603 2863 
L 250 2863 
L 250 3319 
L 2963 3319 
L 2963 2947 
L 1166 841 
L 819 456 
Q 1197 484 1528 484 
L 3063 484 
L 3063 0 
L 125 0 
z
" transform="scale(0.015625)"/>
      </defs>
      <use xlink:href="#ArialMT-34"/>
      <use xlink:href="#ArialMT-20" transform="translate(55.615234 0)"/>
      <use xlink:href="#ArialMT-6b" transform="translate(83.398438 0)"/>
      <use xlink:href="#ArialMT-48" transform="translate(133.398438 0)"/>
      <use xlink:href="#ArialMT-7a" transform="translate(205.615234 0)"/>
     </g>
    </g>
    <g id="LineCollection_8">
     <path d="M 335.32875 211.54925 
L 335.32875 199.54925 
" style="fill: none; stroke: #edb120; stroke-width: 2.5"/>
    </g>
    <g id="line2d_39">
     <g>
      <use xlink:href="#me2cfdef636" x="335.32875" y="211.54925" style="fill: #edb120; stroke: #edb120; stroke-width: 2.5"/>
     </g>
    </g>
    <g id="line2d_40">
     <g>
      <use xlink:href="#me2cfdef636" x="335.32875" y="199.54925" style="fill: #edb120; stroke: #edb120; stroke-width: 2.5"/>
     </g>
    </g>
    <g id="line2d_41">
     <path d="M 323.32875 205.54925 
L 347.32875 205.54925 
" style="fill: none; stroke: #edb120; stroke-width: 2.5; stroke-linecap: square"/>
    </g>
    <g id="line2d_42">
     <g>
      <use xlink:href="#m8069d97262" x="335.32875" y="205.54925" style="fill: #edb120; stroke: #edb120"/>
     </g>
    </g>
    <g id="text_21">
     <!-- 8 kHz -->
     <g transform="translate(356.92875 209.74925) scale(0.12 -0.12)">
      <use xlink:href="#ArialMT-38"/>
      <use xlink:href="#ArialMT-20" transform="translate(55.615234 0)"/>
      <use xlink:href="#ArialMT-6b" transform="translate(83.398438 0)"/>
      <use xlink:href="#ArialMT-48" transform="translate(133.398438 0)"/>
      <use xlink:href="#ArialMT-7a" transform="translate(205.615234 0)"/>
     </g>
    </g>
    <g id="LineCollection_9">
     <path d="M 335.32875 228.523625 
L 335.32875 216.523625 
" style="fill: none; stroke: #7e2f8e; stroke-width: 2.5"/>
    </g>
    <g id="line2d_43">
     <g>
      <use xlink:href="#m0b423f0e8e" x="335.32875" y="228.523625" style="fill: #7e2f8e; stroke: #7e2f8e; stroke-width: 2.5"/>
     </g>
    </g>
    <g id="line2d_44">
     <g>
      <use xlink:href="#m0b423f0e8e" x="335.32875" y="216.523625" style="fill: #7e2f8e; stroke: #7e2f8e; stroke-width: 2.5"/>
     </g>
    </g>
    <g id="line2d_45">
     <path d="M 323.32875 222.523625 
L 347.32875 222.523625 
" style="fill: none; stroke: #7e2f8e; stroke-width: 2.5; stroke-linecap: square"/>
    </g>
    <g id="line2d_46">
     <g>
      <use xlink:href="#m22c9b67e36" x="335.32875" y="222.523625" style="fill: #7e2f8e; stroke: #7e2f8e"/>
     </g>
    </g>
    <g id="text_22">
     <!-- 10 kHz -->
     <g transform="translate(356.92875 226.723625) scale(0.12 -0.12)">
      <use xlink:href="#ArialMT-31"/>
      <use xlink:href="#ArialMT-30" transform="translate(55.615234 0)"/>
      <use xlink:href="#ArialMT-20" transform="translate(111.230469 0)"/>
      <use xlink:href="#ArialMT-6b" transform="translate(139.013672 0)"/>
      <use xlink:href="#ArialMT-48" transform="translate(189.013672 0)"/>
      <use xlink:href="#ArialMT-7a" transform="translate(261.230469 0)"/>
     </g>
    </g>
    <g id="LineCollection_10">
     <path d="M 335.32875 245.498 
L 335.32875 233.498 
" style="fill: none; stroke: #77ac30; stroke-width: 2.5"/>
    </g>
    <g id="line2d_47">
     <g>
      <use xlink:href="#ma042ca4493" x="335.32875" y="245.498" style="fill: #77ac30; stroke: #77ac30; stroke-width: 2.5"/>
     </g>
    </g>
    <g id="line2d_48">
     <g>
      <use xlink:href="#ma042ca4493" x="335.32875" y="233.498" style="fill: #77ac30; stroke: #77ac30; stroke-width: 2.5"/>
     </g>
    </g>
    <g id="line2d_49">
     <path d="M 323.32875 239.498 
L 347.32875 239.498 
" style="fill: none; stroke: #77ac30; stroke-width: 2.5; stroke-linecap: square"/>
    </g>
    <g id="line2d_50">
     <g>
      <use xlink:href="#m4d88060e26" x="335.32875" y="239.498" style="fill: #77ac30; stroke: #77ac30"/>
     </g>
    </g>
    <g id="text_23">
     <!-- 16 kHz -->
     <g transform="translate(356.92875 243.698) scale(0.12 -0.12)">
      <use xlink:href="#ArialMT-31"/>
      <use xlink:href="#ArialMT-36" transform="translate(55.615234 0)"/>
      <use xlink:href="#ArialMT-20" transform="translate(111.230469 0)"/>
      <use xlink:href="#ArialMT-6b" transform="translate(139.013672 0)"/>
      <use xlink:href="#ArialMT-48" transform="translate(189.013672 0)"/>
      <use xlink:href="#ArialMT-7a" transform="translate(261.230469 0)"/>
     </g>
    </g>
   </g>
  </g>
 </g>
 <defs>
  <clipPath id="pa45eb64aa1">
   <rect x="51.01" y="26.943" width="354.065" height="229.94"/>
  </clipPath>
 </defs>
</svg>
