<?xml version="1.0" encoding="utf-8" standalone="no"?>
<!DOCTYPE svg PUBLIC "-//W3C//DTD SVG 1.1//EN"
  "http://www.w3.org/Graphics/SVG/1.1/DTD/svg11.dtd">
<svg xmlns:xlink="http://www.w3.org/1999/xlink" width="412.15pt" height="304.7305pt" viewBox="0 0 412.15 304.7305" xmlns="http://www.w3.org/2000/svg" version="1.1">
 <metadata>
  <rdf:RDF xmlns:dc="http://purl.org/dc/elements/1.1/" xmlns:cc="http://creativecommons.org/ns#" xmlns:rdf="http://www.w3.org/1999/02/22-rdf-syntax-ns#">
   <cc:Work>
    <dc:type rdf:resource="http://purl.org/dc/dcmitype/StillImage"/>
    <dc:date>2026-06-29T17:41:22.156055</dc:date>
    <dc:format>image/svg+xml</dc:format>
    <dc:creator>
     <cc:Agent>
      <dc:title>Matplotlib v3.10.1, https://matplotlib.org/</dc:title>
     </cc:Agent>
    </dc:creator>
   </cc:Work>
  </rdf:RDF>
 </metadata>
 <defs>
  <style type="text/css">*{stroke-linejoin: round; stroke-linecap: butt}</style>
 </defs>
 <g id="figure_1">
  <g id="patch_1">
   <path d="M 0 304.7305 
L 412.15 304.7305 
L 412.15 0 
L 0 0 
L 0 304.7305 
z
" style="fill: none"/>
  </g>
  <g id="axes_1">
   <g id="patch_2">
    <path d="M 55.26 256.883 
L 404.95 256.883 
L 404.95 26.943 
L 55.26 26.943 
L 55.26 256.883 
z
" style="fill: none"/>
   </g>
   <g id="FillBetweenPolyCollection_1">
    <defs>
     <path id="m0d333aaaa3" d="M 61.088167 -52.269423 
L 61.088167 -52.269423 
L 74.687222 -52.269423 
L 74.687222 -179.861666 
L 90.601992 -179.861666 
L 90.601992 -255.525625 
L 106.516762 -255.525625 
L 106.516762 -260.304101 
L 138.346302 -260.304101 
L 138.346302 -260.207416 
L 154.261071 -260.207416 
L 154.261071 -260.992683 
L 170.175841 -260.992683 
L 170.175841 -262.050264 
L 202.005381 -262.050264 
L 202.005381 -262.962796 
L 217.920151 -262.962796 
L 217.920151 -264.613157 
L 233.834921 -264.613157 
L 233.834921 -264.657512 
L 249.74969 -264.657512 
L 249.74969 -267.260794 
L 281.57923 -267.260794 
L 281.57923 -268.212907 
L 329.323539 -268.212907 
L 329.323539 -268.215062 
L 345.238309 -268.215062 
L 345.238309 -269.326542 
L 361.153079 -269.326542 
L 361.153079 -272.069431 
L 377.067849 -272.069431 
L 377.067849 -273.365577 
L 377.067849 -273.365577 
L 377.067849 -273.365577 
L 377.067849 -274.038917 
L 361.153079 -274.038917 
L 361.153079 -273.676178 
L 345.238309 -273.676178 
L 345.238309 -272.33921 
L 329.323539 -272.33921 
L 329.323539 -271.72721 
L 281.57923 -271.72721 
L 281.57923 -271.442361 
L 249.74969 -271.442361 
L 249.74969 -269.720363 
L 233.834921 -269.720363 
L 233.834921 -268.536169 
L 217.920151 -268.536169 
L 217.920151 -267.097966 
L 202.005381 -267.097966 
L 202.005381 -266.150483 
L 170.175841 -266.150483 
L 170.175841 -265.953555 
L 154.261071 -265.953555 
L 154.261071 -265.50186 
L 138.346302 -265.50186 
L 138.346302 -264.782369 
L 106.516762 -264.782369 
L 106.516762 -263.989459 
L 90.601992 -263.989459 
L 90.601992 -204.505968 
L 74.687222 -204.505968 
L 74.687222 -52.269423 
L 61.088167 -52.269423 
z
" style="stroke: #0072bd; stroke-opacity: 0.15"/>
    </defs>
    <g clip-path="url(#pd2fc9c59db)">
     <use xlink:href="#m0d333aaaa3" x="0" y="304.7305" style="fill: #0072bd; fill-opacity: 0.15; stroke: #0072bd; stroke-opacity: 0.15"/>
    </g>
   </g>
   <g id="FillBetweenPolyCollection_2">
    <defs>
     <path id="me4173b87fa" d="M 61.088167 -52.269423 
L 61.088167 -52.269423 
L 74.687222 -52.269423 
L 74.687222 -170.295376 
L 90.601992 -170.295376 
L 90.601992 -238.580854 
L 106.516762 -238.580854 
L 106.516762 -242.144183 
L 122.431532 -242.144183 
L 122.431532 -245.010842 
L 138.346302 -245.010842 
L 138.346302 -247.080171 
L 154.261071 -247.080171 
L 154.261071 -248.592029 
L 170.175841 -248.592029 
L 170.175841 -248.484038 
L 186.090611 -248.484038 
L 186.090611 -250.614416 
L 202.005381 -250.614416 
L 202.005381 -254.378555 
L 217.920151 -254.378555 
L 217.920151 -256.196031 
L 233.834921 -256.196031 
L 233.834921 -256.91341 
L 249.74969 -256.91341 
L 249.74969 -257.676284 
L 329.323539 -257.676284 
L 329.323539 -258.961154 
L 345.238309 -258.961154 
L 345.238309 -259.610091 
L 361.153079 -259.610091 
L 361.153079 -262.853274 
L 377.067849 -262.853274 
L 377.067849 -266.753003 
L 392.982619 -266.753003 
L 392.982619 -273.365577 
L 392.982619 -273.365577 
L 392.982619 -273.365577 
L 392.982619 -271.880672 
L 377.067849 -271.880672 
L 377.067849 -267.059871 
L 361.153079 -267.059871 
L 361.153079 -264.732152 
L 345.238309 -264.732152 
L 345.238309 -264.758283 
L 329.323539 -264.758283 
L 329.323539 -264.156435 
L 249.74969 -264.156435 
L 249.74969 -264.296503 
L 233.834921 -264.296503 
L 233.834921 -264.382179 
L 217.920151 -264.382179 
L 217.920151 -263.717081 
L 202.005381 -263.717081 
L 202.005381 -262.480225 
L 186.090611 -262.480225 
L 186.090611 -261.496325 
L 170.175841 -261.496325 
L 170.175841 -260.765527 
L 154.261071 -260.765527 
L 154.261071 -259.759212 
L 138.346302 -259.759212 
L 138.346302 -259.950978 
L 122.431532 -259.950978 
L 122.431532 -258.475048 
L 106.516762 -258.475048 
L 106.516762 -252.747435 
L 90.601992 -252.747435 
L 90.601992 -193.202407 
L 74.687222 -193.202407 
L 74.687222 -52.269423 
L 61.088167 -52.269423 
z
" style="stroke: #d95319; stroke-opacity: 0.15"/>
    </defs>
    <g clip-path="url(#pd2fc9c59db)">
     <use xlink:href="#me4173b87fa" x="0" y="304.7305" style="fill: #d95319; fill-opacity: 0.15; stroke: #d95319; stroke-opacity: 0.15"/>
    </g>
   </g>
   <g id="FillBetweenPolyCollection_3">
    <defs>
     <path id="m6c46b14925" d="M 61.088167 -52.269423 
L 61.088167 -52.269423 
L 74.687222 -52.269423 
L 74.687222 -163.6847 
L 90.601992 -163.6847 
L 90.601992 -241.595048 
L 106.516762 -241.595048 
L 106.516762 -247.090202 
L 122.431532 -247.090202 
L 122.431532 -249.873863 
L 138.346302 -249.873863 
L 138.346302 -250.525478 
L 154.261071 -250.525478 
L 154.261071 -252.408101 
L 170.175841 -252.408101 
L 170.175841 -254.588373 
L 186.090611 -254.588373 
L 186.090611 -254.767325 
L 202.005381 -254.767325 
L 202.005381 -257.45928 
L 217.920151 -257.45928 
L 217.920151 -258.735112 
L 233.834921 -258.735112 
L 233.834921 -260.254269 
L 249.74969 -260.254269 
L 249.74969 -261.880909 
L 265.66446 -261.880909 
L 265.66446 -262.244255 
L 281.57923 -262.244255 
L 281.57923 -262.474344 
L 297.494 -262.474344 
L 297.494 -264.625942 
L 313.40877 -264.625942 
L 313.40877 -265.316347 
L 345.238309 -265.316347 
L 345.238309 -266.009632 
L 361.153079 -266.009632 
L 361.153079 -268.969137 
L 377.067849 -268.969137 
L 377.067849 -268.927803 
L 392.982619 -268.927803 
L 392.982619 -273.365577 
L 392.982619 -273.365577 
L 392.982619 -273.365577 
L 392.982619 -272.930048 
L 377.067849 -272.930048 
L 377.067849 -271.26428 
L 361.153079 -271.26428 
L 361.153079 -270.981574 
L 345.238309 -270.981574 
L 345.238309 -270.050425 
L 313.40877 -270.050425 
L 313.40877 -270.201571 
L 297.494 -270.201571 
L 297.494 -270.189475 
L 281.57923 -270.189475 
L 281.57923 -269.341046 
L 265.66446 -269.341046 
L 265.66446 -268.619217 
L 249.74969 -268.619217 
L 249.74969 -267.542905 
L 233.834921 -267.542905 
L 233.834921 -267.444285 
L 217.920151 -267.444285 
L 217.920151 -266.549767 
L 202.005381 -266.549767 
L 202.005381 -264.920993 
L 186.090611 -264.920993 
L 186.090611 -264.560686 
L 170.175841 -264.560686 
L 170.175841 -262.400256 
L 154.261071 -262.400256 
L 154.261071 -261.047326 
L 138.346302 -261.047326 
L 138.346302 -258.989331 
L 122.431532 -258.989331 
L 122.431532 -259.063383 
L 106.516762 -259.063383 
L 106.516762 -251.563063 
L 90.601992 -251.563063 
L 90.601992 -188.174261 
L 74.687222 -188.174261 
L 74.687222 -52.269423 
L 61.088167 -52.269423 
z
" style="stroke: #edb120; stroke-opacity: 0.15"/>
    </defs>
    <g clip-path="url(#pd2fc9c59db)">
     <use xlink:href="#m6c46b14925" x="0" y="304.7305" style="fill: #edb120; fill-opacity: 0.15; stroke: #edb120; stroke-opacity: 0.15"/>
    </g>
   </g>
   <g id="FillBetweenPolyCollection_4">
    <defs>
     <path id="m5ae33b04a8" d="M 61.088167 -52.269423 
L 61.088167 -52.269423 
L 74.687222 -52.269423 
L 74.687222 -196.297707 
L 90.601992 -196.297707 
L 90.601992 -258.348635 
L 106.516762 -258.348635 
L 106.516762 -260.413438 
L 122.431532 -260.413438 
L 122.431532 -260.679856 
L 138.346302 -260.679856 
L 138.346302 -261.423261 
L 154.261071 -261.423261 
L 154.261071 -261.599886 
L 186.090611 -261.599886 
L 186.090611 -262.20073 
L 202.005381 -262.20073 
L 202.005381 -263.313703 
L 217.920151 -263.313703 
L 217.920151 -263.785101 
L 233.834921 -263.785101 
L 233.834921 -264.880735 
L 249.74969 -264.880735 
L 249.74969 -265.139002 
L 265.66446 -265.139002 
L 265.66446 -266.190903 
L 281.57923 -266.190903 
L 281.57923 -267.737465 
L 313.40877 -267.737465 
L 313.40877 -268.302833 
L 345.238309 -268.302833 
L 345.238309 -270.961015 
L 361.153079 -270.961015 
L 361.153079 -271.456666 
L 392.982619 -271.456666 
L 392.982619 -273.365577 
L 392.982619 -273.365577 
L 392.982619 -273.365577 
L 392.982619 -274.046175 
L 361.153079 -274.046175 
L 361.153079 -273.927671 
L 345.238309 -273.927671 
L 345.238309 -274.129229 
L 313.40877 -274.129229 
L 313.40877 -274.080441 
L 281.57923 -274.080441 
L 281.57923 -273.161729 
L 265.66446 -273.161729 
L 265.66446 -271.748356 
L 249.74969 -271.748356 
L 249.74969 -271.392467 
L 233.834921 -271.392467 
L 233.834921 -271.873945 
L 217.920151 -271.873945 
L 217.920151 -271.731187 
L 202.005381 -271.731187 
L 202.005381 -272.230004 
L 186.090611 -272.230004 
L 186.090611 -272.216692 
L 154.261071 -272.216692 
L 154.261071 -271.779161 
L 138.346302 -271.779161 
L 138.346302 -271.908411 
L 122.431532 -271.908411 
L 122.431532 -270.946516 
L 106.516762 -270.946516 
L 106.516762 -268.703577 
L 90.601992 -268.703577 
L 90.601992 -223.086906 
L 74.687222 -223.086906 
L 74.687222 -52.269423 
L 61.088167 -52.269423 
z
" style="stroke: #7e2f8e; stroke-opacity: 0.15"/>
    </defs>
    <g clip-path="url(#pd2fc9c59db)">
     <use xlink:href="#m5ae33b04a8" x="0" y="304.7305" style="fill: #7e2f8e; fill-opacity: 0.15; stroke: #7e2f8e; stroke-opacity: 0.15"/>
    </g>
   </g>
   <g id="FillBetweenPolyCollection_5">
    <defs>
     <path id="m06f88e11b1" d="M 61.088167 -52.269423 
L 61.088167 -52.269423 
L 74.687222 -52.269423 
L 74.687222 -192.01023 
L 90.601992 -192.01023 
L 90.601992 -260.311417 
L 106.516762 -260.311417 
L 106.516762 -262.142558 
L 122.431532 -262.142558 
L 122.431532 -262.638809 
L 202.005381 -262.638809 
L 202.005381 -263.041082 
L 217.920151 -263.041082 
L 217.920151 -263.915343 
L 233.834921 -263.915343 
L 233.834921 -265.429897 
L 313.40877 -265.429897 
L 313.40877 -266.345556 
L 345.238309 -266.345556 
L 345.238309 -267.524149 
L 361.153079 -267.524149 
L 361.153079 -268.518805 
L 377.067849 -268.518805 
L 377.067849 -272.138559 
L 392.982619 -272.138559 
L 392.982619 -273.365577 
L 392.982619 -273.365577 
L 392.982619 -273.365577 
L 392.982619 -274.003005 
L 377.067849 -274.003005 
L 377.067849 -272.874171 
L 361.153079 -272.874171 
L 361.153079 -272.681681 
L 345.238309 -272.681681 
L 345.238309 -272.067602 
L 313.40877 -272.067602 
L 313.40877 -272.393671 
L 233.834921 -272.393671 
L 233.834921 -272.729046 
L 217.920151 -272.729046 
L 217.920151 -271.818603 
L 202.005381 -271.818603 
L 202.005381 -271.623319 
L 122.431532 -271.623319 
L 122.431532 -270.94039 
L 106.516762 -270.94039 
L 106.516762 -268.612533 
L 90.601992 -268.612533 
L 90.601992 -219.266664 
L 74.687222 -219.266664 
L 74.687222 -52.269423 
L 61.088167 -52.269423 
z
" style="stroke: #77ac30; stroke-opacity: 0.15"/>
    </defs>
    <g clip-path="url(#pd2fc9c59db)">
     <use xlink:href="#m06f88e11b1" x="0" y="304.7305" style="fill: #77ac30; fill-opacity: 0.15; stroke: #77ac30; stroke-opacity: 0.15"/>
    </g>
   </g>
   <g id="FillBetweenPolyCollection_6">
    <defs>
     <path id="medcd095d72" d="M 61.088167 -52.269423 
L 61.088167 -52.269423 
L 74.687222 -52.269423 
L 74.687222 -194.103226 
L 90.601992 -194.103226 
L 90.601992 -254.377637 
L 106.516762 -254.377637 
L 106.516762 -255.005189 
L 122.431532 -255.005189 
L 122.431532 -254.944843 
L 138.346302 -254.944843 
L 138.346302 -255.302439 
L 202.005381 -255.302439 
L 202.005381 -258.144486 
L 217.920151 -258.144486 
L 217.920151 -259.410866 
L 249.74969 -259.410866 
L 249.74969 -259.355691 
L 265.66446 -259.355691 
L 265.66446 -262.00898 
L 281.57923 -262.00898 
L 281.57923 -264.597364 
L 297.494 -264.597364 
L 297.494 -266.328533 
L 313.40877 -266.328533 
L 313.40877 -267.682316 
L 329.323539 -267.682316 
L 329.323539 -269.945699 
L 377.067849 -269.945699 
L 377.067849 -270.447419 
L 392.982619 -270.447419 
L 392.982619 -273.365577 
L 392.982619 -273.365577 
L 392.982619 -273.365577 
L 392.982619 -274.047791 
L 377.067849 -274.047791 
L 377.067849 -273.800032 
L 329.323539 -273.800032 
L 329.323539 -273.814549 
L 313.40877 -273.814549 
L 313.40877 -273.694358 
L 297.494 -273.694358 
L 297.494 -272.452595 
L 281.57923 -272.452595 
L 281.57923 -269.819181 
L 265.66446 -269.819181 
L 265.66446 -268.013073 
L 249.74969 -268.013073 
L 249.74969 -267.20842 
L 217.920151 -267.20842 
L 217.920151 -265.476456 
L 202.005381 -265.476456 
L 202.005381 -264.608584 
L 138.346302 -264.608584 
L 138.346302 -264.20378 
L 122.431532 -264.20378 
L 122.431532 -263.393956 
L 106.516762 -263.393956 
L 106.516762 -261.061067 
L 90.601992 -261.061067 
L 90.601992 -225.185572 
L 74.687222 -225.185572 
L 74.687222 -52.269423 
L 61.088167 -52.269423 
z
" style="stroke: #4dbeee; stroke-opacity: 0.15"/>
    </defs>
    <g clip-path="url(#pd2fc9c59db)">
     <use xlink:href="#medcd095d72" x="0" y="304.7305" style="fill: #4dbeee; fill-opacity: 0.15; stroke: #4dbeee; stroke-opacity: 0.15"/>
    </g>
   </g>
   <g id="FillBetweenPolyCollection_7">
    <defs>
     <path id="m51eddac356" d="M 61.088167 -52.269423 
L 61.088167 -52.269423 
L 74.687222 -52.269423 
L 74.687222 -191.108392 
L 90.601992 -191.108392 
L 90.601992 -254.478506 
L 106.516762 -254.478506 
L 106.516762 -260.374458 
L 122.431532 -260.374458 
L 122.431532 -263.028707 
L 154.261071 -263.028707 
L 154.261071 -264.830083 
L 170.175841 -264.830083 
L 170.175841 -266.698028 
L 186.090611 -266.698028 
L 186.090611 -267.76729 
L 202.005381 -267.76729 
L 202.005381 -270.136582 
L 265.66446 -270.136582 
L 265.66446 -271.751079 
L 377.067849 -271.751079 
L 377.067849 -273.365577 
L 377.067849 -273.365577 
L 377.067849 -273.365577 
L 377.067849 -274.204298 
L 265.66446 -274.204298 
L 265.66446 -275.04302 
L 202.005381 -275.04302 
L 202.005381 -274.309208 
L 186.090611 -274.309208 
L 186.090611 -273.826918 
L 170.175841 -273.826918 
L 170.175841 -273.367536 
L 154.261071 -273.367536 
L 154.261071 -272.841583 
L 122.431532 -272.841583 
L 122.431532 -272.392728 
L 106.516762 -272.392728 
L 106.516762 -269.755144 
L 90.601992 -269.755144 
L 90.601992 -220.637741 
L 74.687222 -220.637741 
L 74.687222 -52.269423 
L 61.088167 -52.269423 
z
" style="stroke: #a2142f; stroke-opacity: 0.15"/>
    </defs>
    <g clip-path="url(#pd2fc9c59db)">
     <use xlink:href="#m51eddac356" x="0" y="304.7305" style="fill: #a2142f; fill-opacity: 0.15; stroke: #a2142f; stroke-opacity: 0.15"/>
    </g>
   </g>
   <g id="FillBetweenPolyCollection_8">
    <defs>
     <path id="m186f575e5a" d="M 61.088167 -52.269423 
L 61.088167 -52.269423 
L 74.687222 -52.269423 
L 74.687222 -169.679914 
L 90.601992 -169.679914 
L 90.601992 -253.437195 
L 106.516762 -253.437195 
L 106.516762 -265.024885 
L 170.175841 -265.024885 
L 170.175841 -273.365577 
L 170.175841 -273.365577 
L 170.175841 -273.365577 
L 170.175841 -276.341436 
L 106.516762 -276.341436 
L 106.516762 -274.923469 
L 90.601992 -274.923469 
L 90.601992 -232.200744 
L 74.687222 -232.200744 
L 74.687222 -52.269423 
L 61.088167 -52.269423 
z
" style="stroke: #008080; stroke-opacity: 0.15"/>
    </defs>
    <g clip-path="url(#pd2fc9c59db)">
     <use xlink:href="#m186f575e5a" x="0" y="304.7305" style="fill: #008080; fill-opacity: 0.15; stroke: #008080; stroke-opacity: 0.15"/>
    </g>
   </g>
   <g id="matplotlib.axis_1">
    <g id="xtick_1">
     <g id="line2d_1">
      <defs>
       <path id="mb24a2722e6" d="M 0 0 
L 0 3.5 
" style="stroke: #000000; stroke-width: 0.8"/>
      </defs>
      <g>
       <use xlink:href="#mb24a2722e6" x="74.687222" y="256.883" style="stroke: #000000; stroke-width: 0.8"/>
      </g>
     </g>
     <g id="text_1">
      <!-- 0.0 -->
      <g transform="translate(63.567222 275.3355) scale(0.16 -0.16)">
       <defs>
        <path id="ArialMT-30" d="M 266 2259 
Q 266 3072 433 3567 
Q 600 4063 929 4331 
Q 1259 4600 1759 4600 
Q 2128 4600 2406 4451 
Q 2684 4303 2865 4023 
Q 3047 3744 3150 3342 
Q 3253 2941 3253 2259 
Q 3253 1453 3087 958 
Q 2922 463 2592 192 
Q 2263 -78 1759 -78 
Q 1097 -78 719 397 
Q 266 969 266 2259 
z
M 844 2259 
Q 844 1131 1108 757 
Q 1372 384 1759 384 
Q 2147 384 2411 759 
Q 2675 1134 2675 2259 
Q 2675 3391 2411 3762 
Q 2147 4134 1753 4134 
Q 1366 4134 1134 3806 
Q 844 3388 844 2259 
z
" transform="scale(0.015625)"/>
        <path id="ArialMT-2e" d="M 581 0 
L 581 641 
L 1222 641 
L 1222 0 
L 581 0 
z
" transform="scale(0.015625)"/>
       </defs>
       <use xlink:href="#ArialMT-30"/>
       <use xlink:href="#ArialMT-2e" transform="translate(55.615234 0)"/>
       <use xlink:href="#ArialMT-30" transform="translate(83.398438 0)"/>
      </g>
     </g>
    </g>
    <g id="xtick_2">
     <g id="line2d_2">
      <g>
       <use xlink:href="#mb24a2722e6" x="152.396111" y="256.883" style="stroke: #000000; stroke-width: 0.8"/>
      </g>
     </g>
     <g id="text_2">
      <!-- 0.2 -->
      <g transform="translate(141.276111 275.3355) scale(0.16 -0.16)">
       <defs>
        <path id="ArialMT-32" d="M 3222 541 
L 3222 0 
L 194 0 
Q 188 203 259 391 
Q 375 700 629 1000 
Q 884 1300 1366 1694 
Q 2113 2306 2375 2664 
Q 2638 3022 2638 3341 
Q 2638 3675 2398 3904 
Q 2159 4134 1775 4134 
Q 1369 4134 1125 3890 
Q 881 3647 878 3216 
L 300 3275 
Q 359 3922 746 4261 
Q 1134 4600 1788 4600 
Q 2447 4600 2831 4234 
Q 3216 3869 3216 3328 
Q 3216 3053 3103 2787 
Q 2991 2522 2730 2228 
Q 2469 1934 1863 1422 
Q 1356 997 1212 845 
Q 1069 694 975 541 
L 3222 541 
z
" transform="scale(0.015625)"/>
       </defs>
       <use xlink:href="#ArialMT-30"/>
       <use xlink:href="#ArialMT-2e" transform="translate(55.615234 0)"/>
       <use xlink:href="#ArialMT-32" transform="translate(83.398438 0)"/>
      </g>
     </g>
    </g>
    <g id="xtick_3">
     <g id="line2d_3">
      <g>
       <use xlink:href="#mb24a2722e6" x="230.105" y="256.883" style="stroke: #000000; stroke-width: 0.8"/>
      </g>
     </g>
     <g id="text_3">
      <!-- 0.4 -->
      <g transform="translate(218.985 275.3355) scale(0.16 -0.16)">
       <defs>
        <path id="ArialMT-34" d="M 2069 0 
L 2069 1097 
L 81 1097 
L 81 1613 
L 2172 4581 
L 2631 4581 
L 2631 1613 
L 3250 1613 
L 3250 1097 
L 2631 1097 
L 2631 0 
L 2069 0 
z
M 2069 1613 
L 2069 3678 
L 634 1613 
L 2069 1613 
z
" transform="scale(0.015625)"/>
       </defs>
       <use xlink:href="#ArialMT-30"/>
       <use xlink:href="#ArialMT-2e" transform="translate(55.615234 0)"/>
       <use xlink:href="#ArialMT-34" transform="translate(83.398438 0)"/>
      </g>
     </g>
    </g>
    <g id="xtick_4">
     <g id="line2d_4">
      <g>
       <use xlink:href="#mb24a2722e6" x="307.813889" y="256.883" style="stroke: #000000; stroke-width: 0.8"/>
      </g>
     </g>
     <g id="text_4">
      <!-- 0.6 -->
      <g transform="translate(296.693889 275.3355) scale(0.16 -0.16)">
       <defs>
        <path id="ArialMT-36" d="M 3184 3459 
L 2625 3416 
Q 2550 3747 2413 3897 
Q 2184 4138 1850 4138 
Q 1581 4138 1378 3988 
Q 1113 3794 959 3422 
Q 806 3050 800 2363 
Q 1003 2672 1297 2822 
Q 1591 2972 1913 2972 
Q 2475 2972 2870 2558 
Q 3266 2144 3266 1488 
Q 3266 1056 3080 686 
Q 2894 316 2569 119 
Q 2244 -78 1831 -78 
Q 1128 -78 684 439 
Q 241 956 241 2144 
Q 241 3472 731 4075 
Q 1159 4600 1884 4600 
Q 2425 4600 2770 4297 
Q 3116 3994 3184 3459 
z
M 888 1484 
Q 888 1194 1011 928 
Q 1134 663 1356 523 
Q 1578 384 1822 384 
Q 2178 384 2434 671 
Q 2691 959 2691 1453 
Q 2691 1928 2437 2201 
Q 2184 2475 1800 2475 
Q 1419 2475 1153 2201 
Q 888 1928 888 1484 
z
" transform="scale(0.015625)"/>
       </defs>
       <use xlink:href="#ArialMT-30"/>
       <use xlink:href="#ArialMT-2e" transform="translate(55.615234 0)"/>
       <use xlink:href="#ArialMT-36" transform="translate(83.398438 0)"/>
      </g>
     </g>
    </g>
    <g id="xtick_5">
     <g id="line2d_5">
      <g>
       <use xlink:href="#mb24a2722e6" x="385.522778" y="256.883" style="stroke: #000000; stroke-width: 0.8"/>
      </g>
     </g>
     <g id="text_5">
      <!-- 0.8 -->
      <g transform="translate(374.402778 275.3355) scale(0.16 -0.16)">
       <defs>
        <path id="ArialMT-38" d="M 1131 2484 
Q 781 2613 612 2850 
Q 444 3088 444 3419 
Q 444 3919 803 4259 
Q 1163 4600 1759 4600 
Q 2359 4600 2725 4251 
Q 3091 3903 3091 3403 
Q 3091 3084 2923 2848 
Q 2756 2613 2416 2484 
Q 2838 2347 3058 2040 
Q 3278 1734 3278 1309 
Q 3278 722 2862 322 
Q 2447 -78 1769 -78 
Q 1091 -78 675 323 
Q 259 725 259 1325 
Q 259 1772 486 2073 
Q 713 2375 1131 2484 
z
M 1019 3438 
Q 1019 3113 1228 2906 
Q 1438 2700 1772 2700 
Q 2097 2700 2305 2904 
Q 2513 3109 2513 3406 
Q 2513 3716 2298 3927 
Q 2084 4138 1766 4138 
Q 1444 4138 1231 3931 
Q 1019 3725 1019 3438 
z
M 838 1322 
Q 838 1081 952 856 
Q 1066 631 1291 507 
Q 1516 384 1775 384 
Q 2178 384 2440 643 
Q 2703 903 2703 1303 
Q 2703 1709 2433 1975 
Q 2163 2241 1756 2241 
Q 1359 2241 1098 1978 
Q 838 1716 838 1322 
z
" transform="scale(0.015625)"/>
       </defs>
       <use xlink:href="#ArialMT-30"/>
       <use xlink:href="#ArialMT-2e" transform="translate(55.615234 0)"/>
       <use xlink:href="#ArialMT-38" transform="translate(83.398438 0)"/>
      </g>
     </g>
    </g>
    <g id="text_6">
     <!-- Prediction Adjustment (ms) -->
     <g transform="translate(134.51875 294.163) scale(0.16 -0.16)">
      <defs>
       <path id="ArialMT-50" d="M 494 0 
L 494 4581 
L 2222 4581 
Q 2678 4581 2919 4538 
Q 3256 4481 3484 4323 
Q 3713 4166 3852 3881 
Q 3991 3597 3991 3256 
Q 3991 2672 3619 2267 
Q 3247 1863 2275 1863 
L 1100 1863 
L 1100 0 
L 494 0 
z
M 1100 2403 
L 2284 2403 
Q 2872 2403 3119 2622 
Q 3366 2841 3366 3238 
Q 3366 3525 3220 3729 
Q 3075 3934 2838 4000 
Q 2684 4041 2272 4041 
L 1100 4041 
L 1100 2403 
z
" transform="scale(0.015625)"/>
       <path id="ArialMT-72" d="M 416 0 
L 416 3319 
L 922 3319 
L 922 2816 
Q 1116 3169 1280 3281 
Q 1444 3394 1641 3394 
Q 1925 3394 2219 3213 
L 2025 2691 
Q 1819 2813 1613 2813 
Q 1428 2813 1281 2702 
Q 1134 2591 1072 2394 
Q 978 2094 978 1738 
L 978 0 
L 416 0 
z
" transform="scale(0.015625)"/>
       <path id="ArialMT-65" d="M 2694 1069 
L 3275 997 
Q 3138 488 2766 206 
Q 2394 -75 1816 -75 
Q 1088 -75 661 373 
Q 234 822 234 1631 
Q 234 2469 665 2931 
Q 1097 3394 1784 3394 
Q 2450 3394 2872 2941 
Q 3294 2488 3294 1666 
Q 3294 1616 3291 1516 
L 816 1516 
Q 847 969 1125 678 
Q 1403 388 1819 388 
Q 2128 388 2347 550 
Q 2566 713 2694 1069 
z
M 847 1978 
L 2700 1978 
Q 2663 2397 2488 2606 
Q 2219 2931 1791 2931 
Q 1403 2931 1139 2672 
Q 875 2413 847 1978 
z
" transform="scale(0.015625)"/>
       <path id="ArialMT-64" d="M 2575 0 
L 2575 419 
Q 2259 -75 1647 -75 
Q 1250 -75 917 144 
Q 584 363 401 755 
Q 219 1147 219 1656 
Q 219 2153 384 2558 
Q 550 2963 881 3178 
Q 1213 3394 1622 3394 
Q 1922 3394 2156 3267 
Q 2391 3141 2538 2938 
L 2538 4581 
L 3097 4581 
L 3097 0 
L 2575 0 
z
M 797 1656 
Q 797 1019 1065 703 
Q 1334 388 1700 388 
Q 2069 388 2326 689 
Q 2584 991 2584 1609 
Q 2584 2291 2321 2609 
Q 2059 2928 1675 2928 
Q 1300 2928 1048 2622 
Q 797 2316 797 1656 
z
" transform="scale(0.015625)"/>
       <path id="ArialMT-69" d="M 425 3934 
L 425 4581 
L 988 4581 
L 988 3934 
L 425 3934 
z
M 425 0 
L 425 3319 
L 988 3319 
L 988 0 
L 425 0 
z
" transform="scale(0.015625)"/>
       <path id="ArialMT-63" d="M 2588 1216 
L 3141 1144 
Q 3050 572 2676 248 
Q 2303 -75 1759 -75 
Q 1078 -75 664 370 
Q 250 816 250 1647 
Q 250 2184 428 2587 
Q 606 2991 970 3192 
Q 1334 3394 1763 3394 
Q 2303 3394 2647 3120 
Q 2991 2847 3088 2344 
L 2541 2259 
Q 2463 2594 2264 2762 
Q 2066 2931 1784 2931 
Q 1359 2931 1093 2626 
Q 828 2322 828 1663 
Q 828 994 1084 691 
Q 1341 388 1753 388 
Q 2084 388 2306 591 
Q 2528 794 2588 1216 
z
" transform="scale(0.015625)"/>
       <path id="ArialMT-74" d="M 1650 503 
L 1731 6 
Q 1494 -44 1306 -44 
Q 1000 -44 831 53 
Q 663 150 594 308 
Q 525 466 525 972 
L 525 2881 
L 113 2881 
L 113 3319 
L 525 3319 
L 525 4141 
L 1084 4478 
L 1084 3319 
L 1650 3319 
L 1650 2881 
L 1084 2881 
L 1084 941 
Q 1084 700 1114 631 
Q 1144 563 1211 522 
Q 1278 481 1403 481 
Q 1497 481 1650 503 
z
" transform="scale(0.015625)"/>
       <path id="ArialMT-6f" d="M 213 1659 
Q 213 2581 725 3025 
Q 1153 3394 1769 3394 
Q 2453 3394 2887 2945 
Q 3322 2497 3322 1706 
Q 3322 1066 3130 698 
Q 2938 331 2570 128 
Q 2203 -75 1769 -75 
Q 1072 -75 642 372 
Q 213 819 213 1659 
z
M 791 1659 
Q 791 1022 1069 705 
Q 1347 388 1769 388 
Q 2188 388 2466 706 
Q 2744 1025 2744 1678 
Q 2744 2294 2464 2611 
Q 2184 2928 1769 2928 
Q 1347 2928 1069 2612 
Q 791 2297 791 1659 
z
" transform="scale(0.015625)"/>
       <path id="ArialMT-6e" d="M 422 0 
L 422 3319 
L 928 3319 
L 928 2847 
Q 1294 3394 1984 3394 
Q 2284 3394 2536 3286 
Q 2788 3178 2913 3003 
Q 3038 2828 3088 2588 
Q 3119 2431 3119 2041 
L 3119 0 
L 2556 0 
L 2556 2019 
Q 2556 2363 2490 2533 
Q 2425 2703 2258 2804 
Q 2091 2906 1866 2906 
Q 1506 2906 1245 2678 
Q 984 2450 984 1813 
L 984 0 
L 422 0 
z
" transform="scale(0.015625)"/>
       <path id="ArialMT-20" transform="scale(0.015625)"/>
       <path id="ArialMT-41" d="M -9 0 
L 1750 4581 
L 2403 4581 
L 4278 0 
L 3588 0 
L 3053 1388 
L 1138 1388 
L 634 0 
L -9 0 
z
M 1313 1881 
L 2866 1881 
L 2388 3150 
Q 2169 3728 2063 4100 
Q 1975 3659 1816 3225 
L 1313 1881 
z
" transform="scale(0.015625)"/>
       <path id="ArialMT-6a" d="M 419 3928 
L 419 4581 
L 981 4581 
L 981 3928 
L 419 3928 
z
M -294 -1288 
L -188 -809 
Q -19 -853 78 -853 
Q 250 -853 334 -739 
Q 419 -625 419 -169 
L 419 3319 
L 981 3319 
L 981 -181 
Q 981 -794 822 -1034 
Q 619 -1347 147 -1347 
Q -81 -1347 -294 -1288 
z
" transform="scale(0.015625)"/>
       <path id="ArialMT-75" d="M 2597 0 
L 2597 488 
Q 2209 -75 1544 -75 
Q 1250 -75 995 37 
Q 741 150 617 320 
Q 494 491 444 738 
Q 409 903 409 1263 
L 409 3319 
L 972 3319 
L 972 1478 
Q 972 1038 1006 884 
Q 1059 663 1231 536 
Q 1403 409 1656 409 
Q 1909 409 2131 539 
Q 2353 669 2445 892 
Q 2538 1116 2538 1541 
L 2538 3319 
L 3100 3319 
L 3100 0 
L 2597 0 
z
" transform="scale(0.015625)"/>
       <path id="ArialMT-73" d="M 197 991 
L 753 1078 
Q 800 744 1014 566 
Q 1228 388 1613 388 
Q 2000 388 2187 545 
Q 2375 703 2375 916 
Q 2375 1106 2209 1216 
Q 2094 1291 1634 1406 
Q 1016 1563 777 1677 
Q 538 1791 414 1992 
Q 291 2194 291 2438 
Q 291 2659 392 2848 
Q 494 3038 669 3163 
Q 800 3259 1026 3326 
Q 1253 3394 1513 3394 
Q 1903 3394 2198 3281 
Q 2494 3169 2634 2976 
Q 2775 2784 2828 2463 
L 2278 2388 
Q 2241 2644 2061 2787 
Q 1881 2931 1553 2931 
Q 1166 2931 1000 2803 
Q 834 2675 834 2503 
Q 834 2394 903 2306 
Q 972 2216 1119 2156 
Q 1203 2125 1616 2013 
Q 2213 1853 2448 1751 
Q 2684 1650 2818 1456 
Q 2953 1263 2953 975 
Q 2953 694 2789 445 
Q 2625 197 2315 61 
Q 2006 -75 1616 -75 
Q 969 -75 630 194 
Q 291 463 197 991 
z
" transform="scale(0.015625)"/>
       <path id="ArialMT-6d" d="M 422 0 
L 422 3319 
L 925 3319 
L 925 2853 
Q 1081 3097 1340 3245 
Q 1600 3394 1931 3394 
Q 2300 3394 2536 3241 
Q 2772 3088 2869 2813 
Q 3263 3394 3894 3394 
Q 4388 3394 4653 3120 
Q 4919 2847 4919 2278 
L 4919 0 
L 4359 0 
L 4359 2091 
Q 4359 2428 4304 2576 
Q 4250 2725 4106 2815 
Q 3963 2906 3769 2906 
Q 3419 2906 3187 2673 
Q 2956 2441 2956 1928 
L 2956 0 
L 2394 0 
L 2394 2156 
Q 2394 2531 2256 2718 
Q 2119 2906 1806 2906 
Q 1569 2906 1367 2781 
Q 1166 2656 1075 2415 
Q 984 2175 984 1722 
L 984 0 
L 422 0 
z
" transform="scale(0.015625)"/>
       <path id="ArialMT-28" d="M 1497 -1347 
Q 1031 -759 709 28 
Q 388 816 388 1659 
Q 388 2403 628 3084 
Q 909 3875 1497 4659 
L 1900 4659 
Q 1522 4009 1400 3731 
Q 1209 3300 1100 2831 
Q 966 2247 966 1656 
Q 966 153 1900 -1347 
L 1497 -1347 
z
" transform="scale(0.015625)"/>
       <path id="ArialMT-29" d="M 791 -1347 
L 388 -1347 
Q 1322 153 1322 1656 
Q 1322 2244 1188 2822 
Q 1081 3291 891 3722 
Q 769 4003 388 4659 
L 791 4659 
Q 1378 3875 1659 3084 
Q 1900 2403 1900 1659 
Q 1900 816 1576 28 
Q 1253 -759 791 -1347 
z
" transform="scale(0.015625)"/>
      </defs>
      <use xlink:href="#ArialMT-50"/>
      <use xlink:href="#ArialMT-72" transform="translate(66.699219 0)"/>
      <use xlink:href="#ArialMT-65" transform="translate(100 0)"/>
      <use xlink:href="#ArialMT-64" transform="translate(155.615234 0)"/>
      <use xlink:href="#ArialMT-69" transform="translate(211.230469 0)"/>
      <use xlink:href="#ArialMT-63" transform="translate(233.447266 0)"/>
      <use xlink:href="#ArialMT-74" transform="translate(283.447266 0)"/>
      <use xlink:href="#ArialMT-69" transform="translate(311.230469 0)"/>
      <use xlink:href="#ArialMT-6f" transform="translate(333.447266 0)"/>
      <use xlink:href="#ArialMT-6e" transform="translate(389.0625 0)"/>
      <use xlink:href="#ArialMT-20" transform="translate(444.677734 0)"/>
      <use xlink:href="#ArialMT-41" transform="translate(466.960938 0)"/>
      <use xlink:href="#ArialMT-64" transform="translate(533.660156 0)"/>
      <use xlink:href="#ArialMT-6a" transform="translate(589.275391 0)"/>
      <use xlink:href="#ArialMT-75" transform="translate(611.492188 0)"/>
      <use xlink:href="#ArialMT-73" transform="translate(667.107422 0)"/>
      <use xlink:href="#ArialMT-74" transform="translate(717.107422 0)"/>
      <use xlink:href="#ArialMT-6d" transform="translate(744.890625 0)"/>
      <use xlink:href="#ArialMT-65" transform="translate(828.191406 0)"/>
      <use xlink:href="#ArialMT-6e" transform="translate(883.806641 0)"/>
      <use xlink:href="#ArialMT-74" transform="translate(939.421875 0)"/>
      <use xlink:href="#ArialMT-20" transform="translate(967.205078 0)"/>
      <use xlink:href="#ArialMT-28" transform="translate(994.988281 0)"/>
      <use xlink:href="#ArialMT-6d" transform="translate(1028.289062 0)"/>
      <use xlink:href="#ArialMT-73" transform="translate(1111.589844 0)"/>
      <use xlink:href="#ArialMT-29" transform="translate(1161.589844 0)"/>
     </g>
    </g>
   </g>
   <g id="matplotlib.axis_2">
    <g id="ytick_1">
     <g id="line2d_6">
      <defs>
       <path id="m80a624a99d" d="M 0 0 
L -3.5 0 
" style="stroke: #000000; stroke-width: 0.8"/>
      </defs>
      <g>
       <use xlink:href="#m80a624a99d" x="55.26" y="252.461077" style="stroke: #000000; stroke-width: 0.8"/>
      </g>
     </g>
     <g id="text_7">
      <!-- 0.0 -->
      <g transform="translate(26.02 258.187327) scale(0.16 -0.16)">
       <use xlink:href="#ArialMT-30"/>
       <use xlink:href="#ArialMT-2e" transform="translate(55.615234 0)"/>
       <use xlink:href="#ArialMT-30" transform="translate(83.398438 0)"/>
      </g>
     </g>
    </g>
    <g id="ytick_2">
     <g id="line2d_7">
      <g>
       <use xlink:href="#m80a624a99d" x="55.26" y="208.241846" style="stroke: #000000; stroke-width: 0.8"/>
      </g>
     </g>
     <g id="text_8">
      <!-- 0.2 -->
      <g transform="translate(26.02 213.968096) scale(0.16 -0.16)">
       <use xlink:href="#ArialMT-30"/>
       <use xlink:href="#ArialMT-2e" transform="translate(55.615234 0)"/>
       <use xlink:href="#ArialMT-32" transform="translate(83.398438 0)"/>
      </g>
     </g>
    </g>
    <g id="ytick_3">
     <g id="line2d_8">
      <g>
       <use xlink:href="#m80a624a99d" x="55.26" y="164.022615" style="stroke: #000000; stroke-width: 0.8"/>
      </g>
     </g>
     <g id="text_9">
      <!-- 0.4 -->
      <g transform="translate(26.02 169.748865) scale(0.16 -0.16)">
       <use xlink:href="#ArialMT-30"/>
       <use xlink:href="#ArialMT-2e" transform="translate(55.615234 0)"/>
       <use xlink:href="#ArialMT-34" transform="translate(83.398438 0)"/>
      </g>
     </g>
    </g>
    <g id="ytick_4">
     <g id="line2d_9">
      <g>
       <use xlink:href="#m80a624a99d" x="55.26" y="119.803385" style="stroke: #000000; stroke-width: 0.8"/>
      </g>
     </g>
     <g id="text_10">
      <!-- 0.6 -->
      <g transform="translate(26.02 125.529635) scale(0.16 -0.16)">
       <use xlink:href="#ArialMT-30"/>
       <use xlink:href="#ArialMT-2e" transform="translate(55.615234 0)"/>
       <use xlink:href="#ArialMT-36" transform="translate(83.398438 0)"/>
      </g>
     </g>
    </g>
    <g id="ytick_5">
     <g id="line2d_10">
      <g>
       <use xlink:href="#m80a624a99d" x="55.26" y="75.584154" style="stroke: #000000; stroke-width: 0.8"/>
      </g>
     </g>
     <g id="text_11">
      <!-- 0.8 -->
      <g transform="translate(26.02 81.310404) scale(0.16 -0.16)">
       <use xlink:href="#ArialMT-30"/>
       <use xlink:href="#ArialMT-2e" transform="translate(55.615234 0)"/>
       <use xlink:href="#ArialMT-38" transform="translate(83.398438 0)"/>
      </g>
     </g>
    </g>
    <g id="ytick_6">
     <g id="line2d_11">
      <g>
       <use xlink:href="#m80a624a99d" x="55.26" y="31.364923" style="stroke: #000000; stroke-width: 0.8"/>
      </g>
     </g>
     <g id="text_12">
      <!-- 1.0 -->
      <g transform="translate(26.02 37.091173) scale(0.16 -0.16)">
       <defs>
        <path id="ArialMT-31" d="M 2384 0 
L 1822 0 
L 1822 3584 
Q 1619 3391 1289 3197 
Q 959 3003 697 2906 
L 697 3450 
Q 1169 3672 1522 3987 
Q 1875 4303 2022 4600 
L 2384 4600 
L 2384 0 
z
" transform="scale(0.015625)"/>
       </defs>
       <use xlink:href="#ArialMT-31"/>
       <use xlink:href="#ArialMT-2e" transform="translate(55.615234 0)"/>
       <use xlink:href="#ArialMT-30" transform="translate(83.398438 0)"/>
      </g>
     </g>
    </g>
    <g id="text_13">
     <!-- Probability -->
     <g transform="translate(18.6525 179.263) rotate(-90) scale(0.16 -0.16)">
      <defs>
       <path id="ArialMT-62" d="M 941 0 
L 419 0 
L 419 4581 
L 981 4581 
L 981 2947 
Q 1338 3394 1891 3394 
Q 2197 3394 2470 3270 
Q 2744 3147 2920 2923 
Q 3097 2700 3197 2384 
Q 3297 2069 3297 1709 
Q 3297 856 2875 390 
Q 2453 -75 1863 -75 
Q 1275 -75 941 416 
L 941 0 
z
M 934 1684 
Q 934 1088 1097 822 
Q 1363 388 1816 388 
Q 2184 388 2453 708 
Q 2722 1028 2722 1663 
Q 2722 2313 2464 2622 
Q 2206 2931 1841 2931 
Q 1472 2931 1203 2611 
Q 934 2291 934 1684 
z
" transform="scale(0.015625)"/>
       <path id="ArialMT-61" d="M 2588 409 
Q 2275 144 1986 34 
Q 1697 -75 1366 -75 
Q 819 -75 525 192 
Q 231 459 231 875 
Q 231 1119 342 1320 
Q 453 1522 633 1644 
Q 813 1766 1038 1828 
Q 1203 1872 1538 1913 
Q 2219 1994 2541 2106 
Q 2544 2222 2544 2253 
Q 2544 2597 2384 2738 
Q 2169 2928 1744 2928 
Q 1347 2928 1158 2789 
Q 969 2650 878 2297 
L 328 2372 
Q 403 2725 575 2942 
Q 747 3159 1072 3276 
Q 1397 3394 1825 3394 
Q 2250 3394 2515 3294 
Q 2781 3194 2906 3042 
Q 3031 2891 3081 2659 
Q 3109 2516 3109 2141 
L 3109 1391 
Q 3109 606 3145 398 
Q 3181 191 3288 0 
L 2700 0 
Q 2613 175 2588 409 
z
M 2541 1666 
Q 2234 1541 1622 1453 
Q 1275 1403 1131 1340 
Q 988 1278 909 1158 
Q 831 1038 831 891 
Q 831 666 1001 516 
Q 1172 366 1500 366 
Q 1825 366 2078 508 
Q 2331 650 2450 897 
Q 2541 1088 2541 1459 
L 2541 1666 
z
" transform="scale(0.015625)"/>
       <path id="ArialMT-6c" d="M 409 0 
L 409 4581 
L 972 4581 
L 972 0 
L 409 0 
z
" transform="scale(0.015625)"/>
       <path id="ArialMT-79" d="M 397 -1278 
L 334 -750 
Q 519 -800 656 -800 
Q 844 -800 956 -737 
Q 1069 -675 1141 -563 
Q 1194 -478 1313 -144 
Q 1328 -97 1363 -6 
L 103 3319 
L 709 3319 
L 1400 1397 
Q 1534 1031 1641 628 
Q 1738 1016 1872 1384 
L 2581 3319 
L 3144 3319 
L 1881 -56 
Q 1678 -603 1566 -809 
Q 1416 -1088 1222 -1217 
Q 1028 -1347 759 -1347 
Q 597 -1347 397 -1278 
z
" transform="scale(0.015625)"/>
      </defs>
      <use xlink:href="#ArialMT-50"/>
      <use xlink:href="#ArialMT-72" transform="translate(66.699219 0)"/>
      <use xlink:href="#ArialMT-6f" transform="translate(100 0)"/>
      <use xlink:href="#ArialMT-62" transform="translate(155.615234 0)"/>
      <use xlink:href="#ArialMT-61" transform="translate(211.230469 0)"/>
      <use xlink:href="#ArialMT-62" transform="translate(266.845703 0)"/>
      <use xlink:href="#ArialMT-69" transform="translate(322.460938 0)"/>
      <use xlink:href="#ArialMT-6c" transform="translate(344.677734 0)"/>
      <use xlink:href="#ArialMT-69" transform="translate(366.894531 0)"/>
      <use xlink:href="#ArialMT-74" transform="translate(389.111328 0)"/>
      <use xlink:href="#ArialMT-79" transform="translate(416.894531 0)"/>
     </g>
    </g>
   </g>
   <g id="line2d_12">
    <path d="M 55.26 53.474538 
L 404.95 53.474538 
" clip-path="url(#pd2fc9c59db)" style="fill: none; stroke-dasharray: 5.55,2.4; stroke-dashoffset: 0; stroke: #808080; stroke-width: 1.5"/>
   </g>
   <g id="line2d_13">
    <path d="M 61.088167 252.461077 
L 74.687222 252.461077 
L 74.687222 112.546683 
L 90.601992 112.546683 
L 90.601992 44.972958 
L 106.516762 44.972958 
L 106.516762 42.187265 
L 138.346302 42.187265 
L 138.346302 41.875862 
L 154.261071 41.875862 
L 154.261071 41.257381 
L 170.175841 41.257381 
L 170.175841 40.630127 
L 202.005381 40.630127 
L 202.005381 39.700119 
L 217.920151 39.700119 
L 217.920151 38.155837 
L 233.834921 38.155837 
L 233.834921 37.541562 
L 249.74969 37.541562 
L 249.74969 35.378923 
L 281.57923 35.378923 
L 281.57923 34.760442 
L 329.323539 34.760442 
L 329.323539 34.453364 
L 345.238309 34.453364 
L 345.238309 33.22914 
L 361.153079 33.22914 
L 361.153079 31.676326 
L 377.067849 31.676326 
L 377.067849 31.364923 
" clip-path="url(#pd2fc9c59db)" style="fill: none; stroke: #0072bd; stroke-width: 2.5; stroke-linecap: square"/>
   </g>
   <g id="line2d_14">
    <path d="M 61.088167 252.461077 
L 74.687222 252.461077 
L 74.687222 122.981608 
L 90.601992 122.981608 
L 90.601992 59.066356 
L 106.516762 59.066356 
L 106.516762 54.420885 
L 122.431532 54.420885 
L 122.431532 52.24959 
L 138.346302 52.24959 
L 138.346302 51.310809 
L 154.261071 51.310809 
L 154.261071 50.051722 
L 170.175841 50.051722 
L 170.175841 49.740319 
L 186.090611 49.740319 
L 186.090611 48.18318 
L 202.005381 48.18318 
L 202.005381 45.682682 
L 217.920151 45.682682 
L 217.920151 44.441395 
L 233.834921 44.441395 
L 233.834921 44.125544 
L 249.74969 44.125544 
L 249.74969 43.81414 
L 329.323539 43.81414 
L 329.323539 42.870782 
L 345.238309 42.870782 
L 345.238309 42.559379 
L 361.153079 42.559379 
L 361.153079 39.773928 
L 377.067849 39.773928 
L 377.067849 35.413662 
L 392.982619 35.413662 
L 392.982619 31.364923 
" clip-path="url(#pd2fc9c59db)" style="fill: none; stroke: #d95319; stroke-width: 2.5; stroke-linecap: square"/>
   </g>
   <g id="line2d_15">
    <path d="M 61.088167 252.461077 
L 74.687222 252.461077 
L 74.687222 128.801019 
L 90.601992 128.801019 
L 90.601992 58.151444 
L 106.516762 58.151444 
L 106.516762 51.653707 
L 122.431532 51.653707 
L 122.431532 50.298903 
L 138.346302 50.298903 
L 138.346302 48.944098 
L 154.261071 48.944098 
L 154.261071 47.326321 
L 170.175841 47.326321 
L 170.175841 45.15597 
L 186.090611 45.15597 
L 186.090611 44.886341 
L 202.005381 44.886341 
L 202.005381 42.725977 
L 217.920151 42.725977 
L 217.920151 41.640801 
L 233.834921 41.640801 
L 233.834921 40.831913 
L 249.74969 40.831913 
L 249.74969 39.480437 
L 265.66446 39.480437 
L 265.66446 38.937849 
L 281.57923 38.937849 
L 281.57923 38.39859 
L 297.494 38.39859 
L 297.494 37.316744 
L 313.40877 37.316744 
L 313.40877 37.047114 
L 345.238309 37.047114 
L 345.238309 36.234897 
L 361.153079 36.234897 
L 361.153079 34.613792 
L 377.067849 34.613792 
L 377.067849 33.801574 
L 392.982619 33.801574 
L 392.982619 31.364923 
" clip-path="url(#pd2fc9c59db)" style="fill: none; stroke: #edb120; stroke-width: 2.5; stroke-linecap: square"/>
   </g>
   <g id="line2d_16">
    <path d="M 61.088167 252.461077 
L 74.687222 252.461077 
L 74.687222 95.038193 
L 90.601992 95.038193 
L 90.601992 41.204394 
L 106.516762 41.204394 
L 106.516762 39.050523 
L 122.431532 39.050523 
L 122.431532 38.436367 
L 138.346302 38.436367 
L 138.346302 38.129289 
L 154.261071 38.129289 
L 154.261071 37.822211 
L 186.090611 37.822211 
L 186.090611 37.515133 
L 202.005381 37.515133 
L 202.005381 37.208055 
L 217.920151 37.208055 
L 217.920151 36.900977 
L 233.834921 36.900977 
L 233.834921 36.593899 
L 249.74969 36.593899 
L 249.74969 36.286821 
L 265.66446 36.286821 
L 265.66446 35.054184 
L 281.57923 35.054184 
L 281.57923 33.821547 
L 313.40877 33.821547 
L 313.40877 33.514469 
L 345.238309 33.514469 
L 345.238309 32.286157 
L 361.153079 32.286157 
L 361.153079 31.979079 
L 392.982619 31.979079 
L 392.982619 31.364923 
" clip-path="url(#pd2fc9c59db)" style="fill: none; stroke: #7e2f8e; stroke-width: 2.5; stroke-linecap: square"/>
   </g>
   <g id="line2d_17">
    <path d="M 61.088167 252.461077 
L 74.687222 252.461077 
L 74.687222 99.092053 
L 90.601992 99.092053 
L 90.601992 40.268525 
L 106.516762 40.268525 
L 106.516762 38.189026 
L 122.431532 38.189026 
L 122.431532 37.599436 
L 202.005381 37.599436 
L 202.005381 37.300658 
L 217.920151 37.300658 
L 217.920151 36.408306 
L 233.834921 36.408306 
L 233.834921 35.818716 
L 313.40877 35.818716 
L 313.40877 35.523921 
L 345.238309 35.523921 
L 345.238309 34.627585 
L 361.153079 34.627585 
L 361.153079 34.034012 
L 377.067849 34.034012 
L 377.067849 31.659718 
L 392.982619 31.659718 
L 392.982619 31.364923 
" clip-path="url(#pd2fc9c59db)" style="fill: none; stroke: #77ac30; stroke-width: 2.5; stroke-linecap: square"/>
   </g>
   <g id="line2d_18">
    <path d="M 61.088167 252.461077 
L 74.687222 252.461077 
L 74.687222 95.086101 
L 90.601992 95.086101 
L 90.601992 47.011148 
L 106.516762 47.011148 
L 106.516762 45.530928 
L 122.431532 45.530928 
L 122.431532 45.156189 
L 138.346302 45.156189 
L 138.346302 44.774988 
L 202.005381 44.774988 
L 202.005381 42.920029 
L 217.920151 42.920029 
L 217.920151 41.420857 
L 249.74969 41.420857 
L 249.74969 41.046118 
L 265.66446 41.046118 
L 265.66446 38.816419 
L 281.57923 38.816419 
L 281.57923 36.20552 
L 297.494 36.20552 
L 297.494 34.719055 
L 313.40877 34.719055 
L 313.40877 33.982067 
L 329.323539 33.982067 
L 329.323539 32.857634 
L 377.067849 32.857634 
L 377.067849 32.482895 
L 392.982619 32.482895 
L 392.982619 31.364923 
" clip-path="url(#pd2fc9c59db)" style="fill: none; stroke: #4dbeee; stroke-width: 2.5; stroke-linecap: square"/>
   </g>
   <g id="line2d_19">
    <path d="M 61.088167 252.461077 
L 74.687222 252.461077 
L 74.687222 98.857433 
L 90.601992 98.857433 
L 90.601992 42.613675 
L 106.516762 42.613675 
L 106.516762 38.346907 
L 122.431532 38.346907 
L 122.431532 36.795355 
L 154.261071 36.795355 
L 154.261071 35.631691 
L 170.175841 35.631691 
L 170.175841 34.468027 
L 186.090611 34.468027 
L 186.090611 33.692251 
L 202.005381 33.692251 
L 202.005381 32.140699 
L 265.66446 32.140699 
L 265.66446 31.752811 
L 377.067849 31.752811 
L 377.067849 31.364923 
" clip-path="url(#pd2fc9c59db)" style="fill: none; stroke: #a2142f; stroke-width: 2.5; stroke-linecap: square"/>
   </g>
   <g id="line2d_20">
    <path d="M 61.088167 252.461077 
L 74.687222 252.461077 
L 74.687222 103.790171 
L 90.601992 103.790171 
L 90.601992 40.550168 
L 106.516762 40.550168 
L 106.516762 34.04734 
L 170.175841 34.04734 
L 170.175841 31.364923 
" clip-path="url(#pd2fc9c59db)" style="fill: none; stroke: #008080; stroke-width: 2.5; stroke-linecap: square"/>
   </g>
   <g id="patch_3">
    <path d="M 55.26 256.883 
L 55.26 26.943 
" style="fill: none; stroke: #000000; stroke-width: 0.8; stroke-linejoin: miter; stroke-linecap: square"/>
   </g>
   <g id="patch_4">
    <path d="M 55.26 256.883 
L 404.95 256.883 
" style="fill: none; stroke: #000000; stroke-width: 0.8; stroke-linejoin: miter; stroke-linecap: square"/>
   </g>
   <g id="text_14">
    <!-- Channel 2 - 8 kHz - W4 Peak -->
    <g transform="translate(102.608 20.943) scale(0.192 -0.192)">
     <defs>
      <path id="Arial-BoldMT-43" d="M 3397 1684 
L 4294 1400 
Q 4088 650 3608 286 
Q 3128 -78 2391 -78 
Q 1478 -78 890 545 
Q 303 1169 303 2250 
Q 303 3394 893 4026 
Q 1484 4659 2447 4659 
Q 3288 4659 3813 4163 
Q 4125 3869 4281 3319 
L 3366 3100 
Q 3284 3456 3026 3662 
Q 2769 3869 2400 3869 
Q 1891 3869 1573 3503 
Q 1256 3138 1256 2319 
Q 1256 1450 1568 1081 
Q 1881 713 2381 713 
Q 2750 713 3015 947 
Q 3281 1181 3397 1684 
z
" transform="scale(0.015625)"/>
      <path id="Arial-BoldMT-68" d="M 1334 4581 
L 1334 2897 
Q 1759 3394 2350 3394 
Q 2653 3394 2897 3281 
Q 3141 3169 3264 2994 
Q 3388 2819 3433 2606 
Q 3478 2394 3478 1947 
L 3478 0 
L 2600 0 
L 2600 1753 
Q 2600 2275 2550 2415 
Q 2500 2556 2373 2639 
Q 2247 2722 2056 2722 
Q 1838 2722 1666 2615 
Q 1494 2509 1414 2295 
Q 1334 2081 1334 1663 
L 1334 0 
L 456 0 
L 456 4581 
L 1334 4581 
z
" transform="scale(0.015625)"/>
      <path id="Arial-BoldMT-61" d="M 1116 2306 
L 319 2450 
Q 453 2931 781 3162 
Q 1109 3394 1756 3394 
Q 2344 3394 2631 3255 
Q 2919 3116 3036 2902 
Q 3153 2688 3153 2116 
L 3144 1091 
Q 3144 653 3186 445 
Q 3228 238 3344 0 
L 2475 0 
Q 2441 88 2391 259 
Q 2369 338 2359 363 
Q 2134 144 1878 34 
Q 1622 -75 1331 -75 
Q 819 -75 523 203 
Q 228 481 228 906 
Q 228 1188 362 1408 
Q 497 1628 739 1745 
Q 981 1863 1438 1950 
Q 2053 2066 2291 2166 
L 2291 2253 
Q 2291 2506 2166 2614 
Q 2041 2722 1694 2722 
Q 1459 2722 1328 2630 
Q 1197 2538 1116 2306 
z
M 2291 1594 
Q 2122 1538 1756 1459 
Q 1391 1381 1278 1306 
Q 1106 1184 1106 997 
Q 1106 813 1243 678 
Q 1381 544 1594 544 
Q 1831 544 2047 700 
Q 2206 819 2256 991 
Q 2291 1103 2291 1419 
L 2291 1594 
z
" transform="scale(0.015625)"/>
      <path id="Arial-BoldMT-6e" d="M 3478 0 
L 2600 0 
L 2600 1694 
Q 2600 2231 2544 2389 
Q 2488 2547 2361 2634 
Q 2234 2722 2056 2722 
Q 1828 2722 1647 2597 
Q 1466 2472 1398 2265 
Q 1331 2059 1331 1503 
L 1331 0 
L 453 0 
L 453 3319 
L 1269 3319 
L 1269 2831 
Q 1703 3394 2363 3394 
Q 2653 3394 2893 3289 
Q 3134 3184 3257 3021 
Q 3381 2859 3429 2653 
Q 3478 2447 3478 2063 
L 3478 0 
z
" transform="scale(0.015625)"/>
      <path id="Arial-BoldMT-65" d="M 2381 1056 
L 3256 909 
Q 3088 428 2723 176 
Q 2359 -75 1813 -75 
Q 947 -75 531 491 
Q 203 944 203 1634 
Q 203 2459 634 2926 
Q 1066 3394 1725 3394 
Q 2466 3394 2894 2905 
Q 3322 2416 3303 1406 
L 1103 1406 
Q 1113 1016 1316 798 
Q 1519 581 1822 581 
Q 2028 581 2168 693 
Q 2309 806 2381 1056 
z
M 2431 1944 
Q 2422 2325 2234 2523 
Q 2047 2722 1778 2722 
Q 1491 2722 1303 2513 
Q 1116 2303 1119 1944 
L 2431 1944 
z
" transform="scale(0.015625)"/>
      <path id="Arial-BoldMT-6c" d="M 459 0 
L 459 4581 
L 1338 4581 
L 1338 0 
L 459 0 
z
" transform="scale(0.015625)"/>
      <path id="Arial-BoldMT-20" transform="scale(0.015625)"/>
      <path id="Arial-BoldMT-32" d="M 3238 816 
L 3238 0 
L 159 0 
Q 209 463 459 877 
Q 709 1291 1447 1975 
Q 2041 2528 2175 2725 
Q 2356 2997 2356 3263 
Q 2356 3556 2198 3714 
Q 2041 3872 1763 3872 
Q 1488 3872 1325 3706 
Q 1163 3541 1138 3156 
L 263 3244 
Q 341 3969 753 4284 
Q 1166 4600 1784 4600 
Q 2463 4600 2850 4234 
Q 3238 3869 3238 3325 
Q 3238 3016 3127 2736 
Q 3016 2456 2775 2150 
Q 2616 1947 2200 1565 
Q 1784 1184 1673 1059 
Q 1563 934 1494 816 
L 3238 816 
z
" transform="scale(0.015625)"/>
      <path id="Arial-BoldMT-2d" d="M 359 1222 
L 359 2100 
L 2084 2100 
L 2084 1222 
L 359 1222 
z
" transform="scale(0.015625)"/>
      <path id="Arial-BoldMT-38" d="M 1025 2472 
Q 684 2616 529 2867 
Q 375 3119 375 3419 
Q 375 3931 733 4265 
Q 1091 4600 1750 4600 
Q 2403 4600 2764 4265 
Q 3125 3931 3125 3419 
Q 3125 3100 2959 2851 
Q 2794 2603 2494 2472 
Q 2875 2319 3073 2025 
Q 3272 1731 3272 1347 
Q 3272 713 2867 316 
Q 2463 -81 1791 -81 
Q 1166 -81 750 247 
Q 259 634 259 1309 
Q 259 1681 443 1992 
Q 628 2303 1025 2472 
z
M 1206 3356 
Q 1206 3094 1354 2947 
Q 1503 2800 1750 2800 
Q 2000 2800 2150 2948 
Q 2300 3097 2300 3359 
Q 2300 3606 2151 3754 
Q 2003 3903 1759 3903 
Q 1506 3903 1356 3753 
Q 1206 3603 1206 3356 
z
M 1125 1394 
Q 1125 1031 1311 828 
Q 1497 625 1775 625 
Q 2047 625 2225 820 
Q 2403 1016 2403 1384 
Q 2403 1706 2222 1901 
Q 2041 2097 1763 2097 
Q 1441 2097 1283 1875 
Q 1125 1653 1125 1394 
z
" transform="scale(0.015625)"/>
      <path id="Arial-BoldMT-6b" d="M 428 0 
L 428 4581 
L 1306 4581 
L 1306 2150 
L 2334 3319 
L 3416 3319 
L 2281 2106 
L 3497 0 
L 2550 0 
L 1716 1491 
L 1306 1063 
L 1306 0 
L 428 0 
z
" transform="scale(0.015625)"/>
      <path id="Arial-BoldMT-48" d="M 469 0 
L 469 4581 
L 1394 4581 
L 1394 2778 
L 3206 2778 
L 3206 4581 
L 4131 4581 
L 4131 0 
L 3206 0 
L 3206 2003 
L 1394 2003 
L 1394 0 
L 469 0 
z
" transform="scale(0.015625)"/>
      <path id="Arial-BoldMT-7a" d="M 106 0 
L 106 684 
L 1350 2113 
Q 1656 2463 1803 2609 
Q 1650 2600 1400 2597 
L 228 2591 
L 228 3319 
L 2972 3319 
L 2972 2697 
L 1703 1234 
L 1256 750 
Q 1622 772 1709 772 
L 3069 772 
L 3069 0 
L 106 0 
z
" transform="scale(0.015625)"/>
      <path id="Arial-BoldMT-57" d="M 1116 0 
L 22 4581 
L 969 4581 
L 1659 1434 
L 2497 4581 
L 3597 4581 
L 4400 1381 
L 5103 4581 
L 6034 4581 
L 4922 0 
L 3941 0 
L 3028 3425 
L 2119 0 
L 1116 0 
z
" transform="scale(0.015625)"/>
      <path id="Arial-BoldMT-34" d="M 1994 0 
L 1994 922 
L 119 922 
L 119 1691 
L 2106 4600 
L 2844 4600 
L 2844 1694 
L 3413 1694 
L 3413 922 
L 2844 922 
L 2844 0 
L 1994 0 
z
M 1994 1694 
L 1994 3259 
L 941 1694 
L 1994 1694 
z
" transform="scale(0.015625)"/>
      <path id="Arial-BoldMT-50" d="M 466 0 
L 466 4581 
L 1950 4581 
Q 2794 4581 3050 4513 
Q 3444 4409 3709 4064 
Q 3975 3719 3975 3172 
Q 3975 2750 3822 2462 
Q 3669 2175 3433 2011 
Q 3197 1847 2953 1794 
Q 2622 1728 1994 1728 
L 1391 1728 
L 1391 0 
L 466 0 
z
M 1391 3806 
L 1391 2506 
L 1897 2506 
Q 2444 2506 2628 2578 
Q 2813 2650 2917 2803 
Q 3022 2956 3022 3159 
Q 3022 3409 2875 3571 
Q 2728 3734 2503 3775 
Q 2338 3806 1838 3806 
L 1391 3806 
z
" transform="scale(0.015625)"/>
     </defs>
     <use xlink:href="#Arial-BoldMT-43"/>
     <use xlink:href="#Arial-BoldMT-68" transform="translate(72.216797 0)"/>
     <use xlink:href="#Arial-BoldMT-61" transform="translate(133.300781 0)"/>
     <use xlink:href="#Arial-BoldMT-6e" transform="translate(188.916016 0)"/>
     <use xlink:href="#Arial-BoldMT-6e" transform="translate(250 0)"/>
     <use xlink:href="#Arial-BoldMT-65" transform="translate(311.083984 0)"/>
     <use xlink:href="#Arial-BoldMT-6c" transform="translate(366.699219 0)"/>
     <use xlink:href="#Arial-BoldMT-20" transform="translate(394.482422 0)"/>
     <use xlink:href="#Arial-BoldMT-32" transform="translate(422.265625 0)"/>
     <use xlink:href="#Arial-BoldMT-20" transform="translate(477.880859 0)"/>
     <use xlink:href="#Arial-BoldMT-2d" transform="translate(505.664062 0)"/>
     <use xlink:href="#Arial-BoldMT-20" transform="translate(538.964844 0)"/>
     <use xlink:href="#Arial-BoldMT-38" transform="translate(566.748047 0)"/>
     <use xlink:href="#Arial-BoldMT-20" transform="translate(622.363281 0)"/>
     <use xlink:href="#Arial-BoldMT-6b" transform="translate(650.146484 0)"/>
     <use xlink:href="#Arial-BoldMT-48" transform="translate(705.761719 0)"/>
     <use xlink:href="#Arial-BoldMT-7a" transform="translate(777.978516 0)"/>
     <use xlink:href="#Arial-BoldMT-20" transform="translate(827.978516 0)"/>
     <use xlink:href="#Arial-BoldMT-2d" transform="translate(855.761719 0)"/>
     <use xlink:href="#Arial-BoldMT-20" transform="translate(889.0625 0)"/>
     <use xlink:href="#Arial-BoldMT-57" transform="translate(916.845703 0)"/>
     <use xlink:href="#Arial-BoldMT-34" transform="translate(1011.230469 0)"/>
     <use xlink:href="#Arial-BoldMT-20" transform="translate(1066.845703 0)"/>
     <use xlink:href="#Arial-BoldMT-50" transform="translate(1094.628906 0)"/>
     <use xlink:href="#Arial-BoldMT-65" transform="translate(1161.328125 0)"/>
     <use xlink:href="#Arial-BoldMT-61" transform="translate(1216.943359 0)"/>
     <use xlink:href="#Arial-BoldMT-6b" transform="translate(1272.558594 0)"/>
    </g>
   </g>
   <g id="legend_1">
    <g id="patch_5">
     <path d="M 276.105625 250.883 
L 396.55 250.883 
Q 398.95 250.883 398.95 248.483 
L 398.95 96.62675 
Q 398.95 94.22675 396.55 94.22675 
L 276.105625 94.22675 
Q 273.705625 94.22675 273.705625 96.62675 
L 273.705625 248.483 
Q 273.705625 250.883 276.105625 250.883 
z
" style="fill: #ffffff; opacity: 0.8; stroke: #cccccc; stroke-linejoin: miter"/>
    </g>
    <g id="line2d_21">
     <path d="M 278.505625 103.562375 
L 290.505625 103.562375 
L 302.505625 103.562375 
" style="fill: none; stroke-dasharray: 5.55,2.4; stroke-dashoffset: 0; stroke: #808080; stroke-width: 1.5"/>
    </g>
    <g id="text_15">
     <!-- 90% probability -->
     <g transform="translate(312.105625 107.762375) scale(0.12 -0.12)">
      <defs>
       <path id="ArialMT-39" d="M 350 1059 
L 891 1109 
Q 959 728 1153 556 
Q 1347 384 1650 384 
Q 1909 384 2104 503 
Q 2300 622 2425 820 
Q 2550 1019 2634 1356 
Q 2719 1694 2719 2044 
Q 2719 2081 2716 2156 
Q 2547 1888 2255 1720 
Q 1963 1553 1622 1553 
Q 1053 1553 659 1965 
Q 266 2378 266 3053 
Q 266 3750 677 4175 
Q 1088 4600 1706 4600 
Q 2153 4600 2523 4359 
Q 2894 4119 3086 3673 
Q 3278 3228 3278 2384 
Q 3278 1506 3087 986 
Q 2897 466 2520 194 
Q 2144 -78 1638 -78 
Q 1100 -78 759 220 
Q 419 519 350 1059 
z
M 2653 3081 
Q 2653 3566 2395 3850 
Q 2138 4134 1775 4134 
Q 1400 4134 1122 3828 
Q 844 3522 844 3034 
Q 844 2597 1108 2323 
Q 1372 2050 1759 2050 
Q 2150 2050 2401 2323 
Q 2653 2597 2653 3081 
z
" transform="scale(0.015625)"/>
       <path id="ArialMT-25" d="M 372 3481 
Q 372 3972 619 4315 
Q 866 4659 1334 4659 
Q 1766 4659 2048 4351 
Q 2331 4044 2331 3447 
Q 2331 2866 2045 2552 
Q 1759 2238 1341 2238 
Q 925 2238 648 2547 
Q 372 2856 372 3481 
z
M 1350 4272 
Q 1141 4272 1002 4090 
Q 863 3909 863 3425 
Q 863 2984 1003 2804 
Q 1144 2625 1350 2625 
Q 1563 2625 1702 2806 
Q 1841 2988 1841 3469 
Q 1841 3913 1700 4092 
Q 1559 4272 1350 4272 
z
M 1353 -169 
L 3859 4659 
L 4316 4659 
L 1819 -169 
L 1353 -169 
z
M 3334 1075 
Q 3334 1569 3581 1911 
Q 3828 2253 4300 2253 
Q 4731 2253 5014 1945 
Q 5297 1638 5297 1041 
Q 5297 459 5011 145 
Q 4725 -169 4303 -169 
Q 3888 -169 3611 142 
Q 3334 453 3334 1075 
z
M 4316 1866 
Q 4103 1866 3964 1684 
Q 3825 1503 3825 1019 
Q 3825 581 3965 400 
Q 4106 219 4313 219 
Q 4528 219 4667 400 
Q 4806 581 4806 1063 
Q 4806 1506 4665 1686 
Q 4525 1866 4316 1866 
z
" transform="scale(0.015625)"/>
       <path id="ArialMT-70" d="M 422 -1272 
L 422 3319 
L 934 3319 
L 934 2888 
Q 1116 3141 1344 3267 
Q 1572 3394 1897 3394 
Q 2322 3394 2647 3175 
Q 2972 2956 3137 2557 
Q 3303 2159 3303 1684 
Q 3303 1175 3120 767 
Q 2938 359 2589 142 
Q 2241 -75 1856 -75 
Q 1575 -75 1351 44 
Q 1128 163 984 344 
L 984 -1272 
L 422 -1272 
z
M 931 1641 
Q 931 1000 1190 694 
Q 1450 388 1819 388 
Q 2194 388 2461 705 
Q 2728 1022 2728 1688 
Q 2728 2322 2467 2637 
Q 2206 2953 1844 2953 
Q 1484 2953 1207 2617 
Q 931 2281 931 1641 
z
" transform="scale(0.015625)"/>
      </defs>
      <use xlink:href="#ArialMT-39"/>
      <use xlink:href="#ArialMT-30" transform="translate(55.615234 0)"/>
      <use xlink:href="#ArialMT-25" transform="translate(111.230469 0)"/>
      <use xlink:href="#ArialMT-20" transform="translate(200.146484 0)"/>
      <use xlink:href="#ArialMT-70" transform="translate(227.929688 0)"/>
      <use xlink:href="#ArialMT-72" transform="translate(283.544922 0)"/>
      <use xlink:href="#ArialMT-6f" transform="translate(316.845703 0)"/>
      <use xlink:href="#ArialMT-62" transform="translate(372.460938 0)"/>
      <use xlink:href="#ArialMT-61" transform="translate(428.076172 0)"/>
      <use xlink:href="#ArialMT-62" transform="translate(483.691406 0)"/>
      <use xlink:href="#ArialMT-69" transform="translate(539.306641 0)"/>
      <use xlink:href="#ArialMT-6c" transform="translate(561.523438 0)"/>
      <use xlink:href="#ArialMT-69" transform="translate(583.740234 0)"/>
      <use xlink:href="#ArialMT-74" transform="translate(605.957031 0)"/>
      <use xlink:href="#ArialMT-79" transform="translate(633.740234 0)"/>
     </g>
    </g>
    <g id="line2d_22">
     <path d="M 278.505625 120.677375 
L 290.505625 120.677375 
L 290.505625 120.677375 
L 302.505625 120.677375 
L 302.505625 120.677375 
" style="fill: none; stroke: #0072bd; stroke-width: 2.5; stroke-linecap: square"/>
    </g>
    <g id="text_16">
     <!-- 80 dB -->
     <g transform="translate(312.105625 124.877375) scale(0.12 -0.12)">
      <defs>
       <path id="ArialMT-42" d="M 469 0 
L 469 4581 
L 2188 4581 
Q 2713 4581 3030 4442 
Q 3347 4303 3526 4014 
Q 3706 3725 3706 3409 
Q 3706 3116 3547 2856 
Q 3388 2597 3066 2438 
Q 3481 2316 3704 2022 
Q 3928 1728 3928 1328 
Q 3928 1006 3792 729 
Q 3656 453 3456 303 
Q 3256 153 2954 76 
Q 2653 0 2216 0 
L 469 0 
z
M 1075 2656 
L 2066 2656 
Q 2469 2656 2644 2709 
Q 2875 2778 2992 2937 
Q 3109 3097 3109 3338 
Q 3109 3566 3000 3739 
Q 2891 3913 2687 3977 
Q 2484 4041 1991 4041 
L 1075 4041 
L 1075 2656 
z
M 1075 541 
L 2216 541 
Q 2509 541 2628 563 
Q 2838 600 2978 687 
Q 3119 775 3209 942 
Q 3300 1109 3300 1328 
Q 3300 1584 3169 1773 
Q 3038 1963 2805 2039 
Q 2572 2116 2134 2116 
L 1075 2116 
L 1075 541 
z
" transform="scale(0.015625)"/>
      </defs>
      <use xlink:href="#ArialMT-38"/>
      <use xlink:href="#ArialMT-30" transform="translate(55.615234 0)"/>
      <use xlink:href="#ArialMT-20" transform="translate(111.230469 0)"/>
      <use xlink:href="#ArialMT-64" transform="translate(139.013672 0)"/>
      <use xlink:href="#ArialMT-42" transform="translate(194.628906 0)"/>
     </g>
    </g>
    <g id="line2d_23">
     <path d="M 278.505625 137.65175 
L 290.505625 137.65175 
L 290.505625 137.65175 
L 302.505625 137.65175 
L 302.505625 137.65175 
" style="fill: none; stroke: #d95319; stroke-width: 2.5; stroke-linecap: square"/>
    </g>
    <g id="text_17">
     <!-- 70 dB -->
     <g transform="translate(312.105625 141.85175) scale(0.12 -0.12)">
      <defs>
       <path id="ArialMT-37" d="M 303 3981 
L 303 4522 
L 3269 4522 
L 3269 4084 
Q 2831 3619 2401 2847 
Q 1972 2075 1738 1259 
Q 1569 684 1522 0 
L 944 0 
Q 953 541 1156 1306 
Q 1359 2072 1739 2783 
Q 2119 3494 2547 3981 
L 303 3981 
z
" transform="scale(0.015625)"/>
      </defs>
      <use xlink:href="#ArialMT-37"/>
      <use xlink:href="#ArialMT-30" transform="translate(55.615234 0)"/>
      <use xlink:href="#ArialMT-20" transform="translate(111.230469 0)"/>
      <use xlink:href="#ArialMT-64" transform="translate(139.013672 0)"/>
      <use xlink:href="#ArialMT-42" transform="translate(194.628906 0)"/>
     </g>
    </g>
    <g id="line2d_24">
     <path d="M 278.505625 154.626125 
L 290.505625 154.626125 
L 290.505625 154.626125 
L 302.505625 154.626125 
L 302.505625 154.626125 
" style="fill: none; stroke: #edb120; stroke-width: 2.5; stroke-linecap: square"/>
    </g>
    <g id="text_18">
     <!-- 60 dB -->
     <g transform="translate(312.105625 158.826125) scale(0.12 -0.12)">
      <use xlink:href="#ArialMT-36"/>
      <use xlink:href="#ArialMT-30" transform="translate(55.615234 0)"/>
      <use xlink:href="#ArialMT-20" transform="translate(111.230469 0)"/>
      <use xlink:href="#ArialMT-64" transform="translate(139.013672 0)"/>
      <use xlink:href="#ArialMT-42" transform="translate(194.628906 0)"/>
     </g>
    </g>
    <g id="line2d_25">
     <path d="M 278.505625 171.6005 
L 290.505625 171.6005 
L 290.505625 171.6005 
L 302.505625 171.6005 
L 302.505625 171.6005 
" style="fill: none; stroke: #7e2f8e; stroke-width: 2.5; stroke-linecap: square"/>
    </g>
    <g id="text_19">
     <!-- 50 dB -->
     <g transform="translate(312.105625 175.8005) scale(0.12 -0.12)">
      <defs>
       <path id="ArialMT-35" d="M 266 1200 
L 856 1250 
Q 922 819 1161 601 
Q 1400 384 1738 384 
Q 2144 384 2425 690 
Q 2706 997 2706 1503 
Q 2706 1984 2436 2262 
Q 2166 2541 1728 2541 
Q 1456 2541 1237 2417 
Q 1019 2294 894 2097 
L 366 2166 
L 809 4519 
L 3088 4519 
L 3088 3981 
L 1259 3981 
L 1013 2750 
Q 1425 3038 1878 3038 
Q 2478 3038 2890 2622 
Q 3303 2206 3303 1553 
Q 3303 931 2941 478 
Q 2500 -78 1738 -78 
Q 1113 -78 717 272 
Q 322 622 266 1200 
z
" transform="scale(0.015625)"/>
      </defs>
      <use xlink:href="#ArialMT-35"/>
      <use xlink:href="#ArialMT-30" transform="translate(55.615234 0)"/>
      <use xlink:href="#ArialMT-20" transform="translate(111.230469 0)"/>
      <use xlink:href="#ArialMT-64" transform="translate(139.013672 0)"/>
      <use xlink:href="#ArialMT-42" transform="translate(194.628906 0)"/>
     </g>
    </g>
    <g id="line2d_26">
     <path d="M 278.505625 188.574875 
L 290.505625 188.574875 
L 290.505625 188.574875 
L 302.505625 188.574875 
L 302.505625 188.574875 
" style="fill: none; stroke: #77ac30; stroke-width: 2.5; stroke-linecap: square"/>
    </g>
    <g id="text_20">
     <!-- 40 dB -->
     <g transform="translate(312.105625 192.774875) scale(0.12 -0.12)">
      <use xlink:href="#ArialMT-34"/>
      <use xlink:href="#ArialMT-30" transform="translate(55.615234 0)"/>
      <use xlink:href="#ArialMT-20" transform="translate(111.230469 0)"/>
      <use xlink:href="#ArialMT-64" transform="translate(139.013672 0)"/>
      <use xlink:href="#ArialMT-42" transform="translate(194.628906 0)"/>
     </g>
    </g>
    <g id="line2d_27">
     <path d="M 278.505625 205.54925 
L 290.505625 205.54925 
L 290.505625 205.54925 
L 302.505625 205.54925 
L 302.505625 205.54925 
" style="fill: none; stroke: #4dbeee; stroke-width: 2.5; stroke-linecap: square"/>
    </g>
    <g id="text_21">
     <!-- 30 dB -->
     <g transform="translate(312.105625 209.74925) scale(0.12 -0.12)">
      <defs>
       <path id="ArialMT-33" d="M 269 1209 
L 831 1284 
Q 928 806 1161 595 
Q 1394 384 1728 384 
Q 2125 384 2398 659 
Q 2672 934 2672 1341 
Q 2672 1728 2419 1979 
Q 2166 2231 1775 2231 
Q 1616 2231 1378 2169 
L 1441 2663 
Q 1497 2656 1531 2656 
Q 1891 2656 2178 2843 
Q 2466 3031 2466 3422 
Q 2466 3731 2256 3934 
Q 2047 4138 1716 4138 
Q 1388 4138 1169 3931 
Q 950 3725 888 3313 
L 325 3413 
Q 428 3978 793 4289 
Q 1159 4600 1703 4600 
Q 2078 4600 2393 4439 
Q 2709 4278 2876 4000 
Q 3044 3722 3044 3409 
Q 3044 3113 2884 2869 
Q 2725 2625 2413 2481 
Q 2819 2388 3044 2092 
Q 3269 1797 3269 1353 
Q 3269 753 2831 336 
Q 2394 -81 1725 -81 
Q 1122 -81 723 278 
Q 325 638 269 1209 
z
" transform="scale(0.015625)"/>
      </defs>
      <use xlink:href="#ArialMT-33"/>
      <use xlink:href="#ArialMT-30" transform="translate(55.615234 0)"/>
      <use xlink:href="#ArialMT-20" transform="translate(111.230469 0)"/>
      <use xlink:href="#ArialMT-64" transform="translate(139.013672 0)"/>
      <use xlink:href="#ArialMT-42" transform="translate(194.628906 0)"/>
     </g>
    </g>
    <g id="line2d_28">
     <path d="M 278.505625 222.523625 
L 290.505625 222.523625 
L 290.505625 222.523625 
L 302.505625 222.523625 
L 302.505625 222.523625 
" style="fill: none; stroke: #a2142f; stroke-width: 2.5; stroke-linecap: square"/>
    </g>
    <g id="text_22">
     <!-- 20 dB -->
     <g transform="translate(312.105625 226.723625) scale(0.12 -0.12)">
      <use xlink:href="#ArialMT-32"/>
      <use xlink:href="#ArialMT-30" transform="translate(55.615234 0)"/>
      <use xlink:href="#ArialMT-20" transform="translate(111.230469 0)"/>
      <use xlink:href="#ArialMT-64" transform="translate(139.013672 0)"/>
      <use xlink:href="#ArialMT-42" transform="translate(194.628906 0)"/>
     </g>
    </g>
    <g id="line2d_29">
     <path d="M 278.505625 239.498 
L 290.505625 239.498 
L 290.505625 239.498 
L 302.505625 239.498 
L 302.505625 239.498 
" style="fill: none; stroke: #008080; stroke-width: 2.5; stroke-linecap: square"/>
    </g>
    <g id="text_23">
     <!-- 10 dB -->
     <g transform="translate(312.105625 243.698) scale(0.12 -0.12)">
      <use xlink:href="#ArialMT-31"/>
      <use xlink:href="#ArialMT-30" transform="translate(55.615234 0)"/>
      <use xlink:href="#ArialMT-20" transform="translate(111.230469 0)"/>
      <use xlink:href="#ArialMT-64" transform="translate(139.013672 0)"/>
      <use xlink:href="#ArialMT-42" transform="translate(194.628906 0)"/>
     </g>
    </g>
   </g>
  </g>
 </g>
 <defs>
  <clipPath id="pd2fc9c59db">
   <rect x="55.26" y="26.943" width="349.69" height="229.94"/>
  </clipPath>
 </defs>
</svg>
