<?xml version="1.0" encoding="utf-8" standalone="no"?>
<!DOCTYPE svg PUBLIC "-//W3C//DTD SVG 1.1//EN"
  "http://www.w3.org/Graphics/SVG/1.1/DTD/svg11.dtd">
<svg xmlns:xlink="http://www.w3.org/1999/xlink" width="520.345pt" height="304.7305pt" viewBox="0 0 520.345 304.7305" xmlns="http://www.w3.org/2000/svg" version="1.1">
 <metadata>
  <rdf:RDF xmlns:dc="http://purl.org/dc/elements/1.1/" xmlns:cc="http://creativecommons.org/ns#" xmlns:rdf="http://www.w3.org/1999/02/22-rdf-syntax-ns#">
   <cc:Work>
    <dc:type rdf:resource="http://purl.org/dc/dcmitype/StillImage"/>
    <dc:date>2026-06-27T11:23:11.755785</dc:date>
    <dc:format>image/svg+xml</dc:format>
    <dc:creator>
     <cc:Agent>
      <dc:title>Matplotlib v3.10.1, https://matplotlib.org/</dc:title>
     </cc:Agent>
    </dc:creator>
   </cc:Work>
  </rdf:RDF>
 </metadata>
 <defs>
  <style type="text/css">*{stroke-linejoin: round; stroke-linecap: butt}</style>
 </defs>
 <g id="figure_1">
  <g id="patch_1">
   <path d="M 0 304.7305 
L 520.345 304.7305 
L 520.345 0 
L 0 0 
L 0 304.7305 
z
" style="fill: none"/>
  </g>
  <g id="axes_1">
   <g id="patch_2">
    <path d="M 55.455 256.883 
L 513.145 256.883 
L 513.145 26.943 
L 55.455 26.943 
L 55.455 256.883 
z
" style="fill: none"/>
   </g>
   <g id="matplotlib.axis_1">
    <g id="xtick_1">
     <g id="line2d_1">
      <defs>
       <path id="m41221207be" d="M 0 0 
L 0 3.5 
" style="stroke: #000000; stroke-width: 0.8"/>
      </defs>
      <g>
       <use xlink:href="#m41221207be" x="64.701263" y="256.883" style="stroke: #000000; stroke-width: 0.8"/>
      </g>
     </g>
     <g id="text_1">
      <!-- 0 -->
      <g transform="translate(60.252513 275.3355) scale(0.16 -0.16)">
       <defs>
        <path id="ArialMT-30" d="M 266 2259 
Q 266 3072 433 3567 
Q 600 4063 929 4331 
Q 1259 4600 1759 4600 
Q 2128 4600 2406 4451 
Q 2684 4303 2865 4023 
Q 3047 3744 3150 3342 
Q 3253 2941 3253 2259 
Q 3253 1453 3087 958 
Q 2922 463 2592 192 
Q 2263 -78 1759 -78 
Q 1097 -78 719 397 
Q 266 969 266 2259 
z
M 844 2259 
Q 844 1131 1108 757 
Q 1372 384 1759 384 
Q 2147 384 2411 759 
Q 2675 1134 2675 2259 
Q 2675 3391 2411 3762 
Q 2147 4134 1753 4134 
Q 1366 4134 1134 3806 
Q 844 3388 844 2259 
z
" transform="scale(0.015625)"/>
       </defs>
       <use xlink:href="#ArialMT-30"/>
      </g>
     </g>
    </g>
    <g id="xtick_2">
     <g id="line2d_2">
      <g>
       <use xlink:href="#m41221207be" x="110.932576" y="256.883" style="stroke: #000000; stroke-width: 0.8"/>
      </g>
     </g>
     <g id="text_2">
      <!-- 10 -->
      <g transform="translate(102.035076 275.3355) scale(0.16 -0.16)">
       <defs>
        <path id="ArialMT-31" d="M 2384 0 
L 1822 0 
L 1822 3584 
Q 1619 3391 1289 3197 
Q 959 3003 697 2906 
L 697 3450 
Q 1169 3672 1522 3987 
Q 1875 4303 2022 4600 
L 2384 4600 
L 2384 0 
z
" transform="scale(0.015625)"/>
       </defs>
       <use xlink:href="#ArialMT-31"/>
       <use xlink:href="#ArialMT-30" transform="translate(55.615234 0)"/>
      </g>
     </g>
    </g>
    <g id="xtick_3">
     <g id="line2d_3">
      <g>
       <use xlink:href="#m41221207be" x="157.163889" y="256.883" style="stroke: #000000; stroke-width: 0.8"/>
      </g>
     </g>
     <g id="text_3">
      <!-- 20 -->
      <g transform="translate(148.266389 275.3355) scale(0.16 -0.16)">
       <defs>
        <path id="ArialMT-32" d="M 3222 541 
L 3222 0 
L 194 0 
Q 188 203 259 391 
Q 375 700 629 1000 
Q 884 1300 1366 1694 
Q 2113 2306 2375 2664 
Q 2638 3022 2638 3341 
Q 2638 3675 2398 3904 
Q 2159 4134 1775 4134 
Q 1369 4134 1125 3890 
Q 881 3647 878 3216 
L 300 3275 
Q 359 3922 746 4261 
Q 1134 4600 1788 4600 
Q 2447 4600 2831 4234 
Q 3216 3869 3216 3328 
Q 3216 3053 3103 2787 
Q 2991 2522 2730 2228 
Q 2469 1934 1863 1422 
Q 1356 997 1212 845 
Q 1069 694 975 541 
L 3222 541 
z
" transform="scale(0.015625)"/>
       </defs>
       <use xlink:href="#ArialMT-32"/>
       <use xlink:href="#ArialMT-30" transform="translate(55.615234 0)"/>
      </g>
     </g>
    </g>
    <g id="xtick_4">
     <g id="line2d_4">
      <g>
       <use xlink:href="#m41221207be" x="203.395202" y="256.883" style="stroke: #000000; stroke-width: 0.8"/>
      </g>
     </g>
     <g id="text_4">
      <!-- 30 -->
      <g transform="translate(194.497702 275.3355) scale(0.16 -0.16)">
       <defs>
        <path id="ArialMT-33" d="M 269 1209 
L 831 1284 
Q 928 806 1161 595 
Q 1394 384 1728 384 
Q 2125 384 2398 659 
Q 2672 934 2672 1341 
Q 2672 1728 2419 1979 
Q 2166 2231 1775 2231 
Q 1616 2231 1378 2169 
L 1441 2663 
Q 1497 2656 1531 2656 
Q 1891 2656 2178 2843 
Q 2466 3031 2466 3422 
Q 2466 3731 2256 3934 
Q 2047 4138 1716 4138 
Q 1388 4138 1169 3931 
Q 950 3725 888 3313 
L 325 3413 
Q 428 3978 793 4289 
Q 1159 4600 1703 4600 
Q 2078 4600 2393 4439 
Q 2709 4278 2876 4000 
Q 3044 3722 3044 3409 
Q 3044 3113 2884 2869 
Q 2725 2625 2413 2481 
Q 2819 2388 3044 2092 
Q 3269 1797 3269 1353 
Q 3269 753 2831 336 
Q 2394 -81 1725 -81 
Q 1122 -81 723 278 
Q 325 638 269 1209 
z
" transform="scale(0.015625)"/>
       </defs>
       <use xlink:href="#ArialMT-33"/>
       <use xlink:href="#ArialMT-30" transform="translate(55.615234 0)"/>
      </g>
     </g>
    </g>
    <g id="xtick_5">
     <g id="line2d_5">
      <g>
       <use xlink:href="#m41221207be" x="249.626515" y="256.883" style="stroke: #000000; stroke-width: 0.8"/>
      </g>
     </g>
     <g id="text_5">
      <!-- 40 -->
      <g transform="translate(240.729015 275.3355) scale(0.16 -0.16)">
       <defs>
        <path id="ArialMT-34" d="M 2069 0 
L 2069 1097 
L 81 1097 
L 81 1613 
L 2172 4581 
L 2631 4581 
L 2631 1613 
L 3250 1613 
L 3250 1097 
L 2631 1097 
L 2631 0 
L 2069 0 
z
M 2069 1613 
L 2069 3678 
L 634 1613 
L 2069 1613 
z
" transform="scale(0.015625)"/>
       </defs>
       <use xlink:href="#ArialMT-34"/>
       <use xlink:href="#ArialMT-30" transform="translate(55.615234 0)"/>
      </g>
     </g>
    </g>
    <g id="xtick_6">
     <g id="line2d_6">
      <g>
       <use xlink:href="#m41221207be" x="295.857828" y="256.883" style="stroke: #000000; stroke-width: 0.8"/>
      </g>
     </g>
     <g id="text_6">
      <!-- 50 -->
      <g transform="translate(286.960328 275.3355) scale(0.16 -0.16)">
       <defs>
        <path id="ArialMT-35" d="M 266 1200 
L 856 1250 
Q 922 819 1161 601 
Q 1400 384 1738 384 
Q 2144 384 2425 690 
Q 2706 997 2706 1503 
Q 2706 1984 2436 2262 
Q 2166 2541 1728 2541 
Q 1456 2541 1237 2417 
Q 1019 2294 894 2097 
L 366 2166 
L 809 4519 
L 3088 4519 
L 3088 3981 
L 1259 3981 
L 1013 2750 
Q 1425 3038 1878 3038 
Q 2478 3038 2890 2622 
Q 3303 2206 3303 1553 
Q 3303 931 2941 478 
Q 2500 -78 1738 -78 
Q 1113 -78 717 272 
Q 322 622 266 1200 
z
" transform="scale(0.015625)"/>
       </defs>
       <use xlink:href="#ArialMT-35"/>
       <use xlink:href="#ArialMT-30" transform="translate(55.615234 0)"/>
      </g>
     </g>
    </g>
    <g id="xtick_7">
     <g id="line2d_7">
      <g>
       <use xlink:href="#m41221207be" x="342.089141" y="256.883" style="stroke: #000000; stroke-width: 0.8"/>
      </g>
     </g>
     <g id="text_7">
      <!-- 60 -->
      <g transform="translate(333.191641 275.3355) scale(0.16 -0.16)">
       <defs>
        <path id="ArialMT-36" d="M 3184 3459 
L 2625 3416 
Q 2550 3747 2413 3897 
Q 2184 4138 1850 4138 
Q 1581 4138 1378 3988 
Q 1113 3794 959 3422 
Q 806 3050 800 2363 
Q 1003 2672 1297 2822 
Q 1591 2972 1913 2972 
Q 2475 2972 2870 2558 
Q 3266 2144 3266 1488 
Q 3266 1056 3080 686 
Q 2894 316 2569 119 
Q 2244 -78 1831 -78 
Q 1128 -78 684 439 
Q 241 956 241 2144 
Q 241 3472 731 4075 
Q 1159 4600 1884 4600 
Q 2425 4600 2770 4297 
Q 3116 3994 3184 3459 
z
M 888 1484 
Q 888 1194 1011 928 
Q 1134 663 1356 523 
Q 1578 384 1822 384 
Q 2178 384 2434 671 
Q 2691 959 2691 1453 
Q 2691 1928 2437 2201 
Q 2184 2475 1800 2475 
Q 1419 2475 1153 2201 
Q 888 1928 888 1484 
z
" transform="scale(0.015625)"/>
       </defs>
       <use xlink:href="#ArialMT-36"/>
       <use xlink:href="#ArialMT-30" transform="translate(55.615234 0)"/>
      </g>
     </g>
    </g>
    <g id="xtick_8">
     <g id="line2d_8">
      <g>
       <use xlink:href="#m41221207be" x="388.320455" y="256.883" style="stroke: #000000; stroke-width: 0.8"/>
      </g>
     </g>
     <g id="text_8">
      <!-- 70 -->
      <g transform="translate(379.422955 275.3355) scale(0.16 -0.16)">
       <defs>
        <path id="ArialMT-37" d="M 303 3981 
L 303 4522 
L 3269 4522 
L 3269 4084 
Q 2831 3619 2401 2847 
Q 1972 2075 1738 1259 
Q 1569 684 1522 0 
L 944 0 
Q 953 541 1156 1306 
Q 1359 2072 1739 2783 
Q 2119 3494 2547 3981 
L 303 3981 
z
" transform="scale(0.015625)"/>
       </defs>
       <use xlink:href="#ArialMT-37"/>
       <use xlink:href="#ArialMT-30" transform="translate(55.615234 0)"/>
      </g>
     </g>
    </g>
    <g id="xtick_9">
     <g id="line2d_9">
      <g>
       <use xlink:href="#m41221207be" x="434.551768" y="256.883" style="stroke: #000000; stroke-width: 0.8"/>
      </g>
     </g>
     <g id="text_9">
      <!-- 80 -->
      <g transform="translate(425.654268 275.3355) scale(0.16 -0.16)">
       <defs>
        <path id="ArialMT-38" d="M 1131 2484 
Q 781 2613 612 2850 
Q 444 3088 444 3419 
Q 444 3919 803 4259 
Q 1163 4600 1759 4600 
Q 2359 4600 2725 4251 
Q 3091 3903 3091 3403 
Q 3091 3084 2923 2848 
Q 2756 2613 2416 2484 
Q 2838 2347 3058 2040 
Q 3278 1734 3278 1309 
Q 3278 722 2862 322 
Q 2447 -78 1769 -78 
Q 1091 -78 675 323 
Q 259 725 259 1325 
Q 259 1772 486 2073 
Q 713 2375 1131 2484 
z
M 1019 3438 
Q 1019 3113 1228 2906 
Q 1438 2700 1772 2700 
Q 2097 2700 2305 2904 
Q 2513 3109 2513 3406 
Q 2513 3716 2298 3927 
Q 2084 4138 1766 4138 
Q 1444 4138 1231 3931 
Q 1019 3725 1019 3438 
z
M 838 1322 
Q 838 1081 952 856 
Q 1066 631 1291 507 
Q 1516 384 1775 384 
Q 2178 384 2440 643 
Q 2703 903 2703 1303 
Q 2703 1709 2433 1975 
Q 2163 2241 1756 2241 
Q 1359 2241 1098 1978 
Q 838 1716 838 1322 
z
" transform="scale(0.015625)"/>
       </defs>
       <use xlink:href="#ArialMT-38"/>
       <use xlink:href="#ArialMT-30" transform="translate(55.615234 0)"/>
      </g>
     </g>
    </g>
    <g id="xtick_10">
     <g id="line2d_10">
      <g>
       <use xlink:href="#m41221207be" x="480.783081" y="256.883" style="stroke: #000000; stroke-width: 0.8"/>
      </g>
     </g>
     <g id="text_10">
      <!-- 90 -->
      <g transform="translate(471.885581 275.3355) scale(0.16 -0.16)">
       <defs>
        <path id="ArialMT-39" d="M 350 1059 
L 891 1109 
Q 959 728 1153 556 
Q 1347 384 1650 384 
Q 1909 384 2104 503 
Q 2300 622 2425 820 
Q 2550 1019 2634 1356 
Q 2719 1694 2719 2044 
Q 2719 2081 2716 2156 
Q 2547 1888 2255 1720 
Q 1963 1553 1622 1553 
Q 1053 1553 659 1965 
Q 266 2378 266 3053 
Q 266 3750 677 4175 
Q 1088 4600 1706 4600 
Q 2153 4600 2523 4359 
Q 2894 4119 3086 3673 
Q 3278 3228 3278 2384 
Q 3278 1506 3087 986 
Q 2897 466 2520 194 
Q 2144 -78 1638 -78 
Q 1100 -78 759 220 
Q 419 519 350 1059 
z
M 2653 3081 
Q 2653 3566 2395 3850 
Q 2138 4134 1775 4134 
Q 1400 4134 1122 3828 
Q 844 3522 844 3034 
Q 844 2597 1108 2323 
Q 1372 2050 1759 2050 
Q 2150 2050 2401 2323 
Q 2653 2597 2653 3081 
z
" transform="scale(0.015625)"/>
       </defs>
       <use xlink:href="#ArialMT-39"/>
       <use xlink:href="#ArialMT-30" transform="translate(55.615234 0)"/>
      </g>
     </g>
    </g>
    <g id="xtick_11">
     <g id="line2d_11">
      <defs>
       <path id="m257c0560c7" d="M 0 0 
L 0 2.5 
" style="stroke: #000000; stroke-width: 0.6"/>
      </defs>
      <g>
       <use xlink:href="#m257c0560c7" x="87.816919" y="256.883" style="stroke: #000000; stroke-width: 0.6"/>
      </g>
     </g>
    </g>
    <g id="xtick_12">
     <g id="line2d_12">
      <g>
       <use xlink:href="#m257c0560c7" x="134.048232" y="256.883" style="stroke: #000000; stroke-width: 0.6"/>
      </g>
     </g>
    </g>
    <g id="xtick_13">
     <g id="line2d_13">
      <g>
       <use xlink:href="#m257c0560c7" x="180.279545" y="256.883" style="stroke: #000000; stroke-width: 0.6"/>
      </g>
     </g>
    </g>
    <g id="xtick_14">
     <g id="line2d_14">
      <g>
       <use xlink:href="#m257c0560c7" x="226.510859" y="256.883" style="stroke: #000000; stroke-width: 0.6"/>
      </g>
     </g>
    </g>
    <g id="xtick_15">
     <g id="line2d_15">
      <g>
       <use xlink:href="#m257c0560c7" x="272.742172" y="256.883" style="stroke: #000000; stroke-width: 0.6"/>
      </g>
     </g>
    </g>
    <g id="xtick_16">
     <g id="line2d_16">
      <g>
       <use xlink:href="#m257c0560c7" x="318.973485" y="256.883" style="stroke: #000000; stroke-width: 0.6"/>
      </g>
     </g>
    </g>
    <g id="xtick_17">
     <g id="line2d_17">
      <g>
       <use xlink:href="#m257c0560c7" x="365.204798" y="256.883" style="stroke: #000000; stroke-width: 0.6"/>
      </g>
     </g>
    </g>
    <g id="xtick_18">
     <g id="line2d_18">
      <g>
       <use xlink:href="#m257c0560c7" x="411.436111" y="256.883" style="stroke: #000000; stroke-width: 0.6"/>
      </g>
     </g>
    </g>
    <g id="xtick_19">
     <g id="line2d_19">
      <g>
       <use xlink:href="#m257c0560c7" x="457.667424" y="256.883" style="stroke: #000000; stroke-width: 0.6"/>
      </g>
     </g>
    </g>
    <g id="xtick_20">
     <g id="line2d_20">
      <g>
       <use xlink:href="#m257c0560c7" x="503.898737" y="256.883" style="stroke: #000000; stroke-width: 0.6"/>
      </g>
     </g>
    </g>
    <g id="text_11">
     <!-- Dataset Removed (%) -->
     <g transform="translate(205.60875 294.163) scale(0.16 -0.16)">
      <defs>
       <path id="ArialMT-44" d="M 494 0 
L 494 4581 
L 2072 4581 
Q 2606 4581 2888 4516 
Q 3281 4425 3559 4188 
Q 3922 3881 4101 3404 
Q 4281 2928 4281 2316 
Q 4281 1794 4159 1391 
Q 4038 988 3847 723 
Q 3656 459 3429 307 
Q 3203 156 2883 78 
Q 2563 0 2147 0 
L 494 0 
z
M 1100 541 
L 2078 541 
Q 2531 541 2789 625 
Q 3047 709 3200 863 
Q 3416 1078 3536 1442 
Q 3656 1806 3656 2325 
Q 3656 3044 3420 3430 
Q 3184 3816 2847 3947 
Q 2603 4041 2063 4041 
L 1100 4041 
L 1100 541 
z
" transform="scale(0.015625)"/>
       <path id="ArialMT-61" d="M 2588 409 
Q 2275 144 1986 34 
Q 1697 -75 1366 -75 
Q 819 -75 525 192 
Q 231 459 231 875 
Q 231 1119 342 1320 
Q 453 1522 633 1644 
Q 813 1766 1038 1828 
Q 1203 1872 1538 1913 
Q 2219 1994 2541 2106 
Q 2544 2222 2544 2253 
Q 2544 2597 2384 2738 
Q 2169 2928 1744 2928 
Q 1347 2928 1158 2789 
Q 969 2650 878 2297 
L 328 2372 
Q 403 2725 575 2942 
Q 747 3159 1072 3276 
Q 1397 3394 1825 3394 
Q 2250 3394 2515 3294 
Q 2781 3194 2906 3042 
Q 3031 2891 3081 2659 
Q 3109 2516 3109 2141 
L 3109 1391 
Q 3109 606 3145 398 
Q 3181 191 3288 0 
L 2700 0 
Q 2613 175 2588 409 
z
M 2541 1666 
Q 2234 1541 1622 1453 
Q 1275 1403 1131 1340 
Q 988 1278 909 1158 
Q 831 1038 831 891 
Q 831 666 1001 516 
Q 1172 366 1500 366 
Q 1825 366 2078 508 
Q 2331 650 2450 897 
Q 2541 1088 2541 1459 
L 2541 1666 
z
" transform="scale(0.015625)"/>
       <path id="ArialMT-74" d="M 1650 503 
L 1731 6 
Q 1494 -44 1306 -44 
Q 1000 -44 831 53 
Q 663 150 594 308 
Q 525 466 525 972 
L 525 2881 
L 113 2881 
L 113 3319 
L 525 3319 
L 525 4141 
L 1084 4478 
L 1084 3319 
L 1650 3319 
L 1650 2881 
L 1084 2881 
L 1084 941 
Q 1084 700 1114 631 
Q 1144 563 1211 522 
Q 1278 481 1403 481 
Q 1497 481 1650 503 
z
" transform="scale(0.015625)"/>
       <path id="ArialMT-73" d="M 197 991 
L 753 1078 
Q 800 744 1014 566 
Q 1228 388 1613 388 
Q 2000 388 2187 545 
Q 2375 703 2375 916 
Q 2375 1106 2209 1216 
Q 2094 1291 1634 1406 
Q 1016 1563 777 1677 
Q 538 1791 414 1992 
Q 291 2194 291 2438 
Q 291 2659 392 2848 
Q 494 3038 669 3163 
Q 800 3259 1026 3326 
Q 1253 3394 1513 3394 
Q 1903 3394 2198 3281 
Q 2494 3169 2634 2976 
Q 2775 2784 2828 2463 
L 2278 2388 
Q 2241 2644 2061 2787 
Q 1881 2931 1553 2931 
Q 1166 2931 1000 2803 
Q 834 2675 834 2503 
Q 834 2394 903 2306 
Q 972 2216 1119 2156 
Q 1203 2125 1616 2013 
Q 2213 1853 2448 1751 
Q 2684 1650 2818 1456 
Q 2953 1263 2953 975 
Q 2953 694 2789 445 
Q 2625 197 2315 61 
Q 2006 -75 1616 -75 
Q 969 -75 630 194 
Q 291 463 197 991 
z
" transform="scale(0.015625)"/>
       <path id="ArialMT-65" d="M 2694 1069 
L 3275 997 
Q 3138 488 2766 206 
Q 2394 -75 1816 -75 
Q 1088 -75 661 373 
Q 234 822 234 1631 
Q 234 2469 665 2931 
Q 1097 3394 1784 3394 
Q 2450 3394 2872 2941 
Q 3294 2488 3294 1666 
Q 3294 1616 3291 1516 
L 816 1516 
Q 847 969 1125 678 
Q 1403 388 1819 388 
Q 2128 388 2347 550 
Q 2566 713 2694 1069 
z
M 847 1978 
L 2700 1978 
Q 2663 2397 2488 2606 
Q 2219 2931 1791 2931 
Q 1403 2931 1139 2672 
Q 875 2413 847 1978 
z
" transform="scale(0.015625)"/>
       <path id="ArialMT-20" transform="scale(0.015625)"/>
       <path id="ArialMT-52" d="M 503 0 
L 503 4581 
L 2534 4581 
Q 3147 4581 3465 4457 
Q 3784 4334 3975 4021 
Q 4166 3709 4166 3331 
Q 4166 2844 3850 2509 
Q 3534 2175 2875 2084 
Q 3116 1969 3241 1856 
Q 3506 1613 3744 1247 
L 4541 0 
L 3778 0 
L 3172 953 
Q 2906 1366 2734 1584 
Q 2563 1803 2427 1890 
Q 2291 1978 2150 2013 
Q 2047 2034 1813 2034 
L 1109 2034 
L 1109 0 
L 503 0 
z
M 1109 2559 
L 2413 2559 
Q 2828 2559 3062 2645 
Q 3297 2731 3419 2920 
Q 3541 3109 3541 3331 
Q 3541 3656 3305 3865 
Q 3069 4075 2559 4075 
L 1109 4075 
L 1109 2559 
z
" transform="scale(0.015625)"/>
       <path id="ArialMT-6d" d="M 422 0 
L 422 3319 
L 925 3319 
L 925 2853 
Q 1081 3097 1340 3245 
Q 1600 3394 1931 3394 
Q 2300 3394 2536 3241 
Q 2772 3088 2869 2813 
Q 3263 3394 3894 3394 
Q 4388 3394 4653 3120 
Q 4919 2847 4919 2278 
L 4919 0 
L 4359 0 
L 4359 2091 
Q 4359 2428 4304 2576 
Q 4250 2725 4106 2815 
Q 3963 2906 3769 2906 
Q 3419 2906 3187 2673 
Q 2956 2441 2956 1928 
L 2956 0 
L 2394 0 
L 2394 2156 
Q 2394 2531 2256 2718 
Q 2119 2906 1806 2906 
Q 1569 2906 1367 2781 
Q 1166 2656 1075 2415 
Q 984 2175 984 1722 
L 984 0 
L 422 0 
z
" transform="scale(0.015625)"/>
       <path id="ArialMT-6f" d="M 213 1659 
Q 213 2581 725 3025 
Q 1153 3394 1769 3394 
Q 2453 3394 2887 2945 
Q 3322 2497 3322 1706 
Q 3322 1066 3130 698 
Q 2938 331 2570 128 
Q 2203 -75 1769 -75 
Q 1072 -75 642 372 
Q 213 819 213 1659 
z
M 791 1659 
Q 791 1022 1069 705 
Q 1347 388 1769 388 
Q 2188 388 2466 706 
Q 2744 1025 2744 1678 
Q 2744 2294 2464 2611 
Q 2184 2928 1769 2928 
Q 1347 2928 1069 2612 
Q 791 2297 791 1659 
z
" transform="scale(0.015625)"/>
       <path id="ArialMT-76" d="M 1344 0 
L 81 3319 
L 675 3319 
L 1388 1331 
Q 1503 1009 1600 663 
Q 1675 925 1809 1294 
L 2547 3319 
L 3125 3319 
L 1869 0 
L 1344 0 
z
" transform="scale(0.015625)"/>
       <path id="ArialMT-64" d="M 2575 0 
L 2575 419 
Q 2259 -75 1647 -75 
Q 1250 -75 917 144 
Q 584 363 401 755 
Q 219 1147 219 1656 
Q 219 2153 384 2558 
Q 550 2963 881 3178 
Q 1213 3394 1622 3394 
Q 1922 3394 2156 3267 
Q 2391 3141 2538 2938 
L 2538 4581 
L 3097 4581 
L 3097 0 
L 2575 0 
z
M 797 1656 
Q 797 1019 1065 703 
Q 1334 388 1700 388 
Q 2069 388 2326 689 
Q 2584 991 2584 1609 
Q 2584 2291 2321 2609 
Q 2059 2928 1675 2928 
Q 1300 2928 1048 2622 
Q 797 2316 797 1656 
z
" transform="scale(0.015625)"/>
       <path id="ArialMT-28" d="M 1497 -1347 
Q 1031 -759 709 28 
Q 388 816 388 1659 
Q 388 2403 628 3084 
Q 909 3875 1497 4659 
L 1900 4659 
Q 1522 4009 1400 3731 
Q 1209 3300 1100 2831 
Q 966 2247 966 1656 
Q 966 153 1900 -1347 
L 1497 -1347 
z
" transform="scale(0.015625)"/>
       <path id="ArialMT-25" d="M 372 3481 
Q 372 3972 619 4315 
Q 866 4659 1334 4659 
Q 1766 4659 2048 4351 
Q 2331 4044 2331 3447 
Q 2331 2866 2045 2552 
Q 1759 2238 1341 2238 
Q 925 2238 648 2547 
Q 372 2856 372 3481 
z
M 1350 4272 
Q 1141 4272 1002 4090 
Q 863 3909 863 3425 
Q 863 2984 1003 2804 
Q 1144 2625 1350 2625 
Q 1563 2625 1702 2806 
Q 1841 2988 1841 3469 
Q 1841 3913 1700 4092 
Q 1559 4272 1350 4272 
z
M 1353 -169 
L 3859 4659 
L 4316 4659 
L 1819 -169 
L 1353 -169 
z
M 3334 1075 
Q 3334 1569 3581 1911 
Q 3828 2253 4300 2253 
Q 4731 2253 5014 1945 
Q 5297 1638 5297 1041 
Q 5297 459 5011 145 
Q 4725 -169 4303 -169 
Q 3888 -169 3611 142 
Q 3334 453 3334 1075 
z
M 4316 1866 
Q 4103 1866 3964 1684 
Q 3825 1503 3825 1019 
Q 3825 581 3965 400 
Q 4106 219 4313 219 
Q 4528 219 4667 400 
Q 4806 581 4806 1063 
Q 4806 1506 4665 1686 
Q 4525 1866 4316 1866 
z
" transform="scale(0.015625)"/>
       <path id="ArialMT-29" d="M 791 -1347 
L 388 -1347 
Q 1322 153 1322 1656 
Q 1322 2244 1188 2822 
Q 1081 3291 891 3722 
Q 769 4003 388 4659 
L 791 4659 
Q 1378 3875 1659 3084 
Q 1900 2403 1900 1659 
Q 1900 816 1576 28 
Q 1253 -759 791 -1347 
z
" transform="scale(0.015625)"/>
      </defs>
      <use xlink:href="#ArialMT-44"/>
      <use xlink:href="#ArialMT-61" transform="translate(72.216797 0)"/>
      <use xlink:href="#ArialMT-74" transform="translate(127.832031 0)"/>
      <use xlink:href="#ArialMT-61" transform="translate(155.615234 0)"/>
      <use xlink:href="#ArialMT-73" transform="translate(211.230469 0)"/>
      <use xlink:href="#ArialMT-65" transform="translate(261.230469 0)"/>
      <use xlink:href="#ArialMT-74" transform="translate(316.845703 0)"/>
      <use xlink:href="#ArialMT-20" transform="translate(344.628906 0)"/>
      <use xlink:href="#ArialMT-52" transform="translate(372.412109 0)"/>
      <use xlink:href="#ArialMT-65" transform="translate(444.628906 0)"/>
      <use xlink:href="#ArialMT-6d" transform="translate(500.244141 0)"/>
      <use xlink:href="#ArialMT-6f" transform="translate(583.544922 0)"/>
      <use xlink:href="#ArialMT-76" transform="translate(639.160156 0)"/>
      <use xlink:href="#ArialMT-65" transform="translate(689.160156 0)"/>
      <use xlink:href="#ArialMT-64" transform="translate(744.775391 0)"/>
      <use xlink:href="#ArialMT-20" transform="translate(800.390625 0)"/>
      <use xlink:href="#ArialMT-28" transform="translate(828.173828 0)"/>
      <use xlink:href="#ArialMT-25" transform="translate(861.474609 0)"/>
      <use xlink:href="#ArialMT-29" transform="translate(950.390625 0)"/>
     </g>
    </g>
   </g>
   <g id="matplotlib.axis_2">
    <g id="ytick_1">
     <g id="line2d_21">
      <defs>
       <path id="m3f55f25f08" d="M 0 0 
L -3.5 0 
" style="stroke: #000000; stroke-width: 0.8"/>
      </defs>
      <g>
       <use xlink:href="#m3f55f25f08" x="55.455" y="233.889" style="stroke: #000000; stroke-width: 0.8"/>
      </g>
     </g>
     <g id="text_12">
      <!-- 0.0 -->
      <g transform="translate(26.215 239.61525) scale(0.16 -0.16)">
       <defs>
        <path id="ArialMT-2e" d="M 581 0 
L 581 641 
L 1222 641 
L 1222 0 
L 581 0 
z
" transform="scale(0.015625)"/>
       </defs>
       <use xlink:href="#ArialMT-30"/>
       <use xlink:href="#ArialMT-2e" transform="translate(55.615234 0)"/>
       <use xlink:href="#ArialMT-30" transform="translate(83.398438 0)"/>
      </g>
     </g>
    </g>
    <g id="ytick_2">
     <g id="line2d_22">
      <g>
       <use xlink:href="#m3f55f25f08" x="55.455" y="187.901" style="stroke: #000000; stroke-width: 0.8"/>
      </g>
     </g>
     <g id="text_13">
      <!-- 0.1 -->
      <g transform="translate(26.215 193.62725) scale(0.16 -0.16)">
       <use xlink:href="#ArialMT-30"/>
       <use xlink:href="#ArialMT-2e" transform="translate(55.615234 0)"/>
       <use xlink:href="#ArialMT-31" transform="translate(83.398438 0)"/>
      </g>
     </g>
    </g>
    <g id="ytick_3">
     <g id="line2d_23">
      <g>
       <use xlink:href="#m3f55f25f08" x="55.455" y="141.913" style="stroke: #000000; stroke-width: 0.8"/>
      </g>
     </g>
     <g id="text_14">
      <!-- 0.2 -->
      <g transform="translate(26.215 147.63925) scale(0.16 -0.16)">
       <use xlink:href="#ArialMT-30"/>
       <use xlink:href="#ArialMT-2e" transform="translate(55.615234 0)"/>
       <use xlink:href="#ArialMT-32" transform="translate(83.398438 0)"/>
      </g>
     </g>
    </g>
    <g id="ytick_4">
     <g id="line2d_24">
      <g>
       <use xlink:href="#m3f55f25f08" x="55.455" y="95.925" style="stroke: #000000; stroke-width: 0.8"/>
      </g>
     </g>
     <g id="text_15">
      <!-- 0.3 -->
      <g transform="translate(26.215 101.65125) scale(0.16 -0.16)">
       <use xlink:href="#ArialMT-30"/>
       <use xlink:href="#ArialMT-2e" transform="translate(55.615234 0)"/>
       <use xlink:href="#ArialMT-33" transform="translate(83.398438 0)"/>
      </g>
     </g>
    </g>
    <g id="ytick_5">
     <g id="line2d_25">
      <g>
       <use xlink:href="#m3f55f25f08" x="55.455" y="49.937" style="stroke: #000000; stroke-width: 0.8"/>
      </g>
     </g>
     <g id="text_16">
      <!-- 0.4 -->
      <g transform="translate(26.215 55.66325) scale(0.16 -0.16)">
       <use xlink:href="#ArialMT-30"/>
       <use xlink:href="#ArialMT-2e" transform="translate(55.615234 0)"/>
       <use xlink:href="#ArialMT-34" transform="translate(83.398438 0)"/>
      </g>
     </g>
    </g>
    <g id="text_17">
     <!-- Mean Absolute Error (ms) -->
     <g transform="translate(18.8475 233.04925) rotate(-90) scale(0.16 -0.16)">
      <defs>
       <path id="ArialMT-4d" d="M 475 0 
L 475 4581 
L 1388 4581 
L 2472 1338 
Q 2622 884 2691 659 
Q 2769 909 2934 1394 
L 4031 4581 
L 4847 4581 
L 4847 0 
L 4263 0 
L 4263 3834 
L 2931 0 
L 2384 0 
L 1059 3900 
L 1059 0 
L 475 0 
z
" transform="scale(0.015625)"/>
       <path id="ArialMT-6e" d="M 422 0 
L 422 3319 
L 928 3319 
L 928 2847 
Q 1294 3394 1984 3394 
Q 2284 3394 2536 3286 
Q 2788 3178 2913 3003 
Q 3038 2828 3088 2588 
Q 3119 2431 3119 2041 
L 3119 0 
L 2556 0 
L 2556 2019 
Q 2556 2363 2490 2533 
Q 2425 2703 2258 2804 
Q 2091 2906 1866 2906 
Q 1506 2906 1245 2678 
Q 984 2450 984 1813 
L 984 0 
L 422 0 
z
" transform="scale(0.015625)"/>
       <path id="ArialMT-41" d="M -9 0 
L 1750 4581 
L 2403 4581 
L 4278 0 
L 3588 0 
L 3053 1388 
L 1138 1388 
L 634 0 
L -9 0 
z
M 1313 1881 
L 2866 1881 
L 2388 3150 
Q 2169 3728 2063 4100 
Q 1975 3659 1816 3225 
L 1313 1881 
z
" transform="scale(0.015625)"/>
       <path id="ArialMT-62" d="M 941 0 
L 419 0 
L 419 4581 
L 981 4581 
L 981 2947 
Q 1338 3394 1891 3394 
Q 2197 3394 2470 3270 
Q 2744 3147 2920 2923 
Q 3097 2700 3197 2384 
Q 3297 2069 3297 1709 
Q 3297 856 2875 390 
Q 2453 -75 1863 -75 
Q 1275 -75 941 416 
L 941 0 
z
M 934 1684 
Q 934 1088 1097 822 
Q 1363 388 1816 388 
Q 2184 388 2453 708 
Q 2722 1028 2722 1663 
Q 2722 2313 2464 2622 
Q 2206 2931 1841 2931 
Q 1472 2931 1203 2611 
Q 934 2291 934 1684 
z
" transform="scale(0.015625)"/>
       <path id="ArialMT-6c" d="M 409 0 
L 409 4581 
L 972 4581 
L 972 0 
L 409 0 
z
" transform="scale(0.015625)"/>
       <path id="ArialMT-75" d="M 2597 0 
L 2597 488 
Q 2209 -75 1544 -75 
Q 1250 -75 995 37 
Q 741 150 617 320 
Q 494 491 444 738 
Q 409 903 409 1263 
L 409 3319 
L 972 3319 
L 972 1478 
Q 972 1038 1006 884 
Q 1059 663 1231 536 
Q 1403 409 1656 409 
Q 1909 409 2131 539 
Q 2353 669 2445 892 
Q 2538 1116 2538 1541 
L 2538 3319 
L 3100 3319 
L 3100 0 
L 2597 0 
z
" transform="scale(0.015625)"/>
       <path id="ArialMT-45" d="M 506 0 
L 506 4581 
L 3819 4581 
L 3819 4041 
L 1113 4041 
L 1113 2638 
L 3647 2638 
L 3647 2100 
L 1113 2100 
L 1113 541 
L 3925 541 
L 3925 0 
L 506 0 
z
" transform="scale(0.015625)"/>
       <path id="ArialMT-72" d="M 416 0 
L 416 3319 
L 922 3319 
L 922 2816 
Q 1116 3169 1280 3281 
Q 1444 3394 1641 3394 
Q 1925 3394 2219 3213 
L 2025 2691 
Q 1819 2813 1613 2813 
Q 1428 2813 1281 2702 
Q 1134 2591 1072 2394 
Q 978 2094 978 1738 
L 978 0 
L 416 0 
z
" transform="scale(0.015625)"/>
      </defs>
      <use xlink:href="#ArialMT-4d"/>
      <use xlink:href="#ArialMT-65" transform="translate(83.300781 0)"/>
      <use xlink:href="#ArialMT-61" transform="translate(138.916016 0)"/>
      <use xlink:href="#ArialMT-6e" transform="translate(194.53125 0)"/>
      <use xlink:href="#ArialMT-20" transform="translate(250.146484 0)"/>
      <use xlink:href="#ArialMT-41" transform="translate(272.429688 0)"/>
      <use xlink:href="#ArialMT-62" transform="translate(339.128906 0)"/>
      <use xlink:href="#ArialMT-73" transform="translate(394.744141 0)"/>
      <use xlink:href="#ArialMT-6f" transform="translate(444.744141 0)"/>
      <use xlink:href="#ArialMT-6c" transform="translate(500.359375 0)"/>
      <use xlink:href="#ArialMT-75" transform="translate(522.576172 0)"/>
      <use xlink:href="#ArialMT-74" transform="translate(578.191406 0)"/>
      <use xlink:href="#ArialMT-65" transform="translate(605.974609 0)"/>
      <use xlink:href="#ArialMT-20" transform="translate(661.589844 0)"/>
      <use xlink:href="#ArialMT-45" transform="translate(689.373047 0)"/>
      <use xlink:href="#ArialMT-72" transform="translate(756.072266 0)"/>
      <use xlink:href="#ArialMT-72" transform="translate(789.373047 0)"/>
      <use xlink:href="#ArialMT-6f" transform="translate(822.673828 0)"/>
      <use xlink:href="#ArialMT-72" transform="translate(878.289062 0)"/>
      <use xlink:href="#ArialMT-20" transform="translate(911.589844 0)"/>
      <use xlink:href="#ArialMT-28" transform="translate(939.373047 0)"/>
      <use xlink:href="#ArialMT-6d" transform="translate(972.673828 0)"/>
      <use xlink:href="#ArialMT-73" transform="translate(1055.974609 0)"/>
      <use xlink:href="#ArialMT-29" transform="translate(1105.974609 0)"/>
     </g>
    </g>
   </g>
   <g id="LineCollection_1">
    <path d="M 64.701263 230.211326 
L 64.701263 229.45697 
" clip-path="url(#pf4d70e59e2)" style="fill: none; stroke: #0072bd; stroke-width: 2.5"/>
    <path d="M 87.816919 230.049156 
L 87.816919 229.440708 
" clip-path="url(#pf4d70e59e2)" style="fill: none; stroke: #0072bd; stroke-width: 2.5"/>
    <path d="M 110.932576 230.045291 
L 110.932576 229.379372 
" clip-path="url(#pf4d70e59e2)" style="fill: none; stroke: #0072bd; stroke-width: 2.5"/>
    <path d="M 134.048232 230.172029 
L 134.048232 229.165842 
" clip-path="url(#pf4d70e59e2)" style="fill: none; stroke: #0072bd; stroke-width: 2.5"/>
    <path d="M 157.163889 230.176611 
L 157.163889 228.967777 
" clip-path="url(#pf4d70e59e2)" style="fill: none; stroke: #0072bd; stroke-width: 2.5"/>
    <path d="M 180.279545 230.43902 
L 180.279545 229.528952 
" clip-path="url(#pf4d70e59e2)" style="fill: none; stroke: #0072bd; stroke-width: 2.5"/>
    <path d="M 203.395202 230.562741 
L 203.395202 229.393107 
" clip-path="url(#pf4d70e59e2)" style="fill: none; stroke: #0072bd; stroke-width: 2.5"/>
    <path d="M 226.510859 230.411158 
L 226.510859 229.099355 
" clip-path="url(#pf4d70e59e2)" style="fill: none; stroke: #0072bd; stroke-width: 2.5"/>
    <path d="M 249.626515 230.491343 
L 249.626515 229.295873 
" clip-path="url(#pf4d70e59e2)" style="fill: none; stroke: #0072bd; stroke-width: 2.5"/>
    <path d="M 272.742172 230.406646 
L 272.742172 228.724425 
" clip-path="url(#pf4d70e59e2)" style="fill: none; stroke: #0072bd; stroke-width: 2.5"/>
    <path d="M 295.857828 230.628636 
L 295.857828 228.914897 
" clip-path="url(#pf4d70e59e2)" style="fill: none; stroke: #0072bd; stroke-width: 2.5"/>
    <path d="M 318.973485 230.112339 
L 318.973485 228.221 
" clip-path="url(#pf4d70e59e2)" style="fill: none; stroke: #0072bd; stroke-width: 2.5"/>
    <path d="M 342.089141 230.640045 
L 342.089141 228.790595 
" clip-path="url(#pf4d70e59e2)" style="fill: none; stroke: #0072bd; stroke-width: 2.5"/>
    <path d="M 365.204798 231.176245 
L 365.204798 228.16473 
" clip-path="url(#pf4d70e59e2)" style="fill: none; stroke: #0072bd; stroke-width: 2.5"/>
    <path d="M 388.320455 231.039231 
L 388.320455 227.610228 
" clip-path="url(#pf4d70e59e2)" style="fill: none; stroke: #0072bd; stroke-width: 2.5"/>
    <path d="M 411.436111 230.936695 
L 411.436111 226.993545 
" clip-path="url(#pf4d70e59e2)" style="fill: none; stroke: #0072bd; stroke-width: 2.5"/>
    <path d="M 434.551768 230.736874 
L 434.551768 228.507094 
" clip-path="url(#pf4d70e59e2)" style="fill: none; stroke: #0072bd; stroke-width: 2.5"/>
    <path d="M 457.667424 229.14625 
L 457.667424 225.248492 
" clip-path="url(#pf4d70e59e2)" style="fill: none; stroke: #0072bd; stroke-width: 2.5"/>
    <path d="M 480.783081 229.314981 
L 480.783081 222.063258 
" clip-path="url(#pf4d70e59e2)" style="fill: none; stroke: #0072bd; stroke-width: 2.5"/>
    <path d="M 503.898737 219.438858 
L 503.898737 193.43617 
" clip-path="url(#pf4d70e59e2)" style="fill: none; stroke: #0072bd; stroke-width: 2.5"/>
   </g>
   <g id="line2d_26">
    <defs>
     <path id="m5ebc8f4e50" d="M 4 0 
L -4 -0 
" style="stroke: #0072bd; stroke-width: 2.5"/>
    </defs>
    <g clip-path="url(#pf4d70e59e2)">
     <use xlink:href="#m5ebc8f4e50" x="64.701263" y="230.211326" style="fill: #0072bd; stroke: #0072bd; stroke-width: 2.5"/>
     <use xlink:href="#m5ebc8f4e50" x="87.816919" y="230.049156" style="fill: #0072bd; stroke: #0072bd; stroke-width: 2.5"/>
     <use xlink:href="#m5ebc8f4e50" x="110.932576" y="230.045291" style="fill: #0072bd; stroke: #0072bd; stroke-width: 2.5"/>
     <use xlink:href="#m5ebc8f4e50" x="134.048232" y="230.172029" style="fill: #0072bd; stroke: #0072bd; stroke-width: 2.5"/>
     <use xlink:href="#m5ebc8f4e50" x="157.163889" y="230.176611" style="fill: #0072bd; stroke: #0072bd; stroke-width: 2.5"/>
     <use xlink:href="#m5ebc8f4e50" x="180.279545" y="230.43902" style="fill: #0072bd; stroke: #0072bd; stroke-width: 2.5"/>
     <use xlink:href="#m5ebc8f4e50" x="203.395202" y="230.562741" style="fill: #0072bd; stroke: #0072bd; stroke-width: 2.5"/>
     <use xlink:href="#m5ebc8f4e50" x="226.510859" y="230.411158" style="fill: #0072bd; stroke: #0072bd; stroke-width: 2.5"/>
     <use xlink:href="#m5ebc8f4e50" x="249.626515" y="230.491343" style="fill: #0072bd; stroke: #0072bd; stroke-width: 2.5"/>
     <use xlink:href="#m5ebc8f4e50" x="272.742172" y="230.406646" style="fill: #0072bd; stroke: #0072bd; stroke-width: 2.5"/>
     <use xlink:href="#m5ebc8f4e50" x="295.857828" y="230.628636" style="fill: #0072bd; stroke: #0072bd; stroke-width: 2.5"/>
     <use xlink:href="#m5ebc8f4e50" x="318.973485" y="230.112339" style="fill: #0072bd; stroke: #0072bd; stroke-width: 2.5"/>
     <use xlink:href="#m5ebc8f4e50" x="342.089141" y="230.640045" style="fill: #0072bd; stroke: #0072bd; stroke-width: 2.5"/>
     <use xlink:href="#m5ebc8f4e50" x="365.204798" y="231.176245" style="fill: #0072bd; stroke: #0072bd; stroke-width: 2.5"/>
     <use xlink:href="#m5ebc8f4e50" x="388.320455" y="231.039231" style="fill: #0072bd; stroke: #0072bd; stroke-width: 2.5"/>
     <use xlink:href="#m5ebc8f4e50" x="411.436111" y="230.936695" style="fill: #0072bd; stroke: #0072bd; stroke-width: 2.5"/>
     <use xlink:href="#m5ebc8f4e50" x="434.551768" y="230.736874" style="fill: #0072bd; stroke: #0072bd; stroke-width: 2.5"/>
     <use xlink:href="#m5ebc8f4e50" x="457.667424" y="229.14625" style="fill: #0072bd; stroke: #0072bd; stroke-width: 2.5"/>
     <use xlink:href="#m5ebc8f4e50" x="480.783081" y="229.314981" style="fill: #0072bd; stroke: #0072bd; stroke-width: 2.5"/>
     <use xlink:href="#m5ebc8f4e50" x="503.898737" y="219.438858" style="fill: #0072bd; stroke: #0072bd; stroke-width: 2.5"/>
    </g>
   </g>
   <g id="line2d_27">
    <g clip-path="url(#pf4d70e59e2)">
     <use xlink:href="#m5ebc8f4e50" x="64.701263" y="229.45697" style="fill: #0072bd; stroke: #0072bd; stroke-width: 2.5"/>
     <use xlink:href="#m5ebc8f4e50" x="87.816919" y="229.440708" style="fill: #0072bd; stroke: #0072bd; stroke-width: 2.5"/>
     <use xlink:href="#m5ebc8f4e50" x="110.932576" y="229.379372" style="fill: #0072bd; stroke: #0072bd; stroke-width: 2.5"/>
     <use xlink:href="#m5ebc8f4e50" x="134.048232" y="229.165842" style="fill: #0072bd; stroke: #0072bd; stroke-width: 2.5"/>
     <use xlink:href="#m5ebc8f4e50" x="157.163889" y="228.967777" style="fill: #0072bd; stroke: #0072bd; stroke-width: 2.5"/>
     <use xlink:href="#m5ebc8f4e50" x="180.279545" y="229.528952" style="fill: #0072bd; stroke: #0072bd; stroke-width: 2.5"/>
     <use xlink:href="#m5ebc8f4e50" x="203.395202" y="229.393107" style="fill: #0072bd; stroke: #0072bd; stroke-width: 2.5"/>
     <use xlink:href="#m5ebc8f4e50" x="226.510859" y="229.099355" style="fill: #0072bd; stroke: #0072bd; stroke-width: 2.5"/>
     <use xlink:href="#m5ebc8f4e50" x="249.626515" y="229.295873" style="fill: #0072bd; stroke: #0072bd; stroke-width: 2.5"/>
     <use xlink:href="#m5ebc8f4e50" x="272.742172" y="228.724425" style="fill: #0072bd; stroke: #0072bd; stroke-width: 2.5"/>
     <use xlink:href="#m5ebc8f4e50" x="295.857828" y="228.914897" style="fill: #0072bd; stroke: #0072bd; stroke-width: 2.5"/>
     <use xlink:href="#m5ebc8f4e50" x="318.973485" y="228.221" style="fill: #0072bd; stroke: #0072bd; stroke-width: 2.5"/>
     <use xlink:href="#m5ebc8f4e50" x="342.089141" y="228.790595" style="fill: #0072bd; stroke: #0072bd; stroke-width: 2.5"/>
     <use xlink:href="#m5ebc8f4e50" x="365.204798" y="228.16473" style="fill: #0072bd; stroke: #0072bd; stroke-width: 2.5"/>
     <use xlink:href="#m5ebc8f4e50" x="388.320455" y="227.610228" style="fill: #0072bd; stroke: #0072bd; stroke-width: 2.5"/>
     <use xlink:href="#m5ebc8f4e50" x="411.436111" y="226.993545" style="fill: #0072bd; stroke: #0072bd; stroke-width: 2.5"/>
     <use xlink:href="#m5ebc8f4e50" x="434.551768" y="228.507094" style="fill: #0072bd; stroke: #0072bd; stroke-width: 2.5"/>
     <use xlink:href="#m5ebc8f4e50" x="457.667424" y="225.248492" style="fill: #0072bd; stroke: #0072bd; stroke-width: 2.5"/>
     <use xlink:href="#m5ebc8f4e50" x="480.783081" y="222.063258" style="fill: #0072bd; stroke: #0072bd; stroke-width: 2.5"/>
     <use xlink:href="#m5ebc8f4e50" x="503.898737" y="193.43617" style="fill: #0072bd; stroke: #0072bd; stroke-width: 2.5"/>
    </g>
   </g>
   <g id="LineCollection_2">
    <path d="M 64.701263 231.179621 
L 64.701263 230.599329 
" clip-path="url(#pf4d70e59e2)" style="fill: none; stroke: #d95319; stroke-width: 2.5"/>
    <path d="M 87.816919 231.197658 
L 87.816919 230.509671 
" clip-path="url(#pf4d70e59e2)" style="fill: none; stroke: #d95319; stroke-width: 2.5"/>
    <path d="M 110.932576 231.160006 
L 110.932576 230.366879 
" clip-path="url(#pf4d70e59e2)" style="fill: none; stroke: #d95319; stroke-width: 2.5"/>
    <path d="M 134.048232 231.296764 
L 134.048232 230.433999 
" clip-path="url(#pf4d70e59e2)" style="fill: none; stroke: #d95319; stroke-width: 2.5"/>
    <path d="M 157.163889 231.189207 
L 157.163889 229.758237 
" clip-path="url(#pf4d70e59e2)" style="fill: none; stroke: #d95319; stroke-width: 2.5"/>
    <path d="M 180.279545 231.28494 
L 180.279545 230.649131 
" clip-path="url(#pf4d70e59e2)" style="fill: none; stroke: #d95319; stroke-width: 2.5"/>
    <path d="M 203.395202 231.538518 
L 203.395202 230.478561 
" clip-path="url(#pf4d70e59e2)" style="fill: none; stroke: #d95319; stroke-width: 2.5"/>
    <path d="M 226.510859 231.006445 
L 226.510859 230.342186 
" clip-path="url(#pf4d70e59e2)" style="fill: none; stroke: #d95319; stroke-width: 2.5"/>
    <path d="M 249.626515 231.343106 
L 249.626515 230.06902 
" clip-path="url(#pf4d70e59e2)" style="fill: none; stroke: #d95319; stroke-width: 2.5"/>
    <path d="M 272.742172 231.332245 
L 272.742172 230.360613 
" clip-path="url(#pf4d70e59e2)" style="fill: none; stroke: #d95319; stroke-width: 2.5"/>
    <path d="M 295.857828 231.189315 
L 295.857828 229.940603 
" clip-path="url(#pf4d70e59e2)" style="fill: none; stroke: #d95319; stroke-width: 2.5"/>
    <path d="M 318.973485 230.969332 
L 318.973485 228.963955 
" clip-path="url(#pf4d70e59e2)" style="fill: none; stroke: #d95319; stroke-width: 2.5"/>
    <path d="M 342.089141 231.522659 
L 342.089141 229.760391 
" clip-path="url(#pf4d70e59e2)" style="fill: none; stroke: #d95319; stroke-width: 2.5"/>
    <path d="M 365.204798 231.807024 
L 365.204798 229.60561 
" clip-path="url(#pf4d70e59e2)" style="fill: none; stroke: #d95319; stroke-width: 2.5"/>
    <path d="M 388.320455 231.79133 
L 388.320455 229.07989 
" clip-path="url(#pf4d70e59e2)" style="fill: none; stroke: #d95319; stroke-width: 2.5"/>
    <path d="M 411.436111 232.309587 
L 411.436111 228.634521 
" clip-path="url(#pf4d70e59e2)" style="fill: none; stroke: #d95319; stroke-width: 2.5"/>
    <path d="M 434.551768 231.010227 
L 434.551768 229.246253 
" clip-path="url(#pf4d70e59e2)" style="fill: none; stroke: #d95319; stroke-width: 2.5"/>
    <path d="M 457.667424 230.598128 
L 457.667424 226.712127 
" clip-path="url(#pf4d70e59e2)" style="fill: none; stroke: #d95319; stroke-width: 2.5"/>
    <path d="M 480.783081 229.583522 
L 480.783081 226.523644 
" clip-path="url(#pf4d70e59e2)" style="fill: none; stroke: #d95319; stroke-width: 2.5"/>
    <path d="M 503.898737 221.740766 
L 503.898737 198.062996 
" clip-path="url(#pf4d70e59e2)" style="fill: none; stroke: #d95319; stroke-width: 2.5"/>
   </g>
   <g id="line2d_28">
    <defs>
     <path id="m091bce7005" d="M 4 0 
L -4 -0 
" style="stroke: #d95319; stroke-width: 2.5"/>
    </defs>
    <g clip-path="url(#pf4d70e59e2)">
     <use xlink:href="#m091bce7005" x="64.701263" y="231.179621" style="fill: #d95319; stroke: #d95319; stroke-width: 2.5"/>
     <use xlink:href="#m091bce7005" x="87.816919" y="231.197658" style="fill: #d95319; stroke: #d95319; stroke-width: 2.5"/>
     <use xlink:href="#m091bce7005" x="110.932576" y="231.160006" style="fill: #d95319; stroke: #d95319; stroke-width: 2.5"/>
     <use xlink:href="#m091bce7005" x="134.048232" y="231.296764" style="fill: #d95319; stroke: #d95319; stroke-width: 2.5"/>
     <use xlink:href="#m091bce7005" x="157.163889" y="231.189207" style="fill: #d95319; stroke: #d95319; stroke-width: 2.5"/>
     <use xlink:href="#m091bce7005" x="180.279545" y="231.28494" style="fill: #d95319; stroke: #d95319; stroke-width: 2.5"/>
     <use xlink:href="#m091bce7005" x="203.395202" y="231.538518" style="fill: #d95319; stroke: #d95319; stroke-width: 2.5"/>
     <use xlink:href="#m091bce7005" x="226.510859" y="231.006445" style="fill: #d95319; stroke: #d95319; stroke-width: 2.5"/>
     <use xlink:href="#m091bce7005" x="249.626515" y="231.343106" style="fill: #d95319; stroke: #d95319; stroke-width: 2.5"/>
     <use xlink:href="#m091bce7005" x="272.742172" y="231.332245" style="fill: #d95319; stroke: #d95319; stroke-width: 2.5"/>
     <use xlink:href="#m091bce7005" x="295.857828" y="231.189315" style="fill: #d95319; stroke: #d95319; stroke-width: 2.5"/>
     <use xlink:href="#m091bce7005" x="318.973485" y="230.969332" style="fill: #d95319; stroke: #d95319; stroke-width: 2.5"/>
     <use xlink:href="#m091bce7005" x="342.089141" y="231.522659" style="fill: #d95319; stroke: #d95319; stroke-width: 2.5"/>
     <use xlink:href="#m091bce7005" x="365.204798" y="231.807024" style="fill: #d95319; stroke: #d95319; stroke-width: 2.5"/>
     <use xlink:href="#m091bce7005" x="388.320455" y="231.79133" style="fill: #d95319; stroke: #d95319; stroke-width: 2.5"/>
     <use xlink:href="#m091bce7005" x="411.436111" y="232.309587" style="fill: #d95319; stroke: #d95319; stroke-width: 2.5"/>
     <use xlink:href="#m091bce7005" x="434.551768" y="231.010227" style="fill: #d95319; stroke: #d95319; stroke-width: 2.5"/>
     <use xlink:href="#m091bce7005" x="457.667424" y="230.598128" style="fill: #d95319; stroke: #d95319; stroke-width: 2.5"/>
     <use xlink:href="#m091bce7005" x="480.783081" y="229.583522" style="fill: #d95319; stroke: #d95319; stroke-width: 2.5"/>
     <use xlink:href="#m091bce7005" x="503.898737" y="221.740766" style="fill: #d95319; stroke: #d95319; stroke-width: 2.5"/>
    </g>
   </g>
   <g id="line2d_29">
    <g clip-path="url(#pf4d70e59e2)">
     <use xlink:href="#m091bce7005" x="64.701263" y="230.599329" style="fill: #d95319; stroke: #d95319; stroke-width: 2.5"/>
     <use xlink:href="#m091bce7005" x="87.816919" y="230.509671" style="fill: #d95319; stroke: #d95319; stroke-width: 2.5"/>
     <use xlink:href="#m091bce7005" x="110.932576" y="230.366879" style="fill: #d95319; stroke: #d95319; stroke-width: 2.5"/>
     <use xlink:href="#m091bce7005" x="134.048232" y="230.433999" style="fill: #d95319; stroke: #d95319; stroke-width: 2.5"/>
     <use xlink:href="#m091bce7005" x="157.163889" y="229.758237" style="fill: #d95319; stroke: #d95319; stroke-width: 2.5"/>
     <use xlink:href="#m091bce7005" x="180.279545" y="230.649131" style="fill: #d95319; stroke: #d95319; stroke-width: 2.5"/>
     <use xlink:href="#m091bce7005" x="203.395202" y="230.478561" style="fill: #d95319; stroke: #d95319; stroke-width: 2.5"/>
     <use xlink:href="#m091bce7005" x="226.510859" y="230.342186" style="fill: #d95319; stroke: #d95319; stroke-width: 2.5"/>
     <use xlink:href="#m091bce7005" x="249.626515" y="230.06902" style="fill: #d95319; stroke: #d95319; stroke-width: 2.5"/>
     <use xlink:href="#m091bce7005" x="272.742172" y="230.360613" style="fill: #d95319; stroke: #d95319; stroke-width: 2.5"/>
     <use xlink:href="#m091bce7005" x="295.857828" y="229.940603" style="fill: #d95319; stroke: #d95319; stroke-width: 2.5"/>
     <use xlink:href="#m091bce7005" x="318.973485" y="228.963955" style="fill: #d95319; stroke: #d95319; stroke-width: 2.5"/>
     <use xlink:href="#m091bce7005" x="342.089141" y="229.760391" style="fill: #d95319; stroke: #d95319; stroke-width: 2.5"/>
     <use xlink:href="#m091bce7005" x="365.204798" y="229.60561" style="fill: #d95319; stroke: #d95319; stroke-width: 2.5"/>
     <use xlink:href="#m091bce7005" x="388.320455" y="229.07989" style="fill: #d95319; stroke: #d95319; stroke-width: 2.5"/>
     <use xlink:href="#m091bce7005" x="411.436111" y="228.634521" style="fill: #d95319; stroke: #d95319; stroke-width: 2.5"/>
     <use xlink:href="#m091bce7005" x="434.551768" y="229.246253" style="fill: #d95319; stroke: #d95319; stroke-width: 2.5"/>
     <use xlink:href="#m091bce7005" x="457.667424" y="226.712127" style="fill: #d95319; stroke: #d95319; stroke-width: 2.5"/>
     <use xlink:href="#m091bce7005" x="480.783081" y="226.523644" style="fill: #d95319; stroke: #d95319; stroke-width: 2.5"/>
     <use xlink:href="#m091bce7005" x="503.898737" y="198.062996" style="fill: #d95319; stroke: #d95319; stroke-width: 2.5"/>
    </g>
   </g>
   <g id="LineCollection_3">
    <path d="M 64.701263 233.131159 
L 64.701263 232.728303 
" clip-path="url(#pf4d70e59e2)" style="fill: none; stroke: #edb120; stroke-width: 2.5"/>
    <path d="M 87.816919 233.198042 
L 87.816919 232.710141 
" clip-path="url(#pf4d70e59e2)" style="fill: none; stroke: #edb120; stroke-width: 2.5"/>
    <path d="M 110.932576 233.159892 
L 110.932576 232.773181 
" clip-path="url(#pf4d70e59e2)" style="fill: none; stroke: #edb120; stroke-width: 2.5"/>
    <path d="M 134.048232 232.971163 
L 134.048232 232.327268 
" clip-path="url(#pf4d70e59e2)" style="fill: none; stroke: #edb120; stroke-width: 2.5"/>
    <path d="M 157.163889 233.075606 
L 157.163889 232.323544 
" clip-path="url(#pf4d70e59e2)" style="fill: none; stroke: #edb120; stroke-width: 2.5"/>
    <path d="M 180.279545 233.184416 
L 180.279545 232.525759 
" clip-path="url(#pf4d70e59e2)" style="fill: none; stroke: #edb120; stroke-width: 2.5"/>
    <path d="M 203.395202 233.19824 
L 203.395202 232.424582 
" clip-path="url(#pf4d70e59e2)" style="fill: none; stroke: #edb120; stroke-width: 2.5"/>
    <path d="M 226.510859 233.048306 
L 226.510859 232.510996 
" clip-path="url(#pf4d70e59e2)" style="fill: none; stroke: #edb120; stroke-width: 2.5"/>
    <path d="M 249.626515 233.042106 
L 249.626515 232.238226 
" clip-path="url(#pf4d70e59e2)" style="fill: none; stroke: #edb120; stroke-width: 2.5"/>
    <path d="M 272.742172 233.310424 
L 272.742172 232.147376 
" clip-path="url(#pf4d70e59e2)" style="fill: none; stroke: #edb120; stroke-width: 2.5"/>
    <path d="M 295.857828 233.173618 
L 295.857828 232.344508 
" clip-path="url(#pf4d70e59e2)" style="fill: none; stroke: #edb120; stroke-width: 2.5"/>
    <path d="M 318.973485 233.323414 
L 318.973485 231.737308 
" clip-path="url(#pf4d70e59e2)" style="fill: none; stroke: #edb120; stroke-width: 2.5"/>
    <path d="M 342.089141 232.926069 
L 342.089141 231.940061 
" clip-path="url(#pf4d70e59e2)" style="fill: none; stroke: #edb120; stroke-width: 2.5"/>
    <path d="M 365.204798 233.355244 
L 365.204798 231.813445 
" clip-path="url(#pf4d70e59e2)" style="fill: none; stroke: #edb120; stroke-width: 2.5"/>
    <path d="M 388.320455 233.397533 
L 388.320455 232.207005 
" clip-path="url(#pf4d70e59e2)" style="fill: none; stroke: #edb120; stroke-width: 2.5"/>
    <path d="M 411.436111 234.04262 
L 411.436111 231.10088 
" clip-path="url(#pf4d70e59e2)" style="fill: none; stroke: #edb120; stroke-width: 2.5"/>
    <path d="M 434.551768 233.083001 
L 434.551768 231.269552 
" clip-path="url(#pf4d70e59e2)" style="fill: none; stroke: #edb120; stroke-width: 2.5"/>
    <path d="M 457.667424 232.079007 
L 457.667424 230.280706 
" clip-path="url(#pf4d70e59e2)" style="fill: none; stroke: #edb120; stroke-width: 2.5"/>
    <path d="M 480.783081 230.030113 
L 480.783081 227.526029 
" clip-path="url(#pf4d70e59e2)" style="fill: none; stroke: #edb120; stroke-width: 2.5"/>
    <path d="M 503.898737 215.104994 
L 503.898737 183.780841 
" clip-path="url(#pf4d70e59e2)" style="fill: none; stroke: #edb120; stroke-width: 2.5"/>
   </g>
   <g id="line2d_30">
    <defs>
     <path id="medfd381140" d="M 4 0 
L -4 -0 
" style="stroke: #edb120; stroke-width: 2.5"/>
    </defs>
    <g clip-path="url(#pf4d70e59e2)">
     <use xlink:href="#medfd381140" x="64.701263" y="233.131159" style="fill: #edb120; stroke: #edb120; stroke-width: 2.5"/>
     <use xlink:href="#medfd381140" x="87.816919" y="233.198042" style="fill: #edb120; stroke: #edb120; stroke-width: 2.5"/>
     <use xlink:href="#medfd381140" x="110.932576" y="233.159892" style="fill: #edb120; stroke: #edb120; stroke-width: 2.5"/>
     <use xlink:href="#medfd381140" x="134.048232" y="232.971163" style="fill: #edb120; stroke: #edb120; stroke-width: 2.5"/>
     <use xlink:href="#medfd381140" x="157.163889" y="233.075606" style="fill: #edb120; stroke: #edb120; stroke-width: 2.5"/>
     <use xlink:href="#medfd381140" x="180.279545" y="233.184416" style="fill: #edb120; stroke: #edb120; stroke-width: 2.5"/>
     <use xlink:href="#medfd381140" x="203.395202" y="233.19824" style="fill: #edb120; stroke: #edb120; stroke-width: 2.5"/>
     <use xlink:href="#medfd381140" x="226.510859" y="233.048306" style="fill: #edb120; stroke: #edb120; stroke-width: 2.5"/>
     <use xlink:href="#medfd381140" x="249.626515" y="233.042106" style="fill: #edb120; stroke: #edb120; stroke-width: 2.5"/>
     <use xlink:href="#medfd381140" x="272.742172" y="233.310424" style="fill: #edb120; stroke: #edb120; stroke-width: 2.5"/>
     <use xlink:href="#medfd381140" x="295.857828" y="233.173618" style="fill: #edb120; stroke: #edb120; stroke-width: 2.5"/>
     <use xlink:href="#medfd381140" x="318.973485" y="233.323414" style="fill: #edb120; stroke: #edb120; stroke-width: 2.5"/>
     <use xlink:href="#medfd381140" x="342.089141" y="232.926069" style="fill: #edb120; stroke: #edb120; stroke-width: 2.5"/>
     <use xlink:href="#medfd381140" x="365.204798" y="233.355244" style="fill: #edb120; stroke: #edb120; stroke-width: 2.5"/>
     <use xlink:href="#medfd381140" x="388.320455" y="233.397533" style="fill: #edb120; stroke: #edb120; stroke-width: 2.5"/>
     <use xlink:href="#medfd381140" x="411.436111" y="234.04262" style="fill: #edb120; stroke: #edb120; stroke-width: 2.5"/>
     <use xlink:href="#medfd381140" x="434.551768" y="233.083001" style="fill: #edb120; stroke: #edb120; stroke-width: 2.5"/>
     <use xlink:href="#medfd381140" x="457.667424" y="232.079007" style="fill: #edb120; stroke: #edb120; stroke-width: 2.5"/>
     <use xlink:href="#medfd381140" x="480.783081" y="230.030113" style="fill: #edb120; stroke: #edb120; stroke-width: 2.5"/>
     <use xlink:href="#medfd381140" x="503.898737" y="215.104994" style="fill: #edb120; stroke: #edb120; stroke-width: 2.5"/>
    </g>
   </g>
   <g id="line2d_31">
    <g clip-path="url(#pf4d70e59e2)">
     <use xlink:href="#medfd381140" x="64.701263" y="232.728303" style="fill: #edb120; stroke: #edb120; stroke-width: 2.5"/>
     <use xlink:href="#medfd381140" x="87.816919" y="232.710141" style="fill: #edb120; stroke: #edb120; stroke-width: 2.5"/>
     <use xlink:href="#medfd381140" x="110.932576" y="232.773181" style="fill: #edb120; stroke: #edb120; stroke-width: 2.5"/>
     <use xlink:href="#medfd381140" x="134.048232" y="232.327268" style="fill: #edb120; stroke: #edb120; stroke-width: 2.5"/>
     <use xlink:href="#medfd381140" x="157.163889" y="232.323544" style="fill: #edb120; stroke: #edb120; stroke-width: 2.5"/>
     <use xlink:href="#medfd381140" x="180.279545" y="232.525759" style="fill: #edb120; stroke: #edb120; stroke-width: 2.5"/>
     <use xlink:href="#medfd381140" x="203.395202" y="232.424582" style="fill: #edb120; stroke: #edb120; stroke-width: 2.5"/>
     <use xlink:href="#medfd381140" x="226.510859" y="232.510996" style="fill: #edb120; stroke: #edb120; stroke-width: 2.5"/>
     <use xlink:href="#medfd381140" x="249.626515" y="232.238226" style="fill: #edb120; stroke: #edb120; stroke-width: 2.5"/>
     <use xlink:href="#medfd381140" x="272.742172" y="232.147376" style="fill: #edb120; stroke: #edb120; stroke-width: 2.5"/>
     <use xlink:href="#medfd381140" x="295.857828" y="232.344508" style="fill: #edb120; stroke: #edb120; stroke-width: 2.5"/>
     <use xlink:href="#medfd381140" x="318.973485" y="231.737308" style="fill: #edb120; stroke: #edb120; stroke-width: 2.5"/>
     <use xlink:href="#medfd381140" x="342.089141" y="231.940061" style="fill: #edb120; stroke: #edb120; stroke-width: 2.5"/>
     <use xlink:href="#medfd381140" x="365.204798" y="231.813445" style="fill: #edb120; stroke: #edb120; stroke-width: 2.5"/>
     <use xlink:href="#medfd381140" x="388.320455" y="232.207005" style="fill: #edb120; stroke: #edb120; stroke-width: 2.5"/>
     <use xlink:href="#medfd381140" x="411.436111" y="231.10088" style="fill: #edb120; stroke: #edb120; stroke-width: 2.5"/>
     <use xlink:href="#medfd381140" x="434.551768" y="231.269552" style="fill: #edb120; stroke: #edb120; stroke-width: 2.5"/>
     <use xlink:href="#medfd381140" x="457.667424" y="230.280706" style="fill: #edb120; stroke: #edb120; stroke-width: 2.5"/>
     <use xlink:href="#medfd381140" x="480.783081" y="227.526029" style="fill: #edb120; stroke: #edb120; stroke-width: 2.5"/>
     <use xlink:href="#medfd381140" x="503.898737" y="183.780841" style="fill: #edb120; stroke: #edb120; stroke-width: 2.5"/>
    </g>
   </g>
   <g id="LineCollection_4">
    <path d="M 64.701263 226.135515 
L 64.701263 225.370442 
" clip-path="url(#pf4d70e59e2)" style="fill: none; stroke: #7e2f8e; stroke-width: 2.5"/>
    <path d="M 87.816919 226.283638 
L 87.816919 225.569064 
" clip-path="url(#pf4d70e59e2)" style="fill: none; stroke: #7e2f8e; stroke-width: 2.5"/>
    <path d="M 110.932576 226.707669 
L 110.932576 225.337287 
" clip-path="url(#pf4d70e59e2)" style="fill: none; stroke: #7e2f8e; stroke-width: 2.5"/>
    <path d="M 134.048232 225.723591 
L 134.048232 224.833636 
" clip-path="url(#pf4d70e59e2)" style="fill: none; stroke: #7e2f8e; stroke-width: 2.5"/>
    <path d="M 157.163889 226.263248 
L 157.163889 225.014156 
" clip-path="url(#pf4d70e59e2)" style="fill: none; stroke: #7e2f8e; stroke-width: 2.5"/>
    <path d="M 180.279545 226.117707 
L 180.279545 224.631871 
" clip-path="url(#pf4d70e59e2)" style="fill: none; stroke: #7e2f8e; stroke-width: 2.5"/>
    <path d="M 203.395202 226.444354 
L 203.395202 225.088073 
" clip-path="url(#pf4d70e59e2)" style="fill: none; stroke: #7e2f8e; stroke-width: 2.5"/>
    <path d="M 226.510859 226.579832 
L 226.510859 224.651047 
" clip-path="url(#pf4d70e59e2)" style="fill: none; stroke: #7e2f8e; stroke-width: 2.5"/>
    <path d="M 249.626515 226.815426 
L 249.626515 224.665234 
" clip-path="url(#pf4d70e59e2)" style="fill: none; stroke: #7e2f8e; stroke-width: 2.5"/>
    <path d="M 272.742172 226.290178 
L 272.742172 224.079149 
" clip-path="url(#pf4d70e59e2)" style="fill: none; stroke: #7e2f8e; stroke-width: 2.5"/>
    <path d="M 295.857828 226.138952 
L 295.857828 224.596595 
" clip-path="url(#pf4d70e59e2)" style="fill: none; stroke: #7e2f8e; stroke-width: 2.5"/>
    <path d="M 318.973485 226.61084 
L 318.973485 223.711063 
" clip-path="url(#pf4d70e59e2)" style="fill: none; stroke: #7e2f8e; stroke-width: 2.5"/>
    <path d="M 342.089141 226.16292 
L 342.089141 223.992509 
" clip-path="url(#pf4d70e59e2)" style="fill: none; stroke: #7e2f8e; stroke-width: 2.5"/>
    <path d="M 365.204798 226.481617 
L 365.204798 223.519979 
" clip-path="url(#pf4d70e59e2)" style="fill: none; stroke: #7e2f8e; stroke-width: 2.5"/>
    <path d="M 388.320455 226.529688 
L 388.320455 222.890241 
" clip-path="url(#pf4d70e59e2)" style="fill: none; stroke: #7e2f8e; stroke-width: 2.5"/>
    <path d="M 411.436111 227.401785 
L 411.436111 224.258346 
" clip-path="url(#pf4d70e59e2)" style="fill: none; stroke: #7e2f8e; stroke-width: 2.5"/>
    <path d="M 434.551768 228.85591 
L 434.551768 223.445118 
" clip-path="url(#pf4d70e59e2)" style="fill: none; stroke: #7e2f8e; stroke-width: 2.5"/>
    <path d="M 457.667424 225.6643 
L 457.667424 221.54704 
" clip-path="url(#pf4d70e59e2)" style="fill: none; stroke: #7e2f8e; stroke-width: 2.5"/>
    <path d="M 480.783081 227.574095 
L 480.783081 222.065376 
" clip-path="url(#pf4d70e59e2)" style="fill: none; stroke: #7e2f8e; stroke-width: 2.5"/>
    <path d="M 503.898737 219.525029 
L 503.898737 201.279843 
" clip-path="url(#pf4d70e59e2)" style="fill: none; stroke: #7e2f8e; stroke-width: 2.5"/>
   </g>
   <g id="line2d_32">
    <defs>
     <path id="m74f68d997f" d="M 4 0 
L -4 -0 
" style="stroke: #7e2f8e; stroke-width: 2.5"/>
    </defs>
    <g clip-path="url(#pf4d70e59e2)">
     <use xlink:href="#m74f68d997f" x="64.701263" y="226.135515" style="fill: #7e2f8e; stroke: #7e2f8e; stroke-width: 2.5"/>
     <use xlink:href="#m74f68d997f" x="87.816919" y="226.283638" style="fill: #7e2f8e; stroke: #7e2f8e; stroke-width: 2.5"/>
     <use xlink:href="#m74f68d997f" x="110.932576" y="226.707669" style="fill: #7e2f8e; stroke: #7e2f8e; stroke-width: 2.5"/>
     <use xlink:href="#m74f68d997f" x="134.048232" y="225.723591" style="fill: #7e2f8e; stroke: #7e2f8e; stroke-width: 2.5"/>
     <use xlink:href="#m74f68d997f" x="157.163889" y="226.263248" style="fill: #7e2f8e; stroke: #7e2f8e; stroke-width: 2.5"/>
     <use xlink:href="#m74f68d997f" x="180.279545" y="226.117707" style="fill: #7e2f8e; stroke: #7e2f8e; stroke-width: 2.5"/>
     <use xlink:href="#m74f68d997f" x="203.395202" y="226.444354" style="fill: #7e2f8e; stroke: #7e2f8e; stroke-width: 2.5"/>
     <use xlink:href="#m74f68d997f" x="226.510859" y="226.579832" style="fill: #7e2f8e; stroke: #7e2f8e; stroke-width: 2.5"/>
     <use xlink:href="#m74f68d997f" x="249.626515" y="226.815426" style="fill: #7e2f8e; stroke: #7e2f8e; stroke-width: 2.5"/>
     <use xlink:href="#m74f68d997f" x="272.742172" y="226.290178" style="fill: #7e2f8e; stroke: #7e2f8e; stroke-width: 2.5"/>
     <use xlink:href="#m74f68d997f" x="295.857828" y="226.138952" style="fill: #7e2f8e; stroke: #7e2f8e; stroke-width: 2.5"/>
     <use xlink:href="#m74f68d997f" x="318.973485" y="226.61084" style="fill: #7e2f8e; stroke: #7e2f8e; stroke-width: 2.5"/>
     <use xlink:href="#m74f68d997f" x="342.089141" y="226.16292" style="fill: #7e2f8e; stroke: #7e2f8e; stroke-width: 2.5"/>
     <use xlink:href="#m74f68d997f" x="365.204798" y="226.481617" style="fill: #7e2f8e; stroke: #7e2f8e; stroke-width: 2.5"/>
     <use xlink:href="#m74f68d997f" x="388.320455" y="226.529688" style="fill: #7e2f8e; stroke: #7e2f8e; stroke-width: 2.5"/>
     <use xlink:href="#m74f68d997f" x="411.436111" y="227.401785" style="fill: #7e2f8e; stroke: #7e2f8e; stroke-width: 2.5"/>
     <use xlink:href="#m74f68d997f" x="434.551768" y="228.85591" style="fill: #7e2f8e; stroke: #7e2f8e; stroke-width: 2.5"/>
     <use xlink:href="#m74f68d997f" x="457.667424" y="225.6643" style="fill: #7e2f8e; stroke: #7e2f8e; stroke-width: 2.5"/>
     <use xlink:href="#m74f68d997f" x="480.783081" y="227.574095" style="fill: #7e2f8e; stroke: #7e2f8e; stroke-width: 2.5"/>
     <use xlink:href="#m74f68d997f" x="503.898737" y="219.525029" style="fill: #7e2f8e; stroke: #7e2f8e; stroke-width: 2.5"/>
    </g>
   </g>
   <g id="line2d_33">
    <g clip-path="url(#pf4d70e59e2)">
     <use xlink:href="#m74f68d997f" x="64.701263" y="225.370442" style="fill: #7e2f8e; stroke: #7e2f8e; stroke-width: 2.5"/>
     <use xlink:href="#m74f68d997f" x="87.816919" y="225.569064" style="fill: #7e2f8e; stroke: #7e2f8e; stroke-width: 2.5"/>
     <use xlink:href="#m74f68d997f" x="110.932576" y="225.337287" style="fill: #7e2f8e; stroke: #7e2f8e; stroke-width: 2.5"/>
     <use xlink:href="#m74f68d997f" x="134.048232" y="224.833636" style="fill: #7e2f8e; stroke: #7e2f8e; stroke-width: 2.5"/>
     <use xlink:href="#m74f68d997f" x="157.163889" y="225.014156" style="fill: #7e2f8e; stroke: #7e2f8e; stroke-width: 2.5"/>
     <use xlink:href="#m74f68d997f" x="180.279545" y="224.631871" style="fill: #7e2f8e; stroke: #7e2f8e; stroke-width: 2.5"/>
     <use xlink:href="#m74f68d997f" x="203.395202" y="225.088073" style="fill: #7e2f8e; stroke: #7e2f8e; stroke-width: 2.5"/>
     <use xlink:href="#m74f68d997f" x="226.510859" y="224.651047" style="fill: #7e2f8e; stroke: #7e2f8e; stroke-width: 2.5"/>
     <use xlink:href="#m74f68d997f" x="249.626515" y="224.665234" style="fill: #7e2f8e; stroke: #7e2f8e; stroke-width: 2.5"/>
     <use xlink:href="#m74f68d997f" x="272.742172" y="224.079149" style="fill: #7e2f8e; stroke: #7e2f8e; stroke-width: 2.5"/>
     <use xlink:href="#m74f68d997f" x="295.857828" y="224.596595" style="fill: #7e2f8e; stroke: #7e2f8e; stroke-width: 2.5"/>
     <use xlink:href="#m74f68d997f" x="318.973485" y="223.711063" style="fill: #7e2f8e; stroke: #7e2f8e; stroke-width: 2.5"/>
     <use xlink:href="#m74f68d997f" x="342.089141" y="223.992509" style="fill: #7e2f8e; stroke: #7e2f8e; stroke-width: 2.5"/>
     <use xlink:href="#m74f68d997f" x="365.204798" y="223.519979" style="fill: #7e2f8e; stroke: #7e2f8e; stroke-width: 2.5"/>
     <use xlink:href="#m74f68d997f" x="388.320455" y="222.890241" style="fill: #7e2f8e; stroke: #7e2f8e; stroke-width: 2.5"/>
     <use xlink:href="#m74f68d997f" x="411.436111" y="224.258346" style="fill: #7e2f8e; stroke: #7e2f8e; stroke-width: 2.5"/>
     <use xlink:href="#m74f68d997f" x="434.551768" y="223.445118" style="fill: #7e2f8e; stroke: #7e2f8e; stroke-width: 2.5"/>
     <use xlink:href="#m74f68d997f" x="457.667424" y="221.54704" style="fill: #7e2f8e; stroke: #7e2f8e; stroke-width: 2.5"/>
     <use xlink:href="#m74f68d997f" x="480.783081" y="222.065376" style="fill: #7e2f8e; stroke: #7e2f8e; stroke-width: 2.5"/>
     <use xlink:href="#m74f68d997f" x="503.898737" y="201.279843" style="fill: #7e2f8e; stroke: #7e2f8e; stroke-width: 2.5"/>
    </g>
   </g>
   <g id="line2d_34">
    <path d="M 64.701263 229.834148 
L 87.816919 229.744932 
L 110.932576 229.712332 
L 134.048232 229.668935 
L 157.163889 229.572194 
L 180.279545 229.983986 
L 203.395202 229.977924 
L 226.510859 229.755256 
L 249.626515 229.893608 
L 272.742172 229.565535 
L 295.857828 229.771766 
L 318.973485 229.16667 
L 342.089141 229.71532 
L 365.204798 229.670488 
L 388.320455 229.324729 
L 411.436111 228.96512 
L 434.551768 229.621984 
L 457.667424 227.197371 
L 480.783081 225.68912 
L 503.898737 206.437514 
" clip-path="url(#pf4d70e59e2)" style="fill: none; stroke: #0072bd; stroke-width: 2.5; stroke-linecap: square"/>
    <defs>
     <path id="m7acaf773d0" d="M 0 5.5 
C 1.458617 5.5 2.857689 4.920485 3.889087 3.889087 
C 4.920485 2.857689 5.5 1.458617 5.5 0 
C 5.5 -1.458617 4.920485 -2.857689 3.889087 -3.889087 
C 2.857689 -4.920485 1.458617 -5.5 0 -5.5 
C -1.458617 -5.5 -2.857689 -4.920485 -3.889087 -3.889087 
C -4.920485 -2.857689 -5.5 -1.458617 -5.5 0 
C -5.5 1.458617 -4.920485 2.857689 -3.889087 3.889087 
C -2.857689 4.920485 -1.458617 5.5 0 5.5 
z
" style="stroke: #0072bd"/>
    </defs>
    <g clip-path="url(#pf4d70e59e2)">
     <use xlink:href="#m7acaf773d0" x="64.701263" y="229.834148" style="fill: #0072bd; stroke: #0072bd"/>
     <use xlink:href="#m7acaf773d0" x="87.816919" y="229.744932" style="fill: #0072bd; stroke: #0072bd"/>
     <use xlink:href="#m7acaf773d0" x="110.932576" y="229.712332" style="fill: #0072bd; stroke: #0072bd"/>
     <use xlink:href="#m7acaf773d0" x="134.048232" y="229.668935" style="fill: #0072bd; stroke: #0072bd"/>
     <use xlink:href="#m7acaf773d0" x="157.163889" y="229.572194" style="fill: #0072bd; stroke: #0072bd"/>
     <use xlink:href="#m7acaf773d0" x="180.279545" y="229.983986" style="fill: #0072bd; stroke: #0072bd"/>
     <use xlink:href="#m7acaf773d0" x="203.395202" y="229.977924" style="fill: #0072bd; stroke: #0072bd"/>
     <use xlink:href="#m7acaf773d0" x="226.510859" y="229.755256" style="fill: #0072bd; stroke: #0072bd"/>
     <use xlink:href="#m7acaf773d0" x="249.626515" y="229.893608" style="fill: #0072bd; stroke: #0072bd"/>
     <use xlink:href="#m7acaf773d0" x="272.742172" y="229.565535" style="fill: #0072bd; stroke: #0072bd"/>
     <use xlink:href="#m7acaf773d0" x="295.857828" y="229.771766" style="fill: #0072bd; stroke: #0072bd"/>
     <use xlink:href="#m7acaf773d0" x="318.973485" y="229.16667" style="fill: #0072bd; stroke: #0072bd"/>
     <use xlink:href="#m7acaf773d0" x="342.089141" y="229.71532" style="fill: #0072bd; stroke: #0072bd"/>
     <use xlink:href="#m7acaf773d0" x="365.204798" y="229.670488" style="fill: #0072bd; stroke: #0072bd"/>
     <use xlink:href="#m7acaf773d0" x="388.320455" y="229.324729" style="fill: #0072bd; stroke: #0072bd"/>
     <use xlink:href="#m7acaf773d0" x="411.436111" y="228.96512" style="fill: #0072bd; stroke: #0072bd"/>
     <use xlink:href="#m7acaf773d0" x="434.551768" y="229.621984" style="fill: #0072bd; stroke: #0072bd"/>
     <use xlink:href="#m7acaf773d0" x="457.667424" y="227.197371" style="fill: #0072bd; stroke: #0072bd"/>
     <use xlink:href="#m7acaf773d0" x="480.783081" y="225.68912" style="fill: #0072bd; stroke: #0072bd"/>
     <use xlink:href="#m7acaf773d0" x="503.898737" y="206.437514" style="fill: #0072bd; stroke: #0072bd"/>
    </g>
   </g>
   <g id="line2d_35">
    <path d="M 64.701263 230.889475 
L 87.816919 230.853664 
L 110.932576 230.763443 
L 134.048232 230.865381 
L 157.163889 230.473722 
L 180.279545 230.967036 
L 203.395202 231.008539 
L 226.510859 230.674316 
L 249.626515 230.706063 
L 272.742172 230.846429 
L 295.857828 230.564959 
L 318.973485 229.966643 
L 342.089141 230.641525 
L 365.204798 230.706317 
L 388.320455 230.43561 
L 411.436111 230.472054 
L 434.551768 230.12824 
L 457.667424 228.655127 
L 480.783081 228.053583 
L 503.898737 209.901881 
" clip-path="url(#pf4d70e59e2)" style="fill: none; stroke: #d95319; stroke-width: 2.5; stroke-linecap: square"/>
    <defs>
     <path id="mb28c45f666" d="M 0 5.5 
C 1.458617 5.5 2.857689 4.920485 3.889087 3.889087 
C 4.920485 2.857689 5.5 1.458617 5.5 0 
C 5.5 -1.458617 4.920485 -2.857689 3.889087 -3.889087 
C 2.857689 -4.920485 1.458617 -5.5 0 -5.5 
C -1.458617 -5.5 -2.857689 -4.920485 -3.889087 -3.889087 
C -4.920485 -2.857689 -5.5 -1.458617 -5.5 0 
C -5.5 1.458617 -4.920485 2.857689 -3.889087 3.889087 
C -2.857689 4.920485 -1.458617 5.5 0 5.5 
z
" style="stroke: #d95319"/>
    </defs>
    <g clip-path="url(#pf4d70e59e2)">
     <use xlink:href="#mb28c45f666" x="64.701263" y="230.889475" style="fill: #d95319; stroke: #d95319"/>
     <use xlink:href="#mb28c45f666" x="87.816919" y="230.853664" style="fill: #d95319; stroke: #d95319"/>
     <use xlink:href="#mb28c45f666" x="110.932576" y="230.763443" style="fill: #d95319; stroke: #d95319"/>
     <use xlink:href="#mb28c45f666" x="134.048232" y="230.865381" style="fill: #d95319; stroke: #d95319"/>
     <use xlink:href="#mb28c45f666" x="157.163889" y="230.473722" style="fill: #d95319; stroke: #d95319"/>
     <use xlink:href="#mb28c45f666" x="180.279545" y="230.967036" style="fill: #d95319; stroke: #d95319"/>
     <use xlink:href="#mb28c45f666" x="203.395202" y="231.008539" style="fill: #d95319; stroke: #d95319"/>
     <use xlink:href="#mb28c45f666" x="226.510859" y="230.674316" style="fill: #d95319; stroke: #d95319"/>
     <use xlink:href="#mb28c45f666" x="249.626515" y="230.706063" style="fill: #d95319; stroke: #d95319"/>
     <use xlink:href="#mb28c45f666" x="272.742172" y="230.846429" style="fill: #d95319; stroke: #d95319"/>
     <use xlink:href="#mb28c45f666" x="295.857828" y="230.564959" style="fill: #d95319; stroke: #d95319"/>
     <use xlink:href="#mb28c45f666" x="318.973485" y="229.966643" style="fill: #d95319; stroke: #d95319"/>
     <use xlink:href="#mb28c45f666" x="342.089141" y="230.641525" style="fill: #d95319; stroke: #d95319"/>
     <use xlink:href="#mb28c45f666" x="365.204798" y="230.706317" style="fill: #d95319; stroke: #d95319"/>
     <use xlink:href="#mb28c45f666" x="388.320455" y="230.43561" style="fill: #d95319; stroke: #d95319"/>
     <use xlink:href="#mb28c45f666" x="411.436111" y="230.472054" style="fill: #d95319; stroke: #d95319"/>
     <use xlink:href="#mb28c45f666" x="434.551768" y="230.12824" style="fill: #d95319; stroke: #d95319"/>
     <use xlink:href="#mb28c45f666" x="457.667424" y="228.655127" style="fill: #d95319; stroke: #d95319"/>
     <use xlink:href="#mb28c45f666" x="480.783081" y="228.053583" style="fill: #d95319; stroke: #d95319"/>
     <use xlink:href="#mb28c45f666" x="503.898737" y="209.901881" style="fill: #d95319; stroke: #d95319"/>
    </g>
   </g>
   <g id="line2d_36">
    <path d="M 64.701263 232.929731 
L 87.816919 232.954092 
L 110.932576 232.966537 
L 134.048232 232.649216 
L 157.163889 232.699575 
L 180.279545 232.855088 
L 203.395202 232.811411 
L 226.510859 232.779651 
L 249.626515 232.640166 
L 272.742172 232.7289 
L 295.857828 232.759063 
L 318.973485 232.530361 
L 342.089141 232.433065 
L 365.204798 232.584344 
L 388.320455 232.802269 
L 411.436111 232.57175 
L 434.551768 232.176276 
L 457.667424 231.179856 
L 480.783081 228.778071 
L 503.898737 199.442918 
" clip-path="url(#pf4d70e59e2)" style="fill: none; stroke: #edb120; stroke-width: 2.5; stroke-linecap: square"/>
    <defs>
     <path id="mc3954ccc4d" d="M 0 5.5 
C 1.458617 5.5 2.857689 4.920485 3.889087 3.889087 
C 4.920485 2.857689 5.5 1.458617 5.5 0 
C 5.5 -1.458617 4.920485 -2.857689 3.889087 -3.889087 
C 2.857689 -4.920485 1.458617 -5.5 0 -5.5 
C -1.458617 -5.5 -2.857689 -4.920485 -3.889087 -3.889087 
C -4.920485 -2.857689 -5.5 -1.458617 -5.5 0 
C -5.5 1.458617 -4.920485 2.857689 -3.889087 3.889087 
C -2.857689 4.920485 -1.458617 5.5 0 5.5 
z
" style="stroke: #edb120"/>
    </defs>
    <g clip-path="url(#pf4d70e59e2)">
     <use xlink:href="#mc3954ccc4d" x="64.701263" y="232.929731" style="fill: #edb120; stroke: #edb120"/>
     <use xlink:href="#mc3954ccc4d" x="87.816919" y="232.954092" style="fill: #edb120; stroke: #edb120"/>
     <use xlink:href="#mc3954ccc4d" x="110.932576" y="232.966537" style="fill: #edb120; stroke: #edb120"/>
     <use xlink:href="#mc3954ccc4d" x="134.048232" y="232.649216" style="fill: #edb120; stroke: #edb120"/>
     <use xlink:href="#mc3954ccc4d" x="157.163889" y="232.699575" style="fill: #edb120; stroke: #edb120"/>
     <use xlink:href="#mc3954ccc4d" x="180.279545" y="232.855088" style="fill: #edb120; stroke: #edb120"/>
     <use xlink:href="#mc3954ccc4d" x="203.395202" y="232.811411" style="fill: #edb120; stroke: #edb120"/>
     <use xlink:href="#mc3954ccc4d" x="226.510859" y="232.779651" style="fill: #edb120; stroke: #edb120"/>
     <use xlink:href="#mc3954ccc4d" x="249.626515" y="232.640166" style="fill: #edb120; stroke: #edb120"/>
     <use xlink:href="#mc3954ccc4d" x="272.742172" y="232.7289" style="fill: #edb120; stroke: #edb120"/>
     <use xlink:href="#mc3954ccc4d" x="295.857828" y="232.759063" style="fill: #edb120; stroke: #edb120"/>
     <use xlink:href="#mc3954ccc4d" x="318.973485" y="232.530361" style="fill: #edb120; stroke: #edb120"/>
     <use xlink:href="#mc3954ccc4d" x="342.089141" y="232.433065" style="fill: #edb120; stroke: #edb120"/>
     <use xlink:href="#mc3954ccc4d" x="365.204798" y="232.584344" style="fill: #edb120; stroke: #edb120"/>
     <use xlink:href="#mc3954ccc4d" x="388.320455" y="232.802269" style="fill: #edb120; stroke: #edb120"/>
     <use xlink:href="#mc3954ccc4d" x="411.436111" y="232.57175" style="fill: #edb120; stroke: #edb120"/>
     <use xlink:href="#mc3954ccc4d" x="434.551768" y="232.176276" style="fill: #edb120; stroke: #edb120"/>
     <use xlink:href="#mc3954ccc4d" x="457.667424" y="231.179856" style="fill: #edb120; stroke: #edb120"/>
     <use xlink:href="#mc3954ccc4d" x="480.783081" y="228.778071" style="fill: #edb120; stroke: #edb120"/>
     <use xlink:href="#mc3954ccc4d" x="503.898737" y="199.442918" style="fill: #edb120; stroke: #edb120"/>
    </g>
   </g>
   <g id="line2d_37">
    <path d="M 64.701263 225.752979 
L 87.816919 225.926351 
L 110.932576 226.022478 
L 134.048232 225.278613 
L 157.163889 225.638702 
L 180.279545 225.374789 
L 203.395202 225.766214 
L 226.510859 225.61544 
L 249.626515 225.74033 
L 272.742172 225.184663 
L 295.857828 225.367774 
L 318.973485 225.160952 
L 342.089141 225.077715 
L 365.204798 225.000798 
L 388.320455 224.709964 
L 411.436111 225.830066 
L 434.551768 226.150514 
L 457.667424 223.60567 
L 480.783081 224.819735 
L 503.898737 210.402436 
" clip-path="url(#pf4d70e59e2)" style="fill: none; stroke: #7e2f8e; stroke-width: 2.5; stroke-linecap: square"/>
    <defs>
     <path id="m2415ec96b7" d="M 0 5.5 
C 1.458617 5.5 2.857689 4.920485 3.889087 3.889087 
C 4.920485 2.857689 5.5 1.458617 5.5 0 
C 5.5 -1.458617 4.920485 -2.857689 3.889087 -3.889087 
C 2.857689 -4.920485 1.458617 -5.5 0 -5.5 
C -1.458617 -5.5 -2.857689 -4.920485 -3.889087 -3.889087 
C -4.920485 -2.857689 -5.5 -1.458617 -5.5 0 
C -5.5 1.458617 -4.920485 2.857689 -3.889087 3.889087 
C -2.857689 4.920485 -1.458617 5.5 0 5.5 
z
" style="stroke: #7e2f8e"/>
    </defs>
    <g clip-path="url(#pf4d70e59e2)">
     <use xlink:href="#m2415ec96b7" x="64.701263" y="225.752979" style="fill: #7e2f8e; stroke: #7e2f8e"/>
     <use xlink:href="#m2415ec96b7" x="87.816919" y="225.926351" style="fill: #7e2f8e; stroke: #7e2f8e"/>
     <use xlink:href="#m2415ec96b7" x="110.932576" y="226.022478" style="fill: #7e2f8e; stroke: #7e2f8e"/>
     <use xlink:href="#m2415ec96b7" x="134.048232" y="225.278613" style="fill: #7e2f8e; stroke: #7e2f8e"/>
     <use xlink:href="#m2415ec96b7" x="157.163889" y="225.638702" style="fill: #7e2f8e; stroke: #7e2f8e"/>
     <use xlink:href="#m2415ec96b7" x="180.279545" y="225.374789" style="fill: #7e2f8e; stroke: #7e2f8e"/>
     <use xlink:href="#m2415ec96b7" x="203.395202" y="225.766214" style="fill: #7e2f8e; stroke: #7e2f8e"/>
     <use xlink:href="#m2415ec96b7" x="226.510859" y="225.61544" style="fill: #7e2f8e; stroke: #7e2f8e"/>
     <use xlink:href="#m2415ec96b7" x="249.626515" y="225.74033" style="fill: #7e2f8e; stroke: #7e2f8e"/>
     <use xlink:href="#m2415ec96b7" x="272.742172" y="225.184663" style="fill: #7e2f8e; stroke: #7e2f8e"/>
     <use xlink:href="#m2415ec96b7" x="295.857828" y="225.367774" style="fill: #7e2f8e; stroke: #7e2f8e"/>
     <use xlink:href="#m2415ec96b7" x="318.973485" y="225.160952" style="fill: #7e2f8e; stroke: #7e2f8e"/>
     <use xlink:href="#m2415ec96b7" x="342.089141" y="225.077715" style="fill: #7e2f8e; stroke: #7e2f8e"/>
     <use xlink:href="#m2415ec96b7" x="365.204798" y="225.000798" style="fill: #7e2f8e; stroke: #7e2f8e"/>
     <use xlink:href="#m2415ec96b7" x="388.320455" y="224.709964" style="fill: #7e2f8e; stroke: #7e2f8e"/>
     <use xlink:href="#m2415ec96b7" x="411.436111" y="225.830066" style="fill: #7e2f8e; stroke: #7e2f8e"/>
     <use xlink:href="#m2415ec96b7" x="434.551768" y="226.150514" style="fill: #7e2f8e; stroke: #7e2f8e"/>
     <use xlink:href="#m2415ec96b7" x="457.667424" y="223.60567" style="fill: #7e2f8e; stroke: #7e2f8e"/>
     <use xlink:href="#m2415ec96b7" x="480.783081" y="224.819735" style="fill: #7e2f8e; stroke: #7e2f8e"/>
     <use xlink:href="#m2415ec96b7" x="503.898737" y="210.402436" style="fill: #7e2f8e; stroke: #7e2f8e"/>
    </g>
   </g>
   <g id="patch_3">
    <path d="M 55.455 256.883 
L 55.455 26.943 
" style="fill: none; stroke: #000000; stroke-width: 0.8; stroke-linejoin: miter; stroke-linecap: square"/>
   </g>
   <g id="patch_4">
    <path d="M 55.455 256.883 
L 513.145 256.883 
" style="fill: none; stroke: #000000; stroke-width: 0.8; stroke-linejoin: miter; stroke-linecap: square"/>
   </g>
   <g id="text_18">
    <!-- Adjusted Prediction -->
    <g transform="translate(193.631 20.943) scale(0.192 -0.192)">
     <defs>
      <path id="Arial-BoldMT-41" d="M 4597 0 
L 3591 0 
L 3191 1041 
L 1359 1041 
L 981 0 
L 0 0 
L 1784 4581 
L 2763 4581 
L 4597 0 
z
M 2894 1813 
L 2263 3513 
L 1644 1813 
L 2894 1813 
z
" transform="scale(0.015625)"/>
      <path id="Arial-BoldMT-64" d="M 3503 0 
L 2688 0 
L 2688 488 
Q 2484 203 2207 64 
Q 1931 -75 1650 -75 
Q 1078 -75 670 386 
Q 263 847 263 1672 
Q 263 2516 659 2955 
Q 1056 3394 1663 3394 
Q 2219 3394 2625 2931 
L 2625 4581 
L 3503 4581 
L 3503 0 
z
M 1159 1731 
Q 1159 1200 1306 963 
Q 1519 619 1900 619 
Q 2203 619 2415 876 
Q 2628 1134 2628 1647 
Q 2628 2219 2422 2470 
Q 2216 2722 1894 2722 
Q 1581 2722 1370 2473 
Q 1159 2225 1159 1731 
z
" transform="scale(0.015625)"/>
      <path id="Arial-BoldMT-6a" d="M 441 3769 
L 441 4581 
L 1319 4581 
L 1319 3769 
L 441 3769 
z
M 1319 3319 
L 1319 103 
Q 1319 -531 1236 -792 
Q 1153 -1053 917 -1200 
Q 681 -1347 316 -1347 
Q 184 -1347 32 -1323 
Q -119 -1300 -294 -1253 
L -141 -503 
Q -78 -516 -23 -523 
Q 31 -531 78 -531 
Q 213 -531 298 -473 
Q 384 -416 412 -334 
Q 441 -253 441 153 
L 441 3319 
L 1319 3319 
z
" transform="scale(0.015625)"/>
      <path id="Arial-BoldMT-75" d="M 2644 0 
L 2644 497 
Q 2463 231 2167 78 
Q 1872 -75 1544 -75 
Q 1209 -75 943 72 
Q 678 219 559 484 
Q 441 750 441 1219 
L 441 3319 
L 1319 3319 
L 1319 1794 
Q 1319 1094 1367 936 
Q 1416 778 1544 686 
Q 1672 594 1869 594 
Q 2094 594 2272 717 
Q 2450 841 2515 1023 
Q 2581 1206 2581 1919 
L 2581 3319 
L 3459 3319 
L 3459 0 
L 2644 0 
z
" transform="scale(0.015625)"/>
      <path id="Arial-BoldMT-73" d="M 150 947 
L 1031 1081 
Q 1088 825 1259 692 
Q 1431 559 1741 559 
Q 2081 559 2253 684 
Q 2369 772 2369 919 
Q 2369 1019 2306 1084 
Q 2241 1147 2013 1200 
Q 950 1434 666 1628 
Q 272 1897 272 2375 
Q 272 2806 612 3100 
Q 953 3394 1669 3394 
Q 2350 3394 2681 3172 
Q 3013 2950 3138 2516 
L 2309 2363 
Q 2256 2556 2107 2659 
Q 1959 2763 1684 2763 
Q 1338 2763 1188 2666 
Q 1088 2597 1088 2488 
Q 1088 2394 1175 2328 
Q 1294 2241 1995 2081 
Q 2697 1922 2975 1691 
Q 3250 1456 3250 1038 
Q 3250 581 2869 253 
Q 2488 -75 1741 -75 
Q 1063 -75 667 200 
Q 272 475 150 947 
z
" transform="scale(0.015625)"/>
      <path id="Arial-BoldMT-74" d="M 1981 3319 
L 1981 2619 
L 1381 2619 
L 1381 1281 
Q 1381 875 1398 808 
Q 1416 741 1477 697 
Q 1538 653 1625 653 
Q 1747 653 1978 738 
L 2053 56 
Q 1747 -75 1359 -75 
Q 1122 -75 931 4 
Q 741 84 652 211 
Q 563 338 528 553 
Q 500 706 500 1172 
L 500 2619 
L 97 2619 
L 97 3319 
L 500 3319 
L 500 3978 
L 1381 4491 
L 1381 3319 
L 1981 3319 
z
" transform="scale(0.015625)"/>
      <path id="Arial-BoldMT-65" d="M 2381 1056 
L 3256 909 
Q 3088 428 2723 176 
Q 2359 -75 1813 -75 
Q 947 -75 531 491 
Q 203 944 203 1634 
Q 203 2459 634 2926 
Q 1066 3394 1725 3394 
Q 2466 3394 2894 2905 
Q 3322 2416 3303 1406 
L 1103 1406 
Q 1113 1016 1316 798 
Q 1519 581 1822 581 
Q 2028 581 2168 693 
Q 2309 806 2381 1056 
z
M 2431 1944 
Q 2422 2325 2234 2523 
Q 2047 2722 1778 2722 
Q 1491 2722 1303 2513 
Q 1116 2303 1119 1944 
L 2431 1944 
z
" transform="scale(0.015625)"/>
      <path id="Arial-BoldMT-20" transform="scale(0.015625)"/>
      <path id="Arial-BoldMT-50" d="M 466 0 
L 466 4581 
L 1950 4581 
Q 2794 4581 3050 4513 
Q 3444 4409 3709 4064 
Q 3975 3719 3975 3172 
Q 3975 2750 3822 2462 
Q 3669 2175 3433 2011 
Q 3197 1847 2953 1794 
Q 2622 1728 1994 1728 
L 1391 1728 
L 1391 0 
L 466 0 
z
M 1391 3806 
L 1391 2506 
L 1897 2506 
Q 2444 2506 2628 2578 
Q 2813 2650 2917 2803 
Q 3022 2956 3022 3159 
Q 3022 3409 2875 3571 
Q 2728 3734 2503 3775 
Q 2338 3806 1838 3806 
L 1391 3806 
z
" transform="scale(0.015625)"/>
      <path id="Arial-BoldMT-72" d="M 1300 0 
L 422 0 
L 422 3319 
L 1238 3319 
L 1238 2847 
Q 1447 3181 1614 3287 
Q 1781 3394 1994 3394 
Q 2294 3394 2572 3228 
L 2300 2463 
Q 2078 2606 1888 2606 
Q 1703 2606 1575 2504 
Q 1447 2403 1373 2137 
Q 1300 1872 1300 1025 
L 1300 0 
z
" transform="scale(0.015625)"/>
      <path id="Arial-BoldMT-69" d="M 459 3769 
L 459 4581 
L 1338 4581 
L 1338 3769 
L 459 3769 
z
M 459 0 
L 459 3319 
L 1338 3319 
L 1338 0 
L 459 0 
z
" transform="scale(0.015625)"/>
      <path id="Arial-BoldMT-63" d="M 3353 2338 
L 2488 2181 
Q 2444 2441 2289 2572 
Q 2134 2703 1888 2703 
Q 1559 2703 1364 2476 
Q 1169 2250 1169 1719 
Q 1169 1128 1367 884 
Q 1566 641 1900 641 
Q 2150 641 2309 783 
Q 2469 925 2534 1272 
L 3397 1125 
Q 3263 531 2881 228 
Q 2500 -75 1859 -75 
Q 1131 -75 698 384 
Q 266 844 266 1656 
Q 266 2478 700 2936 
Q 1134 3394 1875 3394 
Q 2481 3394 2839 3133 
Q 3197 2872 3353 2338 
z
" transform="scale(0.015625)"/>
      <path id="Arial-BoldMT-6f" d="M 256 1706 
Q 256 2144 472 2553 
Q 688 2963 1083 3178 
Q 1478 3394 1966 3394 
Q 2719 3394 3200 2905 
Q 3681 2416 3681 1669 
Q 3681 916 3195 420 
Q 2709 -75 1972 -75 
Q 1516 -75 1102 131 
Q 688 338 472 736 
Q 256 1134 256 1706 
z
M 1156 1659 
Q 1156 1166 1390 903 
Q 1625 641 1969 641 
Q 2313 641 2545 903 
Q 2778 1166 2778 1666 
Q 2778 2153 2545 2415 
Q 2313 2678 1969 2678 
Q 1625 2678 1390 2415 
Q 1156 2153 1156 1659 
z
" transform="scale(0.015625)"/>
      <path id="Arial-BoldMT-6e" d="M 3478 0 
L 2600 0 
L 2600 1694 
Q 2600 2231 2544 2389 
Q 2488 2547 2361 2634 
Q 2234 2722 2056 2722 
Q 1828 2722 1647 2597 
Q 1466 2472 1398 2265 
Q 1331 2059 1331 1503 
L 1331 0 
L 453 0 
L 453 3319 
L 1269 3319 
L 1269 2831 
Q 1703 3394 2363 3394 
Q 2653 3394 2893 3289 
Q 3134 3184 3257 3021 
Q 3381 2859 3429 2653 
Q 3478 2447 3478 2063 
L 3478 0 
z
" transform="scale(0.015625)"/>
     </defs>
     <use xlink:href="#Arial-BoldMT-41"/>
     <use xlink:href="#Arial-BoldMT-64" transform="translate(72.216797 0)"/>
     <use xlink:href="#Arial-BoldMT-6a" transform="translate(133.300781 0)"/>
     <use xlink:href="#Arial-BoldMT-75" transform="translate(161.083984 0)"/>
     <use xlink:href="#Arial-BoldMT-73" transform="translate(222.167969 0)"/>
     <use xlink:href="#Arial-BoldMT-74" transform="translate(277.783203 0)"/>
     <use xlink:href="#Arial-BoldMT-65" transform="translate(311.083984 0)"/>
     <use xlink:href="#Arial-BoldMT-64" transform="translate(366.699219 0)"/>
     <use xlink:href="#Arial-BoldMT-20" transform="translate(427.783203 0)"/>
     <use xlink:href="#Arial-BoldMT-50" transform="translate(455.566406 0)"/>
     <use xlink:href="#Arial-BoldMT-72" transform="translate(522.265625 0)"/>
     <use xlink:href="#Arial-BoldMT-65" transform="translate(561.181641 0)"/>
     <use xlink:href="#Arial-BoldMT-64" transform="translate(616.796875 0)"/>
     <use xlink:href="#Arial-BoldMT-69" transform="translate(677.880859 0)"/>
     <use xlink:href="#Arial-BoldMT-63" transform="translate(705.664062 0)"/>
     <use xlink:href="#Arial-BoldMT-74" transform="translate(761.279297 0)"/>
     <use xlink:href="#Arial-BoldMT-69" transform="translate(794.580078 0)"/>
     <use xlink:href="#Arial-BoldMT-6f" transform="translate(822.363281 0)"/>
     <use xlink:href="#Arial-BoldMT-6e" transform="translate(883.447266 0)"/>
    </g>
   </g>
   <g id="legend_1">
    <g id="patch_5">
     <path d="M 407.65375 104.793 
L 504.745 104.793 
Q 507.145 104.793 507.145 102.393 
L 507.145 35.343 
Q 507.145 32.943 504.745 32.943 
L 407.65375 32.943 
Q 405.25375 32.943 405.25375 35.343 
L 405.25375 102.393 
Q 405.25375 104.793 407.65375 104.793 
z
" style="fill: #ffffff; opacity: 0.8; stroke: #cccccc; stroke-linejoin: miter"/>
    </g>
    <g id="LineCollection_5">
     <path d="M 422.05375 48.132375 
L 422.05375 36.132375 
" style="fill: none; stroke: #0072bd; stroke-width: 2.5"/>
    </g>
    <g id="line2d_38">
     <g>
      <use xlink:href="#m5ebc8f4e50" x="422.05375" y="48.132375" style="fill: #0072bd; stroke: #0072bd; stroke-width: 2.5"/>
     </g>
    </g>
    <g id="line2d_39">
     <g>
      <use xlink:href="#m5ebc8f4e50" x="422.05375" y="36.132375" style="fill: #0072bd; stroke: #0072bd; stroke-width: 2.5"/>
     </g>
    </g>
    <g id="line2d_40">
     <path d="M 410.05375 42.132375 
L 434.05375 42.132375 
" style="fill: none; stroke: #0072bd; stroke-width: 2.5; stroke-linecap: square"/>
    </g>
    <g id="line2d_41">
     <g>
      <use xlink:href="#m7acaf773d0" x="422.05375" y="42.132375" style="fill: #0072bd; stroke: #0072bd"/>
     </g>
    </g>
    <g id="text_19">
     <!-- W1 Peak -->
     <g transform="translate(443.65375 46.332375) scale(0.12 -0.12)">
      <defs>
       <path id="ArialMT-57" d="M 1294 0 
L 78 4581 
L 700 4581 
L 1397 1578 
Q 1509 1106 1591 641 
Q 1766 1375 1797 1488 
L 2669 4581 
L 3400 4581 
L 4056 2263 
Q 4303 1400 4413 641 
Q 4500 1075 4641 1638 
L 5359 4581 
L 5969 4581 
L 4713 0 
L 4128 0 
L 3163 3491 
Q 3041 3928 3019 4028 
Q 2947 3713 2884 3491 
L 1913 0 
L 1294 0 
z
" transform="scale(0.015625)"/>
       <path id="ArialMT-50" d="M 494 0 
L 494 4581 
L 2222 4581 
Q 2678 4581 2919 4538 
Q 3256 4481 3484 4323 
Q 3713 4166 3852 3881 
Q 3991 3597 3991 3256 
Q 3991 2672 3619 2267 
Q 3247 1863 2275 1863 
L 1100 1863 
L 1100 0 
L 494 0 
z
M 1100 2403 
L 2284 2403 
Q 2872 2403 3119 2622 
Q 3366 2841 3366 3238 
Q 3366 3525 3220 3729 
Q 3075 3934 2838 4000 
Q 2684 4041 2272 4041 
L 1100 4041 
L 1100 2403 
z
" transform="scale(0.015625)"/>
       <path id="ArialMT-6b" d="M 425 0 
L 425 4581 
L 988 4581 
L 988 1969 
L 2319 3319 
L 3047 3319 
L 1778 2088 
L 3175 0 
L 2481 0 
L 1384 1697 
L 988 1316 
L 988 0 
L 425 0 
z
" transform="scale(0.015625)"/>
      </defs>
      <use xlink:href="#ArialMT-57"/>
      <use xlink:href="#ArialMT-31" transform="translate(94.384766 0)"/>
      <use xlink:href="#ArialMT-20" transform="translate(150 0)"/>
      <use xlink:href="#ArialMT-50" transform="translate(177.783203 0)"/>
      <use xlink:href="#ArialMT-65" transform="translate(244.482422 0)"/>
      <use xlink:href="#ArialMT-61" transform="translate(300.097656 0)"/>
      <use xlink:href="#ArialMT-6b" transform="translate(355.712891 0)"/>
     </g>
    </g>
    <g id="LineCollection_6">
     <path d="M 422.05375 65.142375 
L 422.05375 53.142375 
" style="fill: none; stroke: #d95319; stroke-width: 2.5"/>
    </g>
    <g id="line2d_42">
     <g>
      <use xlink:href="#m091bce7005" x="422.05375" y="65.142375" style="fill: #d95319; stroke: #d95319; stroke-width: 2.5"/>
     </g>
    </g>
    <g id="line2d_43">
     <g>
      <use xlink:href="#m091bce7005" x="422.05375" y="53.142375" style="fill: #d95319; stroke: #d95319; stroke-width: 2.5"/>
     </g>
    </g>
    <g id="line2d_44">
     <path d="M 410.05375 59.142375 
L 434.05375 59.142375 
" style="fill: none; stroke: #d95319; stroke-width: 2.5; stroke-linecap: square"/>
    </g>
    <g id="line2d_45">
     <g>
      <use xlink:href="#mb28c45f666" x="422.05375" y="59.142375" style="fill: #d95319; stroke: #d95319"/>
     </g>
    </g>
    <g id="text_20">
     <!-- W1 Trough -->
     <g transform="translate(443.65375 63.342375) scale(0.12 -0.12)">
      <defs>
       <path id="ArialMT-54" d="M 1659 0 
L 1659 4041 
L 150 4041 
L 150 4581 
L 3781 4581 
L 3781 4041 
L 2266 4041 
L 2266 0 
L 1659 0 
z
" transform="scale(0.015625)"/>
       <path id="ArialMT-67" d="M 319 -275 
L 866 -356 
Q 900 -609 1056 -725 
Q 1266 -881 1628 -881 
Q 2019 -881 2231 -725 
Q 2444 -569 2519 -288 
Q 2563 -116 2559 434 
Q 2191 0 1641 0 
Q 956 0 581 494 
Q 206 988 206 1678 
Q 206 2153 378 2554 
Q 550 2956 876 3175 
Q 1203 3394 1644 3394 
Q 2231 3394 2613 2919 
L 2613 3319 
L 3131 3319 
L 3131 450 
Q 3131 -325 2973 -648 
Q 2816 -972 2473 -1159 
Q 2131 -1347 1631 -1347 
Q 1038 -1347 672 -1080 
Q 306 -813 319 -275 
z
M 784 1719 
Q 784 1066 1043 766 
Q 1303 466 1694 466 
Q 2081 466 2343 764 
Q 2606 1063 2606 1700 
Q 2606 2309 2336 2618 
Q 2066 2928 1684 2928 
Q 1309 2928 1046 2623 
Q 784 2319 784 1719 
z
" transform="scale(0.015625)"/>
       <path id="ArialMT-68" d="M 422 0 
L 422 4581 
L 984 4581 
L 984 2938 
Q 1378 3394 1978 3394 
Q 2347 3394 2619 3248 
Q 2891 3103 3008 2847 
Q 3125 2591 3125 2103 
L 3125 0 
L 2563 0 
L 2563 2103 
Q 2563 2525 2380 2717 
Q 2197 2909 1863 2909 
Q 1613 2909 1392 2779 
Q 1172 2650 1078 2428 
Q 984 2206 984 1816 
L 984 0 
L 422 0 
z
" transform="scale(0.015625)"/>
      </defs>
      <use xlink:href="#ArialMT-57"/>
      <use xlink:href="#ArialMT-31" transform="translate(94.384766 0)"/>
      <use xlink:href="#ArialMT-20" transform="translate(150 0)"/>
      <use xlink:href="#ArialMT-54" transform="translate(176.033203 0)"/>
      <use xlink:href="#ArialMT-72" transform="translate(233.367188 0)"/>
      <use xlink:href="#ArialMT-6f" transform="translate(266.667969 0)"/>
      <use xlink:href="#ArialMT-75" transform="translate(322.283203 0)"/>
      <use xlink:href="#ArialMT-67" transform="translate(377.898438 0)"/>
      <use xlink:href="#ArialMT-68" transform="translate(433.513672 0)"/>
     </g>
    </g>
    <g id="LineCollection_7">
     <path d="M 422.05375 82.257375 
L 422.05375 70.257375 
" style="fill: none; stroke: #edb120; stroke-width: 2.5"/>
    </g>
    <g id="line2d_46">
     <g>
      <use xlink:href="#medfd381140" x="422.05375" y="82.257375" style="fill: #edb120; stroke: #edb120; stroke-width: 2.5"/>
     </g>
    </g>
    <g id="line2d_47">
     <g>
      <use xlink:href="#medfd381140" x="422.05375" y="70.257375" style="fill: #edb120; stroke: #edb120; stroke-width: 2.5"/>
     </g>
    </g>
    <g id="line2d_48">
     <path d="M 410.05375 76.257375 
L 434.05375 76.257375 
" style="fill: none; stroke: #edb120; stroke-width: 2.5; stroke-linecap: square"/>
    </g>
    <g id="line2d_49">
     <g>
      <use xlink:href="#mc3954ccc4d" x="422.05375" y="76.257375" style="fill: #edb120; stroke: #edb120"/>
     </g>
    </g>
    <g id="text_21">
     <!-- W3 Peak -->
     <g transform="translate(443.65375 80.457375) scale(0.12 -0.12)">
      <use xlink:href="#ArialMT-57"/>
      <use xlink:href="#ArialMT-33" transform="translate(94.384766 0)"/>
      <use xlink:href="#ArialMT-20" transform="translate(150 0)"/>
      <use xlink:href="#ArialMT-50" transform="translate(177.783203 0)"/>
      <use xlink:href="#ArialMT-65" transform="translate(244.482422 0)"/>
      <use xlink:href="#ArialMT-61" transform="translate(300.097656 0)"/>
      <use xlink:href="#ArialMT-6b" transform="translate(355.712891 0)"/>
     </g>
    </g>
    <g id="LineCollection_8">
     <path d="M 422.05375 99.267375 
L 422.05375 87.267375 
" style="fill: none; stroke: #7e2f8e; stroke-width: 2.5"/>
    </g>
    <g id="line2d_50">
     <g>
      <use xlink:href="#m74f68d997f" x="422.05375" y="99.267375" style="fill: #7e2f8e; stroke: #7e2f8e; stroke-width: 2.5"/>
     </g>
    </g>
    <g id="line2d_51">
     <g>
      <use xlink:href="#m74f68d997f" x="422.05375" y="87.267375" style="fill: #7e2f8e; stroke: #7e2f8e; stroke-width: 2.5"/>
     </g>
    </g>
    <g id="line2d_52">
     <path d="M 410.05375 93.267375 
L 434.05375 93.267375 
" style="fill: none; stroke: #7e2f8e; stroke-width: 2.5; stroke-linecap: square"/>
    </g>
    <g id="line2d_53">
     <g>
      <use xlink:href="#m2415ec96b7" x="422.05375" y="93.267375" style="fill: #7e2f8e; stroke: #7e2f8e"/>
     </g>
    </g>
    <g id="text_22">
     <!-- W3 Trough -->
     <g transform="translate(443.65375 97.467375) scale(0.12 -0.12)">
      <use xlink:href="#ArialMT-57"/>
      <use xlink:href="#ArialMT-33" transform="translate(94.384766 0)"/>
      <use xlink:href="#ArialMT-20" transform="translate(150 0)"/>
      <use xlink:href="#ArialMT-54" transform="translate(176.033203 0)"/>
      <use xlink:href="#ArialMT-72" transform="translate(233.367188 0)"/>
      <use xlink:href="#ArialMT-6f" transform="translate(266.667969 0)"/>
      <use xlink:href="#ArialMT-75" transform="translate(322.283203 0)"/>
      <use xlink:href="#ArialMT-67" transform="translate(377.898438 0)"/>
      <use xlink:href="#ArialMT-68" transform="translate(433.513672 0)"/>
     </g>
    </g>
   </g>
  </g>
 </g>
 <defs>
  <clipPath id="pf4d70e59e2">
   <rect x="55.455" y="26.943" width="457.69" height="229.94"/>
  </clipPath>
 </defs>
</svg>
